M48
; DRILL file {KiCad (5.1.10)-1} date 03/05/22 23:43:05
; FORMAT={-:-/ absolute / inch / decimal}
; #@! TF.CreationDate,2022-03-05T23:43:05-05:00
; #@! TF.GenerationSoftware,Kicad,Pcbnew,(5.1.10)-1
; #@! TF.FileFunction,Plated,1,2,PTH
FMAT,2
INCH
T1C0.0157
T2C0.0276
T3C0.0591
%
G90
G05
T1
X0.7283Y-2.6575
X0.7382Y-5.7185
X0.7776Y-5.689
X0.8071Y-2.0374
X0.9449Y-3.4055
X0.9449Y-5.6496
X1.0138Y-4.1634
X1.0433Y-2.6772
X1.063Y-5.6496
X1.1811Y-3.4154
X1.2992Y-4.1732
X1.3091Y-4.9114
X1.4862Y-4.9213
X1.565Y-2.0669
X1.6732Y-2.6772
X1.9291Y-4.7146
X1.939Y-5.6693
X1.9783Y-4.4193
X1.9783Y-4.7835
X2.0472Y-4.7146
X2.0571Y-3.4154
X2.0768Y-4.8819
X2.2244Y-4.1732
X2.3031Y-2.0955
X2.3524Y-4.7638
X2.4114Y-2.6772
X2.6083Y-4.9213
X2.7953Y-3.4154
X2.8839Y-5.6693
X2.9724Y-4.1732
X3.1102Y-2.124
X3.1496Y-2.6772
X3.3465Y-4.9213
X3.5335Y-3.4154
X3.7205Y-4.1732
X3.7303Y-2.1161
X3.9075Y-2.6772
X4.0846Y-4.9213
X4.2913Y-3.4154
X4.4488Y-2.1161
X4.4685Y-4.1732
X4.6654Y-2.6772
X4.8524Y-4.9213
X5.0Y-5.5709
X5.0295Y-3.4154
X5.2264Y-4.1732
X5.3445Y-5.0
X5.3445Y-5.1575
X5.4134Y-2.6772
X5.4232Y-3.061
X5.4626Y-3.0118
X5.4921Y-2.9724
X5.561Y-2.0374
X5.5807Y-4.2126
X5.5906Y-2.7057
X5.6004Y-1.998
X5.6004Y-4.1043
X5.6004Y-4.9213
X5.6299Y-4.2913
X5.6398Y-1.9587
X5.6594Y-2.7067
X5.6594Y-4.252
X5.6791Y-1.9193
X5.689Y-4.2126
X5.689Y-5.6693
X5.6988Y-2.7461
X5.7185Y-1.8799
X5.748Y-2.7854
X5.7579Y-1.8406
X5.7874Y-2.7461
X5.7874Y-3.4154
X5.8169Y-2.7067
X5.8465Y-4.3602
X5.8858Y-5.0197
X5.8957Y-4.3209
X5.935Y-4.2815
X5.9449Y-5.0197
X5.9449Y-5.2461
X5.9744Y-4.1732
X5.9941Y-5.2461
X6.0039Y-5.0197
X6.0531Y-5.2461
X6.0728Y-5.0197
X6.1024Y-5.2461
X6.1516Y-5.2451
X6.1614Y-3.0413
X6.1713Y-2.6772
X6.1713Y-5.0197
X6.2008Y-2.9724
X6.2008Y-5.2451
X6.2303Y-2.9331
X6.2402Y-5.0197
X6.25Y-5.2451
X6.2795Y-5.561
X6.2894Y-5.2461
X6.3091Y-5.0197
X6.3484Y-4.9213
X6.3583Y-5.0295
X6.4075Y-2.7057
X6.4375Y-5.2662
X6.4469Y-2.7067
X6.4764Y-2.6378
X6.4764Y-5.2756
X6.4862Y-2.0374
X6.4961Y-2.0768
X6.4961Y-2.7461
X6.5137Y-5.288
X6.5256Y-2.628
X6.5354Y-2.7362
X6.5354Y-3.4154
X6.5354Y-4.1043
X6.5423Y-5.3187
X6.5551Y-4.2126
X6.5708Y-5.2854
X6.5748Y-2.6181
X6.5846Y-2.0768
X6.5846Y-2.7264
X6.6142Y-1.998
X6.6142Y-4.9498
X6.6142Y-5.2756
X6.6464Y-4.9724
X6.6535Y-5.2657
X6.6929Y-2.0768
X6.6929Y-5.0
X6.7224Y-4.9508
X6.7323Y-4.1732
X6.752Y-1.9587
X6.8012Y-3.061
X6.8406Y-3.061
X6.8583Y-5.5984
X6.8701Y-2.0768
X6.8799Y-3.061
X6.8898Y-1.9193
X6.8996Y-5.2165
X6.9193Y-2.6772
X6.9193Y-3.061
X6.9291Y-4.9498
X6.9291Y-5.187
X6.939Y-5.1083
X6.939Y-5.1476
X6.9434Y-5.0581
X6.9587Y-3.061
X7.0472Y-1.8799
X7.0965Y-4.9213
X7.1752Y-2.7067
X7.1949Y-1.8406
X7.2146Y-2.7067
X7.2835Y-3.4154
X7.3228Y-5.1476
X7.4213Y-4.2815
X7.4409Y-5.0591
X7.4409Y-5.1083
X7.4606Y-4.9498
X7.4803Y-4.1732
X7.5098Y-4.9508
X7.5492Y-3.061
X7.5492Y-4.7539
X7.5787Y-4.9508
X7.5886Y-3.061
X7.6181Y-2.1063
X7.6673Y-2.6772
X7.8543Y-4.9213
X8.0315Y-3.4154
X8.2185Y-4.1732
X8.3366Y-2.0965
X8.4252Y-2.6772
X8.5138Y-5.6693
X8.6024Y-4.9213
X8.7894Y-3.4154
X8.9567Y-4.1732
X9.0157Y-2.0866
X9.1732Y-2.6772
X9.3504Y-4.9213
X9.4488Y-5.6693
X9.5472Y-3.4154
X9.7146Y-4.1732
X9.7539Y-2.0669
X9.9114Y-2.6772
X10.2953Y-3.4154
X10.374Y-5.6693
X10.7579Y-4.9213
X10.8858Y-2.0571
X10.9449Y-4.1732
X11.0531Y-2.6772
X11.2402Y-3.4154
X11.3189Y-5.6693
T2
X0.7618Y-2.5394
X0.8474Y-5.5413
X0.939Y-3.2874
X1.0374Y-4.0354
X1.0689Y-2.5394
X1.1545Y-5.5413
X1.2264Y-4.7933
X1.2461Y-3.2874
X1.3445Y-4.0354
X1.5197Y-2.5394
X1.5335Y-4.7933
X1.7854Y-5.5413
X1.8268Y-2.5394
X1.8839Y-3.2874
X2.0728Y-4.0354
X2.0925Y-5.5413
X2.1909Y-3.2874
X2.2579Y-2.5394
X2.3799Y-4.0354
X2.4547Y-4.7835
X2.565Y-2.5394
X2.6388Y-3.2874
X2.7303Y-5.5315
X2.7618Y-4.7835
X2.8189Y-4.0354
X2.9459Y-3.2874
X3.0059Y-2.5394
X3.0374Y-5.5315
X3.126Y-4.0354
X3.1929Y-4.7835
X3.313Y-2.5394
X3.3799Y-3.2874
X3.5Y-4.7835
X3.5669Y-4.0354
X3.687Y-3.2874
X3.7638Y-2.5394
X3.874Y-4.0354
X3.9409Y-4.7835
X4.0709Y-2.5394
X4.1348Y-3.2874
X4.248Y-4.7835
X4.3219Y-4.0354
X4.4419Y-3.2874
X4.5118Y-2.5394
X4.6289Y-4.0354
X4.6988Y-4.7835
X4.8189Y-2.5394
X4.876Y-3.2874
X5.0059Y-4.7835
X5.0669Y-4.0354
X5.1831Y-3.2874
X5.2598Y-2.5394
X5.374Y-4.0354
X5.4469Y-4.7835
X5.5354Y-5.5315
X5.5669Y-2.5394
X5.6339Y-3.2874
X5.7539Y-4.7835
X5.8209Y-4.0354
X5.8425Y-5.5315
X5.9409Y-3.2874
X6.0177Y-2.5394
X6.128Y-4.0354
X6.1949Y-4.7835
X6.3248Y-2.5394
X6.3917Y-3.2874
X6.502Y-4.7835
X6.5787Y-4.0354
X6.6988Y-3.2874
X6.7559Y-2.5394
X6.8858Y-4.0354
X6.9528Y-4.7835
X7.063Y-2.5394
X7.1299Y-3.2874
X7.2598Y-4.7835
X7.3268Y-4.0354
X7.437Y-3.2874
X7.5138Y-2.5394
X7.6339Y-4.0354
X7.6988Y-4.7835
X7.8209Y-2.5394
X7.878Y-3.2874
X8.0059Y-4.7835
X8.065Y-4.0354
X8.185Y-3.2874
X8.2618Y-2.5394
X8.3504Y-5.5315
X8.372Y-4.0354
X8.4488Y-4.7835
X8.5689Y-2.5394
X8.6329Y-3.2874
X8.6575Y-5.5315
X8.7559Y-4.7835
X8.81Y-4.0354
X8.94Y-3.2874
X9.0098Y-2.5394
X9.1171Y-4.0354
X9.1969Y-4.7835
X9.2953Y-5.5315
X9.3169Y-2.5394
X9.3809Y-3.2874
X9.5039Y-4.7835
X9.5679Y-4.0354
X9.6024Y-5.5315
X9.688Y-3.2874
X9.7579Y-2.5394
X9.875Y-4.0354
X10.065Y-2.5394
X10.1319Y-3.2874
X10.2303Y-5.5315
X10.439Y-3.2874
X10.5374Y-5.5315
X10.6043Y-4.7835
X10.7913Y-4.0354
X10.8898Y-2.5394
X10.9114Y-4.7835
X11.0768Y-3.2874
X11.0984Y-4.0354
X11.1654Y-5.5315
X11.1969Y-2.5394
X11.3839Y-3.2874
X11.4724Y-5.5315
T2
G00X1.1555Y-2.1004
M15
G01X1.1555Y-2.1988
M16
G05
G00X1.4429Y-2.1004
M15
G01X1.4429Y-2.1988
M16
G05
T3
G00X0.8078Y-2.1967
M15
G01X0.7602Y-2.2714
M16
G05
G00X0.9006Y-5.196
M15
G01X0.853Y-5.2707
M16
G05
G00X0.9945Y-2.9464
M15
G01X0.9469Y-3.0211
M16
G05
G00X1.0121Y-2.1726
M15
G01X1.0105Y-2.1954
M16
G05
G00X1.0882Y-3.6963
M15
G01X1.0406Y-3.7711
M16
G05
G00X1.105Y-5.1719
M15
G01X1.1034Y-5.1947
M16
G05
G00X1.1989Y-2.9224
M15
G01X1.1973Y-2.9451
M16
G05
G00X1.2763Y-4.4465
M15
G01X1.2287Y-4.5212
M16
G05
G00X1.2925Y-3.6723
M15
G01X1.291Y-3.6951
M16
G05
G00X1.4806Y-4.4225
M15
G01X1.4791Y-4.4453
M16
G05
G00X1.5686Y-2.1969
M15
G01X1.521Y-2.2716
M16
G05
G00X1.773Y-2.1728
M15
G01X1.7714Y-2.1956
M16
G05
G00X1.8392Y-5.196
M15
G01X1.7916Y-5.2707
M16
G05
G00X1.9318Y-2.9469
M15
G01X1.8842Y-3.0217
M16
G05
G00X2.0435Y-5.172
M15
G01X2.042Y-5.1948
M16
G05
G00X2.1195Y-3.6971
M15
G01X2.0719Y-3.7719
M16
G05
G00X2.1361Y-2.9229
M15
G01X2.1346Y-2.9457
M16
G05
G00X2.3069Y-2.1969
M15
G01X2.2593Y-2.2716
M16
G05
G00X2.3239Y-3.6731
M15
G01X2.3223Y-3.6959
M16
G05
G00X2.4951Y-4.4467
M15
G01X2.4475Y-4.5214
M16
G05
G00X2.5112Y-2.1729
M15
G01X2.5097Y-2.1956
M16
G05
G00X2.683Y-2.9469
M15
G01X2.6354Y-3.0217
M16
G05
G00X2.6995Y-4.4227
M15
G01X2.6979Y-4.4455
M16
G05
G00X2.7761Y-5.1966
M15
G01X2.7285Y-5.2713
M16
G05
G00X2.8699Y-3.6967
M15
G01X2.8223Y-3.7714
M16
G05
G00X2.8873Y-2.9229
M15
G01X2.8857Y-2.9457
M16
G05
G00X2.9804Y-5.1725
M15
G01X2.9789Y-5.1953
M16
G05
G00X3.0573Y-2.1965
M15
G01X3.0097Y-2.2712
M16
G05
G00X3.0742Y-3.6727
M15
G01X3.0726Y-3.6955
M16
G05
G00X3.2452Y-4.4462
M15
G01X3.1976Y-4.5209
M16
G05
G00X3.2617Y-2.1724
M15
G01X3.2601Y-2.1952
M16
G05
G00X3.4323Y-2.9468
M15
G01X3.3847Y-3.0215
M16
G05
G00X3.4495Y-4.4222
M15
G01X3.448Y-4.4449
M16
G05
G00X3.6197Y-3.6972
M15
G01X3.5721Y-3.7719
M16
G05
G00X3.6367Y-2.9228
M15
G01X3.6351Y-2.9456
M16
G05
G00X3.8068Y-2.1974
M15
G01X3.7592Y-2.2721
M16
G05
G00X3.824Y-3.6732
M15
G01X3.8225Y-3.6959
M16
G05
G00X3.995Y-4.4463
M15
G01X3.9474Y-4.521
M16
G05
G00X4.0112Y-2.1734
M15
G01X4.0096Y-2.1962
M16
G05
G00X4.1829Y-2.9465
M15
G01X4.1353Y-3.0213
M16
G05
G00X4.1993Y-4.4223
M15
G01X4.1977Y-4.4451
M16
G05
G00X4.3695Y-3.6966
M15
G01X4.3219Y-3.7713
M16
G05
G00X4.3872Y-2.9225
M15
G01X4.3857Y-2.9453
M16
G05
G00X4.5575Y-2.1964
M15
G01X4.5099Y-2.2711
M16
G05
G00X4.5738Y-3.6725
M15
G01X4.5722Y-3.6953
M16
G05
G00X4.7447Y-4.4461
M15
G01X4.6971Y-4.5208
M16
G05
G00X4.7618Y-2.1724
M15
G01X4.7603Y-2.1952
M16
G05
G00X4.9328Y-2.9464
M15
G01X4.8852Y-3.0211
M16
G05
G00X4.9491Y-4.422
M15
G01X4.9475Y-4.4448
M16
G05
G00X5.1196Y-3.6962
M15
G01X5.072Y-3.7709
M16
G05
G00X5.1372Y-2.9224
M15
G01X5.1356Y-2.9452
M16
G05
G00X5.3074Y-2.1964
M15
G01X5.2598Y-2.2711
M16
G05
G00X5.3239Y-3.6722
M15
G01X5.3224Y-3.695
M16
G05
G00X5.4951Y-4.4466
M15
G01X5.4475Y-4.5213
M16
G05
G00X5.5118Y-2.1724
M15
G01X5.5102Y-2.1952
M16
G05
G00X5.5883Y-5.1966
M15
G01X5.5407Y-5.2713
M16
G05
G00X5.682Y-2.9466
M15
G01X5.6344Y-3.0213
M16
G05
G00X5.6994Y-4.4226
M15
G01X5.6979Y-4.4454
M16
G05
G00X5.7926Y-5.1726
M15
G01X5.7911Y-5.1954
M16
G05
G00X5.8698Y-3.6965
M15
G01X5.8222Y-3.7712
M16
G05
G00X5.8864Y-2.9226
M15
G01X5.8848Y-2.9454
M16
G05
G00X6.0571Y-2.1965
M15
G01X6.0095Y-2.2712
M16
G05
G00X6.0741Y-3.6724
M15
G01X6.0726Y-3.6952
M16
G05
G00X6.2452Y-4.4461
M15
G01X6.1976Y-4.5208
M16
G05
G00X6.2614Y-2.1724
M15
G01X6.2598Y-2.1952
M16
G05
G00X6.4326Y-2.9462
M15
G01X6.385Y-3.0209
M16
G05
G00X6.4496Y-4.422
M15
G01X6.448Y-4.4448
M16
G05
G00X6.6198Y-3.6965
M15
G01X6.5722Y-3.7712
M16
G05
G00X6.6369Y-2.9222
M15
G01X6.6354Y-2.945
M16
G05
G00X6.8072Y-2.1969
M15
G01X6.7596Y-2.2716
M16
G05
G00X6.8242Y-3.6724
M15
G01X6.8226Y-3.6952
M16
G05
G00X6.9948Y-4.4466
M15
G01X6.9472Y-4.5213
M16
G05
G00X7.0115Y-2.1729
M15
G01X7.01Y-2.1956
M16
G05
G00X7.1827Y-2.9469
M15
G01X7.1351Y-3.0216
M16
G05
G00X7.1991Y-4.4226
M15
G01X7.1976Y-4.4454
M16
G05
G00X7.3699Y-3.6956
M15
G01X7.3223Y-3.7703
M16
G05
G00X7.387Y-2.9228
M15
G01X7.3855Y-2.9456
M16
G05
G00X7.5571Y-2.1966
M15
G01X7.5095Y-2.2713
M16
G05
G00X7.5742Y-3.6716
M15
G01X7.5727Y-3.6944
M16
G05
G00X7.7453Y-4.4468
M15
G01X7.6977Y-4.5215
M16
G05
G00X7.7614Y-2.1725
M15
G01X7.7599Y-2.1953
M16
G05
G00X7.9326Y-2.9466
M15
G01X7.885Y-3.0214
M16
G05
G00X7.9496Y-4.4227
M15
G01X7.9481Y-4.4455
M16
G05
G00X8.1201Y-3.6964
M15
G01X8.0725Y-3.7711
M16
G05
G00X8.1369Y-2.9226
M15
G01X8.1354Y-2.9454
M16
G05
G00X8.3069Y-2.1964
M15
G01X8.2593Y-2.2712
M16
G05
G00X8.3244Y-3.6724
M15
G01X8.3229Y-3.6951
M16
G05
G00X8.4015Y-5.1967
M15
G01X8.3539Y-5.2715
M16
G05
G00X8.4944Y-4.4467
M15
G01X8.4468Y-4.5214
M16
G05
G00X8.5113Y-2.1724
M15
G01X8.5097Y-2.1952
M16
G05
G00X8.6058Y-5.1727
M15
G01X8.6043Y-5.1955
M16
G05
G00X8.6823Y-2.9466
M15
G01X8.6347Y-3.0213
M16
G05
G00X8.6987Y-4.4227
M15
G01X8.6972Y-4.4455
M16
G05
G00X8.8696Y-3.6968
M15
G01X8.822Y-3.7715
M16
G05
G00X8.8867Y-2.9226
M15
G01X8.8851Y-2.9453
M16
G05
G00X9.0561Y-2.1963
M15
G01X9.0085Y-2.271
M16
G05
G00X9.074Y-3.6727
M15
G01X9.0724Y-3.6955
M16
G05
G00X9.2447Y-4.4465
M15
G01X9.1971Y-4.5212
M16
G05
G00X9.2604Y-2.1723
M15
G01X9.2589Y-2.1951
M16
G05
G00X9.3383Y-5.1965
M15
G01X9.2907Y-5.2712
M16
G05
G00X9.4318Y-2.9467
M15
G01X9.3842Y-3.0215
M16
G05
G00X9.449Y-4.4225
M15
G01X9.4475Y-4.4453
M16
G05
G00X9.5426Y-5.1725
M15
G01X9.5411Y-5.1953
M16
G05
G00X9.6197Y-3.6969
M15
G01X9.5721Y-3.7716
M16
G05
G00X9.6361Y-2.9227
M15
G01X9.6346Y-2.9455
M16
G05
G00X9.807Y-2.197
M15
G01X9.7594Y-2.2717
M16
G05
G00X9.824Y-3.6729
M15
G01X9.8225Y-3.6956
M16
G05
G00X10.0114Y-2.173
M15
G01X10.0098Y-2.1957
M16
G05
G00X10.1817Y-2.9464
M15
G01X10.1341Y-3.0211
M16
G05
G00X10.2759Y-5.1966
M15
G01X10.2283Y-5.2713
M16
G05
G00X10.3861Y-2.9224
M15
G01X10.3845Y-2.9452
M16
G05
G00X10.4802Y-5.1725
M15
G01X10.4787Y-5.1953
M16
G05
G00X10.6505Y-4.4466
M15
G01X10.6029Y-4.5213
M16
G05
G00X10.8385Y-3.6965
M15
G01X10.7909Y-3.7712
M16
G05
G00X10.8548Y-4.4225
M15
G01X10.8533Y-4.4453
M16
G05
G00X10.9324Y-2.1964
M15
G01X10.8848Y-2.2711
M16
G05
G00X11.0429Y-3.6724
M15
G01X11.0413Y-3.6952
M16
G05
G00X11.1197Y-2.9472
M15
G01X11.0721Y-3.0219
M16
G05
G00X11.1367Y-2.1723
M15
G01X11.1352Y-2.1951
M16
G05
G00X11.2129Y-5.196
M15
G01X11.1653Y-5.2707
M16
G05
G00X11.324Y-2.9231
M15
G01X11.3225Y-2.9459
M16
G05
G00X11.4172Y-5.1719
M15
G01X11.4157Y-5.1947
M16
G05
T0
M30
