M48
; DRILL file {KiCad (5.1.10)-1} date 03/05/22 23:43:05
; FORMAT={-:-/ absolute / inch / decimal}
; #@! TF.CreationDate,2022-03-05T23:43:05-05:00
; #@! TF.GenerationSoftware,Kicad,Pcbnew,(5.1.10)-1
; #@! TF.FileFunction,NonPlated,1,2,NPTH
FMAT,2
INCH
T1C0.0670
T2C0.1200
T3C0.1570
%
G90
G05
T1
X0.7121Y-2.3726
X0.805Y-5.3719
X0.8989Y-3.1223
X0.9925Y-3.8723
X1.1121Y-2.3726
X1.1806Y-4.6225
X1.205Y-5.3719
X1.2989Y-3.1223
X1.3925Y-3.8723
X1.473Y-2.3728
X1.5806Y-4.6225
X1.7435Y-5.372
X1.8362Y-3.1229
X1.873Y-2.3728
X2.0239Y-3.8731
X2.1435Y-5.372
X2.2112Y-2.3728
X2.2362Y-3.1229
X2.3995Y-4.6226
X2.4239Y-3.8731
X2.5873Y-3.1229
X2.6112Y-2.3728
X2.6804Y-5.3725
X2.7742Y-3.8726
X2.7995Y-4.6226
X2.9617Y-2.3724
X2.9873Y-3.1229
X3.0804Y-5.3725
X3.1495Y-4.6221
X3.1742Y-3.8726
X3.3367Y-3.1228
X3.3617Y-2.3724
X3.524Y-3.8731
X3.5495Y-4.6221
X3.7112Y-2.3734
X3.7367Y-3.1228
X3.8993Y-4.6223
X3.924Y-3.8731
X4.0872Y-3.1225
X4.1112Y-2.3734
X4.2738Y-3.8725
X4.2993Y-4.6223
X4.4618Y-2.3724
X4.4872Y-3.1225
X4.6491Y-4.622
X4.6738Y-3.8725
X4.8372Y-3.1223
X4.8618Y-2.3724
X5.0239Y-3.8722
X5.0491Y-4.622
X5.2118Y-2.3724
X5.2372Y-3.1223
X5.3994Y-4.6225
X5.4239Y-3.8722
X5.4926Y-5.3726
X5.5864Y-3.1226
X5.6118Y-2.3724
X5.7741Y-3.8724
X5.7994Y-4.6225
X5.8926Y-5.3726
X5.9614Y-2.3724
X5.9864Y-3.1226
X6.1496Y-4.622
X6.1741Y-3.8724
X6.3369Y-3.1221
X6.3614Y-2.3724
X6.5242Y-3.8724
X6.5496Y-4.622
X6.7115Y-2.3728
X6.7369Y-3.1221
X6.8992Y-4.6226
X6.9242Y-3.8724
X7.087Y-3.1228
X7.1115Y-2.3728
X7.2742Y-3.8715
X7.2992Y-4.6226
X7.4615Y-2.3725
X7.487Y-3.1228
X7.6496Y-4.6227
X7.6742Y-3.8715
X7.837Y-3.1226
X7.8615Y-2.3725
X8.0244Y-3.8723
X8.0496Y-4.6227
X8.2113Y-2.3724
X8.237Y-3.1226
X8.3059Y-5.3727
X8.3987Y-4.6227
X8.4244Y-3.8723
X8.5867Y-3.1225
X8.6113Y-2.3724
X8.7059Y-5.3727
X8.774Y-3.8727
X8.7987Y-4.6227
X8.9605Y-2.3723
X8.9867Y-3.1225
X9.149Y-4.6224
X9.174Y-3.8727
X9.2426Y-5.3725
X9.3361Y-3.1227
X9.3605Y-2.3723
X9.524Y-3.8728
X9.549Y-4.6224
X9.6426Y-5.3725
X9.7114Y-2.3729
X9.7361Y-3.1227
X9.924Y-3.8728
X10.0861Y-3.1224
X10.1114Y-2.3729
X10.1802Y-5.3725
X10.4861Y-3.1224
X10.5548Y-4.6225
X10.5802Y-5.3725
X10.7429Y-3.8724
X10.8367Y-2.3723
X10.9548Y-4.6225
X11.024Y-3.1231
X11.1172Y-5.3719
X11.1429Y-3.8724
X11.2367Y-2.3723
X11.424Y-3.1231
X11.5172Y-5.3719
T2
X0.9106Y-4.3475
X1.8506Y-4.3475
X3.7226Y-5.0976
X7.6626Y-5.0976
X10.2848Y-4.3475
X10.4729Y-3.5974
X10.5667Y-2.0973
X11.2248Y-4.3475
X11.4129Y-3.5974
X11.5067Y-2.0973
T3
X0.9106Y-4.9475
X0.9121Y-2.3726
X1.005Y-5.3719
X1.0989Y-3.1223
X1.1925Y-3.8723
X1.3806Y-4.6225
X1.673Y-2.3728
X1.8506Y-4.9475
X1.9435Y-5.372
X2.0362Y-3.1229
X2.2239Y-3.8731
X2.4112Y-2.3728
X2.5995Y-4.6226
X2.7873Y-3.1229
X2.8804Y-5.3725
X2.9742Y-3.8726
X3.1617Y-2.3724
X3.3495Y-4.6221
X3.5367Y-3.1228
X3.7226Y-5.6976
X3.724Y-3.8731
X3.9112Y-2.3734
X4.0993Y-4.6223
X4.2872Y-3.1225
X4.4738Y-3.8725
X4.6618Y-2.3724
X4.8491Y-4.622
X5.0372Y-3.1223
X5.2239Y-3.8722
X5.4118Y-2.3724
X5.5994Y-4.6225
X5.6926Y-5.3726
X5.7864Y-3.1226
X5.9741Y-3.8724
X6.1614Y-2.3724
X6.3496Y-4.622
X6.5369Y-3.1221
X6.7242Y-3.8724
X6.9115Y-2.3728
X7.0992Y-4.6226
X7.287Y-3.1228
X7.4742Y-3.8715
X7.6615Y-2.3725
X7.6626Y-5.6976
X7.8496Y-4.6227
X8.037Y-3.1226
X8.2244Y-3.8723
X8.4113Y-2.3724
X8.5059Y-5.3727
X8.5987Y-4.6227
X8.7867Y-3.1225
X8.974Y-3.8727
X9.1605Y-2.3723
X9.349Y-4.6224
X9.4426Y-5.3725
X9.5361Y-3.1227
X9.724Y-3.8728
X9.9114Y-2.3729
X10.2848Y-4.9475
X10.2861Y-3.1224
X10.3802Y-5.3725
X10.4729Y-4.1974
X10.5667Y-2.6973
X10.7548Y-4.6225
X10.9429Y-3.8724
X11.0367Y-2.3723
X11.224Y-3.1231
X11.2248Y-4.9475
X11.3172Y-5.3719
X11.4129Y-4.1974
X11.5067Y-2.6973
T0
M30
