%TF.GenerationSoftware,KiCad,Pcbnew,(5.1.10)-1*%
%TF.CreationDate,2022-03-05T23:42:07-05:00*%
%TF.ProjectId,Keebrov2,4b656562-726f-4763-922e-6b696361645f,rev?*%
%TF.SameCoordinates,Original*%
%TF.FileFunction,Profile,NP*%
%FSLAX46Y46*%
G04 Gerber Fmt 4.6, Leading zero omitted, Abs format (unit mm)*
G04 Created by KiCad (PCBNEW (5.1.10)-1) date 2022-03-05 23:42:07*
%MOMM*%
%LPD*%
G01*
G04 APERTURE LIST*
%TA.AperFunction,Profile*%
%ADD10C,0.050000*%
%TD*%
G04 APERTURE END LIST*
D10*
X226750000Y-50750000D02*
X296750000Y-50750000D01*
X16250000Y-50750000D02*
X86250000Y-50750000D01*
X226750000Y-50750000D02*
X223750000Y-45750000D01*
X86250000Y-50750000D02*
X89250000Y-45750000D01*
X223750000Y-45750000D02*
X89250000Y-45750000D01*
X226750000Y-146000000D02*
X296750000Y-146000000D01*
X86250000Y-146000000D02*
X16250000Y-146000000D01*
X223750000Y-151000000D02*
X89250000Y-151000000D01*
X226750000Y-146000000D02*
X223750000Y-151000000D01*
X86250000Y-146000000D02*
X89250000Y-151000000D01*
X13750000Y-110750000D02*
X13750000Y-143500000D01*
X13750000Y-53250000D02*
X13750000Y-85500000D01*
X299250000Y-110750000D02*
X299250000Y-143500000D01*
X299250000Y-53250000D02*
X299250000Y-85500000D01*
X16250000Y-146000000D02*
X13750000Y-143500000D01*
X13750000Y-53250000D02*
X16250000Y-50750000D01*
X299250000Y-53250000D02*
X296750000Y-50750000D01*
X296750000Y-146000000D02*
X299250000Y-143500000D01*
X13750000Y-85500000D02*
X18000000Y-90500000D01*
X18000000Y-106250000D02*
X13750000Y-110750000D01*
X18000000Y-90500000D02*
X18000000Y-106250000D01*
X295000000Y-106250000D02*
X299250000Y-110750000D01*
X295000000Y-90500000D02*
X295000000Y-106250000D01*
X299250000Y-85500000D02*
X295000000Y-90500000D01*
M02*
