%TF.GenerationSoftware,KiCad,Pcbnew,(5.1.10)-1*%
%TF.CreationDate,2022-03-05T23:42:07-05:00*%
%TF.ProjectId,Keebrov2,4b656562-726f-4763-922e-6b696361645f,rev?*%
%TF.SameCoordinates,Original*%
%TF.FileFunction,Legend,Bot*%
%TF.FilePolarity,Positive*%
%FSLAX46Y46*%
G04 Gerber Fmt 4.6, Leading zero omitted, Abs format (unit mm)*
G04 Created by KiCad (PCBNEW (5.1.10)-1) date 2022-03-05 23:42:07*
%MOMM*%
%LPD*%
G01*
G04 APERTURE LIST*
%ADD10C,0.120000*%
%ADD11C,0.150000*%
%ADD12C,0.200000*%
G04 APERTURE END LIST*
D10*
%TO.C,X1*%
X180314062Y-132281374D02*
X183333703Y-136758177D01*
X176666297Y-134741823D02*
X180314062Y-132281374D01*
D11*
%TO.C,U1*%
X161575000Y-131325000D02*
X162150000Y-131325000D01*
X161575000Y-141675000D02*
X162250000Y-141675000D01*
X171925000Y-141675000D02*
X171250000Y-141675000D01*
X171925000Y-131325000D02*
X171250000Y-131325000D01*
X161575000Y-131325000D02*
X161575000Y-132000000D01*
X171925000Y-131325000D02*
X171925000Y-132000000D01*
X171925000Y-141675000D02*
X171925000Y-141000000D01*
X161575000Y-141675000D02*
X161575000Y-141000000D01*
X162150000Y-131325000D02*
X162150000Y-130050000D01*
D10*
%TO.C,SW1*%
X191950000Y-137550000D02*
X191500000Y-138000000D01*
X188550000Y-137550000D02*
X189000000Y-138000000D01*
X188550000Y-132950000D02*
X189000000Y-132500000D01*
X191950000Y-132950000D02*
X191500000Y-132500000D01*
X187500000Y-134250000D02*
X187500000Y-136250000D01*
X191500000Y-138000000D02*
X189000000Y-138000000D01*
X193000000Y-134250000D02*
X193000000Y-136250000D01*
X191500000Y-132500000D02*
X189000000Y-132500000D01*
%TO.C,R4*%
X39727064Y-75265000D02*
X39272936Y-75265000D01*
X39727064Y-76735000D02*
X39272936Y-76735000D01*
%TO.C,R3*%
X39727064Y-78265000D02*
X39272936Y-78265000D01*
X39727064Y-79735000D02*
X39272936Y-79735000D01*
%TO.C,R2*%
X155772936Y-142985000D02*
X156227064Y-142985000D01*
X155772936Y-141515000D02*
X156227064Y-141515000D01*
%TO.C,R1*%
X173477064Y-125765000D02*
X173022936Y-125765000D01*
X173477064Y-127235000D02*
X173022936Y-127235000D01*
D12*
%TO.C,J1*%
X36850000Y-57400000D02*
X36850000Y-50900000D01*
X29150000Y-57400000D02*
X29150000Y-50900000D01*
X29150000Y-57400000D02*
X36850000Y-57400000D01*
%TO.C,D61*%
X289775000Y-139300000D02*
X289775000Y-141700000D01*
X289950000Y-139300000D02*
X289950000Y-141700000D01*
X290125000Y-139300000D02*
X290125000Y-141700000D01*
X290525000Y-141700000D02*
X290525000Y-139300000D01*
X290300000Y-139300000D02*
X290300000Y-141700000D01*
X290425000Y-139300000D02*
X290425000Y-141700000D01*
X290500000Y-139300000D02*
X284700000Y-139300000D01*
X284700000Y-139300000D02*
X284700000Y-141700000D01*
X284700000Y-141700000D02*
X290500000Y-141700000D01*
%TO.C,D60*%
X275525000Y-120300000D02*
X275525000Y-122700000D01*
X275700000Y-120300000D02*
X275700000Y-122700000D01*
X275875000Y-120300000D02*
X275875000Y-122700000D01*
X276275000Y-122700000D02*
X276275000Y-120300000D01*
X276050000Y-120300000D02*
X276050000Y-122700000D01*
X276175000Y-120300000D02*
X276175000Y-122700000D01*
X276250000Y-120300000D02*
X270450000Y-120300000D01*
X270450000Y-120300000D02*
X270450000Y-122700000D01*
X270450000Y-122700000D02*
X276250000Y-122700000D01*
%TO.C,D59*%
X287525000Y-82300000D02*
X287525000Y-84700000D01*
X287700000Y-82300000D02*
X287700000Y-84700000D01*
X287875000Y-82300000D02*
X287875000Y-84700000D01*
X288275000Y-84700000D02*
X288275000Y-82300000D01*
X288050000Y-82300000D02*
X288050000Y-84700000D01*
X288175000Y-82300000D02*
X288175000Y-84700000D01*
X288250000Y-82300000D02*
X282450000Y-82300000D01*
X282450000Y-82300000D02*
X282450000Y-84700000D01*
X282450000Y-84700000D02*
X288250000Y-84700000D01*
%TO.C,D58*%
X282775000Y-63300000D02*
X282775000Y-65700000D01*
X282950000Y-63300000D02*
X282950000Y-65700000D01*
X283125000Y-63300000D02*
X283125000Y-65700000D01*
X283525000Y-65700000D02*
X283525000Y-63300000D01*
X283300000Y-63300000D02*
X283300000Y-65700000D01*
X283425000Y-63300000D02*
X283425000Y-65700000D01*
X283500000Y-63300000D02*
X277700000Y-63300000D01*
X277700000Y-63300000D02*
X277700000Y-65700000D01*
X277700000Y-65700000D02*
X283500000Y-65700000D01*
%TO.C,D57*%
X266025000Y-139300000D02*
X266025000Y-141700000D01*
X266200000Y-139300000D02*
X266200000Y-141700000D01*
X266375000Y-139300000D02*
X266375000Y-141700000D01*
X266775000Y-141700000D02*
X266775000Y-139300000D01*
X266550000Y-139300000D02*
X266550000Y-141700000D01*
X266675000Y-139300000D02*
X266675000Y-141700000D01*
X266750000Y-139300000D02*
X260950000Y-139300000D01*
X260950000Y-139300000D02*
X260950000Y-141700000D01*
X260950000Y-141700000D02*
X266750000Y-141700000D01*
%TO.C,D56*%
X280275000Y-101300000D02*
X280275000Y-103700000D01*
X280450000Y-101300000D02*
X280450000Y-103700000D01*
X280625000Y-101300000D02*
X280625000Y-103700000D01*
X281025000Y-103700000D02*
X281025000Y-101300000D01*
X280800000Y-101300000D02*
X280800000Y-103700000D01*
X280925000Y-101300000D02*
X280925000Y-103700000D01*
X281000000Y-101300000D02*
X275200000Y-101300000D01*
X275200000Y-101300000D02*
X275200000Y-103700000D01*
X275200000Y-103700000D02*
X281000000Y-103700000D01*
%TO.C,D55*%
X263525000Y-82300000D02*
X263525000Y-84700000D01*
X263700000Y-82300000D02*
X263700000Y-84700000D01*
X263875000Y-82300000D02*
X263875000Y-84700000D01*
X264275000Y-84700000D02*
X264275000Y-82300000D01*
X264050000Y-82300000D02*
X264050000Y-84700000D01*
X264175000Y-82300000D02*
X264175000Y-84700000D01*
X264250000Y-82300000D02*
X258450000Y-82300000D01*
X258450000Y-82300000D02*
X258450000Y-84700000D01*
X258450000Y-84700000D02*
X264250000Y-84700000D01*
%TO.C,D54*%
X254025000Y-63300000D02*
X254025000Y-65700000D01*
X254200000Y-63300000D02*
X254200000Y-65700000D01*
X254375000Y-63300000D02*
X254375000Y-65700000D01*
X254775000Y-65700000D02*
X254775000Y-63300000D01*
X254550000Y-63300000D02*
X254550000Y-65700000D01*
X254675000Y-63300000D02*
X254675000Y-65700000D01*
X254750000Y-63300000D02*
X248950000Y-63300000D01*
X248950000Y-63300000D02*
X248950000Y-65700000D01*
X248950000Y-65700000D02*
X254750000Y-65700000D01*
%TO.C,D53*%
X242275000Y-139300000D02*
X242275000Y-141700000D01*
X242450000Y-139300000D02*
X242450000Y-141700000D01*
X242625000Y-139300000D02*
X242625000Y-141700000D01*
X243025000Y-141700000D02*
X243025000Y-139300000D01*
X242800000Y-139300000D02*
X242800000Y-141700000D01*
X242925000Y-139300000D02*
X242925000Y-141700000D01*
X243000000Y-139300000D02*
X237200000Y-139300000D01*
X237200000Y-139300000D02*
X237200000Y-141700000D01*
X237200000Y-141700000D02*
X243000000Y-141700000D01*
%TO.C,D52*%
X239775000Y-120300000D02*
X239775000Y-122700000D01*
X239950000Y-120300000D02*
X239950000Y-122700000D01*
X240125000Y-120300000D02*
X240125000Y-122700000D01*
X240525000Y-122700000D02*
X240525000Y-120300000D01*
X240300000Y-120300000D02*
X240300000Y-122700000D01*
X240425000Y-120300000D02*
X240425000Y-122700000D01*
X240500000Y-120300000D02*
X234700000Y-120300000D01*
X234700000Y-120300000D02*
X234700000Y-122700000D01*
X234700000Y-122700000D02*
X240500000Y-122700000D01*
%TO.C,D51*%
X249200000Y-101300000D02*
X249200000Y-103700000D01*
X249375000Y-101300000D02*
X249375000Y-103700000D01*
X249550000Y-101300000D02*
X249550000Y-103700000D01*
X249950000Y-103700000D02*
X249950000Y-101300000D01*
X249725000Y-101300000D02*
X249725000Y-103700000D01*
X249850000Y-101300000D02*
X249850000Y-103700000D01*
X249925000Y-101300000D02*
X244125000Y-101300000D01*
X244125000Y-101300000D02*
X244125000Y-103700000D01*
X244125000Y-103700000D02*
X249925000Y-103700000D01*
%TO.C,D50*%
X244450000Y-82300000D02*
X244450000Y-84700000D01*
X244625000Y-82300000D02*
X244625000Y-84700000D01*
X244800000Y-82300000D02*
X244800000Y-84700000D01*
X245200000Y-84700000D02*
X245200000Y-82300000D01*
X244975000Y-82300000D02*
X244975000Y-84700000D01*
X245100000Y-82300000D02*
X245100000Y-84700000D01*
X245175000Y-82300000D02*
X239375000Y-82300000D01*
X239375000Y-82300000D02*
X239375000Y-84700000D01*
X239375000Y-84700000D02*
X245175000Y-84700000D01*
%TO.C,D49*%
X235025000Y-63300000D02*
X235025000Y-65700000D01*
X235200000Y-63300000D02*
X235200000Y-65700000D01*
X235375000Y-63300000D02*
X235375000Y-65700000D01*
X235775000Y-65700000D02*
X235775000Y-63300000D01*
X235550000Y-63300000D02*
X235550000Y-65700000D01*
X235675000Y-63300000D02*
X235675000Y-65700000D01*
X235750000Y-63300000D02*
X229950000Y-63300000D01*
X229950000Y-63300000D02*
X229950000Y-65700000D01*
X229950000Y-65700000D02*
X235750000Y-65700000D01*
%TO.C,D48*%
X218275000Y-139300000D02*
X218275000Y-141700000D01*
X218450000Y-139300000D02*
X218450000Y-141700000D01*
X218625000Y-139300000D02*
X218625000Y-141700000D01*
X219025000Y-141700000D02*
X219025000Y-139300000D01*
X218800000Y-139300000D02*
X218800000Y-141700000D01*
X218925000Y-139300000D02*
X218925000Y-141700000D01*
X219000000Y-139300000D02*
X213200000Y-139300000D01*
X213200000Y-139300000D02*
X213200000Y-141700000D01*
X213200000Y-141700000D02*
X219000000Y-141700000D01*
%TO.C,D47*%
X220775000Y-120300000D02*
X220775000Y-122700000D01*
X220950000Y-120300000D02*
X220950000Y-122700000D01*
X221125000Y-120300000D02*
X221125000Y-122700000D01*
X221525000Y-122700000D02*
X221525000Y-120300000D01*
X221300000Y-120300000D02*
X221300000Y-122700000D01*
X221425000Y-120300000D02*
X221425000Y-122700000D01*
X221500000Y-120300000D02*
X215700000Y-120300000D01*
X215700000Y-120300000D02*
X215700000Y-122700000D01*
X215700000Y-122700000D02*
X221500000Y-122700000D01*
%TO.C,D46*%
X229950000Y-101300000D02*
X229950000Y-103700000D01*
X230125000Y-101300000D02*
X230125000Y-103700000D01*
X230300000Y-101300000D02*
X230300000Y-103700000D01*
X230700000Y-103700000D02*
X230700000Y-101300000D01*
X230475000Y-101300000D02*
X230475000Y-103700000D01*
X230600000Y-101300000D02*
X230600000Y-103700000D01*
X230675000Y-101300000D02*
X224875000Y-101300000D01*
X224875000Y-101300000D02*
X224875000Y-103700000D01*
X224875000Y-103700000D02*
X230675000Y-103700000D01*
%TO.C,D45*%
X225450000Y-82300000D02*
X225450000Y-84700000D01*
X225625000Y-82300000D02*
X225625000Y-84700000D01*
X225800000Y-82300000D02*
X225800000Y-84700000D01*
X226200000Y-84700000D02*
X226200000Y-82300000D01*
X225975000Y-82300000D02*
X225975000Y-84700000D01*
X226100000Y-82300000D02*
X226100000Y-84700000D01*
X226175000Y-82300000D02*
X220375000Y-82300000D01*
X220375000Y-82300000D02*
X220375000Y-84700000D01*
X220375000Y-84700000D02*
X226175000Y-84700000D01*
%TO.C,D44*%
X216025000Y-63300000D02*
X216025000Y-65700000D01*
X216200000Y-63300000D02*
X216200000Y-65700000D01*
X216375000Y-63300000D02*
X216375000Y-65700000D01*
X216775000Y-65700000D02*
X216775000Y-63300000D01*
X216550000Y-63300000D02*
X216550000Y-65700000D01*
X216675000Y-63300000D02*
X216675000Y-65700000D01*
X216750000Y-63300000D02*
X210950000Y-63300000D01*
X210950000Y-63300000D02*
X210950000Y-65700000D01*
X210950000Y-65700000D02*
X216750000Y-65700000D01*
%TO.C,D43*%
X201725000Y-120300000D02*
X201725000Y-122700000D01*
X201900000Y-120300000D02*
X201900000Y-122700000D01*
X202075000Y-120300000D02*
X202075000Y-122700000D01*
X202475000Y-122700000D02*
X202475000Y-120300000D01*
X202250000Y-120300000D02*
X202250000Y-122700000D01*
X202375000Y-120300000D02*
X202375000Y-122700000D01*
X202450000Y-120300000D02*
X196650000Y-120300000D01*
X196650000Y-120300000D02*
X196650000Y-122700000D01*
X196650000Y-122700000D02*
X202450000Y-122700000D01*
%TO.C,D42*%
X211025000Y-101300000D02*
X211025000Y-103700000D01*
X211200000Y-101300000D02*
X211200000Y-103700000D01*
X211375000Y-101300000D02*
X211375000Y-103700000D01*
X211775000Y-103700000D02*
X211775000Y-101300000D01*
X211550000Y-101300000D02*
X211550000Y-103700000D01*
X211675000Y-101300000D02*
X211675000Y-103700000D01*
X211750000Y-101300000D02*
X205950000Y-101300000D01*
X205950000Y-101300000D02*
X205950000Y-103700000D01*
X205950000Y-103700000D02*
X211750000Y-103700000D01*
%TO.C,D41*%
X206275000Y-82300000D02*
X206275000Y-84700000D01*
X206450000Y-82300000D02*
X206450000Y-84700000D01*
X206625000Y-82300000D02*
X206625000Y-84700000D01*
X207025000Y-84700000D02*
X207025000Y-82300000D01*
X206800000Y-82300000D02*
X206800000Y-84700000D01*
X206925000Y-82300000D02*
X206925000Y-84700000D01*
X207000000Y-82300000D02*
X201200000Y-82300000D01*
X201200000Y-82300000D02*
X201200000Y-84700000D01*
X201200000Y-84700000D02*
X207000000Y-84700000D01*
%TO.C,D40*%
X197025000Y-63300000D02*
X197025000Y-65700000D01*
X197200000Y-63300000D02*
X197200000Y-65700000D01*
X197375000Y-63300000D02*
X197375000Y-65700000D01*
X197775000Y-65700000D02*
X197775000Y-63300000D01*
X197550000Y-63300000D02*
X197550000Y-65700000D01*
X197675000Y-63300000D02*
X197675000Y-65700000D01*
X197750000Y-63300000D02*
X191950000Y-63300000D01*
X191950000Y-63300000D02*
X191950000Y-65700000D01*
X191950000Y-65700000D02*
X197750000Y-65700000D01*
%TO.C,D39*%
X182775000Y-120300000D02*
X182775000Y-122700000D01*
X182950000Y-120300000D02*
X182950000Y-122700000D01*
X183125000Y-120300000D02*
X183125000Y-122700000D01*
X183525000Y-122700000D02*
X183525000Y-120300000D01*
X183300000Y-120300000D02*
X183300000Y-122700000D01*
X183425000Y-120300000D02*
X183425000Y-122700000D01*
X183500000Y-120300000D02*
X177700000Y-120300000D01*
X177700000Y-120300000D02*
X177700000Y-122700000D01*
X177700000Y-122700000D02*
X183500000Y-122700000D01*
%TO.C,D38*%
X192275000Y-101300000D02*
X192275000Y-103700000D01*
X192450000Y-101300000D02*
X192450000Y-103700000D01*
X192625000Y-101300000D02*
X192625000Y-103700000D01*
X193025000Y-103700000D02*
X193025000Y-101300000D01*
X192800000Y-101300000D02*
X192800000Y-103700000D01*
X192925000Y-101300000D02*
X192925000Y-103700000D01*
X193000000Y-101300000D02*
X187200000Y-101300000D01*
X187200000Y-101300000D02*
X187200000Y-103700000D01*
X187200000Y-103700000D02*
X193000000Y-103700000D01*
%TO.C,D37*%
X187275000Y-82300000D02*
X187275000Y-84700000D01*
X187450000Y-82300000D02*
X187450000Y-84700000D01*
X187625000Y-82300000D02*
X187625000Y-84700000D01*
X188025000Y-84700000D02*
X188025000Y-82300000D01*
X187800000Y-82300000D02*
X187800000Y-84700000D01*
X187925000Y-82300000D02*
X187925000Y-84700000D01*
X188000000Y-82300000D02*
X182200000Y-82300000D01*
X182200000Y-82300000D02*
X182200000Y-84700000D01*
X182200000Y-84700000D02*
X188000000Y-84700000D01*
%TO.C,D36*%
X177775000Y-63300000D02*
X177775000Y-65700000D01*
X177950000Y-63300000D02*
X177950000Y-65700000D01*
X178125000Y-63300000D02*
X178125000Y-65700000D01*
X178525000Y-65700000D02*
X178525000Y-63300000D01*
X178300000Y-63300000D02*
X178300000Y-65700000D01*
X178425000Y-63300000D02*
X178425000Y-65700000D01*
X178500000Y-63300000D02*
X172700000Y-63300000D01*
X172700000Y-63300000D02*
X172700000Y-65700000D01*
X172700000Y-65700000D02*
X178500000Y-65700000D01*
%TO.C,D35*%
X163525000Y-120300000D02*
X163525000Y-122700000D01*
X163700000Y-120300000D02*
X163700000Y-122700000D01*
X163875000Y-120300000D02*
X163875000Y-122700000D01*
X164275000Y-122700000D02*
X164275000Y-120300000D01*
X164050000Y-120300000D02*
X164050000Y-122700000D01*
X164175000Y-120300000D02*
X164175000Y-122700000D01*
X164250000Y-120300000D02*
X158450000Y-120300000D01*
X158450000Y-120300000D02*
X158450000Y-122700000D01*
X158450000Y-122700000D02*
X164250000Y-122700000D01*
%TO.C,D34*%
X173275000Y-101300000D02*
X173275000Y-103700000D01*
X173450000Y-101300000D02*
X173450000Y-103700000D01*
X173625000Y-101300000D02*
X173625000Y-103700000D01*
X174025000Y-103700000D02*
X174025000Y-101300000D01*
X173800000Y-101300000D02*
X173800000Y-103700000D01*
X173925000Y-101300000D02*
X173925000Y-103700000D01*
X174000000Y-101300000D02*
X168200000Y-101300000D01*
X168200000Y-101300000D02*
X168200000Y-103700000D01*
X168200000Y-103700000D02*
X174000000Y-103700000D01*
%TO.C,D33*%
X168525000Y-82300000D02*
X168525000Y-84700000D01*
X168700000Y-82300000D02*
X168700000Y-84700000D01*
X168875000Y-82300000D02*
X168875000Y-84700000D01*
X169275000Y-84700000D02*
X169275000Y-82300000D01*
X169050000Y-82300000D02*
X169050000Y-84700000D01*
X169175000Y-82300000D02*
X169175000Y-84700000D01*
X169250000Y-82300000D02*
X163450000Y-82300000D01*
X163450000Y-82300000D02*
X163450000Y-84700000D01*
X163450000Y-84700000D02*
X169250000Y-84700000D01*
%TO.C,D32*%
X159025000Y-63300000D02*
X159025000Y-65700000D01*
X159200000Y-63300000D02*
X159200000Y-65700000D01*
X159375000Y-63300000D02*
X159375000Y-65700000D01*
X159775000Y-65700000D02*
X159775000Y-63300000D01*
X159550000Y-63300000D02*
X159550000Y-65700000D01*
X159675000Y-63300000D02*
X159675000Y-65700000D01*
X159750000Y-63300000D02*
X153950000Y-63300000D01*
X153950000Y-63300000D02*
X153950000Y-65700000D01*
X153950000Y-65700000D02*
X159750000Y-65700000D01*
%TO.C,D31*%
X146775000Y-139300000D02*
X146775000Y-141700000D01*
X146950000Y-139300000D02*
X146950000Y-141700000D01*
X147125000Y-139300000D02*
X147125000Y-141700000D01*
X147525000Y-141700000D02*
X147525000Y-139300000D01*
X147300000Y-139300000D02*
X147300000Y-141700000D01*
X147425000Y-139300000D02*
X147425000Y-141700000D01*
X147500000Y-139300000D02*
X141700000Y-139300000D01*
X141700000Y-139300000D02*
X141700000Y-141700000D01*
X141700000Y-141700000D02*
X147500000Y-141700000D01*
%TO.C,D30*%
X144525000Y-120300000D02*
X144525000Y-122700000D01*
X144700000Y-120300000D02*
X144700000Y-122700000D01*
X144875000Y-120300000D02*
X144875000Y-122700000D01*
X145275000Y-122700000D02*
X145275000Y-120300000D01*
X145050000Y-120300000D02*
X145050000Y-122700000D01*
X145175000Y-120300000D02*
X145175000Y-122700000D01*
X145250000Y-120300000D02*
X139450000Y-120300000D01*
X139450000Y-120300000D02*
X139450000Y-122700000D01*
X139450000Y-122700000D02*
X145250000Y-122700000D01*
%TO.C,D29*%
X154025000Y-101300000D02*
X154025000Y-103700000D01*
X154200000Y-101300000D02*
X154200000Y-103700000D01*
X154375000Y-101300000D02*
X154375000Y-103700000D01*
X154775000Y-103700000D02*
X154775000Y-101300000D01*
X154550000Y-101300000D02*
X154550000Y-103700000D01*
X154675000Y-101300000D02*
X154675000Y-103700000D01*
X154750000Y-101300000D02*
X148950000Y-101300000D01*
X148950000Y-101300000D02*
X148950000Y-103700000D01*
X148950000Y-103700000D02*
X154750000Y-103700000D01*
%TO.C,D28*%
X149275000Y-82300000D02*
X149275000Y-84700000D01*
X149450000Y-82300000D02*
X149450000Y-84700000D01*
X149625000Y-82300000D02*
X149625000Y-84700000D01*
X150025000Y-84700000D02*
X150025000Y-82300000D01*
X149800000Y-82300000D02*
X149800000Y-84700000D01*
X149925000Y-82300000D02*
X149925000Y-84700000D01*
X150000000Y-82300000D02*
X144200000Y-82300000D01*
X144200000Y-82300000D02*
X144200000Y-84700000D01*
X144200000Y-84700000D02*
X150000000Y-84700000D01*
%TO.C,D27*%
X139775000Y-63300000D02*
X139775000Y-65700000D01*
X139950000Y-63300000D02*
X139950000Y-65700000D01*
X140125000Y-63300000D02*
X140125000Y-65700000D01*
X140525000Y-65700000D02*
X140525000Y-63300000D01*
X140300000Y-63300000D02*
X140300000Y-65700000D01*
X140425000Y-63300000D02*
X140425000Y-65700000D01*
X140500000Y-63300000D02*
X134700000Y-63300000D01*
X134700000Y-63300000D02*
X134700000Y-65700000D01*
X134700000Y-65700000D02*
X140500000Y-65700000D01*
%TO.C,D26*%
X125525000Y-120300000D02*
X125525000Y-122700000D01*
X125700000Y-120300000D02*
X125700000Y-122700000D01*
X125875000Y-120300000D02*
X125875000Y-122700000D01*
X126275000Y-122700000D02*
X126275000Y-120300000D01*
X126050000Y-120300000D02*
X126050000Y-122700000D01*
X126175000Y-120300000D02*
X126175000Y-122700000D01*
X126250000Y-120300000D02*
X120450000Y-120300000D01*
X120450000Y-120300000D02*
X120450000Y-122700000D01*
X120450000Y-122700000D02*
X126250000Y-122700000D01*
%TO.C,D25*%
X134875000Y-101300000D02*
X134875000Y-103700000D01*
X135050000Y-101300000D02*
X135050000Y-103700000D01*
X135225000Y-101300000D02*
X135225000Y-103700000D01*
X135625000Y-103700000D02*
X135625000Y-101300000D01*
X135400000Y-101300000D02*
X135400000Y-103700000D01*
X135525000Y-101300000D02*
X135525000Y-103700000D01*
X135600000Y-101300000D02*
X129800000Y-101300000D01*
X129800000Y-101300000D02*
X129800000Y-103700000D01*
X129800000Y-103700000D02*
X135600000Y-103700000D01*
%TO.C,D24*%
X130025000Y-82300000D02*
X130025000Y-84700000D01*
X130200000Y-82300000D02*
X130200000Y-84700000D01*
X130375000Y-82300000D02*
X130375000Y-84700000D01*
X130775000Y-84700000D02*
X130775000Y-82300000D01*
X130550000Y-82300000D02*
X130550000Y-84700000D01*
X130675000Y-82300000D02*
X130675000Y-84700000D01*
X130750000Y-82300000D02*
X124950000Y-82300000D01*
X124950000Y-82300000D02*
X124950000Y-84700000D01*
X124950000Y-84700000D02*
X130750000Y-84700000D01*
%TO.C,D23*%
X120775000Y-63300000D02*
X120775000Y-65700000D01*
X120950000Y-63300000D02*
X120950000Y-65700000D01*
X121125000Y-63300000D02*
X121125000Y-65700000D01*
X121525000Y-65700000D02*
X121525000Y-63300000D01*
X121300000Y-63300000D02*
X121300000Y-65700000D01*
X121425000Y-63300000D02*
X121425000Y-65700000D01*
X121500000Y-63300000D02*
X115700000Y-63300000D01*
X115700000Y-63300000D02*
X115700000Y-65700000D01*
X115700000Y-65700000D02*
X121500000Y-65700000D01*
%TO.C,D22*%
X106275000Y-120300000D02*
X106275000Y-122700000D01*
X106450000Y-120300000D02*
X106450000Y-122700000D01*
X106625000Y-120300000D02*
X106625000Y-122700000D01*
X107025000Y-122700000D02*
X107025000Y-120300000D01*
X106800000Y-120300000D02*
X106800000Y-122700000D01*
X106925000Y-120300000D02*
X106925000Y-122700000D01*
X107000000Y-120300000D02*
X101200000Y-120300000D01*
X101200000Y-120300000D02*
X101200000Y-122700000D01*
X101200000Y-122700000D02*
X107000000Y-122700000D01*
%TO.C,D21*%
X115950000Y-101300000D02*
X115950000Y-103700000D01*
X116125000Y-101300000D02*
X116125000Y-103700000D01*
X116300000Y-101300000D02*
X116300000Y-103700000D01*
X116700000Y-103700000D02*
X116700000Y-101300000D01*
X116475000Y-101300000D02*
X116475000Y-103700000D01*
X116600000Y-101300000D02*
X116600000Y-103700000D01*
X116675000Y-101300000D02*
X110875000Y-101300000D01*
X110875000Y-101300000D02*
X110875000Y-103700000D01*
X110875000Y-103700000D02*
X116675000Y-103700000D01*
%TO.C,D20*%
X111200000Y-82300000D02*
X111200000Y-84700000D01*
X111375000Y-82300000D02*
X111375000Y-84700000D01*
X111550000Y-82300000D02*
X111550000Y-84700000D01*
X111950000Y-84700000D02*
X111950000Y-82300000D01*
X111725000Y-82300000D02*
X111725000Y-84700000D01*
X111850000Y-82300000D02*
X111850000Y-84700000D01*
X111925000Y-82300000D02*
X106125000Y-82300000D01*
X106125000Y-82300000D02*
X106125000Y-84700000D01*
X106125000Y-84700000D02*
X111925000Y-84700000D01*
%TO.C,D19*%
X101775000Y-63300000D02*
X101775000Y-65700000D01*
X101950000Y-63300000D02*
X101950000Y-65700000D01*
X102125000Y-63300000D02*
X102125000Y-65700000D01*
X102525000Y-65700000D02*
X102525000Y-63300000D01*
X102300000Y-63300000D02*
X102300000Y-65700000D01*
X102425000Y-63300000D02*
X102425000Y-65700000D01*
X102500000Y-63300000D02*
X96700000Y-63300000D01*
X96700000Y-63300000D02*
X96700000Y-65700000D01*
X96700000Y-65700000D02*
X102500000Y-65700000D01*
%TO.C,D18*%
X87275000Y-120300000D02*
X87275000Y-122700000D01*
X87450000Y-120300000D02*
X87450000Y-122700000D01*
X87625000Y-120300000D02*
X87625000Y-122700000D01*
X88025000Y-122700000D02*
X88025000Y-120300000D01*
X87800000Y-120300000D02*
X87800000Y-122700000D01*
X87925000Y-120300000D02*
X87925000Y-122700000D01*
X88000000Y-120300000D02*
X82200000Y-120300000D01*
X82200000Y-120300000D02*
X82200000Y-122700000D01*
X82200000Y-122700000D02*
X88000000Y-122700000D01*
%TO.C,D17*%
X96775000Y-101300000D02*
X96775000Y-103700000D01*
X96950000Y-101300000D02*
X96950000Y-103700000D01*
X97125000Y-101300000D02*
X97125000Y-103700000D01*
X97525000Y-103700000D02*
X97525000Y-101300000D01*
X97300000Y-101300000D02*
X97300000Y-103700000D01*
X97425000Y-101300000D02*
X97425000Y-103700000D01*
X97500000Y-101300000D02*
X91700000Y-101300000D01*
X91700000Y-101300000D02*
X91700000Y-103700000D01*
X91700000Y-103700000D02*
X97500000Y-103700000D01*
%TO.C,D16*%
X92025000Y-82300000D02*
X92025000Y-84700000D01*
X92200000Y-82300000D02*
X92200000Y-84700000D01*
X92375000Y-82300000D02*
X92375000Y-84700000D01*
X92775000Y-84700000D02*
X92775000Y-82300000D01*
X92550000Y-82300000D02*
X92550000Y-84700000D01*
X92675000Y-82300000D02*
X92675000Y-84700000D01*
X92750000Y-82300000D02*
X86950000Y-82300000D01*
X86950000Y-82300000D02*
X86950000Y-84700000D01*
X86950000Y-84700000D02*
X92750000Y-84700000D01*
%TO.C,D15*%
X82525000Y-63300000D02*
X82525000Y-65700000D01*
X82700000Y-63300000D02*
X82700000Y-65700000D01*
X82875000Y-63300000D02*
X82875000Y-65700000D01*
X83275000Y-65700000D02*
X83275000Y-63300000D01*
X83050000Y-63300000D02*
X83050000Y-65700000D01*
X83175000Y-63300000D02*
X83175000Y-65700000D01*
X83250000Y-63300000D02*
X77450000Y-63300000D01*
X77450000Y-63300000D02*
X77450000Y-65700000D01*
X77450000Y-65700000D02*
X83250000Y-65700000D01*
%TO.C,D14*%
X75525000Y-139300000D02*
X75525000Y-141700000D01*
X75700000Y-139300000D02*
X75700000Y-141700000D01*
X75875000Y-139300000D02*
X75875000Y-141700000D01*
X76275000Y-141700000D02*
X76275000Y-139300000D01*
X76050000Y-139300000D02*
X76050000Y-141700000D01*
X76175000Y-139300000D02*
X76175000Y-141700000D01*
X76250000Y-139300000D02*
X70450000Y-139300000D01*
X70450000Y-139300000D02*
X70450000Y-141700000D01*
X70450000Y-141700000D02*
X76250000Y-141700000D01*
%TO.C,D13*%
X68525000Y-120300000D02*
X68525000Y-122700000D01*
X68700000Y-120300000D02*
X68700000Y-122700000D01*
X68875000Y-120300000D02*
X68875000Y-122700000D01*
X69275000Y-122700000D02*
X69275000Y-120300000D01*
X69050000Y-120300000D02*
X69050000Y-122700000D01*
X69175000Y-120300000D02*
X69175000Y-122700000D01*
X69250000Y-120300000D02*
X63450000Y-120300000D01*
X63450000Y-120300000D02*
X63450000Y-122700000D01*
X63450000Y-122700000D02*
X69250000Y-122700000D01*
%TO.C,D12*%
X77775000Y-101300000D02*
X77775000Y-103700000D01*
X77950000Y-101300000D02*
X77950000Y-103700000D01*
X78125000Y-101300000D02*
X78125000Y-103700000D01*
X78525000Y-103700000D02*
X78525000Y-101300000D01*
X78300000Y-101300000D02*
X78300000Y-103700000D01*
X78425000Y-101300000D02*
X78425000Y-103700000D01*
X78500000Y-101300000D02*
X72700000Y-101300000D01*
X72700000Y-101300000D02*
X72700000Y-103700000D01*
X72700000Y-103700000D02*
X78500000Y-103700000D01*
%TO.C,D11*%
X73200000Y-82300000D02*
X73200000Y-84700000D01*
X73375000Y-82300000D02*
X73375000Y-84700000D01*
X73550000Y-82300000D02*
X73550000Y-84700000D01*
X73950000Y-84700000D02*
X73950000Y-82300000D01*
X73725000Y-82300000D02*
X73725000Y-84700000D01*
X73850000Y-82300000D02*
X73850000Y-84700000D01*
X73925000Y-82300000D02*
X68125000Y-82300000D01*
X68125000Y-82300000D02*
X68125000Y-84700000D01*
X68125000Y-84700000D02*
X73925000Y-84700000D01*
%TO.C,D10*%
X63525000Y-63300000D02*
X63525000Y-65700000D01*
X63700000Y-63300000D02*
X63700000Y-65700000D01*
X63875000Y-63300000D02*
X63875000Y-65700000D01*
X64275000Y-65700000D02*
X64275000Y-63300000D01*
X64050000Y-63300000D02*
X64050000Y-65700000D01*
X64175000Y-63300000D02*
X64175000Y-65700000D01*
X64250000Y-63300000D02*
X58450000Y-63300000D01*
X58450000Y-63300000D02*
X58450000Y-65700000D01*
X58450000Y-65700000D02*
X64250000Y-65700000D01*
%TO.C,D9*%
X51525000Y-139550000D02*
X51525000Y-141950000D01*
X51700000Y-139550000D02*
X51700000Y-141950000D01*
X51875000Y-139550000D02*
X51875000Y-141950000D01*
X52275000Y-141950000D02*
X52275000Y-139550000D01*
X52050000Y-139550000D02*
X52050000Y-141950000D01*
X52175000Y-139550000D02*
X52175000Y-141950000D01*
X52250000Y-139550000D02*
X46450000Y-139550000D01*
X46450000Y-139550000D02*
X46450000Y-141950000D01*
X46450000Y-141950000D02*
X52250000Y-141950000D01*
%TO.C,D8*%
X58825000Y-101300000D02*
X58825000Y-103700000D01*
X59000000Y-101300000D02*
X59000000Y-103700000D01*
X59175000Y-101300000D02*
X59175000Y-103700000D01*
X59575000Y-103700000D02*
X59575000Y-101300000D01*
X59350000Y-101300000D02*
X59350000Y-103700000D01*
X59475000Y-101300000D02*
X59475000Y-103700000D01*
X59550000Y-101300000D02*
X53750000Y-101300000D01*
X53750000Y-101300000D02*
X53750000Y-103700000D01*
X53750000Y-103700000D02*
X59550000Y-103700000D01*
%TO.C,D7*%
X54025000Y-82300000D02*
X54025000Y-84700000D01*
X54200000Y-82300000D02*
X54200000Y-84700000D01*
X54375000Y-82300000D02*
X54375000Y-84700000D01*
X54775000Y-84700000D02*
X54775000Y-82300000D01*
X54550000Y-82300000D02*
X54550000Y-84700000D01*
X54675000Y-82300000D02*
X54675000Y-84700000D01*
X54750000Y-82300000D02*
X48950000Y-82300000D01*
X48950000Y-82300000D02*
X48950000Y-84700000D01*
X48950000Y-84700000D02*
X54750000Y-84700000D01*
%TO.C,D6*%
X44775000Y-63300000D02*
X44775000Y-65700000D01*
X44950000Y-63300000D02*
X44950000Y-65700000D01*
X45125000Y-63300000D02*
X45125000Y-65700000D01*
X45525000Y-65700000D02*
X45525000Y-63300000D01*
X45300000Y-63300000D02*
X45300000Y-65700000D01*
X45425000Y-63300000D02*
X45425000Y-65700000D01*
X45500000Y-63300000D02*
X39700000Y-63300000D01*
X39700000Y-63300000D02*
X39700000Y-65700000D01*
X39700000Y-65700000D02*
X45500000Y-65700000D01*
%TO.C,D5*%
X27700000Y-139550000D02*
X27700000Y-141950000D01*
X27875000Y-139550000D02*
X27875000Y-141950000D01*
X28050000Y-139550000D02*
X28050000Y-141950000D01*
X28450000Y-141950000D02*
X28450000Y-139550000D01*
X28225000Y-139550000D02*
X28225000Y-141950000D01*
X28350000Y-139550000D02*
X28350000Y-141950000D01*
X28425000Y-139550000D02*
X22625000Y-139550000D01*
X22625000Y-139550000D02*
X22625000Y-141950000D01*
X22625000Y-141950000D02*
X28425000Y-141950000D01*
%TO.C,D4*%
X37325000Y-120550000D02*
X37325000Y-122950000D01*
X37500000Y-120550000D02*
X37500000Y-122950000D01*
X37675000Y-120550000D02*
X37675000Y-122950000D01*
X38075000Y-122950000D02*
X38075000Y-120550000D01*
X37850000Y-120550000D02*
X37850000Y-122950000D01*
X37975000Y-120550000D02*
X37975000Y-122950000D01*
X38050000Y-120550000D02*
X32250000Y-120550000D01*
X32250000Y-120550000D02*
X32250000Y-122950000D01*
X32250000Y-122950000D02*
X38050000Y-122950000D01*
%TO.C,D3*%
X32525000Y-101300000D02*
X32525000Y-103700000D01*
X32700000Y-101300000D02*
X32700000Y-103700000D01*
X32875000Y-101300000D02*
X32875000Y-103700000D01*
X33275000Y-103700000D02*
X33275000Y-101300000D01*
X33050000Y-101300000D02*
X33050000Y-103700000D01*
X33175000Y-101300000D02*
X33175000Y-103700000D01*
X33250000Y-101300000D02*
X27450000Y-101300000D01*
X27450000Y-101300000D02*
X27450000Y-103700000D01*
X27450000Y-103700000D02*
X33250000Y-103700000D01*
%TO.C,D2*%
X30025000Y-82300000D02*
X30025000Y-84700000D01*
X30200000Y-82300000D02*
X30200000Y-84700000D01*
X30375000Y-82300000D02*
X30375000Y-84700000D01*
X30775000Y-84700000D02*
X30775000Y-82300000D01*
X30550000Y-82300000D02*
X30550000Y-84700000D01*
X30675000Y-82300000D02*
X30675000Y-84700000D01*
X30750000Y-82300000D02*
X24950000Y-82300000D01*
X24950000Y-82300000D02*
X24950000Y-84700000D01*
X24950000Y-84700000D02*
X30750000Y-84700000D01*
%TO.C,D1*%
X25525000Y-63300000D02*
X25525000Y-65700000D01*
X25700000Y-63300000D02*
X25700000Y-65700000D01*
X25875000Y-63300000D02*
X25875000Y-65700000D01*
X26275000Y-65700000D02*
X26275000Y-63300000D01*
X26050000Y-63300000D02*
X26050000Y-65700000D01*
X26175000Y-63300000D02*
X26175000Y-65700000D01*
X26250000Y-63300000D02*
X20450000Y-63300000D01*
X20450000Y-63300000D02*
X20450000Y-65700000D01*
X20450000Y-65700000D02*
X26250000Y-65700000D01*
D10*
%TO.C,C8*%
X166048752Y-125765000D02*
X165526248Y-125765000D01*
X166048752Y-127235000D02*
X165526248Y-127235000D01*
%TO.C,C7*%
X113515000Y-131201248D02*
X113515000Y-131723752D01*
X114985000Y-131201248D02*
X114985000Y-131723752D01*
%TO.C,C6*%
X116765000Y-131201248D02*
X116765000Y-131723752D01*
X118235000Y-131201248D02*
X118235000Y-131723752D01*
%TO.C,C5*%
X120015000Y-131201248D02*
X120015000Y-131723752D01*
X121485000Y-131201248D02*
X121485000Y-131723752D01*
%TO.C,C4*%
X123265000Y-131201248D02*
X123265000Y-131723752D01*
X124735000Y-131201248D02*
X124735000Y-131723752D01*
%TO.C,C3*%
X126515000Y-131201248D02*
X126515000Y-131723752D01*
X127985000Y-131201248D02*
X127985000Y-131723752D01*
%TO.C,C2*%
X179776248Y-141735000D02*
X180298752Y-141735000D01*
X179776248Y-140265000D02*
X180298752Y-140265000D01*
%TO.C,C1*%
X179738748Y-130985000D02*
X180261252Y-130985000D01*
X179738748Y-129515000D02*
X180261252Y-129515000D01*
%TO.C,X1*%
D11*
X178792630Y-137540842D02*
X177590797Y-137547344D01*
X178419835Y-136988151D02*
X177963593Y-138100035D01*
X177084861Y-136797262D02*
X177404400Y-137270998D01*
X177244630Y-137034130D02*
X178073668Y-136474937D01*
X178008490Y-136633778D01*
X177982791Y-136765990D01*
X177996569Y-136871574D01*
%TO.C,U1*%
X158752380Y-135738095D02*
X159561904Y-135738095D01*
X159657142Y-135785714D01*
X159704761Y-135833333D01*
X159752380Y-135928571D01*
X159752380Y-136119047D01*
X159704761Y-136214285D01*
X159657142Y-136261904D01*
X159561904Y-136309523D01*
X158752380Y-136309523D01*
X159752380Y-137309523D02*
X159752380Y-136738095D01*
X159752380Y-137023809D02*
X158752380Y-137023809D01*
X158895238Y-136928571D01*
X158990476Y-136833333D01*
X159038095Y-136738095D01*
%TO.C,SW1*%
X191583333Y-131904761D02*
X191440476Y-131952380D01*
X191202380Y-131952380D01*
X191107142Y-131904761D01*
X191059523Y-131857142D01*
X191011904Y-131761904D01*
X191011904Y-131666666D01*
X191059523Y-131571428D01*
X191107142Y-131523809D01*
X191202380Y-131476190D01*
X191392857Y-131428571D01*
X191488095Y-131380952D01*
X191535714Y-131333333D01*
X191583333Y-131238095D01*
X191583333Y-131142857D01*
X191535714Y-131047619D01*
X191488095Y-131000000D01*
X191392857Y-130952380D01*
X191154761Y-130952380D01*
X191011904Y-131000000D01*
X190678571Y-130952380D02*
X190440476Y-131952380D01*
X190250000Y-131238095D01*
X190059523Y-131952380D01*
X189821428Y-130952380D01*
X188916666Y-131952380D02*
X189488095Y-131952380D01*
X189202380Y-131952380D02*
X189202380Y-130952380D01*
X189297619Y-131095238D01*
X189392857Y-131190476D01*
X189488095Y-131238095D01*
%TO.C,R4*%
X39666666Y-74802380D02*
X40000000Y-74326190D01*
X40238095Y-74802380D02*
X40238095Y-73802380D01*
X39857142Y-73802380D01*
X39761904Y-73850000D01*
X39714285Y-73897619D01*
X39666666Y-73992857D01*
X39666666Y-74135714D01*
X39714285Y-74230952D01*
X39761904Y-74278571D01*
X39857142Y-74326190D01*
X40238095Y-74326190D01*
X38809523Y-74135714D02*
X38809523Y-74802380D01*
X39047619Y-73754761D02*
X39285714Y-74469047D01*
X38666666Y-74469047D01*
%TO.C,R3*%
X39666666Y-77802380D02*
X40000000Y-77326190D01*
X40238095Y-77802380D02*
X40238095Y-76802380D01*
X39857142Y-76802380D01*
X39761904Y-76850000D01*
X39714285Y-76897619D01*
X39666666Y-76992857D01*
X39666666Y-77135714D01*
X39714285Y-77230952D01*
X39761904Y-77278571D01*
X39857142Y-77326190D01*
X40238095Y-77326190D01*
X39333333Y-76802380D02*
X38714285Y-76802380D01*
X39047619Y-77183333D01*
X38904761Y-77183333D01*
X38809523Y-77230952D01*
X38761904Y-77278571D01*
X38714285Y-77373809D01*
X38714285Y-77611904D01*
X38761904Y-77707142D01*
X38809523Y-77754761D01*
X38904761Y-77802380D01*
X39190476Y-77802380D01*
X39285714Y-77754761D01*
X39333333Y-77707142D01*
%TO.C,R2*%
X156166666Y-144352380D02*
X156500000Y-143876190D01*
X156738095Y-144352380D02*
X156738095Y-143352380D01*
X156357142Y-143352380D01*
X156261904Y-143400000D01*
X156214285Y-143447619D01*
X156166666Y-143542857D01*
X156166666Y-143685714D01*
X156214285Y-143780952D01*
X156261904Y-143828571D01*
X156357142Y-143876190D01*
X156738095Y-143876190D01*
X155785714Y-143447619D02*
X155738095Y-143400000D01*
X155642857Y-143352380D01*
X155404761Y-143352380D01*
X155309523Y-143400000D01*
X155261904Y-143447619D01*
X155214285Y-143542857D01*
X155214285Y-143638095D01*
X155261904Y-143780952D01*
X155833333Y-144352380D01*
X155214285Y-144352380D01*
%TO.C,R1*%
X173416666Y-125302380D02*
X173750000Y-124826190D01*
X173988095Y-125302380D02*
X173988095Y-124302380D01*
X173607142Y-124302380D01*
X173511904Y-124350000D01*
X173464285Y-124397619D01*
X173416666Y-124492857D01*
X173416666Y-124635714D01*
X173464285Y-124730952D01*
X173511904Y-124778571D01*
X173607142Y-124826190D01*
X173988095Y-124826190D01*
X172464285Y-125302380D02*
X173035714Y-125302380D01*
X172750000Y-125302380D02*
X172750000Y-124302380D01*
X172845238Y-124445238D01*
X172940476Y-124540476D01*
X173035714Y-124588095D01*
%TO.C,D61*%
X288471428Y-142786904D02*
X288471428Y-141986904D01*
X288280952Y-141986904D01*
X288166666Y-142025000D01*
X288090476Y-142101190D01*
X288052380Y-142177380D01*
X288014285Y-142329761D01*
X288014285Y-142444047D01*
X288052380Y-142596428D01*
X288090476Y-142672619D01*
X288166666Y-142748809D01*
X288280952Y-142786904D01*
X288471428Y-142786904D01*
X287328571Y-141986904D02*
X287480952Y-141986904D01*
X287557142Y-142025000D01*
X287595238Y-142063095D01*
X287671428Y-142177380D01*
X287709523Y-142329761D01*
X287709523Y-142634523D01*
X287671428Y-142710714D01*
X287633333Y-142748809D01*
X287557142Y-142786904D01*
X287404761Y-142786904D01*
X287328571Y-142748809D01*
X287290476Y-142710714D01*
X287252380Y-142634523D01*
X287252380Y-142444047D01*
X287290476Y-142367857D01*
X287328571Y-142329761D01*
X287404761Y-142291666D01*
X287557142Y-142291666D01*
X287633333Y-142329761D01*
X287671428Y-142367857D01*
X287709523Y-142444047D01*
X286490476Y-142786904D02*
X286947619Y-142786904D01*
X286719047Y-142786904D02*
X286719047Y-141986904D01*
X286795238Y-142101190D01*
X286871428Y-142177380D01*
X286947619Y-142215476D01*
%TO.C,D60*%
X274221428Y-123786904D02*
X274221428Y-122986904D01*
X274030952Y-122986904D01*
X273916666Y-123025000D01*
X273840476Y-123101190D01*
X273802380Y-123177380D01*
X273764285Y-123329761D01*
X273764285Y-123444047D01*
X273802380Y-123596428D01*
X273840476Y-123672619D01*
X273916666Y-123748809D01*
X274030952Y-123786904D01*
X274221428Y-123786904D01*
X273078571Y-122986904D02*
X273230952Y-122986904D01*
X273307142Y-123025000D01*
X273345238Y-123063095D01*
X273421428Y-123177380D01*
X273459523Y-123329761D01*
X273459523Y-123634523D01*
X273421428Y-123710714D01*
X273383333Y-123748809D01*
X273307142Y-123786904D01*
X273154761Y-123786904D01*
X273078571Y-123748809D01*
X273040476Y-123710714D01*
X273002380Y-123634523D01*
X273002380Y-123444047D01*
X273040476Y-123367857D01*
X273078571Y-123329761D01*
X273154761Y-123291666D01*
X273307142Y-123291666D01*
X273383333Y-123329761D01*
X273421428Y-123367857D01*
X273459523Y-123444047D01*
X272507142Y-122986904D02*
X272430952Y-122986904D01*
X272354761Y-123025000D01*
X272316666Y-123063095D01*
X272278571Y-123139285D01*
X272240476Y-123291666D01*
X272240476Y-123482142D01*
X272278571Y-123634523D01*
X272316666Y-123710714D01*
X272354761Y-123748809D01*
X272430952Y-123786904D01*
X272507142Y-123786904D01*
X272583333Y-123748809D01*
X272621428Y-123710714D01*
X272659523Y-123634523D01*
X272697619Y-123482142D01*
X272697619Y-123291666D01*
X272659523Y-123139285D01*
X272621428Y-123063095D01*
X272583333Y-123025000D01*
X272507142Y-122986904D01*
%TO.C,D59*%
X286221428Y-85786904D02*
X286221428Y-84986904D01*
X286030952Y-84986904D01*
X285916666Y-85025000D01*
X285840476Y-85101190D01*
X285802380Y-85177380D01*
X285764285Y-85329761D01*
X285764285Y-85444047D01*
X285802380Y-85596428D01*
X285840476Y-85672619D01*
X285916666Y-85748809D01*
X286030952Y-85786904D01*
X286221428Y-85786904D01*
X285040476Y-84986904D02*
X285421428Y-84986904D01*
X285459523Y-85367857D01*
X285421428Y-85329761D01*
X285345238Y-85291666D01*
X285154761Y-85291666D01*
X285078571Y-85329761D01*
X285040476Y-85367857D01*
X285002380Y-85444047D01*
X285002380Y-85634523D01*
X285040476Y-85710714D01*
X285078571Y-85748809D01*
X285154761Y-85786904D01*
X285345238Y-85786904D01*
X285421428Y-85748809D01*
X285459523Y-85710714D01*
X284621428Y-85786904D02*
X284469047Y-85786904D01*
X284392857Y-85748809D01*
X284354761Y-85710714D01*
X284278571Y-85596428D01*
X284240476Y-85444047D01*
X284240476Y-85139285D01*
X284278571Y-85063095D01*
X284316666Y-85025000D01*
X284392857Y-84986904D01*
X284545238Y-84986904D01*
X284621428Y-85025000D01*
X284659523Y-85063095D01*
X284697619Y-85139285D01*
X284697619Y-85329761D01*
X284659523Y-85405952D01*
X284621428Y-85444047D01*
X284545238Y-85482142D01*
X284392857Y-85482142D01*
X284316666Y-85444047D01*
X284278571Y-85405952D01*
X284240476Y-85329761D01*
%TO.C,D58*%
X281471428Y-66786904D02*
X281471428Y-65986904D01*
X281280952Y-65986904D01*
X281166666Y-66025000D01*
X281090476Y-66101190D01*
X281052380Y-66177380D01*
X281014285Y-66329761D01*
X281014285Y-66444047D01*
X281052380Y-66596428D01*
X281090476Y-66672619D01*
X281166666Y-66748809D01*
X281280952Y-66786904D01*
X281471428Y-66786904D01*
X280290476Y-65986904D02*
X280671428Y-65986904D01*
X280709523Y-66367857D01*
X280671428Y-66329761D01*
X280595238Y-66291666D01*
X280404761Y-66291666D01*
X280328571Y-66329761D01*
X280290476Y-66367857D01*
X280252380Y-66444047D01*
X280252380Y-66634523D01*
X280290476Y-66710714D01*
X280328571Y-66748809D01*
X280404761Y-66786904D01*
X280595238Y-66786904D01*
X280671428Y-66748809D01*
X280709523Y-66710714D01*
X279795238Y-66329761D02*
X279871428Y-66291666D01*
X279909523Y-66253571D01*
X279947619Y-66177380D01*
X279947619Y-66139285D01*
X279909523Y-66063095D01*
X279871428Y-66025000D01*
X279795238Y-65986904D01*
X279642857Y-65986904D01*
X279566666Y-66025000D01*
X279528571Y-66063095D01*
X279490476Y-66139285D01*
X279490476Y-66177380D01*
X279528571Y-66253571D01*
X279566666Y-66291666D01*
X279642857Y-66329761D01*
X279795238Y-66329761D01*
X279871428Y-66367857D01*
X279909523Y-66405952D01*
X279947619Y-66482142D01*
X279947619Y-66634523D01*
X279909523Y-66710714D01*
X279871428Y-66748809D01*
X279795238Y-66786904D01*
X279642857Y-66786904D01*
X279566666Y-66748809D01*
X279528571Y-66710714D01*
X279490476Y-66634523D01*
X279490476Y-66482142D01*
X279528571Y-66405952D01*
X279566666Y-66367857D01*
X279642857Y-66329761D01*
%TO.C,D57*%
X264721428Y-142786904D02*
X264721428Y-141986904D01*
X264530952Y-141986904D01*
X264416666Y-142025000D01*
X264340476Y-142101190D01*
X264302380Y-142177380D01*
X264264285Y-142329761D01*
X264264285Y-142444047D01*
X264302380Y-142596428D01*
X264340476Y-142672619D01*
X264416666Y-142748809D01*
X264530952Y-142786904D01*
X264721428Y-142786904D01*
X263540476Y-141986904D02*
X263921428Y-141986904D01*
X263959523Y-142367857D01*
X263921428Y-142329761D01*
X263845238Y-142291666D01*
X263654761Y-142291666D01*
X263578571Y-142329761D01*
X263540476Y-142367857D01*
X263502380Y-142444047D01*
X263502380Y-142634523D01*
X263540476Y-142710714D01*
X263578571Y-142748809D01*
X263654761Y-142786904D01*
X263845238Y-142786904D01*
X263921428Y-142748809D01*
X263959523Y-142710714D01*
X263235714Y-141986904D02*
X262702380Y-141986904D01*
X263045238Y-142786904D01*
%TO.C,D56*%
X278971428Y-104786904D02*
X278971428Y-103986904D01*
X278780952Y-103986904D01*
X278666666Y-104025000D01*
X278590476Y-104101190D01*
X278552380Y-104177380D01*
X278514285Y-104329761D01*
X278514285Y-104444047D01*
X278552380Y-104596428D01*
X278590476Y-104672619D01*
X278666666Y-104748809D01*
X278780952Y-104786904D01*
X278971428Y-104786904D01*
X277790476Y-103986904D02*
X278171428Y-103986904D01*
X278209523Y-104367857D01*
X278171428Y-104329761D01*
X278095238Y-104291666D01*
X277904761Y-104291666D01*
X277828571Y-104329761D01*
X277790476Y-104367857D01*
X277752380Y-104444047D01*
X277752380Y-104634523D01*
X277790476Y-104710714D01*
X277828571Y-104748809D01*
X277904761Y-104786904D01*
X278095238Y-104786904D01*
X278171428Y-104748809D01*
X278209523Y-104710714D01*
X277066666Y-103986904D02*
X277219047Y-103986904D01*
X277295238Y-104025000D01*
X277333333Y-104063095D01*
X277409523Y-104177380D01*
X277447619Y-104329761D01*
X277447619Y-104634523D01*
X277409523Y-104710714D01*
X277371428Y-104748809D01*
X277295238Y-104786904D01*
X277142857Y-104786904D01*
X277066666Y-104748809D01*
X277028571Y-104710714D01*
X276990476Y-104634523D01*
X276990476Y-104444047D01*
X277028571Y-104367857D01*
X277066666Y-104329761D01*
X277142857Y-104291666D01*
X277295238Y-104291666D01*
X277371428Y-104329761D01*
X277409523Y-104367857D01*
X277447619Y-104444047D01*
%TO.C,D55*%
X262221428Y-85786904D02*
X262221428Y-84986904D01*
X262030952Y-84986904D01*
X261916666Y-85025000D01*
X261840476Y-85101190D01*
X261802380Y-85177380D01*
X261764285Y-85329761D01*
X261764285Y-85444047D01*
X261802380Y-85596428D01*
X261840476Y-85672619D01*
X261916666Y-85748809D01*
X262030952Y-85786904D01*
X262221428Y-85786904D01*
X261040476Y-84986904D02*
X261421428Y-84986904D01*
X261459523Y-85367857D01*
X261421428Y-85329761D01*
X261345238Y-85291666D01*
X261154761Y-85291666D01*
X261078571Y-85329761D01*
X261040476Y-85367857D01*
X261002380Y-85444047D01*
X261002380Y-85634523D01*
X261040476Y-85710714D01*
X261078571Y-85748809D01*
X261154761Y-85786904D01*
X261345238Y-85786904D01*
X261421428Y-85748809D01*
X261459523Y-85710714D01*
X260278571Y-84986904D02*
X260659523Y-84986904D01*
X260697619Y-85367857D01*
X260659523Y-85329761D01*
X260583333Y-85291666D01*
X260392857Y-85291666D01*
X260316666Y-85329761D01*
X260278571Y-85367857D01*
X260240476Y-85444047D01*
X260240476Y-85634523D01*
X260278571Y-85710714D01*
X260316666Y-85748809D01*
X260392857Y-85786904D01*
X260583333Y-85786904D01*
X260659523Y-85748809D01*
X260697619Y-85710714D01*
%TO.C,D54*%
X252721428Y-66786904D02*
X252721428Y-65986904D01*
X252530952Y-65986904D01*
X252416666Y-66025000D01*
X252340476Y-66101190D01*
X252302380Y-66177380D01*
X252264285Y-66329761D01*
X252264285Y-66444047D01*
X252302380Y-66596428D01*
X252340476Y-66672619D01*
X252416666Y-66748809D01*
X252530952Y-66786904D01*
X252721428Y-66786904D01*
X251540476Y-65986904D02*
X251921428Y-65986904D01*
X251959523Y-66367857D01*
X251921428Y-66329761D01*
X251845238Y-66291666D01*
X251654761Y-66291666D01*
X251578571Y-66329761D01*
X251540476Y-66367857D01*
X251502380Y-66444047D01*
X251502380Y-66634523D01*
X251540476Y-66710714D01*
X251578571Y-66748809D01*
X251654761Y-66786904D01*
X251845238Y-66786904D01*
X251921428Y-66748809D01*
X251959523Y-66710714D01*
X250816666Y-66253571D02*
X250816666Y-66786904D01*
X251007142Y-65948809D02*
X251197619Y-66520238D01*
X250702380Y-66520238D01*
%TO.C,D53*%
X240971428Y-142786904D02*
X240971428Y-141986904D01*
X240780952Y-141986904D01*
X240666666Y-142025000D01*
X240590476Y-142101190D01*
X240552380Y-142177380D01*
X240514285Y-142329761D01*
X240514285Y-142444047D01*
X240552380Y-142596428D01*
X240590476Y-142672619D01*
X240666666Y-142748809D01*
X240780952Y-142786904D01*
X240971428Y-142786904D01*
X239790476Y-141986904D02*
X240171428Y-141986904D01*
X240209523Y-142367857D01*
X240171428Y-142329761D01*
X240095238Y-142291666D01*
X239904761Y-142291666D01*
X239828571Y-142329761D01*
X239790476Y-142367857D01*
X239752380Y-142444047D01*
X239752380Y-142634523D01*
X239790476Y-142710714D01*
X239828571Y-142748809D01*
X239904761Y-142786904D01*
X240095238Y-142786904D01*
X240171428Y-142748809D01*
X240209523Y-142710714D01*
X239485714Y-141986904D02*
X238990476Y-141986904D01*
X239257142Y-142291666D01*
X239142857Y-142291666D01*
X239066666Y-142329761D01*
X239028571Y-142367857D01*
X238990476Y-142444047D01*
X238990476Y-142634523D01*
X239028571Y-142710714D01*
X239066666Y-142748809D01*
X239142857Y-142786904D01*
X239371428Y-142786904D01*
X239447619Y-142748809D01*
X239485714Y-142710714D01*
%TO.C,D52*%
X238471428Y-123786904D02*
X238471428Y-122986904D01*
X238280952Y-122986904D01*
X238166666Y-123025000D01*
X238090476Y-123101190D01*
X238052380Y-123177380D01*
X238014285Y-123329761D01*
X238014285Y-123444047D01*
X238052380Y-123596428D01*
X238090476Y-123672619D01*
X238166666Y-123748809D01*
X238280952Y-123786904D01*
X238471428Y-123786904D01*
X237290476Y-122986904D02*
X237671428Y-122986904D01*
X237709523Y-123367857D01*
X237671428Y-123329761D01*
X237595238Y-123291666D01*
X237404761Y-123291666D01*
X237328571Y-123329761D01*
X237290476Y-123367857D01*
X237252380Y-123444047D01*
X237252380Y-123634523D01*
X237290476Y-123710714D01*
X237328571Y-123748809D01*
X237404761Y-123786904D01*
X237595238Y-123786904D01*
X237671428Y-123748809D01*
X237709523Y-123710714D01*
X236947619Y-123063095D02*
X236909523Y-123025000D01*
X236833333Y-122986904D01*
X236642857Y-122986904D01*
X236566666Y-123025000D01*
X236528571Y-123063095D01*
X236490476Y-123139285D01*
X236490476Y-123215476D01*
X236528571Y-123329761D01*
X236985714Y-123786904D01*
X236490476Y-123786904D01*
%TO.C,D51*%
X247896428Y-104786904D02*
X247896428Y-103986904D01*
X247705952Y-103986904D01*
X247591666Y-104025000D01*
X247515476Y-104101190D01*
X247477380Y-104177380D01*
X247439285Y-104329761D01*
X247439285Y-104444047D01*
X247477380Y-104596428D01*
X247515476Y-104672619D01*
X247591666Y-104748809D01*
X247705952Y-104786904D01*
X247896428Y-104786904D01*
X246715476Y-103986904D02*
X247096428Y-103986904D01*
X247134523Y-104367857D01*
X247096428Y-104329761D01*
X247020238Y-104291666D01*
X246829761Y-104291666D01*
X246753571Y-104329761D01*
X246715476Y-104367857D01*
X246677380Y-104444047D01*
X246677380Y-104634523D01*
X246715476Y-104710714D01*
X246753571Y-104748809D01*
X246829761Y-104786904D01*
X247020238Y-104786904D01*
X247096428Y-104748809D01*
X247134523Y-104710714D01*
X245915476Y-104786904D02*
X246372619Y-104786904D01*
X246144047Y-104786904D02*
X246144047Y-103986904D01*
X246220238Y-104101190D01*
X246296428Y-104177380D01*
X246372619Y-104215476D01*
%TO.C,D50*%
X243146428Y-85786904D02*
X243146428Y-84986904D01*
X242955952Y-84986904D01*
X242841666Y-85025000D01*
X242765476Y-85101190D01*
X242727380Y-85177380D01*
X242689285Y-85329761D01*
X242689285Y-85444047D01*
X242727380Y-85596428D01*
X242765476Y-85672619D01*
X242841666Y-85748809D01*
X242955952Y-85786904D01*
X243146428Y-85786904D01*
X241965476Y-84986904D02*
X242346428Y-84986904D01*
X242384523Y-85367857D01*
X242346428Y-85329761D01*
X242270238Y-85291666D01*
X242079761Y-85291666D01*
X242003571Y-85329761D01*
X241965476Y-85367857D01*
X241927380Y-85444047D01*
X241927380Y-85634523D01*
X241965476Y-85710714D01*
X242003571Y-85748809D01*
X242079761Y-85786904D01*
X242270238Y-85786904D01*
X242346428Y-85748809D01*
X242384523Y-85710714D01*
X241432142Y-84986904D02*
X241355952Y-84986904D01*
X241279761Y-85025000D01*
X241241666Y-85063095D01*
X241203571Y-85139285D01*
X241165476Y-85291666D01*
X241165476Y-85482142D01*
X241203571Y-85634523D01*
X241241666Y-85710714D01*
X241279761Y-85748809D01*
X241355952Y-85786904D01*
X241432142Y-85786904D01*
X241508333Y-85748809D01*
X241546428Y-85710714D01*
X241584523Y-85634523D01*
X241622619Y-85482142D01*
X241622619Y-85291666D01*
X241584523Y-85139285D01*
X241546428Y-85063095D01*
X241508333Y-85025000D01*
X241432142Y-84986904D01*
%TO.C,D49*%
X233721428Y-66786904D02*
X233721428Y-65986904D01*
X233530952Y-65986904D01*
X233416666Y-66025000D01*
X233340476Y-66101190D01*
X233302380Y-66177380D01*
X233264285Y-66329761D01*
X233264285Y-66444047D01*
X233302380Y-66596428D01*
X233340476Y-66672619D01*
X233416666Y-66748809D01*
X233530952Y-66786904D01*
X233721428Y-66786904D01*
X232578571Y-66253571D02*
X232578571Y-66786904D01*
X232769047Y-65948809D02*
X232959523Y-66520238D01*
X232464285Y-66520238D01*
X232121428Y-66786904D02*
X231969047Y-66786904D01*
X231892857Y-66748809D01*
X231854761Y-66710714D01*
X231778571Y-66596428D01*
X231740476Y-66444047D01*
X231740476Y-66139285D01*
X231778571Y-66063095D01*
X231816666Y-66025000D01*
X231892857Y-65986904D01*
X232045238Y-65986904D01*
X232121428Y-66025000D01*
X232159523Y-66063095D01*
X232197619Y-66139285D01*
X232197619Y-66329761D01*
X232159523Y-66405952D01*
X232121428Y-66444047D01*
X232045238Y-66482142D01*
X231892857Y-66482142D01*
X231816666Y-66444047D01*
X231778571Y-66405952D01*
X231740476Y-66329761D01*
%TO.C,D48*%
X216971428Y-142786904D02*
X216971428Y-141986904D01*
X216780952Y-141986904D01*
X216666666Y-142025000D01*
X216590476Y-142101190D01*
X216552380Y-142177380D01*
X216514285Y-142329761D01*
X216514285Y-142444047D01*
X216552380Y-142596428D01*
X216590476Y-142672619D01*
X216666666Y-142748809D01*
X216780952Y-142786904D01*
X216971428Y-142786904D01*
X215828571Y-142253571D02*
X215828571Y-142786904D01*
X216019047Y-141948809D02*
X216209523Y-142520238D01*
X215714285Y-142520238D01*
X215295238Y-142329761D02*
X215371428Y-142291666D01*
X215409523Y-142253571D01*
X215447619Y-142177380D01*
X215447619Y-142139285D01*
X215409523Y-142063095D01*
X215371428Y-142025000D01*
X215295238Y-141986904D01*
X215142857Y-141986904D01*
X215066666Y-142025000D01*
X215028571Y-142063095D01*
X214990476Y-142139285D01*
X214990476Y-142177380D01*
X215028571Y-142253571D01*
X215066666Y-142291666D01*
X215142857Y-142329761D01*
X215295238Y-142329761D01*
X215371428Y-142367857D01*
X215409523Y-142405952D01*
X215447619Y-142482142D01*
X215447619Y-142634523D01*
X215409523Y-142710714D01*
X215371428Y-142748809D01*
X215295238Y-142786904D01*
X215142857Y-142786904D01*
X215066666Y-142748809D01*
X215028571Y-142710714D01*
X214990476Y-142634523D01*
X214990476Y-142482142D01*
X215028571Y-142405952D01*
X215066666Y-142367857D01*
X215142857Y-142329761D01*
%TO.C,D47*%
X219471428Y-123786904D02*
X219471428Y-122986904D01*
X219280952Y-122986904D01*
X219166666Y-123025000D01*
X219090476Y-123101190D01*
X219052380Y-123177380D01*
X219014285Y-123329761D01*
X219014285Y-123444047D01*
X219052380Y-123596428D01*
X219090476Y-123672619D01*
X219166666Y-123748809D01*
X219280952Y-123786904D01*
X219471428Y-123786904D01*
X218328571Y-123253571D02*
X218328571Y-123786904D01*
X218519047Y-122948809D02*
X218709523Y-123520238D01*
X218214285Y-123520238D01*
X217985714Y-122986904D02*
X217452380Y-122986904D01*
X217795238Y-123786904D01*
%TO.C,D46*%
X228646428Y-104786904D02*
X228646428Y-103986904D01*
X228455952Y-103986904D01*
X228341666Y-104025000D01*
X228265476Y-104101190D01*
X228227380Y-104177380D01*
X228189285Y-104329761D01*
X228189285Y-104444047D01*
X228227380Y-104596428D01*
X228265476Y-104672619D01*
X228341666Y-104748809D01*
X228455952Y-104786904D01*
X228646428Y-104786904D01*
X227503571Y-104253571D02*
X227503571Y-104786904D01*
X227694047Y-103948809D02*
X227884523Y-104520238D01*
X227389285Y-104520238D01*
X226741666Y-103986904D02*
X226894047Y-103986904D01*
X226970238Y-104025000D01*
X227008333Y-104063095D01*
X227084523Y-104177380D01*
X227122619Y-104329761D01*
X227122619Y-104634523D01*
X227084523Y-104710714D01*
X227046428Y-104748809D01*
X226970238Y-104786904D01*
X226817857Y-104786904D01*
X226741666Y-104748809D01*
X226703571Y-104710714D01*
X226665476Y-104634523D01*
X226665476Y-104444047D01*
X226703571Y-104367857D01*
X226741666Y-104329761D01*
X226817857Y-104291666D01*
X226970238Y-104291666D01*
X227046428Y-104329761D01*
X227084523Y-104367857D01*
X227122619Y-104444047D01*
%TO.C,D45*%
X224146428Y-85786904D02*
X224146428Y-84986904D01*
X223955952Y-84986904D01*
X223841666Y-85025000D01*
X223765476Y-85101190D01*
X223727380Y-85177380D01*
X223689285Y-85329761D01*
X223689285Y-85444047D01*
X223727380Y-85596428D01*
X223765476Y-85672619D01*
X223841666Y-85748809D01*
X223955952Y-85786904D01*
X224146428Y-85786904D01*
X223003571Y-85253571D02*
X223003571Y-85786904D01*
X223194047Y-84948809D02*
X223384523Y-85520238D01*
X222889285Y-85520238D01*
X222203571Y-84986904D02*
X222584523Y-84986904D01*
X222622619Y-85367857D01*
X222584523Y-85329761D01*
X222508333Y-85291666D01*
X222317857Y-85291666D01*
X222241666Y-85329761D01*
X222203571Y-85367857D01*
X222165476Y-85444047D01*
X222165476Y-85634523D01*
X222203571Y-85710714D01*
X222241666Y-85748809D01*
X222317857Y-85786904D01*
X222508333Y-85786904D01*
X222584523Y-85748809D01*
X222622619Y-85710714D01*
%TO.C,D44*%
X214721428Y-66786904D02*
X214721428Y-65986904D01*
X214530952Y-65986904D01*
X214416666Y-66025000D01*
X214340476Y-66101190D01*
X214302380Y-66177380D01*
X214264285Y-66329761D01*
X214264285Y-66444047D01*
X214302380Y-66596428D01*
X214340476Y-66672619D01*
X214416666Y-66748809D01*
X214530952Y-66786904D01*
X214721428Y-66786904D01*
X213578571Y-66253571D02*
X213578571Y-66786904D01*
X213769047Y-65948809D02*
X213959523Y-66520238D01*
X213464285Y-66520238D01*
X212816666Y-66253571D02*
X212816666Y-66786904D01*
X213007142Y-65948809D02*
X213197619Y-66520238D01*
X212702380Y-66520238D01*
%TO.C,D43*%
X200421428Y-123786904D02*
X200421428Y-122986904D01*
X200230952Y-122986904D01*
X200116666Y-123025000D01*
X200040476Y-123101190D01*
X200002380Y-123177380D01*
X199964285Y-123329761D01*
X199964285Y-123444047D01*
X200002380Y-123596428D01*
X200040476Y-123672619D01*
X200116666Y-123748809D01*
X200230952Y-123786904D01*
X200421428Y-123786904D01*
X199278571Y-123253571D02*
X199278571Y-123786904D01*
X199469047Y-122948809D02*
X199659523Y-123520238D01*
X199164285Y-123520238D01*
X198935714Y-122986904D02*
X198440476Y-122986904D01*
X198707142Y-123291666D01*
X198592857Y-123291666D01*
X198516666Y-123329761D01*
X198478571Y-123367857D01*
X198440476Y-123444047D01*
X198440476Y-123634523D01*
X198478571Y-123710714D01*
X198516666Y-123748809D01*
X198592857Y-123786904D01*
X198821428Y-123786904D01*
X198897619Y-123748809D01*
X198935714Y-123710714D01*
%TO.C,D42*%
X209721428Y-104786904D02*
X209721428Y-103986904D01*
X209530952Y-103986904D01*
X209416666Y-104025000D01*
X209340476Y-104101190D01*
X209302380Y-104177380D01*
X209264285Y-104329761D01*
X209264285Y-104444047D01*
X209302380Y-104596428D01*
X209340476Y-104672619D01*
X209416666Y-104748809D01*
X209530952Y-104786904D01*
X209721428Y-104786904D01*
X208578571Y-104253571D02*
X208578571Y-104786904D01*
X208769047Y-103948809D02*
X208959523Y-104520238D01*
X208464285Y-104520238D01*
X208197619Y-104063095D02*
X208159523Y-104025000D01*
X208083333Y-103986904D01*
X207892857Y-103986904D01*
X207816666Y-104025000D01*
X207778571Y-104063095D01*
X207740476Y-104139285D01*
X207740476Y-104215476D01*
X207778571Y-104329761D01*
X208235714Y-104786904D01*
X207740476Y-104786904D01*
%TO.C,D41*%
X204971428Y-85786904D02*
X204971428Y-84986904D01*
X204780952Y-84986904D01*
X204666666Y-85025000D01*
X204590476Y-85101190D01*
X204552380Y-85177380D01*
X204514285Y-85329761D01*
X204514285Y-85444047D01*
X204552380Y-85596428D01*
X204590476Y-85672619D01*
X204666666Y-85748809D01*
X204780952Y-85786904D01*
X204971428Y-85786904D01*
X203828571Y-85253571D02*
X203828571Y-85786904D01*
X204019047Y-84948809D02*
X204209523Y-85520238D01*
X203714285Y-85520238D01*
X202990476Y-85786904D02*
X203447619Y-85786904D01*
X203219047Y-85786904D02*
X203219047Y-84986904D01*
X203295238Y-85101190D01*
X203371428Y-85177380D01*
X203447619Y-85215476D01*
%TO.C,D40*%
X195721428Y-66786904D02*
X195721428Y-65986904D01*
X195530952Y-65986904D01*
X195416666Y-66025000D01*
X195340476Y-66101190D01*
X195302380Y-66177380D01*
X195264285Y-66329761D01*
X195264285Y-66444047D01*
X195302380Y-66596428D01*
X195340476Y-66672619D01*
X195416666Y-66748809D01*
X195530952Y-66786904D01*
X195721428Y-66786904D01*
X194578571Y-66253571D02*
X194578571Y-66786904D01*
X194769047Y-65948809D02*
X194959523Y-66520238D01*
X194464285Y-66520238D01*
X194007142Y-65986904D02*
X193930952Y-65986904D01*
X193854761Y-66025000D01*
X193816666Y-66063095D01*
X193778571Y-66139285D01*
X193740476Y-66291666D01*
X193740476Y-66482142D01*
X193778571Y-66634523D01*
X193816666Y-66710714D01*
X193854761Y-66748809D01*
X193930952Y-66786904D01*
X194007142Y-66786904D01*
X194083333Y-66748809D01*
X194121428Y-66710714D01*
X194159523Y-66634523D01*
X194197619Y-66482142D01*
X194197619Y-66291666D01*
X194159523Y-66139285D01*
X194121428Y-66063095D01*
X194083333Y-66025000D01*
X194007142Y-65986904D01*
%TO.C,D39*%
X181471428Y-123786904D02*
X181471428Y-122986904D01*
X181280952Y-122986904D01*
X181166666Y-123025000D01*
X181090476Y-123101190D01*
X181052380Y-123177380D01*
X181014285Y-123329761D01*
X181014285Y-123444047D01*
X181052380Y-123596428D01*
X181090476Y-123672619D01*
X181166666Y-123748809D01*
X181280952Y-123786904D01*
X181471428Y-123786904D01*
X180747619Y-122986904D02*
X180252380Y-122986904D01*
X180519047Y-123291666D01*
X180404761Y-123291666D01*
X180328571Y-123329761D01*
X180290476Y-123367857D01*
X180252380Y-123444047D01*
X180252380Y-123634523D01*
X180290476Y-123710714D01*
X180328571Y-123748809D01*
X180404761Y-123786904D01*
X180633333Y-123786904D01*
X180709523Y-123748809D01*
X180747619Y-123710714D01*
X179871428Y-123786904D02*
X179719047Y-123786904D01*
X179642857Y-123748809D01*
X179604761Y-123710714D01*
X179528571Y-123596428D01*
X179490476Y-123444047D01*
X179490476Y-123139285D01*
X179528571Y-123063095D01*
X179566666Y-123025000D01*
X179642857Y-122986904D01*
X179795238Y-122986904D01*
X179871428Y-123025000D01*
X179909523Y-123063095D01*
X179947619Y-123139285D01*
X179947619Y-123329761D01*
X179909523Y-123405952D01*
X179871428Y-123444047D01*
X179795238Y-123482142D01*
X179642857Y-123482142D01*
X179566666Y-123444047D01*
X179528571Y-123405952D01*
X179490476Y-123329761D01*
%TO.C,D38*%
X190971428Y-104786904D02*
X190971428Y-103986904D01*
X190780952Y-103986904D01*
X190666666Y-104025000D01*
X190590476Y-104101190D01*
X190552380Y-104177380D01*
X190514285Y-104329761D01*
X190514285Y-104444047D01*
X190552380Y-104596428D01*
X190590476Y-104672619D01*
X190666666Y-104748809D01*
X190780952Y-104786904D01*
X190971428Y-104786904D01*
X190247619Y-103986904D02*
X189752380Y-103986904D01*
X190019047Y-104291666D01*
X189904761Y-104291666D01*
X189828571Y-104329761D01*
X189790476Y-104367857D01*
X189752380Y-104444047D01*
X189752380Y-104634523D01*
X189790476Y-104710714D01*
X189828571Y-104748809D01*
X189904761Y-104786904D01*
X190133333Y-104786904D01*
X190209523Y-104748809D01*
X190247619Y-104710714D01*
X189295238Y-104329761D02*
X189371428Y-104291666D01*
X189409523Y-104253571D01*
X189447619Y-104177380D01*
X189447619Y-104139285D01*
X189409523Y-104063095D01*
X189371428Y-104025000D01*
X189295238Y-103986904D01*
X189142857Y-103986904D01*
X189066666Y-104025000D01*
X189028571Y-104063095D01*
X188990476Y-104139285D01*
X188990476Y-104177380D01*
X189028571Y-104253571D01*
X189066666Y-104291666D01*
X189142857Y-104329761D01*
X189295238Y-104329761D01*
X189371428Y-104367857D01*
X189409523Y-104405952D01*
X189447619Y-104482142D01*
X189447619Y-104634523D01*
X189409523Y-104710714D01*
X189371428Y-104748809D01*
X189295238Y-104786904D01*
X189142857Y-104786904D01*
X189066666Y-104748809D01*
X189028571Y-104710714D01*
X188990476Y-104634523D01*
X188990476Y-104482142D01*
X189028571Y-104405952D01*
X189066666Y-104367857D01*
X189142857Y-104329761D01*
%TO.C,D37*%
X185971428Y-85786904D02*
X185971428Y-84986904D01*
X185780952Y-84986904D01*
X185666666Y-85025000D01*
X185590476Y-85101190D01*
X185552380Y-85177380D01*
X185514285Y-85329761D01*
X185514285Y-85444047D01*
X185552380Y-85596428D01*
X185590476Y-85672619D01*
X185666666Y-85748809D01*
X185780952Y-85786904D01*
X185971428Y-85786904D01*
X185247619Y-84986904D02*
X184752380Y-84986904D01*
X185019047Y-85291666D01*
X184904761Y-85291666D01*
X184828571Y-85329761D01*
X184790476Y-85367857D01*
X184752380Y-85444047D01*
X184752380Y-85634523D01*
X184790476Y-85710714D01*
X184828571Y-85748809D01*
X184904761Y-85786904D01*
X185133333Y-85786904D01*
X185209523Y-85748809D01*
X185247619Y-85710714D01*
X184485714Y-84986904D02*
X183952380Y-84986904D01*
X184295238Y-85786904D01*
%TO.C,D36*%
X176471428Y-66786904D02*
X176471428Y-65986904D01*
X176280952Y-65986904D01*
X176166666Y-66025000D01*
X176090476Y-66101190D01*
X176052380Y-66177380D01*
X176014285Y-66329761D01*
X176014285Y-66444047D01*
X176052380Y-66596428D01*
X176090476Y-66672619D01*
X176166666Y-66748809D01*
X176280952Y-66786904D01*
X176471428Y-66786904D01*
X175747619Y-65986904D02*
X175252380Y-65986904D01*
X175519047Y-66291666D01*
X175404761Y-66291666D01*
X175328571Y-66329761D01*
X175290476Y-66367857D01*
X175252380Y-66444047D01*
X175252380Y-66634523D01*
X175290476Y-66710714D01*
X175328571Y-66748809D01*
X175404761Y-66786904D01*
X175633333Y-66786904D01*
X175709523Y-66748809D01*
X175747619Y-66710714D01*
X174566666Y-65986904D02*
X174719047Y-65986904D01*
X174795238Y-66025000D01*
X174833333Y-66063095D01*
X174909523Y-66177380D01*
X174947619Y-66329761D01*
X174947619Y-66634523D01*
X174909523Y-66710714D01*
X174871428Y-66748809D01*
X174795238Y-66786904D01*
X174642857Y-66786904D01*
X174566666Y-66748809D01*
X174528571Y-66710714D01*
X174490476Y-66634523D01*
X174490476Y-66444047D01*
X174528571Y-66367857D01*
X174566666Y-66329761D01*
X174642857Y-66291666D01*
X174795238Y-66291666D01*
X174871428Y-66329761D01*
X174909523Y-66367857D01*
X174947619Y-66444047D01*
%TO.C,D35*%
X162221428Y-123786904D02*
X162221428Y-122986904D01*
X162030952Y-122986904D01*
X161916666Y-123025000D01*
X161840476Y-123101190D01*
X161802380Y-123177380D01*
X161764285Y-123329761D01*
X161764285Y-123444047D01*
X161802380Y-123596428D01*
X161840476Y-123672619D01*
X161916666Y-123748809D01*
X162030952Y-123786904D01*
X162221428Y-123786904D01*
X161497619Y-122986904D02*
X161002380Y-122986904D01*
X161269047Y-123291666D01*
X161154761Y-123291666D01*
X161078571Y-123329761D01*
X161040476Y-123367857D01*
X161002380Y-123444047D01*
X161002380Y-123634523D01*
X161040476Y-123710714D01*
X161078571Y-123748809D01*
X161154761Y-123786904D01*
X161383333Y-123786904D01*
X161459523Y-123748809D01*
X161497619Y-123710714D01*
X160278571Y-122986904D02*
X160659523Y-122986904D01*
X160697619Y-123367857D01*
X160659523Y-123329761D01*
X160583333Y-123291666D01*
X160392857Y-123291666D01*
X160316666Y-123329761D01*
X160278571Y-123367857D01*
X160240476Y-123444047D01*
X160240476Y-123634523D01*
X160278571Y-123710714D01*
X160316666Y-123748809D01*
X160392857Y-123786904D01*
X160583333Y-123786904D01*
X160659523Y-123748809D01*
X160697619Y-123710714D01*
%TO.C,D34*%
X171971428Y-104786904D02*
X171971428Y-103986904D01*
X171780952Y-103986904D01*
X171666666Y-104025000D01*
X171590476Y-104101190D01*
X171552380Y-104177380D01*
X171514285Y-104329761D01*
X171514285Y-104444047D01*
X171552380Y-104596428D01*
X171590476Y-104672619D01*
X171666666Y-104748809D01*
X171780952Y-104786904D01*
X171971428Y-104786904D01*
X171247619Y-103986904D02*
X170752380Y-103986904D01*
X171019047Y-104291666D01*
X170904761Y-104291666D01*
X170828571Y-104329761D01*
X170790476Y-104367857D01*
X170752380Y-104444047D01*
X170752380Y-104634523D01*
X170790476Y-104710714D01*
X170828571Y-104748809D01*
X170904761Y-104786904D01*
X171133333Y-104786904D01*
X171209523Y-104748809D01*
X171247619Y-104710714D01*
X170066666Y-104253571D02*
X170066666Y-104786904D01*
X170257142Y-103948809D02*
X170447619Y-104520238D01*
X169952380Y-104520238D01*
%TO.C,D33*%
X167221428Y-85786904D02*
X167221428Y-84986904D01*
X167030952Y-84986904D01*
X166916666Y-85025000D01*
X166840476Y-85101190D01*
X166802380Y-85177380D01*
X166764285Y-85329761D01*
X166764285Y-85444047D01*
X166802380Y-85596428D01*
X166840476Y-85672619D01*
X166916666Y-85748809D01*
X167030952Y-85786904D01*
X167221428Y-85786904D01*
X166497619Y-84986904D02*
X166002380Y-84986904D01*
X166269047Y-85291666D01*
X166154761Y-85291666D01*
X166078571Y-85329761D01*
X166040476Y-85367857D01*
X166002380Y-85444047D01*
X166002380Y-85634523D01*
X166040476Y-85710714D01*
X166078571Y-85748809D01*
X166154761Y-85786904D01*
X166383333Y-85786904D01*
X166459523Y-85748809D01*
X166497619Y-85710714D01*
X165735714Y-84986904D02*
X165240476Y-84986904D01*
X165507142Y-85291666D01*
X165392857Y-85291666D01*
X165316666Y-85329761D01*
X165278571Y-85367857D01*
X165240476Y-85444047D01*
X165240476Y-85634523D01*
X165278571Y-85710714D01*
X165316666Y-85748809D01*
X165392857Y-85786904D01*
X165621428Y-85786904D01*
X165697619Y-85748809D01*
X165735714Y-85710714D01*
%TO.C,D32*%
X157721428Y-66786904D02*
X157721428Y-65986904D01*
X157530952Y-65986904D01*
X157416666Y-66025000D01*
X157340476Y-66101190D01*
X157302380Y-66177380D01*
X157264285Y-66329761D01*
X157264285Y-66444047D01*
X157302380Y-66596428D01*
X157340476Y-66672619D01*
X157416666Y-66748809D01*
X157530952Y-66786904D01*
X157721428Y-66786904D01*
X156997619Y-65986904D02*
X156502380Y-65986904D01*
X156769047Y-66291666D01*
X156654761Y-66291666D01*
X156578571Y-66329761D01*
X156540476Y-66367857D01*
X156502380Y-66444047D01*
X156502380Y-66634523D01*
X156540476Y-66710714D01*
X156578571Y-66748809D01*
X156654761Y-66786904D01*
X156883333Y-66786904D01*
X156959523Y-66748809D01*
X156997619Y-66710714D01*
X156197619Y-66063095D02*
X156159523Y-66025000D01*
X156083333Y-65986904D01*
X155892857Y-65986904D01*
X155816666Y-66025000D01*
X155778571Y-66063095D01*
X155740476Y-66139285D01*
X155740476Y-66215476D01*
X155778571Y-66329761D01*
X156235714Y-66786904D01*
X155740476Y-66786904D01*
%TO.C,D31*%
X145471428Y-142786904D02*
X145471428Y-141986904D01*
X145280952Y-141986904D01*
X145166666Y-142025000D01*
X145090476Y-142101190D01*
X145052380Y-142177380D01*
X145014285Y-142329761D01*
X145014285Y-142444047D01*
X145052380Y-142596428D01*
X145090476Y-142672619D01*
X145166666Y-142748809D01*
X145280952Y-142786904D01*
X145471428Y-142786904D01*
X144747619Y-141986904D02*
X144252380Y-141986904D01*
X144519047Y-142291666D01*
X144404761Y-142291666D01*
X144328571Y-142329761D01*
X144290476Y-142367857D01*
X144252380Y-142444047D01*
X144252380Y-142634523D01*
X144290476Y-142710714D01*
X144328571Y-142748809D01*
X144404761Y-142786904D01*
X144633333Y-142786904D01*
X144709523Y-142748809D01*
X144747619Y-142710714D01*
X143490476Y-142786904D02*
X143947619Y-142786904D01*
X143719047Y-142786904D02*
X143719047Y-141986904D01*
X143795238Y-142101190D01*
X143871428Y-142177380D01*
X143947619Y-142215476D01*
%TO.C,D30*%
X143221428Y-123786904D02*
X143221428Y-122986904D01*
X143030952Y-122986904D01*
X142916666Y-123025000D01*
X142840476Y-123101190D01*
X142802380Y-123177380D01*
X142764285Y-123329761D01*
X142764285Y-123444047D01*
X142802380Y-123596428D01*
X142840476Y-123672619D01*
X142916666Y-123748809D01*
X143030952Y-123786904D01*
X143221428Y-123786904D01*
X142497619Y-122986904D02*
X142002380Y-122986904D01*
X142269047Y-123291666D01*
X142154761Y-123291666D01*
X142078571Y-123329761D01*
X142040476Y-123367857D01*
X142002380Y-123444047D01*
X142002380Y-123634523D01*
X142040476Y-123710714D01*
X142078571Y-123748809D01*
X142154761Y-123786904D01*
X142383333Y-123786904D01*
X142459523Y-123748809D01*
X142497619Y-123710714D01*
X141507142Y-122986904D02*
X141430952Y-122986904D01*
X141354761Y-123025000D01*
X141316666Y-123063095D01*
X141278571Y-123139285D01*
X141240476Y-123291666D01*
X141240476Y-123482142D01*
X141278571Y-123634523D01*
X141316666Y-123710714D01*
X141354761Y-123748809D01*
X141430952Y-123786904D01*
X141507142Y-123786904D01*
X141583333Y-123748809D01*
X141621428Y-123710714D01*
X141659523Y-123634523D01*
X141697619Y-123482142D01*
X141697619Y-123291666D01*
X141659523Y-123139285D01*
X141621428Y-123063095D01*
X141583333Y-123025000D01*
X141507142Y-122986904D01*
%TO.C,D29*%
X152721428Y-104786904D02*
X152721428Y-103986904D01*
X152530952Y-103986904D01*
X152416666Y-104025000D01*
X152340476Y-104101190D01*
X152302380Y-104177380D01*
X152264285Y-104329761D01*
X152264285Y-104444047D01*
X152302380Y-104596428D01*
X152340476Y-104672619D01*
X152416666Y-104748809D01*
X152530952Y-104786904D01*
X152721428Y-104786904D01*
X151959523Y-104063095D02*
X151921428Y-104025000D01*
X151845238Y-103986904D01*
X151654761Y-103986904D01*
X151578571Y-104025000D01*
X151540476Y-104063095D01*
X151502380Y-104139285D01*
X151502380Y-104215476D01*
X151540476Y-104329761D01*
X151997619Y-104786904D01*
X151502380Y-104786904D01*
X151121428Y-104786904D02*
X150969047Y-104786904D01*
X150892857Y-104748809D01*
X150854761Y-104710714D01*
X150778571Y-104596428D01*
X150740476Y-104444047D01*
X150740476Y-104139285D01*
X150778571Y-104063095D01*
X150816666Y-104025000D01*
X150892857Y-103986904D01*
X151045238Y-103986904D01*
X151121428Y-104025000D01*
X151159523Y-104063095D01*
X151197619Y-104139285D01*
X151197619Y-104329761D01*
X151159523Y-104405952D01*
X151121428Y-104444047D01*
X151045238Y-104482142D01*
X150892857Y-104482142D01*
X150816666Y-104444047D01*
X150778571Y-104405952D01*
X150740476Y-104329761D01*
%TO.C,D28*%
X147971428Y-85786904D02*
X147971428Y-84986904D01*
X147780952Y-84986904D01*
X147666666Y-85025000D01*
X147590476Y-85101190D01*
X147552380Y-85177380D01*
X147514285Y-85329761D01*
X147514285Y-85444047D01*
X147552380Y-85596428D01*
X147590476Y-85672619D01*
X147666666Y-85748809D01*
X147780952Y-85786904D01*
X147971428Y-85786904D01*
X147209523Y-85063095D02*
X147171428Y-85025000D01*
X147095238Y-84986904D01*
X146904761Y-84986904D01*
X146828571Y-85025000D01*
X146790476Y-85063095D01*
X146752380Y-85139285D01*
X146752380Y-85215476D01*
X146790476Y-85329761D01*
X147247619Y-85786904D01*
X146752380Y-85786904D01*
X146295238Y-85329761D02*
X146371428Y-85291666D01*
X146409523Y-85253571D01*
X146447619Y-85177380D01*
X146447619Y-85139285D01*
X146409523Y-85063095D01*
X146371428Y-85025000D01*
X146295238Y-84986904D01*
X146142857Y-84986904D01*
X146066666Y-85025000D01*
X146028571Y-85063095D01*
X145990476Y-85139285D01*
X145990476Y-85177380D01*
X146028571Y-85253571D01*
X146066666Y-85291666D01*
X146142857Y-85329761D01*
X146295238Y-85329761D01*
X146371428Y-85367857D01*
X146409523Y-85405952D01*
X146447619Y-85482142D01*
X146447619Y-85634523D01*
X146409523Y-85710714D01*
X146371428Y-85748809D01*
X146295238Y-85786904D01*
X146142857Y-85786904D01*
X146066666Y-85748809D01*
X146028571Y-85710714D01*
X145990476Y-85634523D01*
X145990476Y-85482142D01*
X146028571Y-85405952D01*
X146066666Y-85367857D01*
X146142857Y-85329761D01*
%TO.C,D27*%
X138471428Y-66786904D02*
X138471428Y-65986904D01*
X138280952Y-65986904D01*
X138166666Y-66025000D01*
X138090476Y-66101190D01*
X138052380Y-66177380D01*
X138014285Y-66329761D01*
X138014285Y-66444047D01*
X138052380Y-66596428D01*
X138090476Y-66672619D01*
X138166666Y-66748809D01*
X138280952Y-66786904D01*
X138471428Y-66786904D01*
X137709523Y-66063095D02*
X137671428Y-66025000D01*
X137595238Y-65986904D01*
X137404761Y-65986904D01*
X137328571Y-66025000D01*
X137290476Y-66063095D01*
X137252380Y-66139285D01*
X137252380Y-66215476D01*
X137290476Y-66329761D01*
X137747619Y-66786904D01*
X137252380Y-66786904D01*
X136985714Y-65986904D02*
X136452380Y-65986904D01*
X136795238Y-66786904D01*
%TO.C,D26*%
X124221428Y-123786904D02*
X124221428Y-122986904D01*
X124030952Y-122986904D01*
X123916666Y-123025000D01*
X123840476Y-123101190D01*
X123802380Y-123177380D01*
X123764285Y-123329761D01*
X123764285Y-123444047D01*
X123802380Y-123596428D01*
X123840476Y-123672619D01*
X123916666Y-123748809D01*
X124030952Y-123786904D01*
X124221428Y-123786904D01*
X123459523Y-123063095D02*
X123421428Y-123025000D01*
X123345238Y-122986904D01*
X123154761Y-122986904D01*
X123078571Y-123025000D01*
X123040476Y-123063095D01*
X123002380Y-123139285D01*
X123002380Y-123215476D01*
X123040476Y-123329761D01*
X123497619Y-123786904D01*
X123002380Y-123786904D01*
X122316666Y-122986904D02*
X122469047Y-122986904D01*
X122545238Y-123025000D01*
X122583333Y-123063095D01*
X122659523Y-123177380D01*
X122697619Y-123329761D01*
X122697619Y-123634523D01*
X122659523Y-123710714D01*
X122621428Y-123748809D01*
X122545238Y-123786904D01*
X122392857Y-123786904D01*
X122316666Y-123748809D01*
X122278571Y-123710714D01*
X122240476Y-123634523D01*
X122240476Y-123444047D01*
X122278571Y-123367857D01*
X122316666Y-123329761D01*
X122392857Y-123291666D01*
X122545238Y-123291666D01*
X122621428Y-123329761D01*
X122659523Y-123367857D01*
X122697619Y-123444047D01*
%TO.C,D25*%
X133571428Y-104786904D02*
X133571428Y-103986904D01*
X133380952Y-103986904D01*
X133266666Y-104025000D01*
X133190476Y-104101190D01*
X133152380Y-104177380D01*
X133114285Y-104329761D01*
X133114285Y-104444047D01*
X133152380Y-104596428D01*
X133190476Y-104672619D01*
X133266666Y-104748809D01*
X133380952Y-104786904D01*
X133571428Y-104786904D01*
X132809523Y-104063095D02*
X132771428Y-104025000D01*
X132695238Y-103986904D01*
X132504761Y-103986904D01*
X132428571Y-104025000D01*
X132390476Y-104063095D01*
X132352380Y-104139285D01*
X132352380Y-104215476D01*
X132390476Y-104329761D01*
X132847619Y-104786904D01*
X132352380Y-104786904D01*
X131628571Y-103986904D02*
X132009523Y-103986904D01*
X132047619Y-104367857D01*
X132009523Y-104329761D01*
X131933333Y-104291666D01*
X131742857Y-104291666D01*
X131666666Y-104329761D01*
X131628571Y-104367857D01*
X131590476Y-104444047D01*
X131590476Y-104634523D01*
X131628571Y-104710714D01*
X131666666Y-104748809D01*
X131742857Y-104786904D01*
X131933333Y-104786904D01*
X132009523Y-104748809D01*
X132047619Y-104710714D01*
%TO.C,D24*%
X128721428Y-85786904D02*
X128721428Y-84986904D01*
X128530952Y-84986904D01*
X128416666Y-85025000D01*
X128340476Y-85101190D01*
X128302380Y-85177380D01*
X128264285Y-85329761D01*
X128264285Y-85444047D01*
X128302380Y-85596428D01*
X128340476Y-85672619D01*
X128416666Y-85748809D01*
X128530952Y-85786904D01*
X128721428Y-85786904D01*
X127959523Y-85063095D02*
X127921428Y-85025000D01*
X127845238Y-84986904D01*
X127654761Y-84986904D01*
X127578571Y-85025000D01*
X127540476Y-85063095D01*
X127502380Y-85139285D01*
X127502380Y-85215476D01*
X127540476Y-85329761D01*
X127997619Y-85786904D01*
X127502380Y-85786904D01*
X126816666Y-85253571D02*
X126816666Y-85786904D01*
X127007142Y-84948809D02*
X127197619Y-85520238D01*
X126702380Y-85520238D01*
%TO.C,D23*%
X119471428Y-66786904D02*
X119471428Y-65986904D01*
X119280952Y-65986904D01*
X119166666Y-66025000D01*
X119090476Y-66101190D01*
X119052380Y-66177380D01*
X119014285Y-66329761D01*
X119014285Y-66444047D01*
X119052380Y-66596428D01*
X119090476Y-66672619D01*
X119166666Y-66748809D01*
X119280952Y-66786904D01*
X119471428Y-66786904D01*
X118709523Y-66063095D02*
X118671428Y-66025000D01*
X118595238Y-65986904D01*
X118404761Y-65986904D01*
X118328571Y-66025000D01*
X118290476Y-66063095D01*
X118252380Y-66139285D01*
X118252380Y-66215476D01*
X118290476Y-66329761D01*
X118747619Y-66786904D01*
X118252380Y-66786904D01*
X117985714Y-65986904D02*
X117490476Y-65986904D01*
X117757142Y-66291666D01*
X117642857Y-66291666D01*
X117566666Y-66329761D01*
X117528571Y-66367857D01*
X117490476Y-66444047D01*
X117490476Y-66634523D01*
X117528571Y-66710714D01*
X117566666Y-66748809D01*
X117642857Y-66786904D01*
X117871428Y-66786904D01*
X117947619Y-66748809D01*
X117985714Y-66710714D01*
%TO.C,D22*%
X104971428Y-123786904D02*
X104971428Y-122986904D01*
X104780952Y-122986904D01*
X104666666Y-123025000D01*
X104590476Y-123101190D01*
X104552380Y-123177380D01*
X104514285Y-123329761D01*
X104514285Y-123444047D01*
X104552380Y-123596428D01*
X104590476Y-123672619D01*
X104666666Y-123748809D01*
X104780952Y-123786904D01*
X104971428Y-123786904D01*
X104209523Y-123063095D02*
X104171428Y-123025000D01*
X104095238Y-122986904D01*
X103904761Y-122986904D01*
X103828571Y-123025000D01*
X103790476Y-123063095D01*
X103752380Y-123139285D01*
X103752380Y-123215476D01*
X103790476Y-123329761D01*
X104247619Y-123786904D01*
X103752380Y-123786904D01*
X103447619Y-123063095D02*
X103409523Y-123025000D01*
X103333333Y-122986904D01*
X103142857Y-122986904D01*
X103066666Y-123025000D01*
X103028571Y-123063095D01*
X102990476Y-123139285D01*
X102990476Y-123215476D01*
X103028571Y-123329761D01*
X103485714Y-123786904D01*
X102990476Y-123786904D01*
%TO.C,D21*%
X114646428Y-104786904D02*
X114646428Y-103986904D01*
X114455952Y-103986904D01*
X114341666Y-104025000D01*
X114265476Y-104101190D01*
X114227380Y-104177380D01*
X114189285Y-104329761D01*
X114189285Y-104444047D01*
X114227380Y-104596428D01*
X114265476Y-104672619D01*
X114341666Y-104748809D01*
X114455952Y-104786904D01*
X114646428Y-104786904D01*
X113884523Y-104063095D02*
X113846428Y-104025000D01*
X113770238Y-103986904D01*
X113579761Y-103986904D01*
X113503571Y-104025000D01*
X113465476Y-104063095D01*
X113427380Y-104139285D01*
X113427380Y-104215476D01*
X113465476Y-104329761D01*
X113922619Y-104786904D01*
X113427380Y-104786904D01*
X112665476Y-104786904D02*
X113122619Y-104786904D01*
X112894047Y-104786904D02*
X112894047Y-103986904D01*
X112970238Y-104101190D01*
X113046428Y-104177380D01*
X113122619Y-104215476D01*
%TO.C,D20*%
X109896428Y-85786904D02*
X109896428Y-84986904D01*
X109705952Y-84986904D01*
X109591666Y-85025000D01*
X109515476Y-85101190D01*
X109477380Y-85177380D01*
X109439285Y-85329761D01*
X109439285Y-85444047D01*
X109477380Y-85596428D01*
X109515476Y-85672619D01*
X109591666Y-85748809D01*
X109705952Y-85786904D01*
X109896428Y-85786904D01*
X109134523Y-85063095D02*
X109096428Y-85025000D01*
X109020238Y-84986904D01*
X108829761Y-84986904D01*
X108753571Y-85025000D01*
X108715476Y-85063095D01*
X108677380Y-85139285D01*
X108677380Y-85215476D01*
X108715476Y-85329761D01*
X109172619Y-85786904D01*
X108677380Y-85786904D01*
X108182142Y-84986904D02*
X108105952Y-84986904D01*
X108029761Y-85025000D01*
X107991666Y-85063095D01*
X107953571Y-85139285D01*
X107915476Y-85291666D01*
X107915476Y-85482142D01*
X107953571Y-85634523D01*
X107991666Y-85710714D01*
X108029761Y-85748809D01*
X108105952Y-85786904D01*
X108182142Y-85786904D01*
X108258333Y-85748809D01*
X108296428Y-85710714D01*
X108334523Y-85634523D01*
X108372619Y-85482142D01*
X108372619Y-85291666D01*
X108334523Y-85139285D01*
X108296428Y-85063095D01*
X108258333Y-85025000D01*
X108182142Y-84986904D01*
%TO.C,D19*%
X100471428Y-66786904D02*
X100471428Y-65986904D01*
X100280952Y-65986904D01*
X100166666Y-66025000D01*
X100090476Y-66101190D01*
X100052380Y-66177380D01*
X100014285Y-66329761D01*
X100014285Y-66444047D01*
X100052380Y-66596428D01*
X100090476Y-66672619D01*
X100166666Y-66748809D01*
X100280952Y-66786904D01*
X100471428Y-66786904D01*
X99252380Y-66786904D02*
X99709523Y-66786904D01*
X99480952Y-66786904D02*
X99480952Y-65986904D01*
X99557142Y-66101190D01*
X99633333Y-66177380D01*
X99709523Y-66215476D01*
X98871428Y-66786904D02*
X98719047Y-66786904D01*
X98642857Y-66748809D01*
X98604761Y-66710714D01*
X98528571Y-66596428D01*
X98490476Y-66444047D01*
X98490476Y-66139285D01*
X98528571Y-66063095D01*
X98566666Y-66025000D01*
X98642857Y-65986904D01*
X98795238Y-65986904D01*
X98871428Y-66025000D01*
X98909523Y-66063095D01*
X98947619Y-66139285D01*
X98947619Y-66329761D01*
X98909523Y-66405952D01*
X98871428Y-66444047D01*
X98795238Y-66482142D01*
X98642857Y-66482142D01*
X98566666Y-66444047D01*
X98528571Y-66405952D01*
X98490476Y-66329761D01*
%TO.C,D18*%
X85971428Y-123786904D02*
X85971428Y-122986904D01*
X85780952Y-122986904D01*
X85666666Y-123025000D01*
X85590476Y-123101190D01*
X85552380Y-123177380D01*
X85514285Y-123329761D01*
X85514285Y-123444047D01*
X85552380Y-123596428D01*
X85590476Y-123672619D01*
X85666666Y-123748809D01*
X85780952Y-123786904D01*
X85971428Y-123786904D01*
X84752380Y-123786904D02*
X85209523Y-123786904D01*
X84980952Y-123786904D02*
X84980952Y-122986904D01*
X85057142Y-123101190D01*
X85133333Y-123177380D01*
X85209523Y-123215476D01*
X84295238Y-123329761D02*
X84371428Y-123291666D01*
X84409523Y-123253571D01*
X84447619Y-123177380D01*
X84447619Y-123139285D01*
X84409523Y-123063095D01*
X84371428Y-123025000D01*
X84295238Y-122986904D01*
X84142857Y-122986904D01*
X84066666Y-123025000D01*
X84028571Y-123063095D01*
X83990476Y-123139285D01*
X83990476Y-123177380D01*
X84028571Y-123253571D01*
X84066666Y-123291666D01*
X84142857Y-123329761D01*
X84295238Y-123329761D01*
X84371428Y-123367857D01*
X84409523Y-123405952D01*
X84447619Y-123482142D01*
X84447619Y-123634523D01*
X84409523Y-123710714D01*
X84371428Y-123748809D01*
X84295238Y-123786904D01*
X84142857Y-123786904D01*
X84066666Y-123748809D01*
X84028571Y-123710714D01*
X83990476Y-123634523D01*
X83990476Y-123482142D01*
X84028571Y-123405952D01*
X84066666Y-123367857D01*
X84142857Y-123329761D01*
%TO.C,D17*%
X95471428Y-104786904D02*
X95471428Y-103986904D01*
X95280952Y-103986904D01*
X95166666Y-104025000D01*
X95090476Y-104101190D01*
X95052380Y-104177380D01*
X95014285Y-104329761D01*
X95014285Y-104444047D01*
X95052380Y-104596428D01*
X95090476Y-104672619D01*
X95166666Y-104748809D01*
X95280952Y-104786904D01*
X95471428Y-104786904D01*
X94252380Y-104786904D02*
X94709523Y-104786904D01*
X94480952Y-104786904D02*
X94480952Y-103986904D01*
X94557142Y-104101190D01*
X94633333Y-104177380D01*
X94709523Y-104215476D01*
X93985714Y-103986904D02*
X93452380Y-103986904D01*
X93795238Y-104786904D01*
%TO.C,D16*%
X90721428Y-85786904D02*
X90721428Y-84986904D01*
X90530952Y-84986904D01*
X90416666Y-85025000D01*
X90340476Y-85101190D01*
X90302380Y-85177380D01*
X90264285Y-85329761D01*
X90264285Y-85444047D01*
X90302380Y-85596428D01*
X90340476Y-85672619D01*
X90416666Y-85748809D01*
X90530952Y-85786904D01*
X90721428Y-85786904D01*
X89502380Y-85786904D02*
X89959523Y-85786904D01*
X89730952Y-85786904D02*
X89730952Y-84986904D01*
X89807142Y-85101190D01*
X89883333Y-85177380D01*
X89959523Y-85215476D01*
X88816666Y-84986904D02*
X88969047Y-84986904D01*
X89045238Y-85025000D01*
X89083333Y-85063095D01*
X89159523Y-85177380D01*
X89197619Y-85329761D01*
X89197619Y-85634523D01*
X89159523Y-85710714D01*
X89121428Y-85748809D01*
X89045238Y-85786904D01*
X88892857Y-85786904D01*
X88816666Y-85748809D01*
X88778571Y-85710714D01*
X88740476Y-85634523D01*
X88740476Y-85444047D01*
X88778571Y-85367857D01*
X88816666Y-85329761D01*
X88892857Y-85291666D01*
X89045238Y-85291666D01*
X89121428Y-85329761D01*
X89159523Y-85367857D01*
X89197619Y-85444047D01*
%TO.C,D15*%
X81221428Y-66786904D02*
X81221428Y-65986904D01*
X81030952Y-65986904D01*
X80916666Y-66025000D01*
X80840476Y-66101190D01*
X80802380Y-66177380D01*
X80764285Y-66329761D01*
X80764285Y-66444047D01*
X80802380Y-66596428D01*
X80840476Y-66672619D01*
X80916666Y-66748809D01*
X81030952Y-66786904D01*
X81221428Y-66786904D01*
X80002380Y-66786904D02*
X80459523Y-66786904D01*
X80230952Y-66786904D02*
X80230952Y-65986904D01*
X80307142Y-66101190D01*
X80383333Y-66177380D01*
X80459523Y-66215476D01*
X79278571Y-65986904D02*
X79659523Y-65986904D01*
X79697619Y-66367857D01*
X79659523Y-66329761D01*
X79583333Y-66291666D01*
X79392857Y-66291666D01*
X79316666Y-66329761D01*
X79278571Y-66367857D01*
X79240476Y-66444047D01*
X79240476Y-66634523D01*
X79278571Y-66710714D01*
X79316666Y-66748809D01*
X79392857Y-66786904D01*
X79583333Y-66786904D01*
X79659523Y-66748809D01*
X79697619Y-66710714D01*
%TO.C,D14*%
X74221428Y-142786904D02*
X74221428Y-141986904D01*
X74030952Y-141986904D01*
X73916666Y-142025000D01*
X73840476Y-142101190D01*
X73802380Y-142177380D01*
X73764285Y-142329761D01*
X73764285Y-142444047D01*
X73802380Y-142596428D01*
X73840476Y-142672619D01*
X73916666Y-142748809D01*
X74030952Y-142786904D01*
X74221428Y-142786904D01*
X73002380Y-142786904D02*
X73459523Y-142786904D01*
X73230952Y-142786904D02*
X73230952Y-141986904D01*
X73307142Y-142101190D01*
X73383333Y-142177380D01*
X73459523Y-142215476D01*
X72316666Y-142253571D02*
X72316666Y-142786904D01*
X72507142Y-141948809D02*
X72697619Y-142520238D01*
X72202380Y-142520238D01*
%TO.C,D13*%
X67221428Y-123786904D02*
X67221428Y-122986904D01*
X67030952Y-122986904D01*
X66916666Y-123025000D01*
X66840476Y-123101190D01*
X66802380Y-123177380D01*
X66764285Y-123329761D01*
X66764285Y-123444047D01*
X66802380Y-123596428D01*
X66840476Y-123672619D01*
X66916666Y-123748809D01*
X67030952Y-123786904D01*
X67221428Y-123786904D01*
X66002380Y-123786904D02*
X66459523Y-123786904D01*
X66230952Y-123786904D02*
X66230952Y-122986904D01*
X66307142Y-123101190D01*
X66383333Y-123177380D01*
X66459523Y-123215476D01*
X65735714Y-122986904D02*
X65240476Y-122986904D01*
X65507142Y-123291666D01*
X65392857Y-123291666D01*
X65316666Y-123329761D01*
X65278571Y-123367857D01*
X65240476Y-123444047D01*
X65240476Y-123634523D01*
X65278571Y-123710714D01*
X65316666Y-123748809D01*
X65392857Y-123786904D01*
X65621428Y-123786904D01*
X65697619Y-123748809D01*
X65735714Y-123710714D01*
%TO.C,D12*%
X76471428Y-104786904D02*
X76471428Y-103986904D01*
X76280952Y-103986904D01*
X76166666Y-104025000D01*
X76090476Y-104101190D01*
X76052380Y-104177380D01*
X76014285Y-104329761D01*
X76014285Y-104444047D01*
X76052380Y-104596428D01*
X76090476Y-104672619D01*
X76166666Y-104748809D01*
X76280952Y-104786904D01*
X76471428Y-104786904D01*
X75252380Y-104786904D02*
X75709523Y-104786904D01*
X75480952Y-104786904D02*
X75480952Y-103986904D01*
X75557142Y-104101190D01*
X75633333Y-104177380D01*
X75709523Y-104215476D01*
X74947619Y-104063095D02*
X74909523Y-104025000D01*
X74833333Y-103986904D01*
X74642857Y-103986904D01*
X74566666Y-104025000D01*
X74528571Y-104063095D01*
X74490476Y-104139285D01*
X74490476Y-104215476D01*
X74528571Y-104329761D01*
X74985714Y-104786904D01*
X74490476Y-104786904D01*
%TO.C,D11*%
X71896428Y-85786904D02*
X71896428Y-84986904D01*
X71705952Y-84986904D01*
X71591666Y-85025000D01*
X71515476Y-85101190D01*
X71477380Y-85177380D01*
X71439285Y-85329761D01*
X71439285Y-85444047D01*
X71477380Y-85596428D01*
X71515476Y-85672619D01*
X71591666Y-85748809D01*
X71705952Y-85786904D01*
X71896428Y-85786904D01*
X70677380Y-85786904D02*
X71134523Y-85786904D01*
X70905952Y-85786904D02*
X70905952Y-84986904D01*
X70982142Y-85101190D01*
X71058333Y-85177380D01*
X71134523Y-85215476D01*
X69915476Y-85786904D02*
X70372619Y-85786904D01*
X70144047Y-85786904D02*
X70144047Y-84986904D01*
X70220238Y-85101190D01*
X70296428Y-85177380D01*
X70372619Y-85215476D01*
%TO.C,D10*%
X62221428Y-66786904D02*
X62221428Y-65986904D01*
X62030952Y-65986904D01*
X61916666Y-66025000D01*
X61840476Y-66101190D01*
X61802380Y-66177380D01*
X61764285Y-66329761D01*
X61764285Y-66444047D01*
X61802380Y-66596428D01*
X61840476Y-66672619D01*
X61916666Y-66748809D01*
X62030952Y-66786904D01*
X62221428Y-66786904D01*
X61002380Y-66786904D02*
X61459523Y-66786904D01*
X61230952Y-66786904D02*
X61230952Y-65986904D01*
X61307142Y-66101190D01*
X61383333Y-66177380D01*
X61459523Y-66215476D01*
X60507142Y-65986904D02*
X60430952Y-65986904D01*
X60354761Y-66025000D01*
X60316666Y-66063095D01*
X60278571Y-66139285D01*
X60240476Y-66291666D01*
X60240476Y-66482142D01*
X60278571Y-66634523D01*
X60316666Y-66710714D01*
X60354761Y-66748809D01*
X60430952Y-66786904D01*
X60507142Y-66786904D01*
X60583333Y-66748809D01*
X60621428Y-66710714D01*
X60659523Y-66634523D01*
X60697619Y-66482142D01*
X60697619Y-66291666D01*
X60659523Y-66139285D01*
X60621428Y-66063095D01*
X60583333Y-66025000D01*
X60507142Y-65986904D01*
%TO.C,D9*%
X49840476Y-143036904D02*
X49840476Y-142236904D01*
X49650000Y-142236904D01*
X49535714Y-142275000D01*
X49459523Y-142351190D01*
X49421428Y-142427380D01*
X49383333Y-142579761D01*
X49383333Y-142694047D01*
X49421428Y-142846428D01*
X49459523Y-142922619D01*
X49535714Y-142998809D01*
X49650000Y-143036904D01*
X49840476Y-143036904D01*
X49002380Y-143036904D02*
X48850000Y-143036904D01*
X48773809Y-142998809D01*
X48735714Y-142960714D01*
X48659523Y-142846428D01*
X48621428Y-142694047D01*
X48621428Y-142389285D01*
X48659523Y-142313095D01*
X48697619Y-142275000D01*
X48773809Y-142236904D01*
X48926190Y-142236904D01*
X49002380Y-142275000D01*
X49040476Y-142313095D01*
X49078571Y-142389285D01*
X49078571Y-142579761D01*
X49040476Y-142655952D01*
X49002380Y-142694047D01*
X48926190Y-142732142D01*
X48773809Y-142732142D01*
X48697619Y-142694047D01*
X48659523Y-142655952D01*
X48621428Y-142579761D01*
%TO.C,D8*%
X57140476Y-104786904D02*
X57140476Y-103986904D01*
X56950000Y-103986904D01*
X56835714Y-104025000D01*
X56759523Y-104101190D01*
X56721428Y-104177380D01*
X56683333Y-104329761D01*
X56683333Y-104444047D01*
X56721428Y-104596428D01*
X56759523Y-104672619D01*
X56835714Y-104748809D01*
X56950000Y-104786904D01*
X57140476Y-104786904D01*
X56226190Y-104329761D02*
X56302380Y-104291666D01*
X56340476Y-104253571D01*
X56378571Y-104177380D01*
X56378571Y-104139285D01*
X56340476Y-104063095D01*
X56302380Y-104025000D01*
X56226190Y-103986904D01*
X56073809Y-103986904D01*
X55997619Y-104025000D01*
X55959523Y-104063095D01*
X55921428Y-104139285D01*
X55921428Y-104177380D01*
X55959523Y-104253571D01*
X55997619Y-104291666D01*
X56073809Y-104329761D01*
X56226190Y-104329761D01*
X56302380Y-104367857D01*
X56340476Y-104405952D01*
X56378571Y-104482142D01*
X56378571Y-104634523D01*
X56340476Y-104710714D01*
X56302380Y-104748809D01*
X56226190Y-104786904D01*
X56073809Y-104786904D01*
X55997619Y-104748809D01*
X55959523Y-104710714D01*
X55921428Y-104634523D01*
X55921428Y-104482142D01*
X55959523Y-104405952D01*
X55997619Y-104367857D01*
X56073809Y-104329761D01*
%TO.C,D7*%
X52340476Y-85786904D02*
X52340476Y-84986904D01*
X52150000Y-84986904D01*
X52035714Y-85025000D01*
X51959523Y-85101190D01*
X51921428Y-85177380D01*
X51883333Y-85329761D01*
X51883333Y-85444047D01*
X51921428Y-85596428D01*
X51959523Y-85672619D01*
X52035714Y-85748809D01*
X52150000Y-85786904D01*
X52340476Y-85786904D01*
X51616666Y-84986904D02*
X51083333Y-84986904D01*
X51426190Y-85786904D01*
%TO.C,D6*%
X43090476Y-66786904D02*
X43090476Y-65986904D01*
X42900000Y-65986904D01*
X42785714Y-66025000D01*
X42709523Y-66101190D01*
X42671428Y-66177380D01*
X42633333Y-66329761D01*
X42633333Y-66444047D01*
X42671428Y-66596428D01*
X42709523Y-66672619D01*
X42785714Y-66748809D01*
X42900000Y-66786904D01*
X43090476Y-66786904D01*
X41947619Y-65986904D02*
X42100000Y-65986904D01*
X42176190Y-66025000D01*
X42214285Y-66063095D01*
X42290476Y-66177380D01*
X42328571Y-66329761D01*
X42328571Y-66634523D01*
X42290476Y-66710714D01*
X42252380Y-66748809D01*
X42176190Y-66786904D01*
X42023809Y-66786904D01*
X41947619Y-66748809D01*
X41909523Y-66710714D01*
X41871428Y-66634523D01*
X41871428Y-66444047D01*
X41909523Y-66367857D01*
X41947619Y-66329761D01*
X42023809Y-66291666D01*
X42176190Y-66291666D01*
X42252380Y-66329761D01*
X42290476Y-66367857D01*
X42328571Y-66444047D01*
%TO.C,D5*%
X26015476Y-143036904D02*
X26015476Y-142236904D01*
X25825000Y-142236904D01*
X25710714Y-142275000D01*
X25634523Y-142351190D01*
X25596428Y-142427380D01*
X25558333Y-142579761D01*
X25558333Y-142694047D01*
X25596428Y-142846428D01*
X25634523Y-142922619D01*
X25710714Y-142998809D01*
X25825000Y-143036904D01*
X26015476Y-143036904D01*
X24834523Y-142236904D02*
X25215476Y-142236904D01*
X25253571Y-142617857D01*
X25215476Y-142579761D01*
X25139285Y-142541666D01*
X24948809Y-142541666D01*
X24872619Y-142579761D01*
X24834523Y-142617857D01*
X24796428Y-142694047D01*
X24796428Y-142884523D01*
X24834523Y-142960714D01*
X24872619Y-142998809D01*
X24948809Y-143036904D01*
X25139285Y-143036904D01*
X25215476Y-142998809D01*
X25253571Y-142960714D01*
%TO.C,D4*%
X35640476Y-124036904D02*
X35640476Y-123236904D01*
X35450000Y-123236904D01*
X35335714Y-123275000D01*
X35259523Y-123351190D01*
X35221428Y-123427380D01*
X35183333Y-123579761D01*
X35183333Y-123694047D01*
X35221428Y-123846428D01*
X35259523Y-123922619D01*
X35335714Y-123998809D01*
X35450000Y-124036904D01*
X35640476Y-124036904D01*
X34497619Y-123503571D02*
X34497619Y-124036904D01*
X34688095Y-123198809D02*
X34878571Y-123770238D01*
X34383333Y-123770238D01*
%TO.C,D3*%
X30840476Y-104786904D02*
X30840476Y-103986904D01*
X30650000Y-103986904D01*
X30535714Y-104025000D01*
X30459523Y-104101190D01*
X30421428Y-104177380D01*
X30383333Y-104329761D01*
X30383333Y-104444047D01*
X30421428Y-104596428D01*
X30459523Y-104672619D01*
X30535714Y-104748809D01*
X30650000Y-104786904D01*
X30840476Y-104786904D01*
X30116666Y-103986904D02*
X29621428Y-103986904D01*
X29888095Y-104291666D01*
X29773809Y-104291666D01*
X29697619Y-104329761D01*
X29659523Y-104367857D01*
X29621428Y-104444047D01*
X29621428Y-104634523D01*
X29659523Y-104710714D01*
X29697619Y-104748809D01*
X29773809Y-104786904D01*
X30002380Y-104786904D01*
X30078571Y-104748809D01*
X30116666Y-104710714D01*
%TO.C,D2*%
X28340476Y-85786904D02*
X28340476Y-84986904D01*
X28150000Y-84986904D01*
X28035714Y-85025000D01*
X27959523Y-85101190D01*
X27921428Y-85177380D01*
X27883333Y-85329761D01*
X27883333Y-85444047D01*
X27921428Y-85596428D01*
X27959523Y-85672619D01*
X28035714Y-85748809D01*
X28150000Y-85786904D01*
X28340476Y-85786904D01*
X27578571Y-85063095D02*
X27540476Y-85025000D01*
X27464285Y-84986904D01*
X27273809Y-84986904D01*
X27197619Y-85025000D01*
X27159523Y-85063095D01*
X27121428Y-85139285D01*
X27121428Y-85215476D01*
X27159523Y-85329761D01*
X27616666Y-85786904D01*
X27121428Y-85786904D01*
%TO.C,D1*%
X23840476Y-66786904D02*
X23840476Y-65986904D01*
X23650000Y-65986904D01*
X23535714Y-66025000D01*
X23459523Y-66101190D01*
X23421428Y-66177380D01*
X23383333Y-66329761D01*
X23383333Y-66444047D01*
X23421428Y-66596428D01*
X23459523Y-66672619D01*
X23535714Y-66748809D01*
X23650000Y-66786904D01*
X23840476Y-66786904D01*
X22621428Y-66786904D02*
X23078571Y-66786904D01*
X22850000Y-66786904D02*
X22850000Y-65986904D01*
X22926190Y-66101190D01*
X23002380Y-66177380D01*
X23078571Y-66215476D01*
%TO.C,C8*%
X165954166Y-125177142D02*
X166001785Y-125224761D01*
X166144642Y-125272380D01*
X166239880Y-125272380D01*
X166382738Y-125224761D01*
X166477976Y-125129523D01*
X166525595Y-125034285D01*
X166573214Y-124843809D01*
X166573214Y-124700952D01*
X166525595Y-124510476D01*
X166477976Y-124415238D01*
X166382738Y-124320000D01*
X166239880Y-124272380D01*
X166144642Y-124272380D01*
X166001785Y-124320000D01*
X165954166Y-124367619D01*
X165382738Y-124700952D02*
X165477976Y-124653333D01*
X165525595Y-124605714D01*
X165573214Y-124510476D01*
X165573214Y-124462857D01*
X165525595Y-124367619D01*
X165477976Y-124320000D01*
X165382738Y-124272380D01*
X165192261Y-124272380D01*
X165097023Y-124320000D01*
X165049404Y-124367619D01*
X165001785Y-124462857D01*
X165001785Y-124510476D01*
X165049404Y-124605714D01*
X165097023Y-124653333D01*
X165192261Y-124700952D01*
X165382738Y-124700952D01*
X165477976Y-124748571D01*
X165525595Y-124796190D01*
X165573214Y-124891428D01*
X165573214Y-125081904D01*
X165525595Y-125177142D01*
X165477976Y-125224761D01*
X165382738Y-125272380D01*
X165192261Y-125272380D01*
X165097023Y-125224761D01*
X165049404Y-125177142D01*
X165001785Y-125081904D01*
X165001785Y-124891428D01*
X165049404Y-124796190D01*
X165097023Y-124748571D01*
X165192261Y-124700952D01*
%TO.C,C7*%
X112927142Y-131295833D02*
X112974761Y-131248214D01*
X113022380Y-131105357D01*
X113022380Y-131010119D01*
X112974761Y-130867261D01*
X112879523Y-130772023D01*
X112784285Y-130724404D01*
X112593809Y-130676785D01*
X112450952Y-130676785D01*
X112260476Y-130724404D01*
X112165238Y-130772023D01*
X112070000Y-130867261D01*
X112022380Y-131010119D01*
X112022380Y-131105357D01*
X112070000Y-131248214D01*
X112117619Y-131295833D01*
X112022380Y-131629166D02*
X112022380Y-132295833D01*
X113022380Y-131867261D01*
%TO.C,C6*%
X116177142Y-131295833D02*
X116224761Y-131248214D01*
X116272380Y-131105357D01*
X116272380Y-131010119D01*
X116224761Y-130867261D01*
X116129523Y-130772023D01*
X116034285Y-130724404D01*
X115843809Y-130676785D01*
X115700952Y-130676785D01*
X115510476Y-130724404D01*
X115415238Y-130772023D01*
X115320000Y-130867261D01*
X115272380Y-131010119D01*
X115272380Y-131105357D01*
X115320000Y-131248214D01*
X115367619Y-131295833D01*
X115272380Y-132152976D02*
X115272380Y-131962500D01*
X115320000Y-131867261D01*
X115367619Y-131819642D01*
X115510476Y-131724404D01*
X115700952Y-131676785D01*
X116081904Y-131676785D01*
X116177142Y-131724404D01*
X116224761Y-131772023D01*
X116272380Y-131867261D01*
X116272380Y-132057738D01*
X116224761Y-132152976D01*
X116177142Y-132200595D01*
X116081904Y-132248214D01*
X115843809Y-132248214D01*
X115748571Y-132200595D01*
X115700952Y-132152976D01*
X115653333Y-132057738D01*
X115653333Y-131867261D01*
X115700952Y-131772023D01*
X115748571Y-131724404D01*
X115843809Y-131676785D01*
%TO.C,C5*%
X119427142Y-131295833D02*
X119474761Y-131248214D01*
X119522380Y-131105357D01*
X119522380Y-131010119D01*
X119474761Y-130867261D01*
X119379523Y-130772023D01*
X119284285Y-130724404D01*
X119093809Y-130676785D01*
X118950952Y-130676785D01*
X118760476Y-130724404D01*
X118665238Y-130772023D01*
X118570000Y-130867261D01*
X118522380Y-131010119D01*
X118522380Y-131105357D01*
X118570000Y-131248214D01*
X118617619Y-131295833D01*
X118522380Y-132200595D02*
X118522380Y-131724404D01*
X118998571Y-131676785D01*
X118950952Y-131724404D01*
X118903333Y-131819642D01*
X118903333Y-132057738D01*
X118950952Y-132152976D01*
X118998571Y-132200595D01*
X119093809Y-132248214D01*
X119331904Y-132248214D01*
X119427142Y-132200595D01*
X119474761Y-132152976D01*
X119522380Y-132057738D01*
X119522380Y-131819642D01*
X119474761Y-131724404D01*
X119427142Y-131676785D01*
%TO.C,C4*%
X122677142Y-131295833D02*
X122724761Y-131248214D01*
X122772380Y-131105357D01*
X122772380Y-131010119D01*
X122724761Y-130867261D01*
X122629523Y-130772023D01*
X122534285Y-130724404D01*
X122343809Y-130676785D01*
X122200952Y-130676785D01*
X122010476Y-130724404D01*
X121915238Y-130772023D01*
X121820000Y-130867261D01*
X121772380Y-131010119D01*
X121772380Y-131105357D01*
X121820000Y-131248214D01*
X121867619Y-131295833D01*
X122105714Y-132152976D02*
X122772380Y-132152976D01*
X121724761Y-131914880D02*
X122439047Y-131676785D01*
X122439047Y-132295833D01*
%TO.C,C3*%
X125927142Y-131295833D02*
X125974761Y-131248214D01*
X126022380Y-131105357D01*
X126022380Y-131010119D01*
X125974761Y-130867261D01*
X125879523Y-130772023D01*
X125784285Y-130724404D01*
X125593809Y-130676785D01*
X125450952Y-130676785D01*
X125260476Y-130724404D01*
X125165238Y-130772023D01*
X125070000Y-130867261D01*
X125022380Y-131010119D01*
X125022380Y-131105357D01*
X125070000Y-131248214D01*
X125117619Y-131295833D01*
X125022380Y-131629166D02*
X125022380Y-132248214D01*
X125403333Y-131914880D01*
X125403333Y-132057738D01*
X125450952Y-132152976D01*
X125498571Y-132200595D01*
X125593809Y-132248214D01*
X125831904Y-132248214D01*
X125927142Y-132200595D01*
X125974761Y-132152976D01*
X126022380Y-132057738D01*
X126022380Y-131772023D01*
X125974761Y-131676785D01*
X125927142Y-131629166D01*
%TO.C,C2*%
X180204166Y-143037142D02*
X180251785Y-143084761D01*
X180394642Y-143132380D01*
X180489880Y-143132380D01*
X180632738Y-143084761D01*
X180727976Y-142989523D01*
X180775595Y-142894285D01*
X180823214Y-142703809D01*
X180823214Y-142560952D01*
X180775595Y-142370476D01*
X180727976Y-142275238D01*
X180632738Y-142180000D01*
X180489880Y-142132380D01*
X180394642Y-142132380D01*
X180251785Y-142180000D01*
X180204166Y-142227619D01*
X179823214Y-142227619D02*
X179775595Y-142180000D01*
X179680357Y-142132380D01*
X179442261Y-142132380D01*
X179347023Y-142180000D01*
X179299404Y-142227619D01*
X179251785Y-142322857D01*
X179251785Y-142418095D01*
X179299404Y-142560952D01*
X179870833Y-143132380D01*
X179251785Y-143132380D01*
%TO.C,C1*%
X180166666Y-132287142D02*
X180214285Y-132334761D01*
X180357142Y-132382380D01*
X180452380Y-132382380D01*
X180595238Y-132334761D01*
X180690476Y-132239523D01*
X180738095Y-132144285D01*
X180785714Y-131953809D01*
X180785714Y-131810952D01*
X180738095Y-131620476D01*
X180690476Y-131525238D01*
X180595238Y-131430000D01*
X180452380Y-131382380D01*
X180357142Y-131382380D01*
X180214285Y-131430000D01*
X180166666Y-131477619D01*
X179214285Y-132382380D02*
X179785714Y-132382380D01*
X179500000Y-132382380D02*
X179500000Y-131382380D01*
X179595238Y-131525238D01*
X179690476Y-131620476D01*
X179785714Y-131668095D01*
%TD*%
M02*
