%TF.GenerationSoftware,KiCad,Pcbnew,(5.1.10)-1*%
%TF.CreationDate,2022-03-05T23:42:07-05:00*%
%TF.ProjectId,Keebrov2,4b656562-726f-4763-922e-6b696361645f,rev?*%
%TF.SameCoordinates,Original*%
%TF.FileFunction,Legend,Top*%
%TF.FilePolarity,Positive*%
%FSLAX46Y46*%
G04 Gerber Fmt 4.6, Leading zero omitted, Abs format (unit mm)*
G04 Created by KiCad (PCBNEW (5.1.10)-1) date 2022-03-05 23:42:07*
%MOMM*%
%LPD*%
G01*
G04 APERTURE LIST*
%ADD10C,0.250000*%
%ADD11C,0.150000*%
%ADD12C,0.200000*%
%ADD13C,0.010000*%
%ADD14C,0.381000*%
G04 APERTURE END LIST*
D10*
X91250000Y-149000000D02*
X91964285Y-149000000D01*
X91107142Y-149428571D02*
X91607142Y-147928571D01*
X92107142Y-149428571D01*
X92607142Y-148428571D02*
X92607142Y-149428571D01*
X92607142Y-148571428D02*
X92678571Y-148500000D01*
X92821428Y-148428571D01*
X93035714Y-148428571D01*
X93178571Y-148500000D01*
X93250000Y-148642857D01*
X93250000Y-149428571D01*
X94607142Y-149428571D02*
X94607142Y-148642857D01*
X94535714Y-148500000D01*
X94392857Y-148428571D01*
X94107142Y-148428571D01*
X93964285Y-148500000D01*
X94607142Y-149357142D02*
X94464285Y-149428571D01*
X94107142Y-149428571D01*
X93964285Y-149357142D01*
X93892857Y-149214285D01*
X93892857Y-149071428D01*
X93964285Y-148928571D01*
X94107142Y-148857142D01*
X94464285Y-148857142D01*
X94607142Y-148785714D01*
X95107142Y-148428571D02*
X95678571Y-148428571D01*
X95321428Y-147928571D02*
X95321428Y-149214285D01*
X95392857Y-149357142D01*
X95535714Y-149428571D01*
X95678571Y-149428571D01*
X96178571Y-149428571D02*
X96178571Y-148428571D01*
X96178571Y-147928571D02*
X96107142Y-148000000D01*
X96178571Y-148071428D01*
X96250000Y-148000000D01*
X96178571Y-147928571D01*
X96178571Y-148071428D01*
X97535714Y-149428571D02*
X97535714Y-147928571D01*
X97535714Y-149357142D02*
X97392857Y-149428571D01*
X97107142Y-149428571D01*
X96964285Y-149357142D01*
X96892857Y-149285714D01*
X96821428Y-149142857D01*
X96821428Y-148714285D01*
X96892857Y-148571428D01*
X96964285Y-148500000D01*
X97107142Y-148428571D01*
X97392857Y-148428571D01*
X97535714Y-148500000D01*
X98892857Y-149428571D02*
X98892857Y-148642857D01*
X98821428Y-148500000D01*
X98678571Y-148428571D01*
X98392857Y-148428571D01*
X98250000Y-148500000D01*
X98892857Y-149357142D02*
X98750000Y-149428571D01*
X98392857Y-149428571D01*
X98250000Y-149357142D01*
X98178571Y-149214285D01*
X98178571Y-149071428D01*
X98250000Y-148928571D01*
X98392857Y-148857142D01*
X98750000Y-148857142D01*
X98892857Y-148785714D01*
X100178571Y-149357142D02*
X100035714Y-149428571D01*
X99750000Y-149428571D01*
X99607142Y-149357142D01*
X99535714Y-149214285D01*
X99535714Y-148642857D01*
X99607142Y-148500000D01*
X99750000Y-148428571D01*
X100035714Y-148428571D01*
X100178571Y-148500000D01*
X100250000Y-148642857D01*
X100250000Y-148785714D01*
X99535714Y-148928571D01*
X102678571Y-147928571D02*
X102392857Y-147928571D01*
X102250000Y-148000000D01*
X102178571Y-148071428D01*
X102035714Y-148285714D01*
X101964285Y-148571428D01*
X101964285Y-149142857D01*
X102035714Y-149285714D01*
X102107142Y-149357142D01*
X102250000Y-149428571D01*
X102535714Y-149428571D01*
X102678571Y-149357142D01*
X102750000Y-149285714D01*
X102821428Y-149142857D01*
X102821428Y-148785714D01*
X102750000Y-148642857D01*
X102678571Y-148571428D01*
X102535714Y-148500000D01*
X102250000Y-148500000D01*
X102107142Y-148571428D01*
X102035714Y-148642857D01*
X101964285Y-148785714D01*
X103750000Y-147928571D02*
X103892857Y-147928571D01*
X104035714Y-148000000D01*
X104107142Y-148071428D01*
X104178571Y-148214285D01*
X104250000Y-148500000D01*
X104250000Y-148857142D01*
X104178571Y-149142857D01*
X104107142Y-149285714D01*
X104035714Y-149357142D01*
X103892857Y-149428571D01*
X103750000Y-149428571D01*
X103607142Y-149357142D01*
X103535714Y-149285714D01*
X103464285Y-149142857D01*
X103392857Y-148857142D01*
X103392857Y-148500000D01*
X103464285Y-148214285D01*
X103535714Y-148071428D01*
X103607142Y-148000000D01*
X103750000Y-147928571D01*
D11*
X220804776Y-146535714D02*
X220959538Y-147202380D01*
X221280967Y-146535714D01*
X221894062Y-146202380D02*
X221989300Y-146202380D01*
X222078586Y-146250000D01*
X222120252Y-146297619D01*
X222155967Y-146392857D01*
X222179776Y-146583333D01*
X222150014Y-146821428D01*
X222078586Y-147011904D01*
X222019062Y-147107142D01*
X221965491Y-147154761D01*
X221864300Y-147202380D01*
X221769062Y-147202380D01*
X221679776Y-147154761D01*
X221638110Y-147107142D01*
X221602395Y-147011904D01*
X221578586Y-146821428D01*
X221608348Y-146583333D01*
X221679776Y-146392857D01*
X221739300Y-146297619D01*
X221792872Y-146250000D01*
X221894062Y-146202380D01*
X222542872Y-147107142D02*
X222584538Y-147154761D01*
X222530967Y-147202380D01*
X222489300Y-147154761D01*
X222542872Y-147107142D01*
X222530967Y-147202380D01*
X223530967Y-147202380D02*
X222959538Y-147202380D01*
X223245252Y-147202380D02*
X223370252Y-146202380D01*
X223257157Y-146345238D01*
X223150014Y-146440476D01*
X223048824Y-146488095D01*
X208857142Y-149071428D02*
X209619047Y-149071428D01*
X210047619Y-149166666D02*
X210523809Y-149166666D01*
X209952380Y-149452380D02*
X210285714Y-148452380D01*
X210619047Y-149452380D01*
X211095238Y-149452380D02*
X211000000Y-149404761D01*
X210952380Y-149309523D01*
X210952380Y-148452380D01*
X211857142Y-149404761D02*
X211761904Y-149452380D01*
X211571428Y-149452380D01*
X211476190Y-149404761D01*
X211428571Y-149309523D01*
X211428571Y-148928571D01*
X211476190Y-148833333D01*
X211571428Y-148785714D01*
X211761904Y-148785714D01*
X211857142Y-148833333D01*
X211904761Y-148928571D01*
X211904761Y-149023809D01*
X211428571Y-149119047D01*
X212238095Y-149452380D02*
X212761904Y-148785714D01*
X212238095Y-148785714D02*
X212761904Y-149452380D01*
X213904761Y-149452380D02*
X213904761Y-148452380D01*
X214285714Y-148452380D01*
X214380952Y-148500000D01*
X214428571Y-148547619D01*
X214476190Y-148642857D01*
X214476190Y-148785714D01*
X214428571Y-148880952D01*
X214380952Y-148928571D01*
X214285714Y-148976190D01*
X213904761Y-148976190D01*
X215285714Y-149404761D02*
X215190476Y-149452380D01*
X215000000Y-149452380D01*
X214904761Y-149404761D01*
X214857142Y-149309523D01*
X214857142Y-148928571D01*
X214904761Y-148833333D01*
X215000000Y-148785714D01*
X215190476Y-148785714D01*
X215285714Y-148833333D01*
X215333333Y-148928571D01*
X215333333Y-149023809D01*
X214857142Y-149119047D01*
X215761904Y-148785714D02*
X215761904Y-149452380D01*
X215761904Y-148880952D02*
X215809523Y-148833333D01*
X215904761Y-148785714D01*
X216047619Y-148785714D01*
X216142857Y-148833333D01*
X216190476Y-148928571D01*
X216190476Y-149452380D01*
X217095238Y-148785714D02*
X217095238Y-149595238D01*
X217047619Y-149690476D01*
X217000000Y-149738095D01*
X216904761Y-149785714D01*
X216761904Y-149785714D01*
X216666666Y-149738095D01*
X217095238Y-149404761D02*
X217000000Y-149452380D01*
X216809523Y-149452380D01*
X216714285Y-149404761D01*
X216666666Y-149357142D01*
X216619047Y-149261904D01*
X216619047Y-148976190D01*
X216666666Y-148880952D01*
X216714285Y-148833333D01*
X216809523Y-148785714D01*
X217000000Y-148785714D01*
X217095238Y-148833333D01*
X217619047Y-149404761D02*
X217619047Y-149452380D01*
X217571428Y-149547619D01*
X217523809Y-149595238D01*
X218761904Y-148547619D02*
X218809523Y-148500000D01*
X218904761Y-148452380D01*
X219142857Y-148452380D01*
X219238095Y-148500000D01*
X219285714Y-148547619D01*
X219333333Y-148642857D01*
X219333333Y-148738095D01*
X219285714Y-148880952D01*
X218714285Y-149452380D01*
X219333333Y-149452380D01*
X219952380Y-148452380D02*
X220047619Y-148452380D01*
X220142857Y-148500000D01*
X220190476Y-148547619D01*
X220238095Y-148642857D01*
X220285714Y-148833333D01*
X220285714Y-149071428D01*
X220238095Y-149261904D01*
X220190476Y-149357142D01*
X220142857Y-149404761D01*
X220047619Y-149452380D01*
X219952380Y-149452380D01*
X219857142Y-149404761D01*
X219809523Y-149357142D01*
X219761904Y-149261904D01*
X219714285Y-149071428D01*
X219714285Y-148833333D01*
X219761904Y-148642857D01*
X219809523Y-148547619D01*
X219857142Y-148500000D01*
X219952380Y-148452380D01*
X220666666Y-148547619D02*
X220714285Y-148500000D01*
X220809523Y-148452380D01*
X221047619Y-148452380D01*
X221142857Y-148500000D01*
X221190476Y-148547619D01*
X221238095Y-148642857D01*
X221238095Y-148738095D01*
X221190476Y-148880952D01*
X220619047Y-149452380D01*
X221238095Y-149452380D01*
X221619047Y-148547619D02*
X221666666Y-148500000D01*
X221761904Y-148452380D01*
X222000000Y-148452380D01*
X222095238Y-148500000D01*
X222142857Y-148547619D01*
X222190476Y-148642857D01*
X222190476Y-148738095D01*
X222142857Y-148880952D01*
X221571428Y-149452380D01*
X222190476Y-149452380D01*
D12*
X25150425Y-60250349D02*
G75*
G03*
X25150425Y-60250349I-2000000J0D01*
G01*
X265656774Y-136450509D02*
G75*
G03*
X265656774Y-136450509I-2000000J0D01*
G01*
X51342775Y-136450509D02*
G75*
G03*
X51342775Y-136450509I-2000000J0D01*
G01*
X75156775Y-136450509D02*
G75*
G03*
X75156775Y-136450509I-2000000J0D01*
G01*
X146592775Y-136450509D02*
G75*
G03*
X146592775Y-136450509I-2000000J0D01*
G01*
X218031775Y-136450509D02*
G75*
G03*
X218031775Y-136450509I-2000000J0D01*
G01*
X289467775Y-136450509D02*
G75*
G03*
X289467775Y-136450509I-2000000J0D01*
G01*
X27531685Y-136450509D02*
G75*
G03*
X27531685Y-136450509I-2000000J0D01*
G01*
X241842775Y-136450509D02*
G75*
G03*
X241842775Y-136450509I-2000000J0D01*
G01*
X125162775Y-117400549D02*
G75*
G03*
X125162775Y-117400549I-2000000J0D01*
G01*
X239462775Y-117400549D02*
G75*
G03*
X239462775Y-117400549I-2000000J0D01*
G01*
X220412775Y-117400549D02*
G75*
G03*
X220412775Y-117400549I-2000000J0D01*
G01*
X201362775Y-117400549D02*
G75*
G03*
X201362775Y-117400549I-2000000J0D01*
G01*
X182312775Y-117400549D02*
G75*
G03*
X182312775Y-117400549I-2000000J0D01*
G01*
X163262775Y-117400549D02*
G75*
G03*
X163262775Y-117400549I-2000000J0D01*
G01*
X144212775Y-117400549D02*
G75*
G03*
X144212775Y-117400549I-2000000J0D01*
G01*
X97969100Y-134151200D02*
X97969100Y-130921000D01*
X192943000Y-144420300D02*
X196244000Y-144420300D01*
X137592999Y-134151200D02*
X97969100Y-134151200D01*
X246844000Y-129450699D02*
X246844000Y-143450160D01*
X66157000Y-129450699D02*
X80156300Y-129450699D01*
X270655999Y-129450699D02*
X270655999Y-143450160D01*
X42343000Y-129450699D02*
X56343800Y-129450699D01*
X66157000Y-143450160D02*
X66157000Y-129450699D01*
X91218000Y-143220029D02*
X92943000Y-143220029D01*
X197969000Y-134151200D02*
X197969000Y-130921000D01*
X80156300Y-143450160D02*
X66157000Y-143450160D01*
X246844000Y-143450160D02*
X232843000Y-143450160D01*
X232843000Y-129450699D02*
X246844000Y-129450699D01*
X280468000Y-129450699D02*
X294469000Y-129450699D01*
X198793000Y-136949960D02*
X198793000Y-134151200D01*
X97969100Y-130921000D02*
X91218000Y-130921000D01*
X151594000Y-129450699D02*
X137592999Y-129450699D01*
X97969100Y-138749690D02*
X137592999Y-138749690D01*
X197969000Y-143220029D02*
X197969000Y-136949960D01*
X91218000Y-130921000D02*
X91218000Y-134151200D01*
X137592999Y-138749690D02*
X137592999Y-143450160D01*
X280468000Y-143450160D02*
X280468000Y-129450699D01*
X92943000Y-143220029D02*
X92943000Y-144420300D01*
X151594000Y-134151200D02*
X151594000Y-129450699D01*
X256657000Y-143450160D02*
X256657000Y-129450699D01*
X92943000Y-144420300D02*
X96243599Y-144420300D01*
X196244000Y-143220029D02*
X197969000Y-143220029D01*
X137592999Y-143450160D02*
X151594000Y-143450160D01*
X96243599Y-143220029D02*
X97969100Y-143220029D01*
X198793000Y-134151200D02*
X197969000Y-134151200D01*
X151594000Y-143450160D02*
X151594000Y-138749690D01*
X137592999Y-129450699D02*
X137592999Y-134151200D01*
X80156300Y-129450699D02*
X80156300Y-143450160D01*
X191218000Y-134151200D02*
X151594000Y-134151200D01*
X191218000Y-130921000D02*
X191218000Y-134151200D01*
X197969000Y-130921000D02*
X191218000Y-130921000D01*
X96243599Y-144420300D02*
X96243599Y-143220029D01*
X196244000Y-144420300D02*
X196244000Y-143220029D01*
X91218000Y-136949960D02*
X91218000Y-143220029D01*
X91218000Y-134151200D02*
X90393899Y-134151200D01*
X191218000Y-143220029D02*
X192943000Y-143220029D01*
X209032000Y-143450160D02*
X209032000Y-129450699D01*
X223031000Y-143450160D02*
X209032000Y-143450160D01*
X192943000Y-143220029D02*
X192943000Y-144420300D01*
X209032000Y-129450699D02*
X223031000Y-129450699D01*
X270655999Y-143450160D02*
X256657000Y-143450160D01*
X191218000Y-138749690D02*
X191218000Y-143220029D01*
X97969100Y-143220029D02*
X97969100Y-138749690D01*
X151594000Y-138749690D02*
X191218000Y-138749690D01*
X223031000Y-129450699D02*
X223031000Y-143450160D01*
X256657000Y-129450699D02*
X270655999Y-129450699D01*
X232843000Y-143450160D02*
X232843000Y-129450699D01*
X90393899Y-134151200D02*
X90393899Y-136949960D01*
X294469000Y-143450160D02*
X280468000Y-143450160D01*
X90393899Y-136949960D02*
X91218000Y-136949960D01*
X294469000Y-129450699D02*
X294469000Y-143450160D01*
X197969000Y-136949960D02*
X198793000Y-136949960D01*
X43581900Y-124169999D02*
X45305800Y-124169999D01*
X225413000Y-124400199D02*
X211413000Y-124400199D01*
X225413000Y-110400800D02*
X225413000Y-124400199D01*
X43581900Y-111871000D02*
X43581900Y-115101200D01*
X45305800Y-124169999D02*
X45305800Y-125370299D01*
X211413000Y-110400800D02*
X225413000Y-110400800D01*
X230463000Y-124400199D02*
X230463000Y-110400800D01*
X244463000Y-124400199D02*
X230463000Y-124400199D01*
X230463000Y-110400800D02*
X244463000Y-110400800D01*
X42056400Y-110400800D02*
X28056900Y-110400800D01*
X50331400Y-111871000D02*
X43581900Y-111871000D01*
X51156900Y-115101200D02*
X50331400Y-115101200D01*
X50331400Y-115101200D02*
X50331400Y-111871000D01*
X50331400Y-117900000D02*
X51156900Y-117900000D01*
X48606200Y-125370299D02*
X48606200Y-124169999D01*
X50331400Y-124169999D02*
X50331400Y-117900000D01*
X45305800Y-125370299D02*
X48606200Y-125370299D01*
X48606200Y-124169999D02*
X50331400Y-124169999D01*
X43581900Y-115101200D02*
X42056400Y-115101200D01*
X51156900Y-117900000D02*
X51156900Y-115101200D01*
X187313000Y-124400199D02*
X173313000Y-124400199D01*
X187313000Y-110400800D02*
X187313000Y-124400199D01*
X173313000Y-110400800D02*
X187313000Y-110400800D01*
X206363000Y-124400199D02*
X192363000Y-124400199D01*
X192363000Y-124400199D02*
X192363000Y-110400800D01*
X42056400Y-115101200D02*
X42056400Y-110400800D01*
X206363000Y-110400800D02*
X206363000Y-124400199D01*
X192363000Y-110400800D02*
X206363000Y-110400800D01*
X211413000Y-124400199D02*
X211413000Y-110400800D01*
X244463000Y-110400800D02*
X244463000Y-124400199D01*
X42343000Y-143450160D02*
X42343000Y-129450699D01*
X262931000Y-125370299D02*
X262931000Y-124169999D01*
X266181000Y-124400199D02*
X280180999Y-124400199D01*
X264657000Y-124169999D02*
X264657000Y-119701100D01*
X280180999Y-115101200D02*
X280180999Y-110400800D01*
X28056900Y-110400800D02*
X28056900Y-115101200D01*
X283431000Y-124169999D02*
X283431000Y-125370299D01*
X259632000Y-125370299D02*
X262931000Y-125370299D01*
X257907000Y-117900000D02*
X257907000Y-124169999D01*
X280180999Y-124400199D02*
X280180999Y-119701100D01*
X266181000Y-115101200D02*
X264657000Y-115101200D01*
X56343800Y-129450699D02*
X56343800Y-143450160D01*
X280180999Y-119701100D02*
X281707000Y-119701100D01*
X264657000Y-111871000D02*
X257907000Y-111871000D01*
X21507090Y-124169999D02*
X21507090Y-125370299D01*
X18956330Y-117900000D02*
X19781800Y-117900000D01*
X19781800Y-115101200D02*
X18956330Y-115101200D01*
X19781800Y-111871000D02*
X19781800Y-115101200D01*
X28056900Y-115101200D02*
X26531400Y-115101200D01*
X289282000Y-115101200D02*
X288456000Y-115101200D01*
X264657000Y-119701100D02*
X266181000Y-119701100D01*
X289282000Y-117900000D02*
X289282000Y-115101200D01*
X281707000Y-124169999D02*
X283431000Y-124169999D01*
X18531910Y-129450699D02*
X32531400Y-129450699D01*
X288456000Y-124169999D02*
X288456000Y-117900000D01*
X281707000Y-119701100D02*
X281707000Y-124169999D01*
X266181000Y-119701100D02*
X266181000Y-124400199D01*
X257081000Y-115101200D02*
X257081000Y-117900000D01*
X264657000Y-115101200D02*
X264657000Y-111871000D01*
X28056900Y-119701100D02*
X28056900Y-124400199D01*
X26531400Y-119701100D02*
X28056900Y-119701100D01*
X32531400Y-143450160D02*
X18531910Y-143450160D01*
X281707000Y-111871000D02*
X281707000Y-115101200D01*
X288456000Y-117900000D02*
X289282000Y-117900000D01*
X259632000Y-124169999D02*
X259632000Y-125370299D01*
X257907000Y-124169999D02*
X259632000Y-124169999D01*
X32531400Y-129450699D02*
X32531400Y-143450160D01*
X257907000Y-111871000D02*
X257907000Y-115101200D01*
X43581900Y-119701100D02*
X43581900Y-124169999D01*
X24806100Y-125370299D02*
X24806100Y-124169999D01*
X257081000Y-117900000D02*
X257907000Y-117900000D01*
X26531400Y-115101200D02*
X26531400Y-111871000D01*
X280180999Y-110400800D02*
X266181000Y-110400800D01*
X288456000Y-115101200D02*
X288456000Y-111871000D01*
X262931000Y-124169999D02*
X264657000Y-124169999D01*
X257907000Y-115101200D02*
X257081000Y-115101200D01*
X266181000Y-110400800D02*
X266181000Y-115101200D01*
X18531910Y-143450160D02*
X18531910Y-129450699D01*
X56343800Y-143450160D02*
X42343000Y-143450160D01*
X283431000Y-125370299D02*
X286731000Y-125370299D01*
X42056400Y-119701100D02*
X43581900Y-119701100D01*
X21507090Y-125370299D02*
X24806100Y-125370299D01*
X288456000Y-111871000D02*
X281707000Y-111871000D01*
X26531400Y-124169999D02*
X26531400Y-119701100D01*
X286731000Y-124169999D02*
X288456000Y-124169999D01*
X286731000Y-125370299D02*
X286731000Y-124169999D01*
X42056400Y-124400199D02*
X42056400Y-119701100D01*
X26531400Y-111871000D02*
X19781800Y-111871000D01*
X28056900Y-124400199D02*
X42056400Y-124400199D01*
X24806100Y-124169999D02*
X26531400Y-124169999D01*
X19781800Y-124169999D02*
X21507090Y-124169999D01*
X18956330Y-115101200D02*
X18956330Y-117900000D01*
X281707000Y-115101200D02*
X280180999Y-115101200D01*
X19781800Y-117900000D02*
X19781800Y-124169999D01*
X284944000Y-105349999D02*
X284944000Y-100650999D01*
X270943000Y-96051200D02*
X269419000Y-96051200D01*
X116163000Y-124400199D02*
X116163000Y-110400800D01*
X267691999Y-106320199D02*
X267691999Y-105120000D01*
X59013200Y-110400800D02*
X73012500Y-110400800D01*
X154263000Y-110400800D02*
X168263000Y-110400800D01*
X288193000Y-105120000D02*
X288193000Y-106320199D01*
X130163000Y-110400800D02*
X130163000Y-124400199D01*
X293218999Y-105120000D02*
X293218999Y-98850100D01*
X293218999Y-96051200D02*
X293218999Y-92821100D01*
X135212999Y-110400800D02*
X149213000Y-110400800D01*
X173313000Y-124400199D02*
X173313000Y-110400800D01*
X293218999Y-98850100D02*
X294043000Y-98850100D01*
X291493999Y-105120000D02*
X293218999Y-105120000D01*
X286468000Y-105120000D02*
X288193000Y-105120000D01*
X92062499Y-124400199D02*
X78063200Y-124400199D01*
X135212999Y-124400199D02*
X135212999Y-110400800D01*
X154263000Y-124400199D02*
X154263000Y-110400800D01*
X97113200Y-124400199D02*
X97113200Y-110400800D01*
X264393000Y-105120000D02*
X264393000Y-106320199D01*
X111112500Y-124400199D02*
X97113200Y-124400199D01*
X111112500Y-110400800D02*
X111112500Y-124400199D01*
X78063200Y-124400199D02*
X78063200Y-110400800D01*
X269419000Y-100650999D02*
X270943000Y-100650999D01*
X262667999Y-105120000D02*
X264393000Y-105120000D01*
X262667999Y-96051200D02*
X261844000Y-96051200D01*
X149213000Y-110400800D02*
X149213000Y-124400199D01*
X264393000Y-106320199D02*
X267691999Y-106320199D01*
X261844000Y-98850100D02*
X262667999Y-98850100D01*
X168263000Y-124400199D02*
X154263000Y-124400199D01*
X270943000Y-105349999D02*
X284944000Y-105349999D01*
X59013200Y-124400199D02*
X59013200Y-110400800D01*
X130163000Y-124400199D02*
X116163000Y-124400199D01*
X294043000Y-96051200D02*
X293218999Y-96051200D01*
X286468000Y-100650999D02*
X286468000Y-105120000D01*
X294043000Y-98850100D02*
X294043000Y-96051200D01*
X291493999Y-106320199D02*
X291493999Y-105120000D01*
X288193000Y-106320199D02*
X291493999Y-106320199D01*
X284944000Y-100650999D02*
X286468000Y-100650999D01*
X269419000Y-105120000D02*
X269419000Y-100650999D01*
X267691999Y-105120000D02*
X269419000Y-105120000D01*
X262667999Y-98850100D02*
X262667999Y-105120000D01*
X269419000Y-96051200D02*
X269419000Y-92821100D01*
X270943000Y-91350700D02*
X270943000Y-96051200D01*
X73012500Y-110400800D02*
X73012500Y-124400199D01*
X92062499Y-110400800D02*
X92062499Y-124400199D01*
X149213000Y-124400199D02*
X135212999Y-124400199D01*
X262667999Y-92821100D02*
X262667999Y-96051200D01*
X73012500Y-124400199D02*
X59013200Y-124400199D01*
X78063200Y-110400800D02*
X92062499Y-110400800D01*
X97113200Y-110400800D02*
X111112500Y-110400800D01*
X116163000Y-110400800D02*
X130163000Y-110400800D01*
X261844000Y-96051200D02*
X261844000Y-98850100D01*
X270943000Y-100650999D02*
X270943000Y-105349999D01*
X168263000Y-110400800D02*
X168263000Y-124400199D01*
X269419000Y-92821100D02*
X262667999Y-92821100D01*
X235226000Y-86300000D02*
X235226000Y-72300700D01*
X182838000Y-91350700D02*
X196838000Y-91350700D01*
X286468000Y-92821100D02*
X286468000Y-96051200D01*
X23293030Y-105349999D02*
X23293030Y-91350700D01*
X82537500Y-105349999D02*
X68538200Y-105349999D01*
X68538200Y-91350700D02*
X82537500Y-91350700D01*
X220938000Y-105349999D02*
X220938000Y-91350700D01*
X125688000Y-105349999D02*
X125688000Y-91350700D01*
X286468000Y-96051200D02*
X284944000Y-96051200D01*
X139688000Y-91350700D02*
X139688000Y-105349999D01*
X37293900Y-105349999D02*
X23293030Y-105349999D01*
X37293900Y-91350700D02*
X37293900Y-105349999D01*
X106638200Y-105349999D02*
X106638200Y-91350700D01*
X139688000Y-105349999D02*
X125688000Y-105349999D01*
X144738000Y-105349999D02*
X144738000Y-91350700D01*
X158738000Y-105349999D02*
X144738000Y-105349999D01*
X101587500Y-105349999D02*
X87588200Y-105349999D01*
X120638000Y-105349999D02*
X106638200Y-105349999D01*
X196838000Y-105349999D02*
X182838000Y-105349999D01*
X196838000Y-91350700D02*
X196838000Y-105349999D01*
X215888000Y-105349999D02*
X201888000Y-105349999D01*
X220938000Y-91350700D02*
X234938000Y-91350700D01*
X63487500Y-105349999D02*
X49488200Y-105349999D01*
X144738000Y-91350700D02*
X158738000Y-91350700D01*
X63487500Y-91350700D02*
X63487500Y-105349999D01*
X49488200Y-91350700D02*
X63487500Y-91350700D01*
X234938000Y-105349999D02*
X220938000Y-105349999D01*
X249225000Y-86300000D02*
X235226000Y-86300000D01*
X249225000Y-72300700D02*
X249225000Y-86300000D01*
X235226000Y-72300700D02*
X249225000Y-72300700D01*
X87588200Y-91350700D02*
X101587500Y-91350700D01*
X177788000Y-91350700D02*
X177788000Y-105349999D01*
X163788000Y-105349999D02*
X163788000Y-91350700D01*
X284944000Y-91350700D02*
X270943000Y-91350700D01*
X120638000Y-91350700D02*
X120638000Y-105349999D01*
X234938000Y-91350700D02*
X234938000Y-105349999D01*
X268275000Y-72300700D02*
X268275000Y-86300000D01*
X292088000Y-86300000D02*
X278088000Y-86300000D01*
X82537500Y-91350700D02*
X82537500Y-105349999D01*
X284944000Y-96051200D02*
X284944000Y-91350700D01*
X201888000Y-105349999D02*
X201888000Y-91350700D01*
X182838000Y-105349999D02*
X182838000Y-91350700D01*
X253988000Y-105349999D02*
X239988000Y-105349999D01*
X163788000Y-91350700D02*
X177788000Y-91350700D01*
X125688000Y-91350700D02*
X139688000Y-91350700D01*
X253988000Y-91350700D02*
X253988000Y-105349999D01*
X239988000Y-91350700D02*
X253988000Y-91350700D01*
X278088000Y-86300000D02*
X278088000Y-72300700D01*
X278088000Y-72300700D02*
X292088000Y-72300700D01*
X23293030Y-91350700D02*
X37293900Y-91350700D01*
X239988000Y-105349999D02*
X239988000Y-91350700D01*
X201888000Y-91350700D02*
X215888000Y-91350700D01*
X293218999Y-92821100D02*
X286468000Y-92821100D01*
X292088000Y-72300700D02*
X292088000Y-86300000D01*
X101587500Y-91350700D02*
X101587500Y-105349999D01*
X49488200Y-105349999D02*
X49488200Y-91350700D01*
X68538200Y-105349999D02*
X68538200Y-91350700D01*
X158738000Y-91350700D02*
X158738000Y-105349999D01*
X87588200Y-105349999D02*
X87588200Y-91350700D01*
X215888000Y-91350700D02*
X215888000Y-105349999D01*
X254276000Y-86300000D02*
X254276000Y-72300700D01*
X268275000Y-86300000D02*
X254276000Y-86300000D01*
X254276000Y-72300700D02*
X268275000Y-72300700D01*
X106638200Y-91350700D02*
X120638000Y-91350700D01*
X177788000Y-105349999D02*
X163788000Y-105349999D01*
X32292805Y-98350349D02*
G75*
G03*
X32292805Y-98350349I-2000000J0D01*
G01*
X244225775Y-79300350D02*
G75*
G03*
X244225775Y-79300350I-2000000J0D01*
G01*
X148975775Y-79300350D02*
G75*
G03*
X148975775Y-79300350I-2000000J0D01*
G01*
X153737775Y-98350349D02*
G75*
G03*
X153737775Y-98350349I-2000000J0D01*
G01*
X58487975Y-98350349D02*
G75*
G03*
X58487975Y-98350349I-2000000J0D01*
G01*
X172787775Y-98350349D02*
G75*
G03*
X172787775Y-98350349I-2000000J0D01*
G01*
X134687774Y-98350349D02*
G75*
G03*
X134687774Y-98350349I-2000000J0D01*
G01*
X210887775Y-98350349D02*
G75*
G03*
X210887775Y-98350349I-2000000J0D01*
G01*
X110875475Y-79300350D02*
G75*
G03*
X110875475Y-79300350I-2000000J0D01*
G01*
X106112975Y-117400549D02*
G75*
G03*
X106112975Y-117400549I-2000000J0D01*
G01*
X87062975Y-117400549D02*
G75*
G03*
X87062975Y-117400549I-2000000J0D01*
G01*
X129925775Y-79300350D02*
G75*
G03*
X129925775Y-79300350I-2000000J0D01*
G01*
X248987775Y-98350349D02*
G75*
G03*
X248987775Y-98350349I-2000000J0D01*
G01*
X37056675Y-117400549D02*
G75*
G03*
X37056675Y-117400549I-2000000J0D01*
G01*
X77537975Y-98350349D02*
G75*
G03*
X77537975Y-98350349I-2000000J0D01*
G01*
X191837775Y-98350349D02*
G75*
G03*
X191837775Y-98350349I-2000000J0D01*
G01*
X206125775Y-79300350D02*
G75*
G03*
X206125775Y-79300350I-2000000J0D01*
G01*
X96587974Y-98350349D02*
G75*
G03*
X96587974Y-98350349I-2000000J0D01*
G01*
X68012975Y-117400549D02*
G75*
G03*
X68012975Y-117400549I-2000000J0D01*
G01*
X115637975Y-98350349D02*
G75*
G03*
X115637975Y-98350349I-2000000J0D01*
G01*
X263275774Y-79300350D02*
G75*
G03*
X263275774Y-79300350I-2000000J0D01*
G01*
X225175775Y-79300350D02*
G75*
G03*
X225175775Y-79300350I-2000000J0D01*
G01*
X168025775Y-79300350D02*
G75*
G03*
X168025775Y-79300350I-2000000J0D01*
G01*
X279942775Y-98350349D02*
G75*
G03*
X279942775Y-98350349I-2000000J0D01*
G01*
X187075775Y-79300350D02*
G75*
G03*
X187075775Y-79300350I-2000000J0D01*
G01*
X229937775Y-98350349D02*
G75*
G03*
X229937775Y-98350349I-2000000J0D01*
G01*
X287087775Y-79300350D02*
G75*
G03*
X287087775Y-79300350I-2000000J0D01*
G01*
X275180775Y-117400549D02*
G75*
G03*
X275180775Y-117400549I-2000000J0D01*
G01*
X168551000Y-67250000D02*
X168551000Y-53250699D01*
X130449000Y-53250699D02*
X144450000Y-53250699D01*
X92350700Y-67250000D02*
X92350700Y-53250699D01*
X106350000Y-53250699D02*
X106350000Y-67250000D01*
X187601000Y-67250000D02*
X187601000Y-53250699D01*
X187601000Y-53250699D02*
X201600000Y-53250699D01*
X92350700Y-53250699D02*
X106350000Y-53250699D01*
X111399300Y-67250000D02*
X111399300Y-53250699D01*
X125400000Y-53250699D02*
X125400000Y-67250000D01*
X111399300Y-53250699D02*
X125400000Y-53250699D01*
X144450000Y-67250000D02*
X130449000Y-67250000D01*
X144450000Y-53250699D02*
X144450000Y-67250000D01*
X149501000Y-53250699D02*
X163500000Y-53250699D01*
X182550000Y-53250699D02*
X182550000Y-67250000D01*
X163500000Y-53250699D02*
X163500000Y-67250000D01*
X182550000Y-67250000D02*
X168551000Y-67250000D01*
X130449000Y-67250000D02*
X130449000Y-53250699D01*
X125400000Y-67250000D02*
X111399300Y-67250000D01*
X201600000Y-67250000D02*
X187601000Y-67250000D01*
X163500000Y-67250000D02*
X149501000Y-67250000D01*
X168551000Y-53250699D02*
X182550000Y-53250699D01*
X201600000Y-53250699D02*
X201600000Y-67250000D01*
X87300000Y-53250699D02*
X87300000Y-67250000D01*
X73300700Y-53250699D02*
X87300000Y-53250699D01*
X106350000Y-67250000D02*
X92350700Y-67250000D01*
X149501000Y-67250000D02*
X149501000Y-53250699D01*
X206651000Y-67250000D02*
X206651000Y-53250699D01*
X49200000Y-53250699D02*
X49200000Y-67250000D01*
X73300700Y-67250000D02*
X73300700Y-53250699D01*
X30150200Y-67250000D02*
X16150650Y-67250000D01*
X30150200Y-53250699D02*
X30150200Y-67250000D01*
X54250700Y-53250699D02*
X68249999Y-53250699D01*
X68249999Y-53250699D02*
X68249999Y-67250000D01*
X215650775Y-60250349D02*
G75*
G03*
X215650775Y-60250349I-2000000J0D01*
G01*
X35200700Y-67250000D02*
X35200700Y-53250699D01*
X120399075Y-60250349D02*
G75*
G03*
X120399075Y-60250349I-2000000J0D01*
G01*
X49200000Y-67250000D02*
X35200700Y-67250000D01*
X35200700Y-53250699D02*
X49200000Y-53250699D01*
X63250475Y-60250349D02*
G75*
G03*
X63250475Y-60250349I-2000000J0D01*
G01*
X16150650Y-67250000D02*
X16150650Y-53250699D01*
X54250700Y-67250000D02*
X54250700Y-53250699D01*
X87300000Y-67250000D02*
X73300700Y-67250000D01*
X68249999Y-67250000D02*
X54250700Y-67250000D01*
X91825475Y-79300350D02*
G75*
G03*
X91825475Y-79300350I-2000000J0D01*
G01*
X72775475Y-79300350D02*
G75*
G03*
X72775475Y-79300350I-2000000J0D01*
G01*
X29912935Y-79300350D02*
G75*
G03*
X29912935Y-79300350I-2000000J0D01*
G01*
X53725475Y-79300350D02*
G75*
G03*
X53725475Y-79300350I-2000000J0D01*
G01*
X282325775Y-60250349D02*
G75*
G03*
X282325775Y-60250349I-2000000J0D01*
G01*
X253750775Y-60250349D02*
G75*
G03*
X253750775Y-60250349I-2000000J0D01*
G01*
X234700775Y-60250349D02*
G75*
G03*
X234700775Y-60250349I-2000000J0D01*
G01*
X196600775Y-60250349D02*
G75*
G03*
X196600775Y-60250349I-2000000J0D01*
G01*
X139448775Y-60250349D02*
G75*
G03*
X139448775Y-60250349I-2000000J0D01*
G01*
X177550775Y-60250349D02*
G75*
G03*
X177550775Y-60250349I-2000000J0D01*
G01*
X158500775Y-60250349D02*
G75*
G03*
X158500775Y-60250349I-2000000J0D01*
G01*
X16150650Y-53250699D02*
X30150200Y-53250699D01*
X101350475Y-60250349D02*
G75*
G03*
X101350475Y-60250349I-2000000J0D01*
G01*
X82300475Y-60250349D02*
G75*
G03*
X82300475Y-60250349I-2000000J0D01*
G01*
X44488015Y-60250349D02*
G75*
G03*
X44488015Y-60250349I-2000000J0D01*
G01*
X159026000Y-86300000D02*
X159026000Y-72300700D01*
X159026000Y-72300700D02*
X173025000Y-72300700D01*
X178076000Y-72300700D02*
X192075000Y-72300700D01*
X216176000Y-86300000D02*
X216176000Y-72300700D01*
X115875000Y-86300000D02*
X101875700Y-86300000D01*
X115875000Y-72300700D02*
X115875000Y-86300000D01*
X101875700Y-72300700D02*
X115875000Y-72300700D01*
X120926000Y-86300000D02*
X120926000Y-72300700D01*
X134924999Y-86300000D02*
X120926000Y-86300000D01*
X120926000Y-72300700D02*
X134924999Y-72300700D01*
X153975000Y-72300700D02*
X153975000Y-86300000D01*
X230175000Y-72300700D02*
X230175000Y-86300000D01*
X139976000Y-72300700D02*
X153975000Y-72300700D01*
X216176000Y-72300700D02*
X230175000Y-72300700D01*
X211125000Y-86300000D02*
X197126000Y-86300000D01*
X230175000Y-86300000D02*
X216176000Y-86300000D01*
X178076000Y-86300000D02*
X178076000Y-72300700D01*
X192075000Y-86300000D02*
X178076000Y-86300000D01*
X173025000Y-86300000D02*
X159026000Y-86300000D01*
X134924999Y-72300700D02*
X134924999Y-86300000D01*
X139976000Y-86300000D02*
X139976000Y-72300700D01*
X173025000Y-72300700D02*
X173025000Y-86300000D01*
X197126000Y-86300000D02*
X197126000Y-72300700D01*
X192075000Y-72300700D02*
X192075000Y-86300000D01*
X211125000Y-72300700D02*
X211125000Y-86300000D01*
X197126000Y-72300700D02*
X211125000Y-72300700D01*
X153975000Y-86300000D02*
X139976000Y-86300000D01*
X244751000Y-53250699D02*
X258750000Y-53250699D01*
X271799999Y-67019999D02*
X271799999Y-62550999D01*
X287325000Y-62550999D02*
X288851000Y-62550999D01*
X273326000Y-62550999D02*
X273326000Y-67250000D01*
X34912700Y-72300700D02*
X34912700Y-86300000D01*
X264225000Y-60750099D02*
X265051000Y-60750099D01*
X293875000Y-68220200D02*
X293875000Y-67019999D01*
X96824999Y-72300700D02*
X96824999Y-86300000D01*
X270075000Y-67019999D02*
X271799999Y-67019999D01*
X295600000Y-54721099D02*
X288851000Y-54721099D01*
X295600000Y-57951199D02*
X295600000Y-54721099D01*
X288851000Y-62550999D02*
X288851000Y-67019999D01*
X288851000Y-67019999D02*
X290576000Y-67019999D01*
X20913160Y-86300000D02*
X20913160Y-72300700D01*
X296426000Y-60750099D02*
X296426000Y-57951199D01*
X265051000Y-67019999D02*
X266774000Y-67019999D01*
X290576000Y-68220200D02*
X293875000Y-68220200D01*
X265051000Y-54721099D02*
X265051000Y-57951199D01*
X290576000Y-67019999D02*
X290576000Y-68220200D01*
X273326000Y-67250000D02*
X287325000Y-67250000D01*
X264225000Y-57951199D02*
X264225000Y-60750099D01*
X63775700Y-86300000D02*
X63775700Y-72300700D01*
X271799999Y-54721099D02*
X265051000Y-54721099D01*
X82825700Y-72300700D02*
X96824999Y-72300700D01*
X77775000Y-72300700D02*
X77775000Y-86300000D01*
X287325000Y-67250000D02*
X287325000Y-62550999D01*
X44725700Y-72300700D02*
X58725000Y-72300700D01*
X101875700Y-86300000D02*
X101875700Y-72300700D01*
X273326000Y-53250699D02*
X273326000Y-57951199D01*
X220650000Y-67250000D02*
X206651000Y-67250000D01*
X220650000Y-53250699D02*
X220650000Y-67250000D01*
X206651000Y-53250699D02*
X220650000Y-53250699D01*
X296426000Y-57951199D02*
X295600000Y-57951199D01*
X77775000Y-86300000D02*
X63775700Y-86300000D01*
X225701000Y-67250000D02*
X225701000Y-53250699D01*
X287325000Y-57951199D02*
X287325000Y-53250699D01*
X44725700Y-86300000D02*
X44725700Y-72300700D01*
X270075000Y-68220200D02*
X270075000Y-67019999D01*
X239700000Y-67250000D02*
X225701000Y-67250000D01*
X225701000Y-53250699D02*
X239700000Y-53250699D01*
X258750000Y-53250699D02*
X258750000Y-67250000D01*
X288851000Y-57951199D02*
X287325000Y-57951199D01*
X288851000Y-54721099D02*
X288851000Y-57951199D01*
X293875000Y-67019999D02*
X295600000Y-67019999D01*
X271799999Y-62550999D02*
X273326000Y-62550999D01*
X34912700Y-86300000D02*
X20913160Y-86300000D01*
X266774000Y-68220200D02*
X270075000Y-68220200D01*
X273326000Y-57951199D02*
X271799999Y-57951199D01*
X58725000Y-72300700D02*
X58725000Y-86300000D01*
X96824999Y-86300000D02*
X82825700Y-86300000D01*
X295600000Y-60750099D02*
X296426000Y-60750099D01*
X266774000Y-67019999D02*
X266774000Y-68220200D01*
X58725000Y-86300000D02*
X44725700Y-86300000D01*
X295600000Y-67019999D02*
X295600000Y-60750099D01*
X63775700Y-72300700D02*
X77775000Y-72300700D01*
X82825700Y-86300000D02*
X82825700Y-72300700D01*
X239700000Y-53250699D02*
X239700000Y-67250000D01*
X271799999Y-57951199D02*
X271799999Y-54721099D01*
X244751000Y-67250000D02*
X244751000Y-53250699D01*
X287325000Y-53250699D02*
X273326000Y-53250699D01*
X265051000Y-60750099D02*
X265051000Y-67019999D01*
X265051000Y-57951199D02*
X264225000Y-57951199D01*
X20913160Y-72300700D02*
X34912700Y-72300700D01*
X258750000Y-67250000D02*
X244751000Y-67250000D01*
D13*
%TO.C,G\u002A\u002A\u002A*%
G36*
X158087500Y-51945450D02*
G01*
X158081150Y-51951800D01*
X158074800Y-51945450D01*
X158081150Y-51939100D01*
X158087500Y-51945450D01*
G37*
X158087500Y-51945450D02*
X158081150Y-51951800D01*
X158074800Y-51945450D01*
X158081150Y-51939100D01*
X158087500Y-51945450D01*
G36*
X155229885Y-46492054D02*
G01*
X155260029Y-46520161D01*
X155290110Y-46566327D01*
X155313499Y-46617800D01*
X155327837Y-46653816D01*
X155341260Y-46678499D01*
X155358612Y-46693990D01*
X155384738Y-46702426D01*
X155424480Y-46705949D01*
X155482683Y-46706698D01*
X155514765Y-46706700D01*
X155575487Y-46707559D01*
X155627092Y-46709899D01*
X155664188Y-46713366D01*
X155681383Y-46717603D01*
X155681485Y-46717691D01*
X155698465Y-46724456D01*
X155734552Y-46733874D01*
X155783787Y-46744497D01*
X155820550Y-46751459D01*
X155875265Y-46761903D01*
X155920858Y-46771782D01*
X155951335Y-46779732D01*
X155960250Y-46783253D01*
X155978967Y-46790956D01*
X156013712Y-46801237D01*
X156042800Y-46808511D01*
X156125004Y-46834961D01*
X156208876Y-46877206D01*
X156296782Y-46936885D01*
X156391086Y-47015638D01*
X156494156Y-47115103D01*
X156512700Y-47134170D01*
X156581303Y-47205827D01*
X156633586Y-47261840D01*
X156671364Y-47304353D01*
X156696450Y-47335509D01*
X156710656Y-47357450D01*
X156715797Y-47372321D01*
X156715900Y-47374309D01*
X156725906Y-47393891D01*
X156739010Y-47403974D01*
X156757374Y-47423331D01*
X156774920Y-47456490D01*
X156779143Y-47467921D01*
X156791623Y-47499513D01*
X156802797Y-47517734D01*
X156805902Y-47519500D01*
X156817939Y-47529574D01*
X156833417Y-47553862D01*
X156833710Y-47554425D01*
X156847415Y-47580756D01*
X156869301Y-47622637D01*
X156895741Y-47673130D01*
X156910840Y-47701925D01*
X156935862Y-47750909D01*
X156955629Y-47792056D01*
X156967563Y-47819859D01*
X156969900Y-47828091D01*
X156974955Y-47847142D01*
X156987676Y-47879054D01*
X156994139Y-47893315D01*
X157011368Y-47935273D01*
X157029620Y-47987660D01*
X157039790Y-48021150D01*
X157052602Y-48063359D01*
X157064246Y-48095998D01*
X157071027Y-48110050D01*
X157078238Y-48128170D01*
X157087885Y-48163767D01*
X157097937Y-48209309D01*
X157098401Y-48211650D01*
X157103395Y-48249032D01*
X157107627Y-48304292D01*
X157111081Y-48373708D01*
X157113744Y-48453557D01*
X157115600Y-48540116D01*
X157116635Y-48629664D01*
X157116833Y-48718478D01*
X157116179Y-48802836D01*
X157114660Y-48879015D01*
X157112259Y-48943293D01*
X157108961Y-48991948D01*
X157104753Y-49021257D01*
X157101670Y-49028088D01*
X157089765Y-49045753D01*
X157079478Y-49077020D01*
X157078497Y-49081600D01*
X157070832Y-49117701D01*
X157064245Y-49145256D01*
X157063878Y-49146596D01*
X157065768Y-49160053D01*
X157083853Y-49168939D01*
X157119261Y-49175248D01*
X157161187Y-49183630D01*
X157195758Y-49195333D01*
X157205309Y-49200516D01*
X157231561Y-49213043D01*
X157271913Y-49226609D01*
X157300100Y-49234059D01*
X157348908Y-49247962D01*
X157395177Y-49265072D01*
X157414211Y-49273969D01*
X157447069Y-49289221D01*
X157472338Y-49297172D01*
X157475840Y-49297500D01*
X157496040Y-49303034D01*
X157529976Y-49317317D01*
X157558578Y-49331295D01*
X157611572Y-49358637D01*
X157650937Y-49378778D01*
X157685572Y-49396250D01*
X157712850Y-49409857D01*
X157750765Y-49429256D01*
X157782700Y-49446302D01*
X157814709Y-49462758D01*
X157855397Y-49482228D01*
X157867014Y-49487544D01*
X157899624Y-49504005D01*
X157920699Y-49517891D01*
X157924164Y-49521869D01*
X157936778Y-49531329D01*
X157967364Y-49549028D01*
X158010890Y-49572438D01*
X158062324Y-49599031D01*
X158116632Y-49626279D01*
X158168784Y-49651654D01*
X158213745Y-49672629D01*
X158246484Y-49686676D01*
X158261493Y-49691307D01*
X158281076Y-49700764D01*
X158286893Y-49707893D01*
X158303830Y-49720406D01*
X158337267Y-49735668D01*
X158370075Y-49747175D01*
X158408703Y-49760879D01*
X158435174Y-49773627D01*
X158443100Y-49781282D01*
X158453212Y-49791886D01*
X158459656Y-49792800D01*
X158469119Y-49794164D01*
X158484283Y-49799188D01*
X158508208Y-49809267D01*
X158543955Y-49825796D01*
X158594586Y-49850169D01*
X158663163Y-49883782D01*
X158709800Y-49906793D01*
X158789531Y-49946896D01*
X158854659Y-49981108D01*
X158902798Y-50008116D01*
X158931568Y-50026607D01*
X158938353Y-50032782D01*
X158953534Y-50043355D01*
X158981954Y-50056912D01*
X158985106Y-50058206D01*
X159020281Y-50076997D01*
X159047400Y-50098760D01*
X159067904Y-50117146D01*
X159080374Y-50123000D01*
X159096566Y-50129971D01*
X159126133Y-50147818D01*
X159162308Y-50171943D01*
X159198324Y-50197746D01*
X159227415Y-50220628D01*
X159237522Y-50229808D01*
X159258118Y-50245938D01*
X159268870Y-50250000D01*
X159285042Y-50256558D01*
X159314172Y-50273328D01*
X159334638Y-50286503D01*
X159372193Y-50309629D01*
X159405759Y-50327048D01*
X159417825Y-50331809D01*
X159439953Y-50342071D01*
X159446400Y-50349947D01*
X159457296Y-50359078D01*
X159485290Y-50372533D01*
X159509900Y-50382116D01*
X159545383Y-50396740D01*
X159568431Y-50409817D01*
X159573400Y-50415799D01*
X159584476Y-50425101D01*
X159611650Y-50433749D01*
X159616751Y-50434781D01*
X159653888Y-50446555D01*
X159683071Y-50463615D01*
X159683426Y-50463932D01*
X159711928Y-50484834D01*
X159744850Y-50503729D01*
X159774594Y-50521301D01*
X159802581Y-50542385D01*
X159823689Y-50562293D01*
X159832797Y-50576335D01*
X159828382Y-50580200D01*
X159819297Y-50587924D01*
X159821253Y-50593228D01*
X159816381Y-50605618D01*
X159793787Y-50618572D01*
X159790252Y-50619870D01*
X159763504Y-50631760D01*
X159751278Y-50642257D01*
X159751200Y-50642879D01*
X159740197Y-50651665D01*
X159711702Y-50664761D01*
X159681350Y-50676017D01*
X159643865Y-50689932D01*
X159618512Y-50701591D01*
X159611500Y-50707226D01*
X159600847Y-50715948D01*
X159573710Y-50729833D01*
X159554374Y-50738249D01*
X159520544Y-50754103D01*
X159507477Y-50766516D01*
X159511479Y-50778953D01*
X159517107Y-50791521D01*
X159502207Y-50795899D01*
X159493002Y-50796100D01*
X159459305Y-50800733D01*
X159425963Y-50812117D01*
X159401996Y-50826473D01*
X159395600Y-50836886D01*
X159385037Y-50848598D01*
X159358875Y-50863368D01*
X159351150Y-50866768D01*
X159322466Y-50880958D01*
X159307292Y-50892763D01*
X159306579Y-50894695D01*
X159295921Y-50904763D01*
X159268893Y-50920003D01*
X159249429Y-50929121D01*
X159216459Y-50945122D01*
X159195863Y-50958015D01*
X159192400Y-50962320D01*
X159181638Y-50971163D01*
X159154254Y-50984552D01*
X159135250Y-50992274D01*
X159101926Y-51007040D01*
X159081330Y-51020091D01*
X159078100Y-51024894D01*
X159067533Y-51036539D01*
X159049525Y-51044560D01*
X159018309Y-51058419D01*
X158986778Y-51077494D01*
X158958297Y-51091254D01*
X158913302Y-51106237D01*
X158860367Y-51119684D01*
X158847078Y-51122447D01*
X158798256Y-51132910D01*
X158759763Y-51142657D01*
X158737827Y-51150055D01*
X158735200Y-51151804D01*
X158720794Y-51157026D01*
X158686613Y-51164691D01*
X158638033Y-51173700D01*
X158589805Y-51181536D01*
X158533163Y-51190992D01*
X158486307Y-51200305D01*
X158454647Y-51208305D01*
X158443755Y-51213157D01*
X158429204Y-51219099D01*
X158395607Y-51227374D01*
X158349085Y-51236893D01*
X158295762Y-51246569D01*
X158241758Y-51255314D01*
X158193196Y-51262042D01*
X158156199Y-51265664D01*
X158146282Y-51266000D01*
X158120443Y-51271693D01*
X158109725Y-51281875D01*
X158095998Y-51286098D01*
X158059762Y-51289708D01*
X158003898Y-51292710D01*
X157931288Y-51295107D01*
X157844815Y-51296904D01*
X157747361Y-51298103D01*
X157641809Y-51298710D01*
X157531040Y-51298728D01*
X157417937Y-51298162D01*
X157305383Y-51297014D01*
X157196259Y-51295290D01*
X157093449Y-51292993D01*
X156999834Y-51290127D01*
X156918296Y-51286697D01*
X156851718Y-51282705D01*
X156820675Y-51280094D01*
X156756279Y-51273238D01*
X156701986Y-51266366D01*
X156662273Y-51260130D01*
X156641621Y-51255183D01*
X156639700Y-51253729D01*
X156628027Y-51248099D01*
X156596483Y-51239722D01*
X156550280Y-51229858D01*
X156509525Y-51222306D01*
X156454963Y-51212084D01*
X156410353Y-51202405D01*
X156381247Y-51194553D01*
X156373000Y-51190739D01*
X156358373Y-51183274D01*
X156325983Y-51172075D01*
X156282721Y-51159514D01*
X156280925Y-51159033D01*
X156238503Y-51146299D01*
X156207851Y-51134381D01*
X156195245Y-51125743D01*
X156195200Y-51125379D01*
X156184192Y-51115601D01*
X156156749Y-51104471D01*
X156146399Y-51101438D01*
X156106043Y-51086011D01*
X156071573Y-51065567D01*
X156068256Y-51062848D01*
X156042816Y-51044651D01*
X156024185Y-51037400D01*
X156007841Y-51029388D01*
X155979434Y-51008434D01*
X155946754Y-50980519D01*
X155908475Y-50948150D01*
X155872063Y-50921242D01*
X155849125Y-50907569D01*
X155824367Y-50892086D01*
X155814200Y-50877695D01*
X155804174Y-50861978D01*
X155784737Y-50848124D01*
X155754839Y-50824505D01*
X155717045Y-50783622D01*
X155675108Y-50730781D01*
X155632785Y-50671288D01*
X155593829Y-50610449D01*
X155561995Y-50553570D01*
X155541039Y-50505957D01*
X155539636Y-50501755D01*
X155524339Y-50459009D01*
X155508776Y-50423139D01*
X155500974Y-50409099D01*
X155490712Y-50383636D01*
X155485193Y-50350099D01*
X155484728Y-50317292D01*
X155489629Y-50294015D01*
X155496700Y-50288100D01*
X155505315Y-50299210D01*
X155509357Y-50326304D01*
X155509400Y-50329724D01*
X155514560Y-50367160D01*
X155526374Y-50396399D01*
X155539814Y-50422540D01*
X155555813Y-50462309D01*
X155565141Y-50489374D01*
X155579349Y-50529643D01*
X155592626Y-50560701D01*
X155599199Y-50571924D01*
X155613170Y-50590729D01*
X155634651Y-50621786D01*
X155646157Y-50638977D01*
X155676559Y-50682607D01*
X155711610Y-50729520D01*
X155745076Y-50771619D01*
X155770719Y-50800804D01*
X155770950Y-50801039D01*
X155792588Y-50820903D01*
X155826672Y-50849873D01*
X155868636Y-50884326D01*
X155913913Y-50920637D01*
X155957935Y-50955184D01*
X155996137Y-50984343D01*
X156023951Y-51004489D01*
X156036807Y-51012000D01*
X156052105Y-51018572D01*
X156077591Y-51034482D01*
X156078939Y-51035414D01*
X156158106Y-51080688D01*
X156262361Y-51123946D01*
X156391765Y-51165209D01*
X156546378Y-51204495D01*
X156716034Y-51239883D01*
X156766004Y-51247112D01*
X156834831Y-51253691D01*
X156919510Y-51259581D01*
X157017037Y-51264744D01*
X157124409Y-51269140D01*
X157238622Y-51272730D01*
X157356672Y-51275477D01*
X157475556Y-51277340D01*
X157592269Y-51278281D01*
X157703807Y-51278261D01*
X157807168Y-51277241D01*
X157899347Y-51275182D01*
X157977341Y-51272046D01*
X158038145Y-51267792D01*
X158078756Y-51262384D01*
X158093850Y-51257727D01*
X158116219Y-51250088D01*
X158157610Y-51240473D01*
X158211856Y-51230183D01*
X158265300Y-51221605D01*
X158324232Y-51212180D01*
X158374253Y-51202783D01*
X158409787Y-51194551D01*
X158424867Y-51189003D01*
X158442561Y-51182428D01*
X158479307Y-51173674D01*
X158529003Y-51164089D01*
X158564567Y-51158174D01*
X158621027Y-51148594D01*
X158670098Y-51138898D01*
X158704944Y-51130505D01*
X158716150Y-51126699D01*
X158740447Y-51118683D01*
X158781618Y-51108167D01*
X158831544Y-51097192D01*
X158841130Y-51095267D01*
X158893418Y-51082984D01*
X158939914Y-51068650D01*
X158971638Y-51055088D01*
X158974535Y-51053316D01*
X159019192Y-51024253D01*
X159051872Y-51004145D01*
X159081593Y-50987651D01*
X159109850Y-50973194D01*
X159143217Y-50956118D01*
X159172334Y-50940058D01*
X159204885Y-50920517D01*
X159248557Y-50893001D01*
X159266061Y-50881825D01*
X159299416Y-50861792D01*
X159324358Y-50849159D01*
X159331829Y-50846900D01*
X159349860Y-50838671D01*
X159368051Y-50820510D01*
X159377637Y-50802201D01*
X159376869Y-50796616D01*
X159362477Y-50791290D01*
X159328068Y-50784425D01*
X159278904Y-50776933D01*
X159224352Y-50770179D01*
X159166934Y-50763076D01*
X159120107Y-50755943D01*
X159088847Y-50749632D01*
X159078100Y-50745163D01*
X159066211Y-50740840D01*
X159033610Y-50735036D01*
X158984890Y-50728426D01*
X158924647Y-50721687D01*
X158906088Y-50719845D01*
X158832613Y-50711836D01*
X158780690Y-50704146D01*
X158751622Y-50697009D01*
X158746271Y-50691048D01*
X158762887Y-50687673D01*
X158798838Y-50687231D01*
X158848289Y-50689237D01*
X158905407Y-50693205D01*
X158964357Y-50698651D01*
X159019306Y-50705087D01*
X159064419Y-50712029D01*
X159093862Y-50718991D01*
X159097150Y-50720252D01*
X159118809Y-50725876D01*
X159160151Y-50733521D01*
X159215633Y-50742265D01*
X159279709Y-50751183D01*
X159293339Y-50752941D01*
X159366745Y-50761664D01*
X159418066Y-50766179D01*
X159450249Y-50766601D01*
X159466238Y-50763042D01*
X159469108Y-50759724D01*
X159482872Y-50745065D01*
X159510994Y-50726996D01*
X159520568Y-50722050D01*
X159557350Y-50703724D01*
X159588306Y-50687761D01*
X159592450Y-50685540D01*
X159616052Y-50673529D01*
X159654802Y-50654592D01*
X159700840Y-50632565D01*
X159706750Y-50629769D01*
X159749453Y-50609479D01*
X159782284Y-50593660D01*
X159799316Y-50585176D01*
X159800336Y-50584590D01*
X159797944Y-50574244D01*
X159779307Y-50557090D01*
X159750734Y-50538001D01*
X159719895Y-50522417D01*
X159691037Y-50507650D01*
X159675739Y-50494538D01*
X159675000Y-50492150D01*
X159664000Y-50482042D01*
X159635770Y-50468489D01*
X159611500Y-50459550D01*
X159575916Y-50446062D01*
X159552873Y-50434127D01*
X159548000Y-50428812D01*
X159537112Y-50419353D01*
X159509699Y-50406885D01*
X159495519Y-50401845D01*
X159459501Y-50388105D01*
X159433046Y-50374742D01*
X159428265Y-50371237D01*
X159401900Y-50352611D01*
X159366625Y-50333374D01*
X159332763Y-50318652D01*
X159312020Y-50313500D01*
X159295786Y-50306634D01*
X159294000Y-50301395D01*
X159283611Y-50288710D01*
X159257825Y-50272337D01*
X159249550Y-50268198D01*
X159221129Y-50252560D01*
X159205907Y-50239991D01*
X159205100Y-50237852D01*
X159194993Y-50226552D01*
X159169821Y-50209800D01*
X159160650Y-50204661D01*
X159132565Y-50187986D01*
X159117188Y-50175840D01*
X159116200Y-50173872D01*
X159105637Y-50165530D01*
X159077378Y-50149008D01*
X159036568Y-50127235D01*
X159015341Y-50116435D01*
X158970320Y-50092478D01*
X158935479Y-50071321D01*
X158916054Y-50056266D01*
X158913741Y-50052419D01*
X158902644Y-50039791D01*
X158875400Y-50023235D01*
X158859025Y-50015488D01*
X158824598Y-49998197D01*
X158800663Y-49981967D01*
X158795871Y-49976692D01*
X158778903Y-49964332D01*
X158746590Y-49950737D01*
X158729196Y-49945297D01*
X158695384Y-49933948D01*
X158674714Y-49923385D01*
X158671700Y-49919424D01*
X158660798Y-49910045D01*
X158632794Y-49896427D01*
X158608200Y-49886816D01*
X158572734Y-49872397D01*
X158549685Y-49859831D01*
X158544700Y-49854280D01*
X158533626Y-49845517D01*
X158505710Y-49834772D01*
X158490725Y-49830474D01*
X158454545Y-49818357D01*
X158428721Y-49804938D01*
X158424050Y-49800744D01*
X158405663Y-49788738D01*
X158371146Y-49773752D01*
X158338325Y-49762377D01*
X158299738Y-49748991D01*
X158273271Y-49737190D01*
X158265300Y-49730626D01*
X158254406Y-49721679D01*
X158226421Y-49708345D01*
X158201800Y-49698783D01*
X158166351Y-49684556D01*
X158143301Y-49672466D01*
X158138300Y-49667320D01*
X158127500Y-49658330D01*
X158099732Y-49644422D01*
X158074800Y-49634050D01*
X158039506Y-49619114D01*
X158016450Y-49606978D01*
X158011300Y-49602107D01*
X158000655Y-49593463D01*
X157973574Y-49579664D01*
X157954891Y-49571545D01*
X157920400Y-49554762D01*
X157897193Y-49538702D01*
X157892483Y-49532647D01*
X157876780Y-49519032D01*
X157850292Y-49509773D01*
X157812491Y-49495527D01*
X157786348Y-49478463D01*
X157756006Y-49458784D01*
X157716077Y-49440567D01*
X157707146Y-49437413D01*
X157675606Y-49425019D01*
X157657441Y-49414037D01*
X157655700Y-49411042D01*
X157644802Y-49401879D01*
X157616807Y-49388403D01*
X157592200Y-49378816D01*
X157556752Y-49364609D01*
X157533703Y-49352568D01*
X157528700Y-49347464D01*
X157517499Y-49339890D01*
X157488309Y-49328619D01*
X157452500Y-49317566D01*
X157412840Y-49305008D01*
X157385280Y-49293549D01*
X157376300Y-49286465D01*
X157364883Y-49279155D01*
X157334652Y-49268599D01*
X157291638Y-49256837D01*
X157281806Y-49254467D01*
X157236242Y-49242421D01*
X157201583Y-49230799D01*
X157184202Y-49221796D01*
X157183381Y-49220569D01*
X157169563Y-49212154D01*
X157138955Y-49203985D01*
X157119845Y-49200796D01*
X157075908Y-49198289D01*
X157046583Y-49208364D01*
X157024966Y-49235451D01*
X157008678Y-49272100D01*
X156993650Y-49304854D01*
X156979291Y-49327368D01*
X156977464Y-49329250D01*
X156963350Y-49347947D01*
X156944700Y-49379542D01*
X156938150Y-49392015D01*
X156912589Y-49431563D01*
X156874611Y-49477126D01*
X156828729Y-49524622D01*
X156779459Y-49569968D01*
X156731313Y-49609081D01*
X156688807Y-49637878D01*
X156656455Y-49652276D01*
X156649397Y-49653178D01*
X156627717Y-49658797D01*
X156597072Y-49672310D01*
X156595250Y-49673258D01*
X156554792Y-49693157D01*
X156515875Y-49710632D01*
X156488381Y-49720957D01*
X156476941Y-49719209D01*
X156474602Y-49704077D01*
X156474600Y-49702853D01*
X156484418Y-49678892D01*
X156496825Y-49670632D01*
X156522203Y-49660272D01*
X156557001Y-49643539D01*
X156565229Y-49639281D01*
X156598837Y-49623797D01*
X156625028Y-49615462D01*
X156629402Y-49615000D01*
X156652424Y-49606679D01*
X156687999Y-49584390D01*
X156730734Y-49552139D01*
X156775238Y-49513933D01*
X156808016Y-49482261D01*
X156853152Y-49430516D01*
X156898423Y-49369581D01*
X156938017Y-49307951D01*
X156966121Y-49254121D01*
X156969203Y-49246700D01*
X156985040Y-49211821D01*
X157000524Y-49185298D01*
X157002126Y-49183200D01*
X157013351Y-49160551D01*
X157025731Y-49122806D01*
X157032900Y-49094300D01*
X157045423Y-49045878D01*
X157060131Y-49000352D01*
X157067612Y-48981594D01*
X157073564Y-48964705D01*
X157077988Y-48941963D01*
X157080992Y-48910219D01*
X157082685Y-48866326D01*
X157083175Y-48807137D01*
X157082571Y-48729503D01*
X157080982Y-48630278D01*
X157080544Y-48606944D01*
X157077745Y-48487936D01*
X157074163Y-48391264D01*
X157069496Y-48313872D01*
X157063438Y-48252700D01*
X157055686Y-48204689D01*
X157045936Y-48166782D01*
X157033883Y-48135921D01*
X157033661Y-48135450D01*
X157023889Y-48109755D01*
X157010921Y-48069371D01*
X157000605Y-48033850D01*
X156987961Y-47991618D01*
X156976423Y-47958973D01*
X156969678Y-47944950D01*
X156960474Y-47925750D01*
X156948683Y-47892026D01*
X156943620Y-47875100D01*
X156930684Y-47836345D01*
X156917209Y-47806115D01*
X156912650Y-47798900D01*
X156898267Y-47774391D01*
X156882679Y-47739731D01*
X156881000Y-47735400D01*
X156865096Y-47700042D01*
X156848733Y-47672858D01*
X156847158Y-47670899D01*
X156833115Y-47648576D01*
X156830200Y-47637880D01*
X156823305Y-47620610D01*
X156805816Y-47591566D01*
X156794679Y-47575380D01*
X156768962Y-47535703D01*
X156747536Y-47496275D01*
X156742719Y-47485493D01*
X156723849Y-47450335D01*
X156702039Y-47423199D01*
X156683620Y-47402259D01*
X156677800Y-47389119D01*
X156668953Y-47370103D01*
X156643921Y-47336223D01*
X156604964Y-47290078D01*
X156554341Y-47234267D01*
X156494312Y-47171386D01*
X156446148Y-47122808D01*
X156387417Y-47067067D01*
X156327512Y-47014772D01*
X156270191Y-46968784D01*
X156219211Y-46931963D01*
X156178331Y-46907169D01*
X156151307Y-46897263D01*
X156149779Y-46897199D01*
X156129423Y-46888370D01*
X156120415Y-46879855D01*
X156100981Y-46868306D01*
X156064870Y-46855666D01*
X156026785Y-46846204D01*
X155983459Y-46836297D01*
X155949866Y-46826803D01*
X155934850Y-46820617D01*
X155917470Y-46814488D01*
X155881221Y-46805649D01*
X155832295Y-46795530D01*
X155801500Y-46789808D01*
X155746769Y-46779259D01*
X155699878Y-46768790D01*
X155667631Y-46759990D01*
X155658797Y-46756539D01*
X155637389Y-46751668D01*
X155596993Y-46747784D01*
X155544013Y-46745365D01*
X155501586Y-46744799D01*
X155366427Y-46744799D01*
X155374871Y-46808454D01*
X155381344Y-46849763D01*
X155388233Y-46882701D01*
X155391231Y-46892737D01*
X155391973Y-46907851D01*
X155381248Y-46907454D01*
X155368986Y-46892512D01*
X155356638Y-46860295D01*
X155349911Y-46832696D01*
X155341046Y-46790646D01*
X155332824Y-46757152D01*
X155328988Y-46744800D01*
X155321017Y-46723425D01*
X155307615Y-46686486D01*
X155293253Y-46646375D01*
X155277820Y-46606182D01*
X155264703Y-46577630D01*
X155256863Y-46567000D01*
X155246018Y-46556881D01*
X155236186Y-46539246D01*
X155219451Y-46513007D01*
X155204044Y-46511856D01*
X155189660Y-46535913D01*
X155181927Y-46560484D01*
X155170493Y-46594305D01*
X155158931Y-46614887D01*
X155154286Y-46617799D01*
X155145774Y-46629192D01*
X155137447Y-46658341D01*
X155133513Y-46681585D01*
X155126640Y-46719462D01*
X155118440Y-46745705D01*
X155114026Y-46752184D01*
X155108314Y-46767496D01*
X155104330Y-46800688D01*
X155103000Y-46839934D01*
X155103935Y-46884930D01*
X155108653Y-46912568D01*
X155120025Y-46930873D01*
X155140920Y-46947870D01*
X155141831Y-46948520D01*
X155164936Y-46968006D01*
X155173812Y-46981855D01*
X155173079Y-46983753D01*
X155158266Y-46983210D01*
X155132116Y-46972755D01*
X155103922Y-46957301D01*
X155082976Y-46941755D01*
X155077600Y-46933300D01*
X155067362Y-46923644D01*
X155059648Y-46922599D01*
X155040776Y-46912308D01*
X155015967Y-46886058D01*
X154990282Y-46850789D01*
X154968780Y-46813438D01*
X154956596Y-46781289D01*
X154955853Y-46779042D01*
X154988700Y-46779042D01*
X154995358Y-46801148D01*
X155011812Y-46832024D01*
X155032779Y-46863660D01*
X155052975Y-46888045D01*
X155066627Y-46897200D01*
X155072636Y-46885714D01*
X155076622Y-46856088D01*
X155077600Y-46827350D01*
X155077600Y-46757500D01*
X155033150Y-46757500D01*
X155001573Y-46760923D01*
X154989376Y-46772906D01*
X154988700Y-46779042D01*
X154955853Y-46779042D01*
X154948008Y-46755339D01*
X154938911Y-46744799D01*
X154931254Y-46733476D01*
X154921259Y-46704108D01*
X154913110Y-46671775D01*
X154900398Y-46618528D01*
X154890152Y-46588518D01*
X154880813Y-46579902D01*
X154870824Y-46590840D01*
X154861823Y-46611135D01*
X154848038Y-46640015D01*
X154835999Y-46655214D01*
X154833929Y-46655899D01*
X154828981Y-46667559D01*
X154825326Y-46698391D01*
X154823641Y-46742174D01*
X154823600Y-46750703D01*
X154824586Y-46801149D01*
X154828420Y-46832154D01*
X154836409Y-46849631D01*
X154847413Y-46858250D01*
X154867271Y-46875910D01*
X154878301Y-46898153D01*
X154877933Y-46916470D01*
X154866861Y-46922600D01*
X154850786Y-46912599D01*
X154849000Y-46904908D01*
X154838755Y-46885302D01*
X154829949Y-46879907D01*
X154814262Y-46862680D01*
X154810900Y-46846798D01*
X154802487Y-46825734D01*
X154781974Y-46822587D01*
X154757832Y-46837259D01*
X154735878Y-46850998D01*
X154700547Y-46866296D01*
X154685394Y-46871596D01*
X154648599Y-46885487D01*
X154621445Y-46899190D01*
X154615544Y-46903627D01*
X154595783Y-46916434D01*
X154562082Y-46932810D01*
X154544237Y-46940293D01*
X154509487Y-46955356D01*
X154485834Y-46967924D01*
X154480737Y-46972039D01*
X154466102Y-46982623D01*
X154437192Y-46998201D01*
X154425591Y-47003770D01*
X154388491Y-47023462D01*
X154358110Y-47043600D01*
X154353356Y-47047558D01*
X154328804Y-47068833D01*
X154295778Y-47096545D01*
X154284640Y-47105723D01*
X154257442Y-47131510D01*
X154241311Y-47153563D01*
X154239400Y-47160096D01*
X154229236Y-47179705D01*
X154221941Y-47184096D01*
X154206552Y-47199052D01*
X154188157Y-47228928D01*
X154180891Y-47244023D01*
X154163326Y-47279872D01*
X154147135Y-47306896D01*
X154142465Y-47312766D01*
X154130879Y-47333518D01*
X154117812Y-47369197D01*
X154111264Y-47392141D01*
X154100527Y-47428112D01*
X154090698Y-47451272D01*
X154086218Y-47456000D01*
X154079987Y-47467544D01*
X154070621Y-47498447D01*
X154059715Y-47543109D01*
X154054540Y-47567125D01*
X154043383Y-47617242D01*
X154033026Y-47657160D01*
X154025096Y-47680851D01*
X154022771Y-47684600D01*
X154017418Y-47699214D01*
X154010091Y-47733310D01*
X154001648Y-47781130D01*
X153992949Y-47836914D01*
X153984852Y-47894902D01*
X153978217Y-47949335D01*
X153973903Y-47994455D01*
X153972700Y-48020285D01*
X153969566Y-48050006D01*
X153961844Y-48065120D01*
X153960000Y-48065600D01*
X153954928Y-48077954D01*
X153951044Y-48113677D01*
X153948474Y-48170761D01*
X153947343Y-48247197D01*
X153947300Y-48267611D01*
X153947445Y-48343252D01*
X153948178Y-48397035D01*
X153949942Y-48432500D01*
X153953184Y-48453189D01*
X153958346Y-48462643D01*
X153965875Y-48464402D01*
X153971860Y-48463199D01*
X154000234Y-48462727D01*
X154036736Y-48470135D01*
X154040634Y-48471367D01*
X154066711Y-48483765D01*
X154090439Y-48505367D01*
X154116598Y-48541341D01*
X154138656Y-48577404D01*
X154168282Y-48627339D01*
X154197162Y-48675327D01*
X154219706Y-48712091D01*
X154222282Y-48716202D01*
X154240529Y-48747625D01*
X154251068Y-48770506D01*
X154252100Y-48775168D01*
X154262213Y-48789297D01*
X154271150Y-48794092D01*
X154288017Y-48809485D01*
X154290200Y-48818023D01*
X154301322Y-48842843D01*
X154331225Y-48872840D01*
X154374711Y-48904810D01*
X154426581Y-48935549D01*
X154481639Y-48961853D01*
X154534686Y-48980519D01*
X154564063Y-48986819D01*
X154603058Y-48994024D01*
X154631780Y-49002139D01*
X154639500Y-49005964D01*
X154660119Y-49014012D01*
X154692967Y-49019958D01*
X154695672Y-49020237D01*
X154726351Y-49027266D01*
X154743640Y-49038844D01*
X154744305Y-49040325D01*
X154736425Y-49049009D01*
X154711757Y-49054572D01*
X154678753Y-49056728D01*
X154645866Y-49055194D01*
X154621550Y-49049684D01*
X154614785Y-49044689D01*
X154598966Y-49036262D01*
X154566887Y-49027931D01*
X154547360Y-49024611D01*
X154499570Y-49013946D01*
X154453843Y-48997776D01*
X154442600Y-48992363D01*
X154406256Y-48973471D01*
X154375045Y-48957999D01*
X154371535Y-48956350D01*
X154350239Y-48941079D01*
X154320291Y-48913157D01*
X154286751Y-48878181D01*
X154254683Y-48841748D01*
X154229147Y-48809455D01*
X154215206Y-48786899D01*
X154213999Y-48782169D01*
X154205146Y-48762235D01*
X154194802Y-48751277D01*
X154177650Y-48730292D01*
X154157524Y-48696649D01*
X154150668Y-48683047D01*
X154134183Y-48649476D01*
X154118427Y-48620729D01*
X154098258Y-48587959D01*
X154071412Y-48546697D01*
X154050028Y-48525435D01*
X154019939Y-48507875D01*
X153988201Y-48496381D01*
X153961868Y-48493317D01*
X153947995Y-48501047D01*
X153947300Y-48505100D01*
X153939991Y-48521115D01*
X153934600Y-48522800D01*
X153924157Y-48533396D01*
X153921900Y-48547292D01*
X153913946Y-48577173D01*
X153906025Y-48589104D01*
X153879944Y-48622930D01*
X153855411Y-48662666D01*
X153850565Y-48672141D01*
X153837001Y-48690185D01*
X153809329Y-48720451D01*
X153771929Y-48758717D01*
X153729183Y-48800762D01*
X153685470Y-48842364D01*
X153645171Y-48879302D01*
X153612667Y-48907354D01*
X153592337Y-48922299D01*
X153589792Y-48923455D01*
X153570297Y-48934989D01*
X153566300Y-48942961D01*
X153555920Y-48955628D01*
X153530154Y-48972035D01*
X153521849Y-48976207D01*
X153493428Y-48992029D01*
X153478207Y-49004921D01*
X153477400Y-49007156D01*
X153466985Y-49018070D01*
X153440924Y-49033607D01*
X153429775Y-49039067D01*
X153398426Y-49054951D01*
X153378338Y-49067536D01*
X153375800Y-49069985D01*
X153361040Y-49079903D01*
X153331604Y-49094313D01*
X153318818Y-49099830D01*
X153281989Y-49110006D01*
X153241445Y-49113737D01*
X153204758Y-49111366D01*
X153179499Y-49103238D01*
X153172600Y-49093183D01*
X153161559Y-49085048D01*
X153134959Y-49081600D01*
X153134500Y-49081600D01*
X153107219Y-49085068D01*
X153097260Y-49099587D01*
X153096399Y-49112523D01*
X153102393Y-49157502D01*
X153118172Y-49191436D01*
X153140431Y-49207940D01*
X153146136Y-49208600D01*
X153170862Y-49214776D01*
X153179485Y-49222165D01*
X153196865Y-49230651D01*
X153205029Y-49229146D01*
X153224641Y-49231281D01*
X153258218Y-49243492D01*
X153291234Y-49259406D01*
X153341822Y-49281783D01*
X153396357Y-49299053D01*
X153425474Y-49304899D01*
X153463779Y-49311790D01*
X153490511Y-49319965D01*
X153497484Y-49324573D01*
X153513819Y-49330421D01*
X153551776Y-49334165D01*
X153607676Y-49335979D01*
X153677845Y-49336034D01*
X153758603Y-49334503D01*
X153846276Y-49331558D01*
X153937185Y-49327370D01*
X154027655Y-49322112D01*
X154114008Y-49315957D01*
X154192568Y-49309075D01*
X154259657Y-49301640D01*
X154311600Y-49293823D01*
X154344718Y-49285797D01*
X154347350Y-49284788D01*
X154391594Y-49270747D01*
X154441976Y-49260858D01*
X154490252Y-49256070D01*
X154528181Y-49257333D01*
X154543904Y-49262162D01*
X154569889Y-49270640D01*
X154601006Y-49261867D01*
X154632411Y-49250565D01*
X154654003Y-49246700D01*
X154688668Y-49238858D01*
X154732022Y-49218789D01*
X154774262Y-49191680D01*
X154799311Y-49169847D01*
X154819601Y-49141249D01*
X154838210Y-49103087D01*
X154852410Y-49063123D01*
X154859472Y-49029119D01*
X154856669Y-49008836D01*
X154856113Y-49008210D01*
X154839600Y-49001500D01*
X154805760Y-48993234D01*
X154768636Y-48986350D01*
X154722070Y-48976318D01*
X154700139Y-48966365D01*
X154702116Y-48957964D01*
X154727275Y-48952590D01*
X154774888Y-48951718D01*
X154785500Y-48952139D01*
X154841659Y-48957792D01*
X154876484Y-48970770D01*
X154893773Y-48994719D01*
X154897322Y-49033291D01*
X154895310Y-49057638D01*
X154894091Y-49100342D01*
X154900734Y-49127523D01*
X154903143Y-49130663D01*
X154910454Y-49143057D01*
X154903821Y-49145100D01*
X154888710Y-49155476D01*
X154882599Y-49167325D01*
X154869352Y-49196450D01*
X154850866Y-49227158D01*
X154834897Y-49246700D01*
X154824430Y-49261313D01*
X154808767Y-49288988D01*
X154805995Y-49294325D01*
X154789258Y-49321429D01*
X154775194Y-49335175D01*
X154773329Y-49335600D01*
X154760481Y-49346018D01*
X154754323Y-49359194D01*
X154737455Y-49387958D01*
X154706017Y-49423992D01*
X154666861Y-49460914D01*
X154626836Y-49492342D01*
X154592791Y-49511894D01*
X154588917Y-49513311D01*
X154558400Y-49528165D01*
X154552253Y-49544922D01*
X154552598Y-49545907D01*
X154551909Y-49553791D01*
X154540233Y-49559097D01*
X154513892Y-49562295D01*
X154469208Y-49563855D01*
X154409033Y-49564247D01*
X154258450Y-49564295D01*
X154333210Y-49601524D01*
X154381858Y-49622981D01*
X154430510Y-49640042D01*
X154460210Y-49647362D01*
X154496075Y-49655048D01*
X154521311Y-49663630D01*
X154525150Y-49665912D01*
X154543348Y-49672673D01*
X154579154Y-49681029D01*
X154624998Y-49689228D01*
X154627409Y-49689601D01*
X154689022Y-49701322D01*
X154755489Y-49717376D01*
X154798859Y-49730036D01*
X154855538Y-49745776D01*
X154916101Y-49758467D01*
X154953775Y-49763825D01*
X155000935Y-49771112D01*
X155023975Y-49781631D01*
X155026800Y-49788213D01*
X155015497Y-49799284D01*
X154985402Y-49804187D01*
X154942233Y-49803414D01*
X154891709Y-49797454D01*
X154839549Y-49786801D01*
X154791471Y-49771944D01*
X154779150Y-49766937D01*
X154701932Y-49741227D01*
X154628253Y-49731319D01*
X154563743Y-49737503D01*
X154523228Y-49753798D01*
X154483122Y-49781084D01*
X154440376Y-49814655D01*
X154399938Y-49850020D01*
X154366755Y-49882684D01*
X154345775Y-49908153D01*
X154341000Y-49919301D01*
X154331986Y-49934571D01*
X154311629Y-49953803D01*
X154285696Y-49978197D01*
X154270354Y-49998086D01*
X154255561Y-50018353D01*
X154229338Y-50049353D01*
X154203993Y-50077229D01*
X154166286Y-50122487D01*
X154140125Y-50168341D01*
X154123659Y-50220818D01*
X154115036Y-50285948D01*
X154112407Y-50369759D01*
X154112400Y-50375609D01*
X154113392Y-50442628D01*
X154116906Y-50490373D01*
X154123741Y-50524912D01*
X154134701Y-50552311D01*
X154136106Y-50554988D01*
X154154611Y-50595944D01*
X154167920Y-50636403D01*
X154168673Y-50639647D01*
X154180392Y-50672786D01*
X154195914Y-50695300D01*
X154212625Y-50715733D01*
X154232760Y-50748933D01*
X154239954Y-50762852D01*
X154269293Y-50820944D01*
X154291069Y-50859459D01*
X154307688Y-50882186D01*
X154321558Y-50892908D01*
X154323033Y-50893523D01*
X154339197Y-50908284D01*
X154341000Y-50915573D01*
X154350000Y-50935380D01*
X154374623Y-50968289D01*
X154411301Y-51010762D01*
X154456468Y-51059261D01*
X154506557Y-51110247D01*
X154558000Y-51160181D01*
X154607232Y-51205525D01*
X154650684Y-51242742D01*
X154684790Y-51268291D01*
X154705983Y-51278635D01*
X154707047Y-51278700D01*
X154723522Y-51288660D01*
X154734700Y-51304100D01*
X154752604Y-51324313D01*
X154766176Y-51329500D01*
X154787436Y-51338880D01*
X154800654Y-51352304D01*
X154822709Y-51372326D01*
X154856411Y-51393172D01*
X154864875Y-51397350D01*
X154894588Y-51414272D01*
X154911219Y-51429657D01*
X154912500Y-51433442D01*
X154923977Y-51438642D01*
X154954015Y-51440704D01*
X154996027Y-51440040D01*
X155043422Y-51437064D01*
X155089614Y-51432191D01*
X155128012Y-51425834D01*
X155152028Y-51418406D01*
X155152042Y-51418398D01*
X155172527Y-51412295D01*
X155212232Y-51404234D01*
X155265165Y-51395329D01*
X155317176Y-51387777D01*
X155375918Y-51379062D01*
X155425830Y-51370188D01*
X155461234Y-51362258D01*
X155475926Y-51356904D01*
X155493653Y-51350580D01*
X155530929Y-51341994D01*
X155582138Y-51332315D01*
X155636400Y-51323500D01*
X155695210Y-51313982D01*
X155745018Y-51304695D01*
X155780291Y-51296749D01*
X155795150Y-51291580D01*
X155814154Y-51283442D01*
X155848785Y-51273528D01*
X155872976Y-51267949D01*
X155925177Y-51252914D01*
X155979947Y-51231206D01*
X155998692Y-51222016D01*
X156043493Y-51200090D01*
X156074493Y-51192074D01*
X156099243Y-51198119D01*
X156125295Y-51218380D01*
X156131914Y-51224725D01*
X156173849Y-51264963D01*
X156201535Y-51289686D01*
X156218304Y-51301714D01*
X156225727Y-51304100D01*
X156240670Y-51310759D01*
X156268881Y-51327837D01*
X156290450Y-51342200D01*
X156323850Y-51363722D01*
X156349355Y-51377536D01*
X156357858Y-51380300D01*
X156375308Y-51389014D01*
X156385160Y-51398700D01*
X156406970Y-51414572D01*
X156440814Y-51429764D01*
X156447040Y-51431851D01*
X156480804Y-51445376D01*
X156504067Y-51459733D01*
X156506350Y-51462087D01*
X156525066Y-51475402D01*
X156558486Y-51491953D01*
X156579375Y-51500511D01*
X156613724Y-51515244D01*
X156635573Y-51527824D01*
X156639700Y-51532774D01*
X156650801Y-51541197D01*
X156679121Y-51552344D01*
X156700025Y-51558665D01*
X156741398Y-51571809D01*
X156775867Y-51585776D01*
X156785750Y-51591032D01*
X156813703Y-51603896D01*
X156853411Y-51617248D01*
X156868300Y-51621310D01*
X156912999Y-51634247D01*
X156954244Y-51648714D01*
X156963550Y-51652573D01*
X156995737Y-51663440D01*
X157042550Y-51675407D01*
X157090550Y-51685252D01*
X157136804Y-51694708D01*
X157173761Y-51704431D01*
X157193661Y-51712370D01*
X157193961Y-51712596D01*
X157205647Y-51717578D01*
X157230944Y-51724015D01*
X157271843Y-51732265D01*
X157330333Y-51742685D01*
X157408402Y-51755634D01*
X157508039Y-51771470D01*
X157604900Y-51786500D01*
X157670405Y-51793416D01*
X157755205Y-51797640D01*
X157853352Y-51799280D01*
X157958895Y-51798439D01*
X158065884Y-51795223D01*
X158168368Y-51789737D01*
X158260400Y-51782086D01*
X158327576Y-51773715D01*
X158391601Y-51763326D01*
X158447772Y-51753143D01*
X158490654Y-51744226D01*
X158514808Y-51737637D01*
X158516753Y-51736777D01*
X158538699Y-51729232D01*
X158578319Y-51718945D01*
X158628303Y-51707762D01*
X158646300Y-51704095D01*
X158696703Y-51693248D01*
X158737806Y-51682846D01*
X158762989Y-51674623D01*
X158766950Y-51672478D01*
X158785749Y-51663184D01*
X158819786Y-51650663D01*
X158843150Y-51643234D01*
X158888706Y-51627801D01*
X158930632Y-51610764D01*
X158944750Y-51603917D01*
X158976526Y-51589832D01*
X159001141Y-51583550D01*
X159001900Y-51583530D01*
X159025101Y-51577151D01*
X159056392Y-51561746D01*
X159059923Y-51559638D01*
X159095979Y-51540293D01*
X159129042Y-51526509D01*
X159129773Y-51526279D01*
X159161345Y-51514967D01*
X159201279Y-51498828D01*
X159211450Y-51494446D01*
X159255984Y-51475653D01*
X159300102Y-51458073D01*
X159306700Y-51455574D01*
X159338761Y-51440329D01*
X159359696Y-51424519D01*
X159361306Y-51422320D01*
X159381358Y-51407227D01*
X159390053Y-51405700D01*
X159416852Y-51399924D01*
X159430697Y-51393927D01*
X159459641Y-51379896D01*
X159471800Y-51374767D01*
X159495308Y-51363320D01*
X159526970Y-51345365D01*
X159529909Y-51343586D01*
X159589675Y-51315535D01*
X159643272Y-51309734D01*
X159695862Y-51325697D01*
X159699728Y-51327663D01*
X159749119Y-51353408D01*
X159808180Y-51287479D01*
X159843529Y-51248071D01*
X159876772Y-51211099D01*
X159898120Y-51187434D01*
X159918661Y-51161297D01*
X159928779Y-51141668D01*
X159929000Y-51139809D01*
X159937200Y-51121225D01*
X159951646Y-51103653D01*
X159971975Y-51077230D01*
X159993115Y-51041062D01*
X159996692Y-51033803D01*
X160013158Y-51004327D01*
X160027172Y-50987853D01*
X160030340Y-50986600D01*
X160042288Y-50976014D01*
X160050296Y-50958025D01*
X160064406Y-50926419D01*
X160075243Y-50910400D01*
X160086743Y-50888698D01*
X160100781Y-50850793D01*
X160113233Y-50808800D01*
X160127184Y-50759501D01*
X160141517Y-50714599D01*
X160151381Y-50688150D01*
X160160287Y-50658709D01*
X160170294Y-50612040D01*
X160179778Y-50556169D01*
X160183542Y-50529400D01*
X160191327Y-50475889D01*
X160199238Y-50431656D01*
X160206084Y-50402954D01*
X160208967Y-50396050D01*
X160213118Y-50379259D01*
X160217709Y-50342176D01*
X160222242Y-50289891D01*
X160226217Y-50227496D01*
X160227017Y-50211900D01*
X160234603Y-50093549D01*
X160244758Y-49998568D01*
X160257756Y-49925031D01*
X160273867Y-49871013D01*
X160275992Y-49865825D01*
X160291638Y-49837854D01*
X160303559Y-49833331D01*
X160309634Y-49852454D01*
X160310000Y-49862650D01*
X160306345Y-49886527D01*
X160299333Y-49894400D01*
X160290722Y-49906538D01*
X160281794Y-49940730D01*
X160273012Y-49993642D01*
X160264836Y-50061940D01*
X160257730Y-50142288D01*
X160252153Y-50231355D01*
X160251858Y-50237300D01*
X160248174Y-50300637D01*
X160243936Y-50354381D01*
X160239610Y-50393679D01*
X160235662Y-50413677D01*
X160234779Y-50415100D01*
X160229590Y-50429476D01*
X160222029Y-50463769D01*
X160213142Y-50512727D01*
X160204618Y-50566701D01*
X160195322Y-50624675D01*
X160186206Y-50672953D01*
X160178360Y-50706243D01*
X160173181Y-50719101D01*
X160165526Y-50734066D01*
X160154314Y-50767192D01*
X160141723Y-50811899D01*
X160139270Y-50821500D01*
X160125742Y-50868299D01*
X160111775Y-50905279D01*
X160100040Y-50925558D01*
X160098367Y-50926906D01*
X160083036Y-50946633D01*
X160081400Y-50955481D01*
X160073019Y-50978139D01*
X160058753Y-50996546D01*
X160038424Y-51022969D01*
X160017284Y-51059137D01*
X160013707Y-51066396D01*
X159997098Y-51095884D01*
X159982742Y-51112353D01*
X159979446Y-51113600D01*
X159967887Y-51124376D01*
X159959540Y-51145646D01*
X159945072Y-51176502D01*
X159929708Y-51193271D01*
X159907458Y-51214867D01*
X159884437Y-51245013D01*
X159884330Y-51245177D01*
X159859464Y-51278490D01*
X159828153Y-51314414D01*
X159821845Y-51320963D01*
X159782950Y-51360421D01*
X159821050Y-51368857D01*
X159861255Y-51375202D01*
X159905231Y-51378770D01*
X159906025Y-51378797D01*
X159938786Y-51382934D01*
X159959172Y-51391192D01*
X159960750Y-51393000D01*
X159977219Y-51399127D01*
X160015619Y-51403448D01*
X160072556Y-51406087D01*
X160144633Y-51407175D01*
X160228457Y-51406836D01*
X160320631Y-51405200D01*
X160417760Y-51402394D01*
X160516450Y-51398545D01*
X160613306Y-51393780D01*
X160704932Y-51388228D01*
X160787934Y-51382015D01*
X160858915Y-51375270D01*
X160914482Y-51368119D01*
X160951239Y-51360690D01*
X160964050Y-51355322D01*
X160982353Y-51349143D01*
X161018309Y-51342485D01*
X161064241Y-51336759D01*
X161065650Y-51336621D01*
X161136658Y-51328727D01*
X161203741Y-51319517D01*
X161261787Y-51309855D01*
X161305688Y-51300609D01*
X161330334Y-51292644D01*
X161332350Y-51291400D01*
X161350531Y-51284610D01*
X161386247Y-51275858D01*
X161431920Y-51266992D01*
X161433950Y-51266644D01*
X161484983Y-51256422D01*
X161531242Y-51244585D01*
X161560950Y-51234384D01*
X161599216Y-51219113D01*
X161643456Y-51203903D01*
X161649850Y-51201927D01*
X161696467Y-51185907D01*
X161744810Y-51166590D01*
X161751450Y-51163654D01*
X161793309Y-51146749D01*
X161832988Y-51133717D01*
X161840350Y-51131824D01*
X161875780Y-51118882D01*
X161900752Y-51103505D01*
X161922878Y-51090458D01*
X161932323Y-51097777D01*
X161928308Y-51117823D01*
X161912168Y-51132460D01*
X161878264Y-51148548D01*
X161845459Y-51159414D01*
X161806159Y-51171938D01*
X161779018Y-51183450D01*
X161770500Y-51190464D01*
X161759485Y-51199501D01*
X161732627Y-51208156D01*
X161729225Y-51208883D01*
X161684030Y-51219835D01*
X161640918Y-51233152D01*
X161607660Y-51246177D01*
X161592409Y-51255664D01*
X161577761Y-51261833D01*
X161544090Y-51270940D01*
X161497379Y-51281449D01*
X161471759Y-51286604D01*
X161420916Y-51297190D01*
X161380248Y-51307037D01*
X161355716Y-51314637D01*
X161351400Y-51317072D01*
X161335898Y-51323102D01*
X161299945Y-51330975D01*
X161248353Y-51339904D01*
X161185933Y-51349103D01*
X161117499Y-51357784D01*
X161072000Y-51362783D01*
X161028786Y-51368456D01*
X160996653Y-51374989D01*
X160983100Y-51380607D01*
X160968929Y-51384991D01*
X160933867Y-51391074D01*
X160882316Y-51398225D01*
X160818676Y-51405813D01*
X160773550Y-51410617D01*
X160708117Y-51416151D01*
X160630516Y-51420898D01*
X160544186Y-51424824D01*
X160452565Y-51427898D01*
X160359092Y-51430087D01*
X160267206Y-51431361D01*
X160180346Y-51431685D01*
X160101950Y-51431029D01*
X160035458Y-51429360D01*
X159984307Y-51426645D01*
X159951937Y-51422854D01*
X159941700Y-51418400D01*
X159930791Y-51408998D01*
X159908592Y-51405700D01*
X159873088Y-51402320D01*
X159826088Y-51393501D01*
X159775195Y-51381226D01*
X159728011Y-51367475D01*
X159692139Y-51354230D01*
X159676603Y-51345240D01*
X159649592Y-51334947D01*
X159610210Y-51338730D01*
X159565763Y-51354601D01*
X159523558Y-51380574D01*
X159512658Y-51389825D01*
X159485268Y-51403713D01*
X159471642Y-51405700D01*
X159447709Y-51411744D01*
X159440050Y-51418400D01*
X159422040Y-51429271D01*
X159408909Y-51431100D01*
X159386072Y-51438984D01*
X159379258Y-51447671D01*
X159364159Y-51461292D01*
X159333475Y-51476347D01*
X159317574Y-51482064D01*
X159283072Y-51494251D01*
X159260100Y-51504363D01*
X159255900Y-51507255D01*
X159241318Y-51514908D01*
X159209912Y-51527292D01*
X159176525Y-51538992D01*
X159138049Y-51553089D01*
X159111592Y-51565190D01*
X159103500Y-51571691D01*
X159092403Y-51579548D01*
X159063572Y-51591547D01*
X159030475Y-51602766D01*
X158990601Y-51616280D01*
X158961565Y-51628166D01*
X158951100Y-51634572D01*
X158936399Y-51642593D01*
X158904500Y-51654394D01*
X158868550Y-51665567D01*
X158826324Y-51678765D01*
X158793615Y-51690892D01*
X158779461Y-51698076D01*
X158761908Y-51705141D01*
X158725774Y-51715147D01*
X158677454Y-51726405D01*
X158652461Y-51731626D01*
X158601627Y-51742579D01*
X158560948Y-51752694D01*
X158536369Y-51760430D01*
X158532000Y-51762889D01*
X158517800Y-51767664D01*
X158483144Y-51775109D01*
X158432724Y-51784328D01*
X158371234Y-51794426D01*
X158347850Y-51798019D01*
X158271666Y-51808529D01*
X158200523Y-51815846D01*
X158127294Y-51820374D01*
X158044857Y-51822514D01*
X157946089Y-51822671D01*
X157916050Y-51822429D01*
X157832703Y-51821434D01*
X157752989Y-51820123D01*
X157682313Y-51818613D01*
X157626079Y-51817018D01*
X157589692Y-51815456D01*
X157589025Y-51815414D01*
X157549787Y-51811050D01*
X157523280Y-51804459D01*
X157516000Y-51798766D01*
X157504948Y-51790341D01*
X157478266Y-51786703D01*
X157477326Y-51786700D01*
X157446332Y-51784681D01*
X157401265Y-51779307D01*
X157348194Y-51771597D01*
X157293186Y-51762574D01*
X157242311Y-51753258D01*
X157201635Y-51744670D01*
X157177227Y-51737831D01*
X157173100Y-51735509D01*
X157158632Y-51729383D01*
X157125043Y-51720125D01*
X157078182Y-51709260D01*
X157049275Y-51703233D01*
X156998553Y-51692070D01*
X156958840Y-51681456D01*
X156935593Y-51672951D01*
X156931800Y-51669678D01*
X156921778Y-51660307D01*
X156916553Y-51659700D01*
X156893620Y-51656145D01*
X156858815Y-51647138D01*
X156819838Y-51635161D01*
X156784389Y-51622700D01*
X156760167Y-51612238D01*
X156754000Y-51607258D01*
X156742820Y-51599522D01*
X156714109Y-51589002D01*
X156689036Y-51581897D01*
X156651203Y-51569613D01*
X156624830Y-51556223D01*
X156617827Y-51548973D01*
X156602315Y-51533935D01*
X156595842Y-51532700D01*
X156574341Y-51527150D01*
X156542324Y-51513845D01*
X156510471Y-51497800D01*
X156489461Y-51484030D01*
X156487300Y-51481730D01*
X156472628Y-51472677D01*
X156442192Y-51458971D01*
X156420625Y-51450434D01*
X156386268Y-51435836D01*
X156364420Y-51423437D01*
X156360300Y-51418603D01*
X156349815Y-51408387D01*
X156323400Y-51393264D01*
X156309500Y-51386650D01*
X156278694Y-51371022D01*
X156260654Y-51358513D01*
X156258700Y-51355323D01*
X156248383Y-51345026D01*
X156222754Y-51329919D01*
X156214250Y-51325707D01*
X156185763Y-51309105D01*
X156170574Y-51294372D01*
X156169800Y-51291605D01*
X156159584Y-51280002D01*
X156151671Y-51278700D01*
X156131682Y-51269465D01*
X156108776Y-51247212D01*
X156108449Y-51246797D01*
X156087739Y-51225456D01*
X156067149Y-51222373D01*
X156047460Y-51228542D01*
X156019448Y-51241953D01*
X156004278Y-51253982D01*
X155989106Y-51262618D01*
X155956050Y-51274238D01*
X155912047Y-51286425D01*
X155908769Y-51287229D01*
X155864470Y-51298909D01*
X155830781Y-51309488D01*
X155814527Y-51316805D01*
X155814200Y-51317164D01*
X155799867Y-51322207D01*
X155765485Y-51329714D01*
X155716165Y-51338681D01*
X155657018Y-51348104D01*
X155655450Y-51348338D01*
X155596076Y-51357903D01*
X155546369Y-51367276D01*
X155511456Y-51375395D01*
X155496465Y-51381197D01*
X155496394Y-51381297D01*
X155481912Y-51386892D01*
X155447365Y-51394572D01*
X155397898Y-51403334D01*
X155338659Y-51412170D01*
X155337644Y-51412308D01*
X155276009Y-51421303D01*
X155221818Y-51430293D01*
X155181067Y-51438213D01*
X155160150Y-51443826D01*
X155133274Y-51451410D01*
X155092357Y-51459011D01*
X155065629Y-51462660D01*
X155025364Y-51468237D01*
X154995761Y-51473951D01*
X154986231Y-51477075D01*
X154965434Y-51482181D01*
X154923059Y-51486678D01*
X154862919Y-51490531D01*
X154788831Y-51493706D01*
X154704609Y-51496167D01*
X154614066Y-51497881D01*
X154521020Y-51498812D01*
X154429283Y-51498927D01*
X154342672Y-51498189D01*
X154265001Y-51496566D01*
X154200084Y-51494021D01*
X154151736Y-51490520D01*
X154123773Y-51486030D01*
X154120802Y-51484936D01*
X154097307Y-51477881D01*
X154055132Y-51468728D01*
X154000765Y-51458787D01*
X153954218Y-51451349D01*
X153897553Y-51442003D01*
X153850691Y-51432652D01*
X153819042Y-51424481D01*
X153808168Y-51419389D01*
X153793336Y-51411802D01*
X153759833Y-51401262D01*
X153713924Y-51389652D01*
X153696164Y-51385702D01*
X153643540Y-51372840D01*
X153611514Y-51361492D01*
X153602201Y-51352443D01*
X153603054Y-51351165D01*
X153620501Y-51348156D01*
X153655302Y-51351088D01*
X153700502Y-51358547D01*
X153749144Y-51369119D01*
X153794270Y-51381390D01*
X153828923Y-51393949D01*
X153838853Y-51399073D01*
X153862774Y-51407883D01*
X153904495Y-51417849D01*
X153956574Y-51427296D01*
X153979050Y-51430611D01*
X154034991Y-51439248D01*
X154085369Y-51448720D01*
X154121888Y-51457408D01*
X154130231Y-51460101D01*
X154158184Y-51465823D01*
X154205021Y-51470123D01*
X154266962Y-51473075D01*
X154340230Y-51474747D01*
X154421046Y-51475211D01*
X154505632Y-51474539D01*
X154590209Y-51472800D01*
X154671000Y-51470067D01*
X154744224Y-51466410D01*
X154806105Y-51461899D01*
X154852863Y-51456606D01*
X154880721Y-51450603D01*
X154886954Y-51445891D01*
X154876492Y-51435787D01*
X154850326Y-51420285D01*
X154836860Y-51413525D01*
X154804540Y-51394992D01*
X154783398Y-51377215D01*
X154780255Y-51372250D01*
X154764963Y-51356483D01*
X154757770Y-51354900D01*
X154737817Y-51346627D01*
X154716096Y-51329253D01*
X154692638Y-51308264D01*
X154656927Y-51278800D01*
X154620400Y-51250109D01*
X154582380Y-51219615D01*
X154551078Y-51192042D01*
X154533954Y-51174156D01*
X154512865Y-51155948D01*
X154499029Y-51151700D01*
X154482611Y-51143684D01*
X154480700Y-51137303D01*
X154472210Y-51121776D01*
X154449908Y-51094667D01*
X154418544Y-51061726D01*
X154417199Y-51060399D01*
X154385746Y-51028445D01*
X154363034Y-51003477D01*
X154353730Y-50990641D01*
X154353700Y-50990379D01*
X154346348Y-50977080D01*
X154327491Y-50951074D01*
X154311491Y-50930757D01*
X154285666Y-50896650D01*
X154266569Y-50867392D01*
X154261089Y-50856425D01*
X154249088Y-50837721D01*
X154241831Y-50834200D01*
X154231483Y-50823299D01*
X154218515Y-50795878D01*
X154213554Y-50782050D01*
X154199371Y-50748459D01*
X154184434Y-50726723D01*
X154179871Y-50723580D01*
X154167196Y-50708646D01*
X154152574Y-50677229D01*
X154144206Y-50652627D01*
X154130505Y-50614224D01*
X154116348Y-50586354D01*
X154109181Y-50578214D01*
X154101431Y-50561190D01*
X154095303Y-50524322D01*
X154090916Y-50473119D01*
X154088389Y-50413095D01*
X154087841Y-50349758D01*
X154089391Y-50288621D01*
X154093158Y-50235194D01*
X154099261Y-50194988D01*
X154100780Y-50188989D01*
X154123696Y-50138292D01*
X154167154Y-50075178D01*
X154230256Y-50000849D01*
X154283719Y-49944721D01*
X154304927Y-49920815D01*
X154315372Y-49904202D01*
X154315600Y-49902817D01*
X154324838Y-49886491D01*
X154349436Y-49859105D01*
X154384720Y-49825216D01*
X154426017Y-49789377D01*
X154457965Y-49764078D01*
X154489138Y-49738940D01*
X154503279Y-49720745D01*
X154498616Y-49706648D01*
X154473380Y-49693806D01*
X154425804Y-49679374D01*
X154401178Y-49672797D01*
X154357543Y-49660145D01*
X154324515Y-49648383D01*
X154309008Y-49639984D01*
X154308856Y-49639763D01*
X154294641Y-49628982D01*
X154264613Y-49611974D01*
X154235978Y-49597611D01*
X154210770Y-49586294D01*
X154186480Y-49577921D01*
X154158614Y-49571957D01*
X154122676Y-49567862D01*
X154074173Y-49565099D01*
X154008610Y-49563131D01*
X153935591Y-49561671D01*
X153845773Y-49559529D01*
X153779150Y-49556668D01*
X153733525Y-49552908D01*
X153706699Y-49548063D01*
X153696472Y-49541952D01*
X153696407Y-49541773D01*
X153680879Y-49527342D01*
X153673635Y-49526100D01*
X153644670Y-49521077D01*
X153604438Y-49508520D01*
X153562921Y-49492197D01*
X153530099Y-49475874D01*
X153518723Y-49467638D01*
X153491998Y-49446273D01*
X153476409Y-49436670D01*
X153459931Y-49419718D01*
X153452166Y-49397107D01*
X153454955Y-49378739D01*
X153464700Y-49373700D01*
X153476681Y-49383752D01*
X153477671Y-49389575D01*
X153489258Y-49409621D01*
X153520265Y-49434467D01*
X153565912Y-49461191D01*
X153621421Y-49486873D01*
X153661550Y-49501973D01*
X153688400Y-49510759D01*
X153713931Y-49517716D01*
X153741548Y-49523098D01*
X153774652Y-49527158D01*
X153816649Y-49530149D01*
X153870942Y-49532323D01*
X153940934Y-49533933D01*
X154030028Y-49535233D01*
X154123311Y-49536282D01*
X154233346Y-49537270D01*
X154320683Y-49537581D01*
X154388019Y-49537114D01*
X154438050Y-49535770D01*
X154473472Y-49533449D01*
X154496981Y-49530052D01*
X154511272Y-49525479D01*
X154517011Y-49521728D01*
X154542777Y-49504392D01*
X154578073Y-49486585D01*
X154582300Y-49484789D01*
X154607495Y-49471094D01*
X154636138Y-49448313D01*
X154671439Y-49413357D01*
X154716610Y-49363137D01*
X154752919Y-49320686D01*
X154774120Y-49291283D01*
X154784985Y-49273061D01*
X154792637Y-49253027D01*
X154783603Y-49246837D01*
X154779596Y-49246700D01*
X154762398Y-49252543D01*
X154760100Y-49257717D01*
X154748272Y-49266820D01*
X154712484Y-49278637D01*
X154652278Y-49293299D01*
X154591825Y-49306040D01*
X154566528Y-49314657D01*
X154556900Y-49324341D01*
X154545815Y-49331984D01*
X154518159Y-49335239D01*
X154482327Y-49334381D01*
X154446717Y-49329687D01*
X154419723Y-49321434D01*
X154416640Y-49319725D01*
X154392025Y-49310974D01*
X154381887Y-49317210D01*
X154364737Y-49324706D01*
X154325799Y-49332292D01*
X154268683Y-49339785D01*
X154197001Y-49347000D01*
X154114363Y-49353752D01*
X154024380Y-49359857D01*
X153930662Y-49365130D01*
X153836819Y-49369387D01*
X153746464Y-49372442D01*
X153663205Y-49374111D01*
X153590654Y-49374210D01*
X153532421Y-49372553D01*
X153492117Y-49368957D01*
X153473811Y-49363647D01*
X153452316Y-49353980D01*
X153416869Y-49344637D01*
X153402493Y-49341951D01*
X153337917Y-49325753D01*
X153270489Y-49296547D01*
X153236100Y-49277875D01*
X153204845Y-49264275D01*
X153182125Y-49259587D01*
X153163272Y-49253433D01*
X153159900Y-49246700D01*
X153149047Y-49237096D01*
X153128659Y-49234000D01*
X153105978Y-49228840D01*
X153091155Y-49209009D01*
X153083082Y-49186145D01*
X153074542Y-49143878D01*
X153072709Y-49104137D01*
X153073047Y-49100420D01*
X153078779Y-49075393D01*
X153093674Y-49063541D01*
X153125766Y-49058581D01*
X153126648Y-49058508D01*
X153161837Y-49059142D01*
X153186552Y-49065822D01*
X153189513Y-49068033D01*
X153218794Y-49080164D01*
X153260771Y-49073841D01*
X153295151Y-49058764D01*
X153333826Y-49038326D01*
X153377204Y-49016017D01*
X153384051Y-49012560D01*
X153426092Y-48988698D01*
X153465853Y-48962018D01*
X153471050Y-48958047D01*
X153505894Y-48931409D01*
X153538496Y-48907571D01*
X153540110Y-48906436D01*
X153566813Y-48884878D01*
X153604574Y-48850685D01*
X153649425Y-48807869D01*
X153697402Y-48760439D01*
X153744536Y-48712405D01*
X153786862Y-48667778D01*
X153820412Y-48630566D01*
X153841221Y-48604779D01*
X153845474Y-48597739D01*
X153861930Y-48565145D01*
X153882919Y-48529371D01*
X153883060Y-48529150D01*
X153892066Y-48512393D01*
X153898597Y-48491910D01*
X153903064Y-48463516D01*
X153905879Y-48423028D01*
X153907451Y-48366259D01*
X153908194Y-48289027D01*
X153908271Y-48272724D01*
X153909336Y-48192079D01*
X153911669Y-48126297D01*
X153915090Y-48078381D01*
X153919418Y-48051332D01*
X153921900Y-48046549D01*
X153930967Y-48029422D01*
X153934600Y-48000485D01*
X153936467Y-47968478D01*
X153941465Y-47921647D01*
X153948688Y-47865985D01*
X153957229Y-47807489D01*
X153966181Y-47752153D01*
X153974639Y-47705973D01*
X153981695Y-47674944D01*
X153985236Y-47665550D01*
X153992215Y-47647826D01*
X154002230Y-47612037D01*
X154013412Y-47565038D01*
X154016403Y-47551250D01*
X154030058Y-47494819D01*
X154045999Y-47440506D01*
X154061012Y-47399148D01*
X154062489Y-47395813D01*
X154077110Y-47361758D01*
X154085878Y-47337591D01*
X154087000Y-47332212D01*
X154093017Y-47314162D01*
X154108296Y-47282215D01*
X154128680Y-47244037D01*
X154150012Y-47207298D01*
X154168133Y-47179664D01*
X154173144Y-47173337D01*
X154195283Y-47142959D01*
X154206522Y-47123510D01*
X154223833Y-47102169D01*
X154256660Y-47071606D01*
X154299237Y-47036467D01*
X154345797Y-47001393D01*
X154390574Y-46971029D01*
X154411331Y-46958591D01*
X154440776Y-46942929D01*
X154484622Y-46920647D01*
X154534347Y-46896065D01*
X154544200Y-46891276D01*
X154598460Y-46864742D01*
X154652778Y-46837787D01*
X154696252Y-46815825D01*
X154699781Y-46814009D01*
X154737458Y-46796332D01*
X154768006Y-46785061D01*
X154779156Y-46782900D01*
X154790696Y-46776566D01*
X154796604Y-46754380D01*
X154798200Y-46713799D01*
X154800104Y-46674230D01*
X154805003Y-46646113D01*
X154809425Y-46637761D01*
X154820949Y-46623020D01*
X154837877Y-46593128D01*
X154848011Y-46572615D01*
X154867783Y-46539566D01*
X154886979Y-46521619D01*
X154901490Y-46521304D01*
X154907033Y-46536308D01*
X154911548Y-46559690D01*
X154921264Y-46597313D01*
X154933388Y-46639312D01*
X154945129Y-46675818D01*
X154950761Y-46690825D01*
X154967730Y-46712274D01*
X154998832Y-46719169D01*
X155004302Y-46719226D01*
X155054557Y-46716070D01*
X155085416Y-46704952D01*
X155102440Y-46682619D01*
X155109230Y-46657906D01*
X155119466Y-46621623D01*
X155133075Y-46594450D01*
X155134742Y-46592400D01*
X155149508Y-46567161D01*
X155162241Y-46531988D01*
X155162787Y-46529912D01*
X155178894Y-46495547D01*
X155202050Y-46483389D01*
X155229885Y-46492054D01*
G37*
X155229885Y-46492054D02*
X155260029Y-46520161D01*
X155290110Y-46566327D01*
X155313499Y-46617800D01*
X155327837Y-46653816D01*
X155341260Y-46678499D01*
X155358612Y-46693990D01*
X155384738Y-46702426D01*
X155424480Y-46705949D01*
X155482683Y-46706698D01*
X155514765Y-46706700D01*
X155575487Y-46707559D01*
X155627092Y-46709899D01*
X155664188Y-46713366D01*
X155681383Y-46717603D01*
X155681485Y-46717691D01*
X155698465Y-46724456D01*
X155734552Y-46733874D01*
X155783787Y-46744497D01*
X155820550Y-46751459D01*
X155875265Y-46761903D01*
X155920858Y-46771782D01*
X155951335Y-46779732D01*
X155960250Y-46783253D01*
X155978967Y-46790956D01*
X156013712Y-46801237D01*
X156042800Y-46808511D01*
X156125004Y-46834961D01*
X156208876Y-46877206D01*
X156296782Y-46936885D01*
X156391086Y-47015638D01*
X156494156Y-47115103D01*
X156512700Y-47134170D01*
X156581303Y-47205827D01*
X156633586Y-47261840D01*
X156671364Y-47304353D01*
X156696450Y-47335509D01*
X156710656Y-47357450D01*
X156715797Y-47372321D01*
X156715900Y-47374309D01*
X156725906Y-47393891D01*
X156739010Y-47403974D01*
X156757374Y-47423331D01*
X156774920Y-47456490D01*
X156779143Y-47467921D01*
X156791623Y-47499513D01*
X156802797Y-47517734D01*
X156805902Y-47519500D01*
X156817939Y-47529574D01*
X156833417Y-47553862D01*
X156833710Y-47554425D01*
X156847415Y-47580756D01*
X156869301Y-47622637D01*
X156895741Y-47673130D01*
X156910840Y-47701925D01*
X156935862Y-47750909D01*
X156955629Y-47792056D01*
X156967563Y-47819859D01*
X156969900Y-47828091D01*
X156974955Y-47847142D01*
X156987676Y-47879054D01*
X156994139Y-47893315D01*
X157011368Y-47935273D01*
X157029620Y-47987660D01*
X157039790Y-48021150D01*
X157052602Y-48063359D01*
X157064246Y-48095998D01*
X157071027Y-48110050D01*
X157078238Y-48128170D01*
X157087885Y-48163767D01*
X157097937Y-48209309D01*
X157098401Y-48211650D01*
X157103395Y-48249032D01*
X157107627Y-48304292D01*
X157111081Y-48373708D01*
X157113744Y-48453557D01*
X157115600Y-48540116D01*
X157116635Y-48629664D01*
X157116833Y-48718478D01*
X157116179Y-48802836D01*
X157114660Y-48879015D01*
X157112259Y-48943293D01*
X157108961Y-48991948D01*
X157104753Y-49021257D01*
X157101670Y-49028088D01*
X157089765Y-49045753D01*
X157079478Y-49077020D01*
X157078497Y-49081600D01*
X157070832Y-49117701D01*
X157064245Y-49145256D01*
X157063878Y-49146596D01*
X157065768Y-49160053D01*
X157083853Y-49168939D01*
X157119261Y-49175248D01*
X157161187Y-49183630D01*
X157195758Y-49195333D01*
X157205309Y-49200516D01*
X157231561Y-49213043D01*
X157271913Y-49226609D01*
X157300100Y-49234059D01*
X157348908Y-49247962D01*
X157395177Y-49265072D01*
X157414211Y-49273969D01*
X157447069Y-49289221D01*
X157472338Y-49297172D01*
X157475840Y-49297500D01*
X157496040Y-49303034D01*
X157529976Y-49317317D01*
X157558578Y-49331295D01*
X157611572Y-49358637D01*
X157650937Y-49378778D01*
X157685572Y-49396250D01*
X157712850Y-49409857D01*
X157750765Y-49429256D01*
X157782700Y-49446302D01*
X157814709Y-49462758D01*
X157855397Y-49482228D01*
X157867014Y-49487544D01*
X157899624Y-49504005D01*
X157920699Y-49517891D01*
X157924164Y-49521869D01*
X157936778Y-49531329D01*
X157967364Y-49549028D01*
X158010890Y-49572438D01*
X158062324Y-49599031D01*
X158116632Y-49626279D01*
X158168784Y-49651654D01*
X158213745Y-49672629D01*
X158246484Y-49686676D01*
X158261493Y-49691307D01*
X158281076Y-49700764D01*
X158286893Y-49707893D01*
X158303830Y-49720406D01*
X158337267Y-49735668D01*
X158370075Y-49747175D01*
X158408703Y-49760879D01*
X158435174Y-49773627D01*
X158443100Y-49781282D01*
X158453212Y-49791886D01*
X158459656Y-49792800D01*
X158469119Y-49794164D01*
X158484283Y-49799188D01*
X158508208Y-49809267D01*
X158543955Y-49825796D01*
X158594586Y-49850169D01*
X158663163Y-49883782D01*
X158709800Y-49906793D01*
X158789531Y-49946896D01*
X158854659Y-49981108D01*
X158902798Y-50008116D01*
X158931568Y-50026607D01*
X158938353Y-50032782D01*
X158953534Y-50043355D01*
X158981954Y-50056912D01*
X158985106Y-50058206D01*
X159020281Y-50076997D01*
X159047400Y-50098760D01*
X159067904Y-50117146D01*
X159080374Y-50123000D01*
X159096566Y-50129971D01*
X159126133Y-50147818D01*
X159162308Y-50171943D01*
X159198324Y-50197746D01*
X159227415Y-50220628D01*
X159237522Y-50229808D01*
X159258118Y-50245938D01*
X159268870Y-50250000D01*
X159285042Y-50256558D01*
X159314172Y-50273328D01*
X159334638Y-50286503D01*
X159372193Y-50309629D01*
X159405759Y-50327048D01*
X159417825Y-50331809D01*
X159439953Y-50342071D01*
X159446400Y-50349947D01*
X159457296Y-50359078D01*
X159485290Y-50372533D01*
X159509900Y-50382116D01*
X159545383Y-50396740D01*
X159568431Y-50409817D01*
X159573400Y-50415799D01*
X159584476Y-50425101D01*
X159611650Y-50433749D01*
X159616751Y-50434781D01*
X159653888Y-50446555D01*
X159683071Y-50463615D01*
X159683426Y-50463932D01*
X159711928Y-50484834D01*
X159744850Y-50503729D01*
X159774594Y-50521301D01*
X159802581Y-50542385D01*
X159823689Y-50562293D01*
X159832797Y-50576335D01*
X159828382Y-50580200D01*
X159819297Y-50587924D01*
X159821253Y-50593228D01*
X159816381Y-50605618D01*
X159793787Y-50618572D01*
X159790252Y-50619870D01*
X159763504Y-50631760D01*
X159751278Y-50642257D01*
X159751200Y-50642879D01*
X159740197Y-50651665D01*
X159711702Y-50664761D01*
X159681350Y-50676017D01*
X159643865Y-50689932D01*
X159618512Y-50701591D01*
X159611500Y-50707226D01*
X159600847Y-50715948D01*
X159573710Y-50729833D01*
X159554374Y-50738249D01*
X159520544Y-50754103D01*
X159507477Y-50766516D01*
X159511479Y-50778953D01*
X159517107Y-50791521D01*
X159502207Y-50795899D01*
X159493002Y-50796100D01*
X159459305Y-50800733D01*
X159425963Y-50812117D01*
X159401996Y-50826473D01*
X159395600Y-50836886D01*
X159385037Y-50848598D01*
X159358875Y-50863368D01*
X159351150Y-50866768D01*
X159322466Y-50880958D01*
X159307292Y-50892763D01*
X159306579Y-50894695D01*
X159295921Y-50904763D01*
X159268893Y-50920003D01*
X159249429Y-50929121D01*
X159216459Y-50945122D01*
X159195863Y-50958015D01*
X159192400Y-50962320D01*
X159181638Y-50971163D01*
X159154254Y-50984552D01*
X159135250Y-50992274D01*
X159101926Y-51007040D01*
X159081330Y-51020091D01*
X159078100Y-51024894D01*
X159067533Y-51036539D01*
X159049525Y-51044560D01*
X159018309Y-51058419D01*
X158986778Y-51077494D01*
X158958297Y-51091254D01*
X158913302Y-51106237D01*
X158860367Y-51119684D01*
X158847078Y-51122447D01*
X158798256Y-51132910D01*
X158759763Y-51142657D01*
X158737827Y-51150055D01*
X158735200Y-51151804D01*
X158720794Y-51157026D01*
X158686613Y-51164691D01*
X158638033Y-51173700D01*
X158589805Y-51181536D01*
X158533163Y-51190992D01*
X158486307Y-51200305D01*
X158454647Y-51208305D01*
X158443755Y-51213157D01*
X158429204Y-51219099D01*
X158395607Y-51227374D01*
X158349085Y-51236893D01*
X158295762Y-51246569D01*
X158241758Y-51255314D01*
X158193196Y-51262042D01*
X158156199Y-51265664D01*
X158146282Y-51266000D01*
X158120443Y-51271693D01*
X158109725Y-51281875D01*
X158095998Y-51286098D01*
X158059762Y-51289708D01*
X158003898Y-51292710D01*
X157931288Y-51295107D01*
X157844815Y-51296904D01*
X157747361Y-51298103D01*
X157641809Y-51298710D01*
X157531040Y-51298728D01*
X157417937Y-51298162D01*
X157305383Y-51297014D01*
X157196259Y-51295290D01*
X157093449Y-51292993D01*
X156999834Y-51290127D01*
X156918296Y-51286697D01*
X156851718Y-51282705D01*
X156820675Y-51280094D01*
X156756279Y-51273238D01*
X156701986Y-51266366D01*
X156662273Y-51260130D01*
X156641621Y-51255183D01*
X156639700Y-51253729D01*
X156628027Y-51248099D01*
X156596483Y-51239722D01*
X156550280Y-51229858D01*
X156509525Y-51222306D01*
X156454963Y-51212084D01*
X156410353Y-51202405D01*
X156381247Y-51194553D01*
X156373000Y-51190739D01*
X156358373Y-51183274D01*
X156325983Y-51172075D01*
X156282721Y-51159514D01*
X156280925Y-51159033D01*
X156238503Y-51146299D01*
X156207851Y-51134381D01*
X156195245Y-51125743D01*
X156195200Y-51125379D01*
X156184192Y-51115601D01*
X156156749Y-51104471D01*
X156146399Y-51101438D01*
X156106043Y-51086011D01*
X156071573Y-51065567D01*
X156068256Y-51062848D01*
X156042816Y-51044651D01*
X156024185Y-51037400D01*
X156007841Y-51029388D01*
X155979434Y-51008434D01*
X155946754Y-50980519D01*
X155908475Y-50948150D01*
X155872063Y-50921242D01*
X155849125Y-50907569D01*
X155824367Y-50892086D01*
X155814200Y-50877695D01*
X155804174Y-50861978D01*
X155784737Y-50848124D01*
X155754839Y-50824505D01*
X155717045Y-50783622D01*
X155675108Y-50730781D01*
X155632785Y-50671288D01*
X155593829Y-50610449D01*
X155561995Y-50553570D01*
X155541039Y-50505957D01*
X155539636Y-50501755D01*
X155524339Y-50459009D01*
X155508776Y-50423139D01*
X155500974Y-50409099D01*
X155490712Y-50383636D01*
X155485193Y-50350099D01*
X155484728Y-50317292D01*
X155489629Y-50294015D01*
X155496700Y-50288100D01*
X155505315Y-50299210D01*
X155509357Y-50326304D01*
X155509400Y-50329724D01*
X155514560Y-50367160D01*
X155526374Y-50396399D01*
X155539814Y-50422540D01*
X155555813Y-50462309D01*
X155565141Y-50489374D01*
X155579349Y-50529643D01*
X155592626Y-50560701D01*
X155599199Y-50571924D01*
X155613170Y-50590729D01*
X155634651Y-50621786D01*
X155646157Y-50638977D01*
X155676559Y-50682607D01*
X155711610Y-50729520D01*
X155745076Y-50771619D01*
X155770719Y-50800804D01*
X155770950Y-50801039D01*
X155792588Y-50820903D01*
X155826672Y-50849873D01*
X155868636Y-50884326D01*
X155913913Y-50920637D01*
X155957935Y-50955184D01*
X155996137Y-50984343D01*
X156023951Y-51004489D01*
X156036807Y-51012000D01*
X156052105Y-51018572D01*
X156077591Y-51034482D01*
X156078939Y-51035414D01*
X156158106Y-51080688D01*
X156262361Y-51123946D01*
X156391765Y-51165209D01*
X156546378Y-51204495D01*
X156716034Y-51239883D01*
X156766004Y-51247112D01*
X156834831Y-51253691D01*
X156919510Y-51259581D01*
X157017037Y-51264744D01*
X157124409Y-51269140D01*
X157238622Y-51272730D01*
X157356672Y-51275477D01*
X157475556Y-51277340D01*
X157592269Y-51278281D01*
X157703807Y-51278261D01*
X157807168Y-51277241D01*
X157899347Y-51275182D01*
X157977341Y-51272046D01*
X158038145Y-51267792D01*
X158078756Y-51262384D01*
X158093850Y-51257727D01*
X158116219Y-51250088D01*
X158157610Y-51240473D01*
X158211856Y-51230183D01*
X158265300Y-51221605D01*
X158324232Y-51212180D01*
X158374253Y-51202783D01*
X158409787Y-51194551D01*
X158424867Y-51189003D01*
X158442561Y-51182428D01*
X158479307Y-51173674D01*
X158529003Y-51164089D01*
X158564567Y-51158174D01*
X158621027Y-51148594D01*
X158670098Y-51138898D01*
X158704944Y-51130505D01*
X158716150Y-51126699D01*
X158740447Y-51118683D01*
X158781618Y-51108167D01*
X158831544Y-51097192D01*
X158841130Y-51095267D01*
X158893418Y-51082984D01*
X158939914Y-51068650D01*
X158971638Y-51055088D01*
X158974535Y-51053316D01*
X159019192Y-51024253D01*
X159051872Y-51004145D01*
X159081593Y-50987651D01*
X159109850Y-50973194D01*
X159143217Y-50956118D01*
X159172334Y-50940058D01*
X159204885Y-50920517D01*
X159248557Y-50893001D01*
X159266061Y-50881825D01*
X159299416Y-50861792D01*
X159324358Y-50849159D01*
X159331829Y-50846900D01*
X159349860Y-50838671D01*
X159368051Y-50820510D01*
X159377637Y-50802201D01*
X159376869Y-50796616D01*
X159362477Y-50791290D01*
X159328068Y-50784425D01*
X159278904Y-50776933D01*
X159224352Y-50770179D01*
X159166934Y-50763076D01*
X159120107Y-50755943D01*
X159088847Y-50749632D01*
X159078100Y-50745163D01*
X159066211Y-50740840D01*
X159033610Y-50735036D01*
X158984890Y-50728426D01*
X158924647Y-50721687D01*
X158906088Y-50719845D01*
X158832613Y-50711836D01*
X158780690Y-50704146D01*
X158751622Y-50697009D01*
X158746271Y-50691048D01*
X158762887Y-50687673D01*
X158798838Y-50687231D01*
X158848289Y-50689237D01*
X158905407Y-50693205D01*
X158964357Y-50698651D01*
X159019306Y-50705087D01*
X159064419Y-50712029D01*
X159093862Y-50718991D01*
X159097150Y-50720252D01*
X159118809Y-50725876D01*
X159160151Y-50733521D01*
X159215633Y-50742265D01*
X159279709Y-50751183D01*
X159293339Y-50752941D01*
X159366745Y-50761664D01*
X159418066Y-50766179D01*
X159450249Y-50766601D01*
X159466238Y-50763042D01*
X159469108Y-50759724D01*
X159482872Y-50745065D01*
X159510994Y-50726996D01*
X159520568Y-50722050D01*
X159557350Y-50703724D01*
X159588306Y-50687761D01*
X159592450Y-50685540D01*
X159616052Y-50673529D01*
X159654802Y-50654592D01*
X159700840Y-50632565D01*
X159706750Y-50629769D01*
X159749453Y-50609479D01*
X159782284Y-50593660D01*
X159799316Y-50585176D01*
X159800336Y-50584590D01*
X159797944Y-50574244D01*
X159779307Y-50557090D01*
X159750734Y-50538001D01*
X159719895Y-50522417D01*
X159691037Y-50507650D01*
X159675739Y-50494538D01*
X159675000Y-50492150D01*
X159664000Y-50482042D01*
X159635770Y-50468489D01*
X159611500Y-50459550D01*
X159575916Y-50446062D01*
X159552873Y-50434127D01*
X159548000Y-50428812D01*
X159537112Y-50419353D01*
X159509699Y-50406885D01*
X159495519Y-50401845D01*
X159459501Y-50388105D01*
X159433046Y-50374742D01*
X159428265Y-50371237D01*
X159401900Y-50352611D01*
X159366625Y-50333374D01*
X159332763Y-50318652D01*
X159312020Y-50313500D01*
X159295786Y-50306634D01*
X159294000Y-50301395D01*
X159283611Y-50288710D01*
X159257825Y-50272337D01*
X159249550Y-50268198D01*
X159221129Y-50252560D01*
X159205907Y-50239991D01*
X159205100Y-50237852D01*
X159194993Y-50226552D01*
X159169821Y-50209800D01*
X159160650Y-50204661D01*
X159132565Y-50187986D01*
X159117188Y-50175840D01*
X159116200Y-50173872D01*
X159105637Y-50165530D01*
X159077378Y-50149008D01*
X159036568Y-50127235D01*
X159015341Y-50116435D01*
X158970320Y-50092478D01*
X158935479Y-50071321D01*
X158916054Y-50056266D01*
X158913741Y-50052419D01*
X158902644Y-50039791D01*
X158875400Y-50023235D01*
X158859025Y-50015488D01*
X158824598Y-49998197D01*
X158800663Y-49981967D01*
X158795871Y-49976692D01*
X158778903Y-49964332D01*
X158746590Y-49950737D01*
X158729196Y-49945297D01*
X158695384Y-49933948D01*
X158674714Y-49923385D01*
X158671700Y-49919424D01*
X158660798Y-49910045D01*
X158632794Y-49896427D01*
X158608200Y-49886816D01*
X158572734Y-49872397D01*
X158549685Y-49859831D01*
X158544700Y-49854280D01*
X158533626Y-49845517D01*
X158505710Y-49834772D01*
X158490725Y-49830474D01*
X158454545Y-49818357D01*
X158428721Y-49804938D01*
X158424050Y-49800744D01*
X158405663Y-49788738D01*
X158371146Y-49773752D01*
X158338325Y-49762377D01*
X158299738Y-49748991D01*
X158273271Y-49737190D01*
X158265300Y-49730626D01*
X158254406Y-49721679D01*
X158226421Y-49708345D01*
X158201800Y-49698783D01*
X158166351Y-49684556D01*
X158143301Y-49672466D01*
X158138300Y-49667320D01*
X158127500Y-49658330D01*
X158099732Y-49644422D01*
X158074800Y-49634050D01*
X158039506Y-49619114D01*
X158016450Y-49606978D01*
X158011300Y-49602107D01*
X158000655Y-49593463D01*
X157973574Y-49579664D01*
X157954891Y-49571545D01*
X157920400Y-49554762D01*
X157897193Y-49538702D01*
X157892483Y-49532647D01*
X157876780Y-49519032D01*
X157850292Y-49509773D01*
X157812491Y-49495527D01*
X157786348Y-49478463D01*
X157756006Y-49458784D01*
X157716077Y-49440567D01*
X157707146Y-49437413D01*
X157675606Y-49425019D01*
X157657441Y-49414037D01*
X157655700Y-49411042D01*
X157644802Y-49401879D01*
X157616807Y-49388403D01*
X157592200Y-49378816D01*
X157556752Y-49364609D01*
X157533703Y-49352568D01*
X157528700Y-49347464D01*
X157517499Y-49339890D01*
X157488309Y-49328619D01*
X157452500Y-49317566D01*
X157412840Y-49305008D01*
X157385280Y-49293549D01*
X157376300Y-49286465D01*
X157364883Y-49279155D01*
X157334652Y-49268599D01*
X157291638Y-49256837D01*
X157281806Y-49254467D01*
X157236242Y-49242421D01*
X157201583Y-49230799D01*
X157184202Y-49221796D01*
X157183381Y-49220569D01*
X157169563Y-49212154D01*
X157138955Y-49203985D01*
X157119845Y-49200796D01*
X157075908Y-49198289D01*
X157046583Y-49208364D01*
X157024966Y-49235451D01*
X157008678Y-49272100D01*
X156993650Y-49304854D01*
X156979291Y-49327368D01*
X156977464Y-49329250D01*
X156963350Y-49347947D01*
X156944700Y-49379542D01*
X156938150Y-49392015D01*
X156912589Y-49431563D01*
X156874611Y-49477126D01*
X156828729Y-49524622D01*
X156779459Y-49569968D01*
X156731313Y-49609081D01*
X156688807Y-49637878D01*
X156656455Y-49652276D01*
X156649397Y-49653178D01*
X156627717Y-49658797D01*
X156597072Y-49672310D01*
X156595250Y-49673258D01*
X156554792Y-49693157D01*
X156515875Y-49710632D01*
X156488381Y-49720957D01*
X156476941Y-49719209D01*
X156474602Y-49704077D01*
X156474600Y-49702853D01*
X156484418Y-49678892D01*
X156496825Y-49670632D01*
X156522203Y-49660272D01*
X156557001Y-49643539D01*
X156565229Y-49639281D01*
X156598837Y-49623797D01*
X156625028Y-49615462D01*
X156629402Y-49615000D01*
X156652424Y-49606679D01*
X156687999Y-49584390D01*
X156730734Y-49552139D01*
X156775238Y-49513933D01*
X156808016Y-49482261D01*
X156853152Y-49430516D01*
X156898423Y-49369581D01*
X156938017Y-49307951D01*
X156966121Y-49254121D01*
X156969203Y-49246700D01*
X156985040Y-49211821D01*
X157000524Y-49185298D01*
X157002126Y-49183200D01*
X157013351Y-49160551D01*
X157025731Y-49122806D01*
X157032900Y-49094300D01*
X157045423Y-49045878D01*
X157060131Y-49000352D01*
X157067612Y-48981594D01*
X157073564Y-48964705D01*
X157077988Y-48941963D01*
X157080992Y-48910219D01*
X157082685Y-48866326D01*
X157083175Y-48807137D01*
X157082571Y-48729503D01*
X157080982Y-48630278D01*
X157080544Y-48606944D01*
X157077745Y-48487936D01*
X157074163Y-48391264D01*
X157069496Y-48313872D01*
X157063438Y-48252700D01*
X157055686Y-48204689D01*
X157045936Y-48166782D01*
X157033883Y-48135921D01*
X157033661Y-48135450D01*
X157023889Y-48109755D01*
X157010921Y-48069371D01*
X157000605Y-48033850D01*
X156987961Y-47991618D01*
X156976423Y-47958973D01*
X156969678Y-47944950D01*
X156960474Y-47925750D01*
X156948683Y-47892026D01*
X156943620Y-47875100D01*
X156930684Y-47836345D01*
X156917209Y-47806115D01*
X156912650Y-47798900D01*
X156898267Y-47774391D01*
X156882679Y-47739731D01*
X156881000Y-47735400D01*
X156865096Y-47700042D01*
X156848733Y-47672858D01*
X156847158Y-47670899D01*
X156833115Y-47648576D01*
X156830200Y-47637880D01*
X156823305Y-47620610D01*
X156805816Y-47591566D01*
X156794679Y-47575380D01*
X156768962Y-47535703D01*
X156747536Y-47496275D01*
X156742719Y-47485493D01*
X156723849Y-47450335D01*
X156702039Y-47423199D01*
X156683620Y-47402259D01*
X156677800Y-47389119D01*
X156668953Y-47370103D01*
X156643921Y-47336223D01*
X156604964Y-47290078D01*
X156554341Y-47234267D01*
X156494312Y-47171386D01*
X156446148Y-47122808D01*
X156387417Y-47067067D01*
X156327512Y-47014772D01*
X156270191Y-46968784D01*
X156219211Y-46931963D01*
X156178331Y-46907169D01*
X156151307Y-46897263D01*
X156149779Y-46897199D01*
X156129423Y-46888370D01*
X156120415Y-46879855D01*
X156100981Y-46868306D01*
X156064870Y-46855666D01*
X156026785Y-46846204D01*
X155983459Y-46836297D01*
X155949866Y-46826803D01*
X155934850Y-46820617D01*
X155917470Y-46814488D01*
X155881221Y-46805649D01*
X155832295Y-46795530D01*
X155801500Y-46789808D01*
X155746769Y-46779259D01*
X155699878Y-46768790D01*
X155667631Y-46759990D01*
X155658797Y-46756539D01*
X155637389Y-46751668D01*
X155596993Y-46747784D01*
X155544013Y-46745365D01*
X155501586Y-46744799D01*
X155366427Y-46744799D01*
X155374871Y-46808454D01*
X155381344Y-46849763D01*
X155388233Y-46882701D01*
X155391231Y-46892737D01*
X155391973Y-46907851D01*
X155381248Y-46907454D01*
X155368986Y-46892512D01*
X155356638Y-46860295D01*
X155349911Y-46832696D01*
X155341046Y-46790646D01*
X155332824Y-46757152D01*
X155328988Y-46744800D01*
X155321017Y-46723425D01*
X155307615Y-46686486D01*
X155293253Y-46646375D01*
X155277820Y-46606182D01*
X155264703Y-46577630D01*
X155256863Y-46567000D01*
X155246018Y-46556881D01*
X155236186Y-46539246D01*
X155219451Y-46513007D01*
X155204044Y-46511856D01*
X155189660Y-46535913D01*
X155181927Y-46560484D01*
X155170493Y-46594305D01*
X155158931Y-46614887D01*
X155154286Y-46617799D01*
X155145774Y-46629192D01*
X155137447Y-46658341D01*
X155133513Y-46681585D01*
X155126640Y-46719462D01*
X155118440Y-46745705D01*
X155114026Y-46752184D01*
X155108314Y-46767496D01*
X155104330Y-46800688D01*
X155103000Y-46839934D01*
X155103935Y-46884930D01*
X155108653Y-46912568D01*
X155120025Y-46930873D01*
X155140920Y-46947870D01*
X155141831Y-46948520D01*
X155164936Y-46968006D01*
X155173812Y-46981855D01*
X155173079Y-46983753D01*
X155158266Y-46983210D01*
X155132116Y-46972755D01*
X155103922Y-46957301D01*
X155082976Y-46941755D01*
X155077600Y-46933300D01*
X155067362Y-46923644D01*
X155059648Y-46922599D01*
X155040776Y-46912308D01*
X155015967Y-46886058D01*
X154990282Y-46850789D01*
X154968780Y-46813438D01*
X154956596Y-46781289D01*
X154955853Y-46779042D01*
X154988700Y-46779042D01*
X154995358Y-46801148D01*
X155011812Y-46832024D01*
X155032779Y-46863660D01*
X155052975Y-46888045D01*
X155066627Y-46897200D01*
X155072636Y-46885714D01*
X155076622Y-46856088D01*
X155077600Y-46827350D01*
X155077600Y-46757500D01*
X155033150Y-46757500D01*
X155001573Y-46760923D01*
X154989376Y-46772906D01*
X154988700Y-46779042D01*
X154955853Y-46779042D01*
X154948008Y-46755339D01*
X154938911Y-46744799D01*
X154931254Y-46733476D01*
X154921259Y-46704108D01*
X154913110Y-46671775D01*
X154900398Y-46618528D01*
X154890152Y-46588518D01*
X154880813Y-46579902D01*
X154870824Y-46590840D01*
X154861823Y-46611135D01*
X154848038Y-46640015D01*
X154835999Y-46655214D01*
X154833929Y-46655899D01*
X154828981Y-46667559D01*
X154825326Y-46698391D01*
X154823641Y-46742174D01*
X154823600Y-46750703D01*
X154824586Y-46801149D01*
X154828420Y-46832154D01*
X154836409Y-46849631D01*
X154847413Y-46858250D01*
X154867271Y-46875910D01*
X154878301Y-46898153D01*
X154877933Y-46916470D01*
X154866861Y-46922600D01*
X154850786Y-46912599D01*
X154849000Y-46904908D01*
X154838755Y-46885302D01*
X154829949Y-46879907D01*
X154814262Y-46862680D01*
X154810900Y-46846798D01*
X154802487Y-46825734D01*
X154781974Y-46822587D01*
X154757832Y-46837259D01*
X154735878Y-46850998D01*
X154700547Y-46866296D01*
X154685394Y-46871596D01*
X154648599Y-46885487D01*
X154621445Y-46899190D01*
X154615544Y-46903627D01*
X154595783Y-46916434D01*
X154562082Y-46932810D01*
X154544237Y-46940293D01*
X154509487Y-46955356D01*
X154485834Y-46967924D01*
X154480737Y-46972039D01*
X154466102Y-46982623D01*
X154437192Y-46998201D01*
X154425591Y-47003770D01*
X154388491Y-47023462D01*
X154358110Y-47043600D01*
X154353356Y-47047558D01*
X154328804Y-47068833D01*
X154295778Y-47096545D01*
X154284640Y-47105723D01*
X154257442Y-47131510D01*
X154241311Y-47153563D01*
X154239400Y-47160096D01*
X154229236Y-47179705D01*
X154221941Y-47184096D01*
X154206552Y-47199052D01*
X154188157Y-47228928D01*
X154180891Y-47244023D01*
X154163326Y-47279872D01*
X154147135Y-47306896D01*
X154142465Y-47312766D01*
X154130879Y-47333518D01*
X154117812Y-47369197D01*
X154111264Y-47392141D01*
X154100527Y-47428112D01*
X154090698Y-47451272D01*
X154086218Y-47456000D01*
X154079987Y-47467544D01*
X154070621Y-47498447D01*
X154059715Y-47543109D01*
X154054540Y-47567125D01*
X154043383Y-47617242D01*
X154033026Y-47657160D01*
X154025096Y-47680851D01*
X154022771Y-47684600D01*
X154017418Y-47699214D01*
X154010091Y-47733310D01*
X154001648Y-47781130D01*
X153992949Y-47836914D01*
X153984852Y-47894902D01*
X153978217Y-47949335D01*
X153973903Y-47994455D01*
X153972700Y-48020285D01*
X153969566Y-48050006D01*
X153961844Y-48065120D01*
X153960000Y-48065600D01*
X153954928Y-48077954D01*
X153951044Y-48113677D01*
X153948474Y-48170761D01*
X153947343Y-48247197D01*
X153947300Y-48267611D01*
X153947445Y-48343252D01*
X153948178Y-48397035D01*
X153949942Y-48432500D01*
X153953184Y-48453189D01*
X153958346Y-48462643D01*
X153965875Y-48464402D01*
X153971860Y-48463199D01*
X154000234Y-48462727D01*
X154036736Y-48470135D01*
X154040634Y-48471367D01*
X154066711Y-48483765D01*
X154090439Y-48505367D01*
X154116598Y-48541341D01*
X154138656Y-48577404D01*
X154168282Y-48627339D01*
X154197162Y-48675327D01*
X154219706Y-48712091D01*
X154222282Y-48716202D01*
X154240529Y-48747625D01*
X154251068Y-48770506D01*
X154252100Y-48775168D01*
X154262213Y-48789297D01*
X154271150Y-48794092D01*
X154288017Y-48809485D01*
X154290200Y-48818023D01*
X154301322Y-48842843D01*
X154331225Y-48872840D01*
X154374711Y-48904810D01*
X154426581Y-48935549D01*
X154481639Y-48961853D01*
X154534686Y-48980519D01*
X154564063Y-48986819D01*
X154603058Y-48994024D01*
X154631780Y-49002139D01*
X154639500Y-49005964D01*
X154660119Y-49014012D01*
X154692967Y-49019958D01*
X154695672Y-49020237D01*
X154726351Y-49027266D01*
X154743640Y-49038844D01*
X154744305Y-49040325D01*
X154736425Y-49049009D01*
X154711757Y-49054572D01*
X154678753Y-49056728D01*
X154645866Y-49055194D01*
X154621550Y-49049684D01*
X154614785Y-49044689D01*
X154598966Y-49036262D01*
X154566887Y-49027931D01*
X154547360Y-49024611D01*
X154499570Y-49013946D01*
X154453843Y-48997776D01*
X154442600Y-48992363D01*
X154406256Y-48973471D01*
X154375045Y-48957999D01*
X154371535Y-48956350D01*
X154350239Y-48941079D01*
X154320291Y-48913157D01*
X154286751Y-48878181D01*
X154254683Y-48841748D01*
X154229147Y-48809455D01*
X154215206Y-48786899D01*
X154213999Y-48782169D01*
X154205146Y-48762235D01*
X154194802Y-48751277D01*
X154177650Y-48730292D01*
X154157524Y-48696649D01*
X154150668Y-48683047D01*
X154134183Y-48649476D01*
X154118427Y-48620729D01*
X154098258Y-48587959D01*
X154071412Y-48546697D01*
X154050028Y-48525435D01*
X154019939Y-48507875D01*
X153988201Y-48496381D01*
X153961868Y-48493317D01*
X153947995Y-48501047D01*
X153947300Y-48505100D01*
X153939991Y-48521115D01*
X153934600Y-48522800D01*
X153924157Y-48533396D01*
X153921900Y-48547292D01*
X153913946Y-48577173D01*
X153906025Y-48589104D01*
X153879944Y-48622930D01*
X153855411Y-48662666D01*
X153850565Y-48672141D01*
X153837001Y-48690185D01*
X153809329Y-48720451D01*
X153771929Y-48758717D01*
X153729183Y-48800762D01*
X153685470Y-48842364D01*
X153645171Y-48879302D01*
X153612667Y-48907354D01*
X153592337Y-48922299D01*
X153589792Y-48923455D01*
X153570297Y-48934989D01*
X153566300Y-48942961D01*
X153555920Y-48955628D01*
X153530154Y-48972035D01*
X153521849Y-48976207D01*
X153493428Y-48992029D01*
X153478207Y-49004921D01*
X153477400Y-49007156D01*
X153466985Y-49018070D01*
X153440924Y-49033607D01*
X153429775Y-49039067D01*
X153398426Y-49054951D01*
X153378338Y-49067536D01*
X153375800Y-49069985D01*
X153361040Y-49079903D01*
X153331604Y-49094313D01*
X153318818Y-49099830D01*
X153281989Y-49110006D01*
X153241445Y-49113737D01*
X153204758Y-49111366D01*
X153179499Y-49103238D01*
X153172600Y-49093183D01*
X153161559Y-49085048D01*
X153134959Y-49081600D01*
X153134500Y-49081600D01*
X153107219Y-49085068D01*
X153097260Y-49099587D01*
X153096399Y-49112523D01*
X153102393Y-49157502D01*
X153118172Y-49191436D01*
X153140431Y-49207940D01*
X153146136Y-49208600D01*
X153170862Y-49214776D01*
X153179485Y-49222165D01*
X153196865Y-49230651D01*
X153205029Y-49229146D01*
X153224641Y-49231281D01*
X153258218Y-49243492D01*
X153291234Y-49259406D01*
X153341822Y-49281783D01*
X153396357Y-49299053D01*
X153425474Y-49304899D01*
X153463779Y-49311790D01*
X153490511Y-49319965D01*
X153497484Y-49324573D01*
X153513819Y-49330421D01*
X153551776Y-49334165D01*
X153607676Y-49335979D01*
X153677845Y-49336034D01*
X153758603Y-49334503D01*
X153846276Y-49331558D01*
X153937185Y-49327370D01*
X154027655Y-49322112D01*
X154114008Y-49315957D01*
X154192568Y-49309075D01*
X154259657Y-49301640D01*
X154311600Y-49293823D01*
X154344718Y-49285797D01*
X154347350Y-49284788D01*
X154391594Y-49270747D01*
X154441976Y-49260858D01*
X154490252Y-49256070D01*
X154528181Y-49257333D01*
X154543904Y-49262162D01*
X154569889Y-49270640D01*
X154601006Y-49261867D01*
X154632411Y-49250565D01*
X154654003Y-49246700D01*
X154688668Y-49238858D01*
X154732022Y-49218789D01*
X154774262Y-49191680D01*
X154799311Y-49169847D01*
X154819601Y-49141249D01*
X154838210Y-49103087D01*
X154852410Y-49063123D01*
X154859472Y-49029119D01*
X154856669Y-49008836D01*
X154856113Y-49008210D01*
X154839600Y-49001500D01*
X154805760Y-48993234D01*
X154768636Y-48986350D01*
X154722070Y-48976318D01*
X154700139Y-48966365D01*
X154702116Y-48957964D01*
X154727275Y-48952590D01*
X154774888Y-48951718D01*
X154785500Y-48952139D01*
X154841659Y-48957792D01*
X154876484Y-48970770D01*
X154893773Y-48994719D01*
X154897322Y-49033291D01*
X154895310Y-49057638D01*
X154894091Y-49100342D01*
X154900734Y-49127523D01*
X154903143Y-49130663D01*
X154910454Y-49143057D01*
X154903821Y-49145100D01*
X154888710Y-49155476D01*
X154882599Y-49167325D01*
X154869352Y-49196450D01*
X154850866Y-49227158D01*
X154834897Y-49246700D01*
X154824430Y-49261313D01*
X154808767Y-49288988D01*
X154805995Y-49294325D01*
X154789258Y-49321429D01*
X154775194Y-49335175D01*
X154773329Y-49335600D01*
X154760481Y-49346018D01*
X154754323Y-49359194D01*
X154737455Y-49387958D01*
X154706017Y-49423992D01*
X154666861Y-49460914D01*
X154626836Y-49492342D01*
X154592791Y-49511894D01*
X154588917Y-49513311D01*
X154558400Y-49528165D01*
X154552253Y-49544922D01*
X154552598Y-49545907D01*
X154551909Y-49553791D01*
X154540233Y-49559097D01*
X154513892Y-49562295D01*
X154469208Y-49563855D01*
X154409033Y-49564247D01*
X154258450Y-49564295D01*
X154333210Y-49601524D01*
X154381858Y-49622981D01*
X154430510Y-49640042D01*
X154460210Y-49647362D01*
X154496075Y-49655048D01*
X154521311Y-49663630D01*
X154525150Y-49665912D01*
X154543348Y-49672673D01*
X154579154Y-49681029D01*
X154624998Y-49689228D01*
X154627409Y-49689601D01*
X154689022Y-49701322D01*
X154755489Y-49717376D01*
X154798859Y-49730036D01*
X154855538Y-49745776D01*
X154916101Y-49758467D01*
X154953775Y-49763825D01*
X155000935Y-49771112D01*
X155023975Y-49781631D01*
X155026800Y-49788213D01*
X155015497Y-49799284D01*
X154985402Y-49804187D01*
X154942233Y-49803414D01*
X154891709Y-49797454D01*
X154839549Y-49786801D01*
X154791471Y-49771944D01*
X154779150Y-49766937D01*
X154701932Y-49741227D01*
X154628253Y-49731319D01*
X154563743Y-49737503D01*
X154523228Y-49753798D01*
X154483122Y-49781084D01*
X154440376Y-49814655D01*
X154399938Y-49850020D01*
X154366755Y-49882684D01*
X154345775Y-49908153D01*
X154341000Y-49919301D01*
X154331986Y-49934571D01*
X154311629Y-49953803D01*
X154285696Y-49978197D01*
X154270354Y-49998086D01*
X154255561Y-50018353D01*
X154229338Y-50049353D01*
X154203993Y-50077229D01*
X154166286Y-50122487D01*
X154140125Y-50168341D01*
X154123659Y-50220818D01*
X154115036Y-50285948D01*
X154112407Y-50369759D01*
X154112400Y-50375609D01*
X154113392Y-50442628D01*
X154116906Y-50490373D01*
X154123741Y-50524912D01*
X154134701Y-50552311D01*
X154136106Y-50554988D01*
X154154611Y-50595944D01*
X154167920Y-50636403D01*
X154168673Y-50639647D01*
X154180392Y-50672786D01*
X154195914Y-50695300D01*
X154212625Y-50715733D01*
X154232760Y-50748933D01*
X154239954Y-50762852D01*
X154269293Y-50820944D01*
X154291069Y-50859459D01*
X154307688Y-50882186D01*
X154321558Y-50892908D01*
X154323033Y-50893523D01*
X154339197Y-50908284D01*
X154341000Y-50915573D01*
X154350000Y-50935380D01*
X154374623Y-50968289D01*
X154411301Y-51010762D01*
X154456468Y-51059261D01*
X154506557Y-51110247D01*
X154558000Y-51160181D01*
X154607232Y-51205525D01*
X154650684Y-51242742D01*
X154684790Y-51268291D01*
X154705983Y-51278635D01*
X154707047Y-51278700D01*
X154723522Y-51288660D01*
X154734700Y-51304100D01*
X154752604Y-51324313D01*
X154766176Y-51329500D01*
X154787436Y-51338880D01*
X154800654Y-51352304D01*
X154822709Y-51372326D01*
X154856411Y-51393172D01*
X154864875Y-51397350D01*
X154894588Y-51414272D01*
X154911219Y-51429657D01*
X154912500Y-51433442D01*
X154923977Y-51438642D01*
X154954015Y-51440704D01*
X154996027Y-51440040D01*
X155043422Y-51437064D01*
X155089614Y-51432191D01*
X155128012Y-51425834D01*
X155152028Y-51418406D01*
X155152042Y-51418398D01*
X155172527Y-51412295D01*
X155212232Y-51404234D01*
X155265165Y-51395329D01*
X155317176Y-51387777D01*
X155375918Y-51379062D01*
X155425830Y-51370188D01*
X155461234Y-51362258D01*
X155475926Y-51356904D01*
X155493653Y-51350580D01*
X155530929Y-51341994D01*
X155582138Y-51332315D01*
X155636400Y-51323500D01*
X155695210Y-51313982D01*
X155745018Y-51304695D01*
X155780291Y-51296749D01*
X155795150Y-51291580D01*
X155814154Y-51283442D01*
X155848785Y-51273528D01*
X155872976Y-51267949D01*
X155925177Y-51252914D01*
X155979947Y-51231206D01*
X155998692Y-51222016D01*
X156043493Y-51200090D01*
X156074493Y-51192074D01*
X156099243Y-51198119D01*
X156125295Y-51218380D01*
X156131914Y-51224725D01*
X156173849Y-51264963D01*
X156201535Y-51289686D01*
X156218304Y-51301714D01*
X156225727Y-51304100D01*
X156240670Y-51310759D01*
X156268881Y-51327837D01*
X156290450Y-51342200D01*
X156323850Y-51363722D01*
X156349355Y-51377536D01*
X156357858Y-51380300D01*
X156375308Y-51389014D01*
X156385160Y-51398700D01*
X156406970Y-51414572D01*
X156440814Y-51429764D01*
X156447040Y-51431851D01*
X156480804Y-51445376D01*
X156504067Y-51459733D01*
X156506350Y-51462087D01*
X156525066Y-51475402D01*
X156558486Y-51491953D01*
X156579375Y-51500511D01*
X156613724Y-51515244D01*
X156635573Y-51527824D01*
X156639700Y-51532774D01*
X156650801Y-51541197D01*
X156679121Y-51552344D01*
X156700025Y-51558665D01*
X156741398Y-51571809D01*
X156775867Y-51585776D01*
X156785750Y-51591032D01*
X156813703Y-51603896D01*
X156853411Y-51617248D01*
X156868300Y-51621310D01*
X156912999Y-51634247D01*
X156954244Y-51648714D01*
X156963550Y-51652573D01*
X156995737Y-51663440D01*
X157042550Y-51675407D01*
X157090550Y-51685252D01*
X157136804Y-51694708D01*
X157173761Y-51704431D01*
X157193661Y-51712370D01*
X157193961Y-51712596D01*
X157205647Y-51717578D01*
X157230944Y-51724015D01*
X157271843Y-51732265D01*
X157330333Y-51742685D01*
X157408402Y-51755634D01*
X157508039Y-51771470D01*
X157604900Y-51786500D01*
X157670405Y-51793416D01*
X157755205Y-51797640D01*
X157853352Y-51799280D01*
X157958895Y-51798439D01*
X158065884Y-51795223D01*
X158168368Y-51789737D01*
X158260400Y-51782086D01*
X158327576Y-51773715D01*
X158391601Y-51763326D01*
X158447772Y-51753143D01*
X158490654Y-51744226D01*
X158514808Y-51737637D01*
X158516753Y-51736777D01*
X158538699Y-51729232D01*
X158578319Y-51718945D01*
X158628303Y-51707762D01*
X158646300Y-51704095D01*
X158696703Y-51693248D01*
X158737806Y-51682846D01*
X158762989Y-51674623D01*
X158766950Y-51672478D01*
X158785749Y-51663184D01*
X158819786Y-51650663D01*
X158843150Y-51643234D01*
X158888706Y-51627801D01*
X158930632Y-51610764D01*
X158944750Y-51603917D01*
X158976526Y-51589832D01*
X159001141Y-51583550D01*
X159001900Y-51583530D01*
X159025101Y-51577151D01*
X159056392Y-51561746D01*
X159059923Y-51559638D01*
X159095979Y-51540293D01*
X159129042Y-51526509D01*
X159129773Y-51526279D01*
X159161345Y-51514967D01*
X159201279Y-51498828D01*
X159211450Y-51494446D01*
X159255984Y-51475653D01*
X159300102Y-51458073D01*
X159306700Y-51455574D01*
X159338761Y-51440329D01*
X159359696Y-51424519D01*
X159361306Y-51422320D01*
X159381358Y-51407227D01*
X159390053Y-51405700D01*
X159416852Y-51399924D01*
X159430697Y-51393927D01*
X159459641Y-51379896D01*
X159471800Y-51374767D01*
X159495308Y-51363320D01*
X159526970Y-51345365D01*
X159529909Y-51343586D01*
X159589675Y-51315535D01*
X159643272Y-51309734D01*
X159695862Y-51325697D01*
X159699728Y-51327663D01*
X159749119Y-51353408D01*
X159808180Y-51287479D01*
X159843529Y-51248071D01*
X159876772Y-51211099D01*
X159898120Y-51187434D01*
X159918661Y-51161297D01*
X159928779Y-51141668D01*
X159929000Y-51139809D01*
X159937200Y-51121225D01*
X159951646Y-51103653D01*
X159971975Y-51077230D01*
X159993115Y-51041062D01*
X159996692Y-51033803D01*
X160013158Y-51004327D01*
X160027172Y-50987853D01*
X160030340Y-50986600D01*
X160042288Y-50976014D01*
X160050296Y-50958025D01*
X160064406Y-50926419D01*
X160075243Y-50910400D01*
X160086743Y-50888698D01*
X160100781Y-50850793D01*
X160113233Y-50808800D01*
X160127184Y-50759501D01*
X160141517Y-50714599D01*
X160151381Y-50688150D01*
X160160287Y-50658709D01*
X160170294Y-50612040D01*
X160179778Y-50556169D01*
X160183542Y-50529400D01*
X160191327Y-50475889D01*
X160199238Y-50431656D01*
X160206084Y-50402954D01*
X160208967Y-50396050D01*
X160213118Y-50379259D01*
X160217709Y-50342176D01*
X160222242Y-50289891D01*
X160226217Y-50227496D01*
X160227017Y-50211900D01*
X160234603Y-50093549D01*
X160244758Y-49998568D01*
X160257756Y-49925031D01*
X160273867Y-49871013D01*
X160275992Y-49865825D01*
X160291638Y-49837854D01*
X160303559Y-49833331D01*
X160309634Y-49852454D01*
X160310000Y-49862650D01*
X160306345Y-49886527D01*
X160299333Y-49894400D01*
X160290722Y-49906538D01*
X160281794Y-49940730D01*
X160273012Y-49993642D01*
X160264836Y-50061940D01*
X160257730Y-50142288D01*
X160252153Y-50231355D01*
X160251858Y-50237300D01*
X160248174Y-50300637D01*
X160243936Y-50354381D01*
X160239610Y-50393679D01*
X160235662Y-50413677D01*
X160234779Y-50415100D01*
X160229590Y-50429476D01*
X160222029Y-50463769D01*
X160213142Y-50512727D01*
X160204618Y-50566701D01*
X160195322Y-50624675D01*
X160186206Y-50672953D01*
X160178360Y-50706243D01*
X160173181Y-50719101D01*
X160165526Y-50734066D01*
X160154314Y-50767192D01*
X160141723Y-50811899D01*
X160139270Y-50821500D01*
X160125742Y-50868299D01*
X160111775Y-50905279D01*
X160100040Y-50925558D01*
X160098367Y-50926906D01*
X160083036Y-50946633D01*
X160081400Y-50955481D01*
X160073019Y-50978139D01*
X160058753Y-50996546D01*
X160038424Y-51022969D01*
X160017284Y-51059137D01*
X160013707Y-51066396D01*
X159997098Y-51095884D01*
X159982742Y-51112353D01*
X159979446Y-51113600D01*
X159967887Y-51124376D01*
X159959540Y-51145646D01*
X159945072Y-51176502D01*
X159929708Y-51193271D01*
X159907458Y-51214867D01*
X159884437Y-51245013D01*
X159884330Y-51245177D01*
X159859464Y-51278490D01*
X159828153Y-51314414D01*
X159821845Y-51320963D01*
X159782950Y-51360421D01*
X159821050Y-51368857D01*
X159861255Y-51375202D01*
X159905231Y-51378770D01*
X159906025Y-51378797D01*
X159938786Y-51382934D01*
X159959172Y-51391192D01*
X159960750Y-51393000D01*
X159977219Y-51399127D01*
X160015619Y-51403448D01*
X160072556Y-51406087D01*
X160144633Y-51407175D01*
X160228457Y-51406836D01*
X160320631Y-51405200D01*
X160417760Y-51402394D01*
X160516450Y-51398545D01*
X160613306Y-51393780D01*
X160704932Y-51388228D01*
X160787934Y-51382015D01*
X160858915Y-51375270D01*
X160914482Y-51368119D01*
X160951239Y-51360690D01*
X160964050Y-51355322D01*
X160982353Y-51349143D01*
X161018309Y-51342485D01*
X161064241Y-51336759D01*
X161065650Y-51336621D01*
X161136658Y-51328727D01*
X161203741Y-51319517D01*
X161261787Y-51309855D01*
X161305688Y-51300609D01*
X161330334Y-51292644D01*
X161332350Y-51291400D01*
X161350531Y-51284610D01*
X161386247Y-51275858D01*
X161431920Y-51266992D01*
X161433950Y-51266644D01*
X161484983Y-51256422D01*
X161531242Y-51244585D01*
X161560950Y-51234384D01*
X161599216Y-51219113D01*
X161643456Y-51203903D01*
X161649850Y-51201927D01*
X161696467Y-51185907D01*
X161744810Y-51166590D01*
X161751450Y-51163654D01*
X161793309Y-51146749D01*
X161832988Y-51133717D01*
X161840350Y-51131824D01*
X161875780Y-51118882D01*
X161900752Y-51103505D01*
X161922878Y-51090458D01*
X161932323Y-51097777D01*
X161928308Y-51117823D01*
X161912168Y-51132460D01*
X161878264Y-51148548D01*
X161845459Y-51159414D01*
X161806159Y-51171938D01*
X161779018Y-51183450D01*
X161770500Y-51190464D01*
X161759485Y-51199501D01*
X161732627Y-51208156D01*
X161729225Y-51208883D01*
X161684030Y-51219835D01*
X161640918Y-51233152D01*
X161607660Y-51246177D01*
X161592409Y-51255664D01*
X161577761Y-51261833D01*
X161544090Y-51270940D01*
X161497379Y-51281449D01*
X161471759Y-51286604D01*
X161420916Y-51297190D01*
X161380248Y-51307037D01*
X161355716Y-51314637D01*
X161351400Y-51317072D01*
X161335898Y-51323102D01*
X161299945Y-51330975D01*
X161248353Y-51339904D01*
X161185933Y-51349103D01*
X161117499Y-51357784D01*
X161072000Y-51362783D01*
X161028786Y-51368456D01*
X160996653Y-51374989D01*
X160983100Y-51380607D01*
X160968929Y-51384991D01*
X160933867Y-51391074D01*
X160882316Y-51398225D01*
X160818676Y-51405813D01*
X160773550Y-51410617D01*
X160708117Y-51416151D01*
X160630516Y-51420898D01*
X160544186Y-51424824D01*
X160452565Y-51427898D01*
X160359092Y-51430087D01*
X160267206Y-51431361D01*
X160180346Y-51431685D01*
X160101950Y-51431029D01*
X160035458Y-51429360D01*
X159984307Y-51426645D01*
X159951937Y-51422854D01*
X159941700Y-51418400D01*
X159930791Y-51408998D01*
X159908592Y-51405700D01*
X159873088Y-51402320D01*
X159826088Y-51393501D01*
X159775195Y-51381226D01*
X159728011Y-51367475D01*
X159692139Y-51354230D01*
X159676603Y-51345240D01*
X159649592Y-51334947D01*
X159610210Y-51338730D01*
X159565763Y-51354601D01*
X159523558Y-51380574D01*
X159512658Y-51389825D01*
X159485268Y-51403713D01*
X159471642Y-51405700D01*
X159447709Y-51411744D01*
X159440050Y-51418400D01*
X159422040Y-51429271D01*
X159408909Y-51431100D01*
X159386072Y-51438984D01*
X159379258Y-51447671D01*
X159364159Y-51461292D01*
X159333475Y-51476347D01*
X159317574Y-51482064D01*
X159283072Y-51494251D01*
X159260100Y-51504363D01*
X159255900Y-51507255D01*
X159241318Y-51514908D01*
X159209912Y-51527292D01*
X159176525Y-51538992D01*
X159138049Y-51553089D01*
X159111592Y-51565190D01*
X159103500Y-51571691D01*
X159092403Y-51579548D01*
X159063572Y-51591547D01*
X159030475Y-51602766D01*
X158990601Y-51616280D01*
X158961565Y-51628166D01*
X158951100Y-51634572D01*
X158936399Y-51642593D01*
X158904500Y-51654394D01*
X158868550Y-51665567D01*
X158826324Y-51678765D01*
X158793615Y-51690892D01*
X158779461Y-51698076D01*
X158761908Y-51705141D01*
X158725774Y-51715147D01*
X158677454Y-51726405D01*
X158652461Y-51731626D01*
X158601627Y-51742579D01*
X158560948Y-51752694D01*
X158536369Y-51760430D01*
X158532000Y-51762889D01*
X158517800Y-51767664D01*
X158483144Y-51775109D01*
X158432724Y-51784328D01*
X158371234Y-51794426D01*
X158347850Y-51798019D01*
X158271666Y-51808529D01*
X158200523Y-51815846D01*
X158127294Y-51820374D01*
X158044857Y-51822514D01*
X157946089Y-51822671D01*
X157916050Y-51822429D01*
X157832703Y-51821434D01*
X157752989Y-51820123D01*
X157682313Y-51818613D01*
X157626079Y-51817018D01*
X157589692Y-51815456D01*
X157589025Y-51815414D01*
X157549787Y-51811050D01*
X157523280Y-51804459D01*
X157516000Y-51798766D01*
X157504948Y-51790341D01*
X157478266Y-51786703D01*
X157477326Y-51786700D01*
X157446332Y-51784681D01*
X157401265Y-51779307D01*
X157348194Y-51771597D01*
X157293186Y-51762574D01*
X157242311Y-51753258D01*
X157201635Y-51744670D01*
X157177227Y-51737831D01*
X157173100Y-51735509D01*
X157158632Y-51729383D01*
X157125043Y-51720125D01*
X157078182Y-51709260D01*
X157049275Y-51703233D01*
X156998553Y-51692070D01*
X156958840Y-51681456D01*
X156935593Y-51672951D01*
X156931800Y-51669678D01*
X156921778Y-51660307D01*
X156916553Y-51659700D01*
X156893620Y-51656145D01*
X156858815Y-51647138D01*
X156819838Y-51635161D01*
X156784389Y-51622700D01*
X156760167Y-51612238D01*
X156754000Y-51607258D01*
X156742820Y-51599522D01*
X156714109Y-51589002D01*
X156689036Y-51581897D01*
X156651203Y-51569613D01*
X156624830Y-51556223D01*
X156617827Y-51548973D01*
X156602315Y-51533935D01*
X156595842Y-51532700D01*
X156574341Y-51527150D01*
X156542324Y-51513845D01*
X156510471Y-51497800D01*
X156489461Y-51484030D01*
X156487300Y-51481730D01*
X156472628Y-51472677D01*
X156442192Y-51458971D01*
X156420625Y-51450434D01*
X156386268Y-51435836D01*
X156364420Y-51423437D01*
X156360300Y-51418603D01*
X156349815Y-51408387D01*
X156323400Y-51393264D01*
X156309500Y-51386650D01*
X156278694Y-51371022D01*
X156260654Y-51358513D01*
X156258700Y-51355323D01*
X156248383Y-51345026D01*
X156222754Y-51329919D01*
X156214250Y-51325707D01*
X156185763Y-51309105D01*
X156170574Y-51294372D01*
X156169800Y-51291605D01*
X156159584Y-51280002D01*
X156151671Y-51278700D01*
X156131682Y-51269465D01*
X156108776Y-51247212D01*
X156108449Y-51246797D01*
X156087739Y-51225456D01*
X156067149Y-51222373D01*
X156047460Y-51228542D01*
X156019448Y-51241953D01*
X156004278Y-51253982D01*
X155989106Y-51262618D01*
X155956050Y-51274238D01*
X155912047Y-51286425D01*
X155908769Y-51287229D01*
X155864470Y-51298909D01*
X155830781Y-51309488D01*
X155814527Y-51316805D01*
X155814200Y-51317164D01*
X155799867Y-51322207D01*
X155765485Y-51329714D01*
X155716165Y-51338681D01*
X155657018Y-51348104D01*
X155655450Y-51348338D01*
X155596076Y-51357903D01*
X155546369Y-51367276D01*
X155511456Y-51375395D01*
X155496465Y-51381197D01*
X155496394Y-51381297D01*
X155481912Y-51386892D01*
X155447365Y-51394572D01*
X155397898Y-51403334D01*
X155338659Y-51412170D01*
X155337644Y-51412308D01*
X155276009Y-51421303D01*
X155221818Y-51430293D01*
X155181067Y-51438213D01*
X155160150Y-51443826D01*
X155133274Y-51451410D01*
X155092357Y-51459011D01*
X155065629Y-51462660D01*
X155025364Y-51468237D01*
X154995761Y-51473951D01*
X154986231Y-51477075D01*
X154965434Y-51482181D01*
X154923059Y-51486678D01*
X154862919Y-51490531D01*
X154788831Y-51493706D01*
X154704609Y-51496167D01*
X154614066Y-51497881D01*
X154521020Y-51498812D01*
X154429283Y-51498927D01*
X154342672Y-51498189D01*
X154265001Y-51496566D01*
X154200084Y-51494021D01*
X154151736Y-51490520D01*
X154123773Y-51486030D01*
X154120802Y-51484936D01*
X154097307Y-51477881D01*
X154055132Y-51468728D01*
X154000765Y-51458787D01*
X153954218Y-51451349D01*
X153897553Y-51442003D01*
X153850691Y-51432652D01*
X153819042Y-51424481D01*
X153808168Y-51419389D01*
X153793336Y-51411802D01*
X153759833Y-51401262D01*
X153713924Y-51389652D01*
X153696164Y-51385702D01*
X153643540Y-51372840D01*
X153611514Y-51361492D01*
X153602201Y-51352443D01*
X153603054Y-51351165D01*
X153620501Y-51348156D01*
X153655302Y-51351088D01*
X153700502Y-51358547D01*
X153749144Y-51369119D01*
X153794270Y-51381390D01*
X153828923Y-51393949D01*
X153838853Y-51399073D01*
X153862774Y-51407883D01*
X153904495Y-51417849D01*
X153956574Y-51427296D01*
X153979050Y-51430611D01*
X154034991Y-51439248D01*
X154085369Y-51448720D01*
X154121888Y-51457408D01*
X154130231Y-51460101D01*
X154158184Y-51465823D01*
X154205021Y-51470123D01*
X154266962Y-51473075D01*
X154340230Y-51474747D01*
X154421046Y-51475211D01*
X154505632Y-51474539D01*
X154590209Y-51472800D01*
X154671000Y-51470067D01*
X154744224Y-51466410D01*
X154806105Y-51461899D01*
X154852863Y-51456606D01*
X154880721Y-51450603D01*
X154886954Y-51445891D01*
X154876492Y-51435787D01*
X154850326Y-51420285D01*
X154836860Y-51413525D01*
X154804540Y-51394992D01*
X154783398Y-51377215D01*
X154780255Y-51372250D01*
X154764963Y-51356483D01*
X154757770Y-51354900D01*
X154737817Y-51346627D01*
X154716096Y-51329253D01*
X154692638Y-51308264D01*
X154656927Y-51278800D01*
X154620400Y-51250109D01*
X154582380Y-51219615D01*
X154551078Y-51192042D01*
X154533954Y-51174156D01*
X154512865Y-51155948D01*
X154499029Y-51151700D01*
X154482611Y-51143684D01*
X154480700Y-51137303D01*
X154472210Y-51121776D01*
X154449908Y-51094667D01*
X154418544Y-51061726D01*
X154417199Y-51060399D01*
X154385746Y-51028445D01*
X154363034Y-51003477D01*
X154353730Y-50990641D01*
X154353700Y-50990379D01*
X154346348Y-50977080D01*
X154327491Y-50951074D01*
X154311491Y-50930757D01*
X154285666Y-50896650D01*
X154266569Y-50867392D01*
X154261089Y-50856425D01*
X154249088Y-50837721D01*
X154241831Y-50834200D01*
X154231483Y-50823299D01*
X154218515Y-50795878D01*
X154213554Y-50782050D01*
X154199371Y-50748459D01*
X154184434Y-50726723D01*
X154179871Y-50723580D01*
X154167196Y-50708646D01*
X154152574Y-50677229D01*
X154144206Y-50652627D01*
X154130505Y-50614224D01*
X154116348Y-50586354D01*
X154109181Y-50578214D01*
X154101431Y-50561190D01*
X154095303Y-50524322D01*
X154090916Y-50473119D01*
X154088389Y-50413095D01*
X154087841Y-50349758D01*
X154089391Y-50288621D01*
X154093158Y-50235194D01*
X154099261Y-50194988D01*
X154100780Y-50188989D01*
X154123696Y-50138292D01*
X154167154Y-50075178D01*
X154230256Y-50000849D01*
X154283719Y-49944721D01*
X154304927Y-49920815D01*
X154315372Y-49904202D01*
X154315600Y-49902817D01*
X154324838Y-49886491D01*
X154349436Y-49859105D01*
X154384720Y-49825216D01*
X154426017Y-49789377D01*
X154457965Y-49764078D01*
X154489138Y-49738940D01*
X154503279Y-49720745D01*
X154498616Y-49706648D01*
X154473380Y-49693806D01*
X154425804Y-49679374D01*
X154401178Y-49672797D01*
X154357543Y-49660145D01*
X154324515Y-49648383D01*
X154309008Y-49639984D01*
X154308856Y-49639763D01*
X154294641Y-49628982D01*
X154264613Y-49611974D01*
X154235978Y-49597611D01*
X154210770Y-49586294D01*
X154186480Y-49577921D01*
X154158614Y-49571957D01*
X154122676Y-49567862D01*
X154074173Y-49565099D01*
X154008610Y-49563131D01*
X153935591Y-49561671D01*
X153845773Y-49559529D01*
X153779150Y-49556668D01*
X153733525Y-49552908D01*
X153706699Y-49548063D01*
X153696472Y-49541952D01*
X153696407Y-49541773D01*
X153680879Y-49527342D01*
X153673635Y-49526100D01*
X153644670Y-49521077D01*
X153604438Y-49508520D01*
X153562921Y-49492197D01*
X153530099Y-49475874D01*
X153518723Y-49467638D01*
X153491998Y-49446273D01*
X153476409Y-49436670D01*
X153459931Y-49419718D01*
X153452166Y-49397107D01*
X153454955Y-49378739D01*
X153464700Y-49373700D01*
X153476681Y-49383752D01*
X153477671Y-49389575D01*
X153489258Y-49409621D01*
X153520265Y-49434467D01*
X153565912Y-49461191D01*
X153621421Y-49486873D01*
X153661550Y-49501973D01*
X153688400Y-49510759D01*
X153713931Y-49517716D01*
X153741548Y-49523098D01*
X153774652Y-49527158D01*
X153816649Y-49530149D01*
X153870942Y-49532323D01*
X153940934Y-49533933D01*
X154030028Y-49535233D01*
X154123311Y-49536282D01*
X154233346Y-49537270D01*
X154320683Y-49537581D01*
X154388019Y-49537114D01*
X154438050Y-49535770D01*
X154473472Y-49533449D01*
X154496981Y-49530052D01*
X154511272Y-49525479D01*
X154517011Y-49521728D01*
X154542777Y-49504392D01*
X154578073Y-49486585D01*
X154582300Y-49484789D01*
X154607495Y-49471094D01*
X154636138Y-49448313D01*
X154671439Y-49413357D01*
X154716610Y-49363137D01*
X154752919Y-49320686D01*
X154774120Y-49291283D01*
X154784985Y-49273061D01*
X154792637Y-49253027D01*
X154783603Y-49246837D01*
X154779596Y-49246700D01*
X154762398Y-49252543D01*
X154760100Y-49257717D01*
X154748272Y-49266820D01*
X154712484Y-49278637D01*
X154652278Y-49293299D01*
X154591825Y-49306040D01*
X154566528Y-49314657D01*
X154556900Y-49324341D01*
X154545815Y-49331984D01*
X154518159Y-49335239D01*
X154482327Y-49334381D01*
X154446717Y-49329687D01*
X154419723Y-49321434D01*
X154416640Y-49319725D01*
X154392025Y-49310974D01*
X154381887Y-49317210D01*
X154364737Y-49324706D01*
X154325799Y-49332292D01*
X154268683Y-49339785D01*
X154197001Y-49347000D01*
X154114363Y-49353752D01*
X154024380Y-49359857D01*
X153930662Y-49365130D01*
X153836819Y-49369387D01*
X153746464Y-49372442D01*
X153663205Y-49374111D01*
X153590654Y-49374210D01*
X153532421Y-49372553D01*
X153492117Y-49368957D01*
X153473811Y-49363647D01*
X153452316Y-49353980D01*
X153416869Y-49344637D01*
X153402493Y-49341951D01*
X153337917Y-49325753D01*
X153270489Y-49296547D01*
X153236100Y-49277875D01*
X153204845Y-49264275D01*
X153182125Y-49259587D01*
X153163272Y-49253433D01*
X153159900Y-49246700D01*
X153149047Y-49237096D01*
X153128659Y-49234000D01*
X153105978Y-49228840D01*
X153091155Y-49209009D01*
X153083082Y-49186145D01*
X153074542Y-49143878D01*
X153072709Y-49104137D01*
X153073047Y-49100420D01*
X153078779Y-49075393D01*
X153093674Y-49063541D01*
X153125766Y-49058581D01*
X153126648Y-49058508D01*
X153161837Y-49059142D01*
X153186552Y-49065822D01*
X153189513Y-49068033D01*
X153218794Y-49080164D01*
X153260771Y-49073841D01*
X153295151Y-49058764D01*
X153333826Y-49038326D01*
X153377204Y-49016017D01*
X153384051Y-49012560D01*
X153426092Y-48988698D01*
X153465853Y-48962018D01*
X153471050Y-48958047D01*
X153505894Y-48931409D01*
X153538496Y-48907571D01*
X153540110Y-48906436D01*
X153566813Y-48884878D01*
X153604574Y-48850685D01*
X153649425Y-48807869D01*
X153697402Y-48760439D01*
X153744536Y-48712405D01*
X153786862Y-48667778D01*
X153820412Y-48630566D01*
X153841221Y-48604779D01*
X153845474Y-48597739D01*
X153861930Y-48565145D01*
X153882919Y-48529371D01*
X153883060Y-48529150D01*
X153892066Y-48512393D01*
X153898597Y-48491910D01*
X153903064Y-48463516D01*
X153905879Y-48423028D01*
X153907451Y-48366259D01*
X153908194Y-48289027D01*
X153908271Y-48272724D01*
X153909336Y-48192079D01*
X153911669Y-48126297D01*
X153915090Y-48078381D01*
X153919418Y-48051332D01*
X153921900Y-48046549D01*
X153930967Y-48029422D01*
X153934600Y-48000485D01*
X153936467Y-47968478D01*
X153941465Y-47921647D01*
X153948688Y-47865985D01*
X153957229Y-47807489D01*
X153966181Y-47752153D01*
X153974639Y-47705973D01*
X153981695Y-47674944D01*
X153985236Y-47665550D01*
X153992215Y-47647826D01*
X154002230Y-47612037D01*
X154013412Y-47565038D01*
X154016403Y-47551250D01*
X154030058Y-47494819D01*
X154045999Y-47440506D01*
X154061012Y-47399148D01*
X154062489Y-47395813D01*
X154077110Y-47361758D01*
X154085878Y-47337591D01*
X154087000Y-47332212D01*
X154093017Y-47314162D01*
X154108296Y-47282215D01*
X154128680Y-47244037D01*
X154150012Y-47207298D01*
X154168133Y-47179664D01*
X154173144Y-47173337D01*
X154195283Y-47142959D01*
X154206522Y-47123510D01*
X154223833Y-47102169D01*
X154256660Y-47071606D01*
X154299237Y-47036467D01*
X154345797Y-47001393D01*
X154390574Y-46971029D01*
X154411331Y-46958591D01*
X154440776Y-46942929D01*
X154484622Y-46920647D01*
X154534347Y-46896065D01*
X154544200Y-46891276D01*
X154598460Y-46864742D01*
X154652778Y-46837787D01*
X154696252Y-46815825D01*
X154699781Y-46814009D01*
X154737458Y-46796332D01*
X154768006Y-46785061D01*
X154779156Y-46782900D01*
X154790696Y-46776566D01*
X154796604Y-46754380D01*
X154798200Y-46713799D01*
X154800104Y-46674230D01*
X154805003Y-46646113D01*
X154809425Y-46637761D01*
X154820949Y-46623020D01*
X154837877Y-46593128D01*
X154848011Y-46572615D01*
X154867783Y-46539566D01*
X154886979Y-46521619D01*
X154901490Y-46521304D01*
X154907033Y-46536308D01*
X154911548Y-46559690D01*
X154921264Y-46597313D01*
X154933388Y-46639312D01*
X154945129Y-46675818D01*
X154950761Y-46690825D01*
X154967730Y-46712274D01*
X154998832Y-46719169D01*
X155004302Y-46719226D01*
X155054557Y-46716070D01*
X155085416Y-46704952D01*
X155102440Y-46682619D01*
X155109230Y-46657906D01*
X155119466Y-46621623D01*
X155133075Y-46594450D01*
X155134742Y-46592400D01*
X155149508Y-46567161D01*
X155162241Y-46531988D01*
X155162787Y-46529912D01*
X155178894Y-46495547D01*
X155202050Y-46483389D01*
X155229885Y-46492054D01*
G36*
X158874900Y-51754950D02*
G01*
X158868550Y-51761300D01*
X158862200Y-51754950D01*
X158868550Y-51748600D01*
X158874900Y-51754950D01*
G37*
X158874900Y-51754950D02*
X158868550Y-51761300D01*
X158862200Y-51754950D01*
X158868550Y-51748600D01*
X158874900Y-51754950D01*
G36*
X159151367Y-50454434D02*
G01*
X159183270Y-50458123D01*
X159197643Y-50464109D01*
X159212816Y-50470761D01*
X159246121Y-50477721D01*
X159290356Y-50483485D01*
X159290467Y-50483496D01*
X159369093Y-50492768D01*
X159439218Y-50503941D01*
X159496152Y-50516077D01*
X159535203Y-50528235D01*
X159548000Y-50535072D01*
X159573811Y-50551054D01*
X159601975Y-50564772D01*
X159626819Y-50579236D01*
X159636900Y-50592627D01*
X159628644Y-50604600D01*
X159612603Y-50601388D01*
X159606019Y-50594306D01*
X159589613Y-50583182D01*
X159564122Y-50574249D01*
X159536135Y-50564045D01*
X159522014Y-50553852D01*
X159507185Y-50547376D01*
X159473160Y-50539027D01*
X159425983Y-50529805D01*
X159371694Y-50520707D01*
X159316336Y-50512734D01*
X159265951Y-50506884D01*
X159226581Y-50504157D01*
X159220975Y-50504074D01*
X159192880Y-50500606D01*
X159179817Y-50492260D01*
X159179700Y-50491300D01*
X159168025Y-50484678D01*
X159137055Y-50480139D01*
X159096400Y-50478600D01*
X159050021Y-50476857D01*
X159024594Y-50471900D01*
X159020950Y-50465900D01*
X159036976Y-50459272D01*
X159069721Y-50455095D01*
X159110684Y-50453454D01*
X159151367Y-50454434D01*
G37*
X159151367Y-50454434D02*
X159183270Y-50458123D01*
X159197643Y-50464109D01*
X159212816Y-50470761D01*
X159246121Y-50477721D01*
X159290356Y-50483485D01*
X159290467Y-50483496D01*
X159369093Y-50492768D01*
X159439218Y-50503941D01*
X159496152Y-50516077D01*
X159535203Y-50528235D01*
X159548000Y-50535072D01*
X159573811Y-50551054D01*
X159601975Y-50564772D01*
X159626819Y-50579236D01*
X159636900Y-50592627D01*
X159628644Y-50604600D01*
X159612603Y-50601388D01*
X159606019Y-50594306D01*
X159589613Y-50583182D01*
X159564122Y-50574249D01*
X159536135Y-50564045D01*
X159522014Y-50553852D01*
X159507185Y-50547376D01*
X159473160Y-50539027D01*
X159425983Y-50529805D01*
X159371694Y-50520707D01*
X159316336Y-50512734D01*
X159265951Y-50506884D01*
X159226581Y-50504157D01*
X159220975Y-50504074D01*
X159192880Y-50500606D01*
X159179817Y-50492260D01*
X159179700Y-50491300D01*
X159168025Y-50484678D01*
X159137055Y-50480139D01*
X159096400Y-50478600D01*
X159050021Y-50476857D01*
X159024594Y-50471900D01*
X159020950Y-50465900D01*
X159036976Y-50459272D01*
X159069721Y-50455095D01*
X159110684Y-50453454D01*
X159151367Y-50454434D01*
G36*
X159929324Y-49517965D02*
G01*
X159920299Y-49531024D01*
X159889712Y-49551624D01*
X159855944Y-49570054D01*
X159816543Y-49591900D01*
X159786437Y-49611444D01*
X159773271Y-49623175D01*
X159752472Y-49641802D01*
X159718288Y-49660843D01*
X159682026Y-49674759D01*
X159660348Y-49678500D01*
X159640797Y-49684351D01*
X159636900Y-49691514D01*
X159626490Y-49705653D01*
X159608325Y-49715818D01*
X159579808Y-49730719D01*
X159544681Y-49753619D01*
X159536007Y-49759953D01*
X159503653Y-49780530D01*
X159476055Y-49791967D01*
X159469963Y-49792800D01*
X159445275Y-49801059D01*
X159437506Y-49808874D01*
X159420466Y-49823667D01*
X159389273Y-49842303D01*
X159373520Y-49850149D01*
X159341734Y-49866492D01*
X159322331Y-49879285D01*
X159319545Y-49882961D01*
X159308801Y-49891770D01*
X159281594Y-49905714D01*
X159262250Y-49914139D01*
X159229091Y-49929510D01*
X159208470Y-49942337D01*
X159205100Y-49946794D01*
X159194178Y-49955556D01*
X159167837Y-49964064D01*
X159167145Y-49964218D01*
X159137935Y-49973672D01*
X159121946Y-49984277D01*
X159104596Y-49994110D01*
X159090050Y-49996000D01*
X159069823Y-50001462D01*
X159065400Y-50008700D01*
X159054448Y-50017825D01*
X159030475Y-50021117D01*
X158995550Y-50020835D01*
X159027300Y-49996000D01*
X159053692Y-49978425D01*
X159072778Y-49970884D01*
X159072860Y-49970882D01*
X159089753Y-49965271D01*
X159123120Y-49950519D01*
X159166969Y-49929339D01*
X159187160Y-49919134D01*
X159242439Y-49890652D01*
X159282897Y-49869133D01*
X159316401Y-49850113D01*
X159350814Y-49829130D01*
X159393061Y-49802325D01*
X159427564Y-49782166D01*
X159454897Y-49769549D01*
X159463824Y-49767400D01*
X159482798Y-49760200D01*
X159512791Y-49741904D01*
X159529862Y-49729653D01*
X159561790Y-49707515D01*
X159586768Y-49693751D01*
X159594266Y-49691553D01*
X159611037Y-49681024D01*
X159616092Y-49672150D01*
X159633422Y-49656044D01*
X159647250Y-49653100D01*
X159673729Y-49647925D01*
X159705812Y-49635354D01*
X159734367Y-49619820D01*
X159750261Y-49605753D01*
X159751200Y-49602656D01*
X159761563Y-49592306D01*
X159787993Y-49575095D01*
X159823498Y-49554813D01*
X159861087Y-49535255D01*
X159893767Y-49520210D01*
X159914546Y-49513471D01*
X159915779Y-49513400D01*
X159929324Y-49517965D01*
G37*
X159929324Y-49517965D02*
X159920299Y-49531024D01*
X159889712Y-49551624D01*
X159855944Y-49570054D01*
X159816543Y-49591900D01*
X159786437Y-49611444D01*
X159773271Y-49623175D01*
X159752472Y-49641802D01*
X159718288Y-49660843D01*
X159682026Y-49674759D01*
X159660348Y-49678500D01*
X159640797Y-49684351D01*
X159636900Y-49691514D01*
X159626490Y-49705653D01*
X159608325Y-49715818D01*
X159579808Y-49730719D01*
X159544681Y-49753619D01*
X159536007Y-49759953D01*
X159503653Y-49780530D01*
X159476055Y-49791967D01*
X159469963Y-49792800D01*
X159445275Y-49801059D01*
X159437506Y-49808874D01*
X159420466Y-49823667D01*
X159389273Y-49842303D01*
X159373520Y-49850149D01*
X159341734Y-49866492D01*
X159322331Y-49879285D01*
X159319545Y-49882961D01*
X159308801Y-49891770D01*
X159281594Y-49905714D01*
X159262250Y-49914139D01*
X159229091Y-49929510D01*
X159208470Y-49942337D01*
X159205100Y-49946794D01*
X159194178Y-49955556D01*
X159167837Y-49964064D01*
X159167145Y-49964218D01*
X159137935Y-49973672D01*
X159121946Y-49984277D01*
X159104596Y-49994110D01*
X159090050Y-49996000D01*
X159069823Y-50001462D01*
X159065400Y-50008700D01*
X159054448Y-50017825D01*
X159030475Y-50021117D01*
X158995550Y-50020835D01*
X159027300Y-49996000D01*
X159053692Y-49978425D01*
X159072778Y-49970884D01*
X159072860Y-49970882D01*
X159089753Y-49965271D01*
X159123120Y-49950519D01*
X159166969Y-49929339D01*
X159187160Y-49919134D01*
X159242439Y-49890652D01*
X159282897Y-49869133D01*
X159316401Y-49850113D01*
X159350814Y-49829130D01*
X159393061Y-49802325D01*
X159427564Y-49782166D01*
X159454897Y-49769549D01*
X159463824Y-49767400D01*
X159482798Y-49760200D01*
X159512791Y-49741904D01*
X159529862Y-49729653D01*
X159561790Y-49707515D01*
X159586768Y-49693751D01*
X159594266Y-49691553D01*
X159611037Y-49681024D01*
X159616092Y-49672150D01*
X159633422Y-49656044D01*
X159647250Y-49653100D01*
X159673729Y-49647925D01*
X159705812Y-49635354D01*
X159734367Y-49619820D01*
X159750261Y-49605753D01*
X159751200Y-49602656D01*
X159761563Y-49592306D01*
X159787993Y-49575095D01*
X159823498Y-49554813D01*
X159861087Y-49535255D01*
X159893767Y-49520210D01*
X159914546Y-49513471D01*
X159915779Y-49513400D01*
X159929324Y-49517965D01*
G36*
X160245249Y-49549109D02*
G01*
X160246500Y-49557850D01*
X160240217Y-49574759D01*
X160234883Y-49576900D01*
X160226809Y-49588353D01*
X160215698Y-49618767D01*
X160203619Y-49662219D01*
X160200482Y-49675325D01*
X160188974Y-49722254D01*
X160178806Y-49758798D01*
X160171798Y-49778543D01*
X160170756Y-49780100D01*
X160161512Y-49797305D01*
X160149215Y-49830925D01*
X160136599Y-49872640D01*
X160126397Y-49914134D01*
X160125883Y-49916625D01*
X160115114Y-49949117D01*
X160104117Y-49957792D01*
X160097515Y-49943765D01*
X160099552Y-49910275D01*
X160126142Y-49810971D01*
X160145744Y-49761050D01*
X160154463Y-49735782D01*
X160166301Y-49695107D01*
X160177348Y-49653100D01*
X160194368Y-49593773D01*
X160210578Y-49557110D01*
X160227323Y-49540464D01*
X160235355Y-49538800D01*
X160245249Y-49549109D01*
G37*
X160245249Y-49549109D02*
X160246500Y-49557850D01*
X160240217Y-49574759D01*
X160234883Y-49576900D01*
X160226809Y-49588353D01*
X160215698Y-49618767D01*
X160203619Y-49662219D01*
X160200482Y-49675325D01*
X160188974Y-49722254D01*
X160178806Y-49758798D01*
X160171798Y-49778543D01*
X160170756Y-49780100D01*
X160161512Y-49797305D01*
X160149215Y-49830925D01*
X160136599Y-49872640D01*
X160126397Y-49914134D01*
X160125883Y-49916625D01*
X160115114Y-49949117D01*
X160104117Y-49957792D01*
X160097515Y-49943765D01*
X160099552Y-49910275D01*
X160126142Y-49810971D01*
X160145744Y-49761050D01*
X160154463Y-49735782D01*
X160166301Y-49695107D01*
X160177348Y-49653100D01*
X160194368Y-49593773D01*
X160210578Y-49557110D01*
X160227323Y-49540464D01*
X160235355Y-49538800D01*
X160245249Y-49549109D01*
G36*
X160122915Y-49586544D02*
G01*
X160126721Y-49591009D01*
X160122953Y-49603775D01*
X160108077Y-49610986D01*
X160086770Y-49623244D01*
X160081400Y-49634675D01*
X160070877Y-49651769D01*
X160057136Y-49659089D01*
X160032405Y-49675107D01*
X160012393Y-49698045D01*
X159991576Y-49720684D01*
X159972758Y-49729300D01*
X159951831Y-49739569D01*
X159946292Y-49748350D01*
X159929445Y-49762590D01*
X159905416Y-49767336D01*
X159871850Y-49767273D01*
X159909950Y-49736043D01*
X159937072Y-49715799D01*
X159956351Y-49704920D01*
X159958833Y-49704356D01*
X159972740Y-49695597D01*
X159997821Y-49673342D01*
X160022333Y-49648893D01*
X160068106Y-49605866D01*
X160101634Y-49585082D01*
X160122915Y-49586544D01*
G37*
X160122915Y-49586544D02*
X160126721Y-49591009D01*
X160122953Y-49603775D01*
X160108077Y-49610986D01*
X160086770Y-49623244D01*
X160081400Y-49634675D01*
X160070877Y-49651769D01*
X160057136Y-49659089D01*
X160032405Y-49675107D01*
X160012393Y-49698045D01*
X159991576Y-49720684D01*
X159972758Y-49729300D01*
X159951831Y-49739569D01*
X159946292Y-49748350D01*
X159929445Y-49762590D01*
X159905416Y-49767336D01*
X159871850Y-49767273D01*
X159909950Y-49736043D01*
X159937072Y-49715799D01*
X159956351Y-49704920D01*
X159958833Y-49704356D01*
X159972740Y-49695597D01*
X159997821Y-49673342D01*
X160022333Y-49648893D01*
X160068106Y-49605866D01*
X160101634Y-49585082D01*
X160122915Y-49586544D01*
G36*
X153990311Y-48628440D02*
G01*
X154015111Y-48649517D01*
X154020210Y-48682978D01*
X154012741Y-48707759D01*
X153993146Y-48733521D01*
X153967638Y-48734955D01*
X153945717Y-48722185D01*
X153928424Y-48696944D01*
X153928361Y-48681660D01*
X153960398Y-48681660D01*
X153966379Y-48702157D01*
X153968821Y-48705188D01*
X153980324Y-48704666D01*
X153990612Y-48689537D01*
X153994120Y-48670219D01*
X153991687Y-48662399D01*
X153975435Y-48650261D01*
X153971950Y-48649800D01*
X153962497Y-48659912D01*
X153960398Y-48681660D01*
X153928361Y-48681660D01*
X153928301Y-48667532D01*
X153941730Y-48641562D01*
X153965088Y-48626645D01*
X153990311Y-48628440D01*
G37*
X153990311Y-48628440D02*
X154015111Y-48649517D01*
X154020210Y-48682978D01*
X154012741Y-48707759D01*
X153993146Y-48733521D01*
X153967638Y-48734955D01*
X153945717Y-48722185D01*
X153928424Y-48696944D01*
X153928361Y-48681660D01*
X153960398Y-48681660D01*
X153966379Y-48702157D01*
X153968821Y-48705188D01*
X153980324Y-48704666D01*
X153990612Y-48689537D01*
X153994120Y-48670219D01*
X153991687Y-48662399D01*
X153975435Y-48650261D01*
X153971950Y-48649800D01*
X153962497Y-48659912D01*
X153960398Y-48681660D01*
X153928361Y-48681660D01*
X153928301Y-48667532D01*
X153941730Y-48641562D01*
X153965088Y-48626645D01*
X153990311Y-48628440D01*
G36*
X155012027Y-47674242D02*
G01*
X155068036Y-47677853D01*
X155106682Y-47683607D01*
X155136004Y-47693699D01*
X155164039Y-47710325D01*
X155176549Y-47719192D01*
X155250869Y-47786954D01*
X155313402Y-47871080D01*
X155357185Y-47961273D01*
X155369868Y-47999098D01*
X155377726Y-48032847D01*
X155381446Y-48069705D01*
X155381713Y-48116856D01*
X155379212Y-48181484D01*
X155378869Y-48188534D01*
X155375149Y-48247252D01*
X155370487Y-48296263D01*
X155365494Y-48330230D01*
X155361061Y-48343660D01*
X155350611Y-48359610D01*
X155337238Y-48390198D01*
X155332873Y-48402150D01*
X155314885Y-48441956D01*
X155292914Y-48475601D01*
X155288491Y-48480576D01*
X155264384Y-48506852D01*
X155233578Y-48542157D01*
X155218527Y-48559951D01*
X155191104Y-48589180D01*
X155167721Y-48607943D01*
X155158202Y-48611700D01*
X155142591Y-48619227D01*
X155141100Y-48624400D01*
X155128970Y-48630169D01*
X155094805Y-48634369D01*
X155041933Y-48636689D01*
X155004575Y-48637052D01*
X154939440Y-48636228D01*
X154893726Y-48633255D01*
X154861487Y-48627303D01*
X154836778Y-48617541D01*
X154827585Y-48612332D01*
X154801531Y-48592650D01*
X154874400Y-48592650D01*
X154880750Y-48599000D01*
X154887100Y-48592650D01*
X154880750Y-48586300D01*
X154874400Y-48592650D01*
X154801531Y-48592650D01*
X154796634Y-48588951D01*
X154788578Y-48579950D01*
X154849000Y-48579950D01*
X154855350Y-48586300D01*
X154861700Y-48579950D01*
X155103000Y-48579950D01*
X155109350Y-48586300D01*
X155115700Y-48579950D01*
X155109350Y-48573600D01*
X155103000Y-48579950D01*
X154861700Y-48579950D01*
X154855350Y-48573600D01*
X154849000Y-48579950D01*
X154788578Y-48579950D01*
X154775303Y-48565117D01*
X155143580Y-48565117D01*
X155143666Y-48573391D01*
X155145894Y-48573600D01*
X155156496Y-48564921D01*
X155168119Y-48551375D01*
X155179103Y-48536331D01*
X155172526Y-48539485D01*
X155163325Y-48546580D01*
X155143580Y-48565117D01*
X154775303Y-48565117D01*
X154774954Y-48564728D01*
X154773610Y-48562414D01*
X154771756Y-48554550D01*
X154823600Y-48554550D01*
X154829950Y-48560900D01*
X154836300Y-48554550D01*
X154829950Y-48548200D01*
X154823600Y-48554550D01*
X154771756Y-48554550D01*
X154768413Y-48540376D01*
X154767326Y-48529150D01*
X154798200Y-48529150D01*
X154804550Y-48535500D01*
X154810900Y-48529150D01*
X154804550Y-48522800D01*
X154798200Y-48529150D01*
X154767326Y-48529150D01*
X154766096Y-48516450D01*
X155179200Y-48516450D01*
X155185550Y-48522800D01*
X155191900Y-48516450D01*
X155185550Y-48510100D01*
X155179200Y-48516450D01*
X154766096Y-48516450D01*
X154764866Y-48503750D01*
X155204600Y-48503750D01*
X155210950Y-48510100D01*
X155217300Y-48503750D01*
X155210950Y-48497400D01*
X155204600Y-48503750D01*
X154764866Y-48503750D01*
X154764483Y-48499800D01*
X154763422Y-48478350D01*
X155217300Y-48478350D01*
X155223650Y-48484700D01*
X155230000Y-48478350D01*
X155223650Y-48472000D01*
X155217300Y-48478350D01*
X154763422Y-48478350D01*
X154762438Y-48458473D01*
X155233113Y-48458473D01*
X155234850Y-48459300D01*
X155246440Y-48450359D01*
X155249050Y-48446600D01*
X155252286Y-48434726D01*
X155250549Y-48433900D01*
X155238959Y-48442840D01*
X155236350Y-48446600D01*
X155233113Y-48458473D01*
X154762438Y-48458473D01*
X154761837Y-48446346D01*
X154761421Y-48427550D01*
X155268100Y-48427550D01*
X155274450Y-48433900D01*
X155280800Y-48427550D01*
X155274450Y-48421200D01*
X155268100Y-48427550D01*
X154761421Y-48427550D01*
X154760858Y-48402150D01*
X155280800Y-48402150D01*
X155287150Y-48408500D01*
X155293500Y-48402150D01*
X155287150Y-48395800D01*
X155280800Y-48402150D01*
X154760858Y-48402150D01*
X154760492Y-48385670D01*
X154760465Y-48323431D01*
X154761773Y-48265286D01*
X154764432Y-48216893D01*
X154766623Y-48198950D01*
X154798200Y-48198950D01*
X154804550Y-48205300D01*
X154810900Y-48198950D01*
X154804550Y-48192600D01*
X154798200Y-48198950D01*
X154766623Y-48198950D01*
X154767422Y-48192409D01*
X154937900Y-48192409D01*
X154948433Y-48252392D01*
X154976983Y-48304963D01*
X155018973Y-48344993D01*
X155069823Y-48367353D01*
X155096650Y-48370305D01*
X155131339Y-48364050D01*
X155293500Y-48364050D01*
X155299850Y-48370400D01*
X155306200Y-48364050D01*
X155299850Y-48357700D01*
X155293500Y-48364050D01*
X155131339Y-48364050D01*
X155134390Y-48363500D01*
X155172844Y-48347067D01*
X155173866Y-48346451D01*
X155206210Y-48318176D01*
X155209722Y-48313250D01*
X155306200Y-48313250D01*
X155312550Y-48319600D01*
X155318900Y-48313250D01*
X155312550Y-48306900D01*
X155306200Y-48313250D01*
X155209722Y-48313250D01*
X155232491Y-48281323D01*
X155234191Y-48277905D01*
X155250103Y-48224350D01*
X155331600Y-48224350D01*
X155337950Y-48230700D01*
X155344300Y-48224350D01*
X155337950Y-48218000D01*
X155331600Y-48224350D01*
X155250103Y-48224350D01*
X155252077Y-48217707D01*
X155250799Y-48159457D01*
X155233367Y-48106670D01*
X155202793Y-48062859D01*
X155165094Y-48033850D01*
X155331600Y-48033850D01*
X155337950Y-48040200D01*
X155344300Y-48033850D01*
X155337950Y-48027500D01*
X155331600Y-48033850D01*
X155165094Y-48033850D01*
X155162089Y-48031538D01*
X155114266Y-48016220D01*
X155062335Y-48020420D01*
X155026781Y-48035881D01*
X154988779Y-48070057D01*
X154957779Y-48118729D01*
X154939966Y-48171002D01*
X154937900Y-48192409D01*
X154767422Y-48192409D01*
X154768461Y-48183910D01*
X154772441Y-48172638D01*
X154779351Y-48154675D01*
X154786182Y-48118671D01*
X154791591Y-48071955D01*
X154792132Y-48065323D01*
X154800531Y-47995750D01*
X155318900Y-47995750D01*
X155325250Y-48002100D01*
X155331600Y-47995750D01*
X155325250Y-47989400D01*
X155318900Y-47995750D01*
X154800531Y-47995750D01*
X154804242Y-47965010D01*
X154806024Y-47957650D01*
X155306200Y-47957650D01*
X155312550Y-47964000D01*
X155318900Y-47957650D01*
X155312550Y-47951300D01*
X155306200Y-47957650D01*
X154806024Y-47957650D01*
X154812177Y-47932250D01*
X155293500Y-47932250D01*
X155299850Y-47938600D01*
X155306200Y-47932250D01*
X155299850Y-47925900D01*
X155293500Y-47932250D01*
X154812177Y-47932250D01*
X154821407Y-47894150D01*
X155268100Y-47894150D01*
X155274450Y-47900500D01*
X155280800Y-47894150D01*
X155274450Y-47887800D01*
X155268100Y-47894150D01*
X154821407Y-47894150D01*
X154824538Y-47881229D01*
X154829234Y-47868750D01*
X155255400Y-47868750D01*
X155261750Y-47875100D01*
X155268100Y-47868750D01*
X155261750Y-47862400D01*
X155255400Y-47868750D01*
X154829234Y-47868750D01*
X154844295Y-47828730D01*
X154844578Y-47827940D01*
X155232047Y-47827940D01*
X155235137Y-47835037D01*
X155247924Y-47848671D01*
X155255276Y-47845874D01*
X155255400Y-47844099D01*
X155246379Y-47833357D01*
X155240737Y-47829437D01*
X155232047Y-47827940D01*
X154844578Y-47827940D01*
X154848162Y-47817950D01*
X155204600Y-47817950D01*
X155210950Y-47824300D01*
X155217300Y-47817950D01*
X155210950Y-47811600D01*
X155204600Y-47817950D01*
X154848162Y-47817950D01*
X154856368Y-47795079D01*
X154861687Y-47768592D01*
X154861700Y-47767774D01*
X154862439Y-47764440D01*
X155168547Y-47764440D01*
X155171637Y-47771537D01*
X155184424Y-47785171D01*
X155191776Y-47782374D01*
X155191900Y-47780599D01*
X155182879Y-47769857D01*
X155177237Y-47765937D01*
X155168547Y-47764440D01*
X154862439Y-47764440D01*
X154864655Y-47754450D01*
X155141100Y-47754450D01*
X155147450Y-47760800D01*
X155153800Y-47754450D01*
X155147450Y-47748100D01*
X155141100Y-47754450D01*
X154864655Y-47754450D01*
X154867320Y-47742437D01*
X154867605Y-47741750D01*
X155115700Y-47741750D01*
X155122050Y-47748100D01*
X155128400Y-47741750D01*
X155122050Y-47735400D01*
X155115700Y-47741750D01*
X154867605Y-47741750D01*
X154878157Y-47716350D01*
X155064900Y-47716350D01*
X155071250Y-47722700D01*
X155077600Y-47716350D01*
X155071250Y-47710000D01*
X155064900Y-47716350D01*
X154878157Y-47716350D01*
X154880938Y-47709656D01*
X154881852Y-47707868D01*
X154902004Y-47668898D01*
X155012027Y-47674242D01*
G37*
X155012027Y-47674242D02*
X155068036Y-47677853D01*
X155106682Y-47683607D01*
X155136004Y-47693699D01*
X155164039Y-47710325D01*
X155176549Y-47719192D01*
X155250869Y-47786954D01*
X155313402Y-47871080D01*
X155357185Y-47961273D01*
X155369868Y-47999098D01*
X155377726Y-48032847D01*
X155381446Y-48069705D01*
X155381713Y-48116856D01*
X155379212Y-48181484D01*
X155378869Y-48188534D01*
X155375149Y-48247252D01*
X155370487Y-48296263D01*
X155365494Y-48330230D01*
X155361061Y-48343660D01*
X155350611Y-48359610D01*
X155337238Y-48390198D01*
X155332873Y-48402150D01*
X155314885Y-48441956D01*
X155292914Y-48475601D01*
X155288491Y-48480576D01*
X155264384Y-48506852D01*
X155233578Y-48542157D01*
X155218527Y-48559951D01*
X155191104Y-48589180D01*
X155167721Y-48607943D01*
X155158202Y-48611700D01*
X155142591Y-48619227D01*
X155141100Y-48624400D01*
X155128970Y-48630169D01*
X155094805Y-48634369D01*
X155041933Y-48636689D01*
X155004575Y-48637052D01*
X154939440Y-48636228D01*
X154893726Y-48633255D01*
X154861487Y-48627303D01*
X154836778Y-48617541D01*
X154827585Y-48612332D01*
X154801531Y-48592650D01*
X154874400Y-48592650D01*
X154880750Y-48599000D01*
X154887100Y-48592650D01*
X154880750Y-48586300D01*
X154874400Y-48592650D01*
X154801531Y-48592650D01*
X154796634Y-48588951D01*
X154788578Y-48579950D01*
X154849000Y-48579950D01*
X154855350Y-48586300D01*
X154861700Y-48579950D01*
X155103000Y-48579950D01*
X155109350Y-48586300D01*
X155115700Y-48579950D01*
X155109350Y-48573600D01*
X155103000Y-48579950D01*
X154861700Y-48579950D01*
X154855350Y-48573600D01*
X154849000Y-48579950D01*
X154788578Y-48579950D01*
X154775303Y-48565117D01*
X155143580Y-48565117D01*
X155143666Y-48573391D01*
X155145894Y-48573600D01*
X155156496Y-48564921D01*
X155168119Y-48551375D01*
X155179103Y-48536331D01*
X155172526Y-48539485D01*
X155163325Y-48546580D01*
X155143580Y-48565117D01*
X154775303Y-48565117D01*
X154774954Y-48564728D01*
X154773610Y-48562414D01*
X154771756Y-48554550D01*
X154823600Y-48554550D01*
X154829950Y-48560900D01*
X154836300Y-48554550D01*
X154829950Y-48548200D01*
X154823600Y-48554550D01*
X154771756Y-48554550D01*
X154768413Y-48540376D01*
X154767326Y-48529150D01*
X154798200Y-48529150D01*
X154804550Y-48535500D01*
X154810900Y-48529150D01*
X154804550Y-48522800D01*
X154798200Y-48529150D01*
X154767326Y-48529150D01*
X154766096Y-48516450D01*
X155179200Y-48516450D01*
X155185550Y-48522800D01*
X155191900Y-48516450D01*
X155185550Y-48510100D01*
X155179200Y-48516450D01*
X154766096Y-48516450D01*
X154764866Y-48503750D01*
X155204600Y-48503750D01*
X155210950Y-48510100D01*
X155217300Y-48503750D01*
X155210950Y-48497400D01*
X155204600Y-48503750D01*
X154764866Y-48503750D01*
X154764483Y-48499800D01*
X154763422Y-48478350D01*
X155217300Y-48478350D01*
X155223650Y-48484700D01*
X155230000Y-48478350D01*
X155223650Y-48472000D01*
X155217300Y-48478350D01*
X154763422Y-48478350D01*
X154762438Y-48458473D01*
X155233113Y-48458473D01*
X155234850Y-48459300D01*
X155246440Y-48450359D01*
X155249050Y-48446600D01*
X155252286Y-48434726D01*
X155250549Y-48433900D01*
X155238959Y-48442840D01*
X155236350Y-48446600D01*
X155233113Y-48458473D01*
X154762438Y-48458473D01*
X154761837Y-48446346D01*
X154761421Y-48427550D01*
X155268100Y-48427550D01*
X155274450Y-48433900D01*
X155280800Y-48427550D01*
X155274450Y-48421200D01*
X155268100Y-48427550D01*
X154761421Y-48427550D01*
X154760858Y-48402150D01*
X155280800Y-48402150D01*
X155287150Y-48408500D01*
X155293500Y-48402150D01*
X155287150Y-48395800D01*
X155280800Y-48402150D01*
X154760858Y-48402150D01*
X154760492Y-48385670D01*
X154760465Y-48323431D01*
X154761773Y-48265286D01*
X154764432Y-48216893D01*
X154766623Y-48198950D01*
X154798200Y-48198950D01*
X154804550Y-48205300D01*
X154810900Y-48198950D01*
X154804550Y-48192600D01*
X154798200Y-48198950D01*
X154766623Y-48198950D01*
X154767422Y-48192409D01*
X154937900Y-48192409D01*
X154948433Y-48252392D01*
X154976983Y-48304963D01*
X155018973Y-48344993D01*
X155069823Y-48367353D01*
X155096650Y-48370305D01*
X155131339Y-48364050D01*
X155293500Y-48364050D01*
X155299850Y-48370400D01*
X155306200Y-48364050D01*
X155299850Y-48357700D01*
X155293500Y-48364050D01*
X155131339Y-48364050D01*
X155134390Y-48363500D01*
X155172844Y-48347067D01*
X155173866Y-48346451D01*
X155206210Y-48318176D01*
X155209722Y-48313250D01*
X155306200Y-48313250D01*
X155312550Y-48319600D01*
X155318900Y-48313250D01*
X155312550Y-48306900D01*
X155306200Y-48313250D01*
X155209722Y-48313250D01*
X155232491Y-48281323D01*
X155234191Y-48277905D01*
X155250103Y-48224350D01*
X155331600Y-48224350D01*
X155337950Y-48230700D01*
X155344300Y-48224350D01*
X155337950Y-48218000D01*
X155331600Y-48224350D01*
X155250103Y-48224350D01*
X155252077Y-48217707D01*
X155250799Y-48159457D01*
X155233367Y-48106670D01*
X155202793Y-48062859D01*
X155165094Y-48033850D01*
X155331600Y-48033850D01*
X155337950Y-48040200D01*
X155344300Y-48033850D01*
X155337950Y-48027500D01*
X155331600Y-48033850D01*
X155165094Y-48033850D01*
X155162089Y-48031538D01*
X155114266Y-48016220D01*
X155062335Y-48020420D01*
X155026781Y-48035881D01*
X154988779Y-48070057D01*
X154957779Y-48118729D01*
X154939966Y-48171002D01*
X154937900Y-48192409D01*
X154767422Y-48192409D01*
X154768461Y-48183910D01*
X154772441Y-48172638D01*
X154779351Y-48154675D01*
X154786182Y-48118671D01*
X154791591Y-48071955D01*
X154792132Y-48065323D01*
X154800531Y-47995750D01*
X155318900Y-47995750D01*
X155325250Y-48002100D01*
X155331600Y-47995750D01*
X155325250Y-47989400D01*
X155318900Y-47995750D01*
X154800531Y-47995750D01*
X154804242Y-47965010D01*
X154806024Y-47957650D01*
X155306200Y-47957650D01*
X155312550Y-47964000D01*
X155318900Y-47957650D01*
X155312550Y-47951300D01*
X155306200Y-47957650D01*
X154806024Y-47957650D01*
X154812177Y-47932250D01*
X155293500Y-47932250D01*
X155299850Y-47938600D01*
X155306200Y-47932250D01*
X155299850Y-47925900D01*
X155293500Y-47932250D01*
X154812177Y-47932250D01*
X154821407Y-47894150D01*
X155268100Y-47894150D01*
X155274450Y-47900500D01*
X155280800Y-47894150D01*
X155274450Y-47887800D01*
X155268100Y-47894150D01*
X154821407Y-47894150D01*
X154824538Y-47881229D01*
X154829234Y-47868750D01*
X155255400Y-47868750D01*
X155261750Y-47875100D01*
X155268100Y-47868750D01*
X155261750Y-47862400D01*
X155255400Y-47868750D01*
X154829234Y-47868750D01*
X154844295Y-47828730D01*
X154844578Y-47827940D01*
X155232047Y-47827940D01*
X155235137Y-47835037D01*
X155247924Y-47848671D01*
X155255276Y-47845874D01*
X155255400Y-47844099D01*
X155246379Y-47833357D01*
X155240737Y-47829437D01*
X155232047Y-47827940D01*
X154844578Y-47827940D01*
X154848162Y-47817950D01*
X155204600Y-47817950D01*
X155210950Y-47824300D01*
X155217300Y-47817950D01*
X155210950Y-47811600D01*
X155204600Y-47817950D01*
X154848162Y-47817950D01*
X154856368Y-47795079D01*
X154861687Y-47768592D01*
X154861700Y-47767774D01*
X154862439Y-47764440D01*
X155168547Y-47764440D01*
X155171637Y-47771537D01*
X155184424Y-47785171D01*
X155191776Y-47782374D01*
X155191900Y-47780599D01*
X155182879Y-47769857D01*
X155177237Y-47765937D01*
X155168547Y-47764440D01*
X154862439Y-47764440D01*
X154864655Y-47754450D01*
X155141100Y-47754450D01*
X155147450Y-47760800D01*
X155153800Y-47754450D01*
X155147450Y-47748100D01*
X155141100Y-47754450D01*
X154864655Y-47754450D01*
X154867320Y-47742437D01*
X154867605Y-47741750D01*
X155115700Y-47741750D01*
X155122050Y-47748100D01*
X155128400Y-47741750D01*
X155122050Y-47735400D01*
X155115700Y-47741750D01*
X154867605Y-47741750D01*
X154878157Y-47716350D01*
X155064900Y-47716350D01*
X155071250Y-47722700D01*
X155077600Y-47716350D01*
X155071250Y-47710000D01*
X155064900Y-47716350D01*
X154878157Y-47716350D01*
X154880938Y-47709656D01*
X154881852Y-47707868D01*
X154902004Y-47668898D01*
X155012027Y-47674242D01*
G36*
X155256359Y-47565551D02*
G01*
X155290693Y-47580516D01*
X155306492Y-47596246D01*
X155323369Y-47616132D01*
X155335303Y-47621100D01*
X155354673Y-47630675D01*
X155383759Y-47655849D01*
X155417885Y-47691294D01*
X155452372Y-47731682D01*
X155482543Y-47771683D01*
X155503718Y-47805971D01*
X155509558Y-47819575D01*
X155521802Y-47853965D01*
X155532471Y-47878141D01*
X155534483Y-47881450D01*
X155550166Y-47910987D01*
X155551454Y-47932035D01*
X155540751Y-47938600D01*
X155524261Y-47928425D01*
X155522100Y-47919550D01*
X155516645Y-47902630D01*
X155512034Y-47900500D01*
X155503054Y-47889420D01*
X155491963Y-47861405D01*
X155487124Y-47845002D01*
X155464555Y-47794078D01*
X155421693Y-47737562D01*
X155403579Y-47718002D01*
X155369377Y-47684111D01*
X155340821Y-47658905D01*
X155323124Y-47646915D01*
X155321258Y-47646500D01*
X155304206Y-47637125D01*
X155289591Y-47620731D01*
X155263994Y-47600770D01*
X155223440Y-47586099D01*
X155215846Y-47584507D01*
X155183622Y-47576958D01*
X155174561Y-47570162D01*
X155182470Y-47564430D01*
X155216584Y-47559240D01*
X155256359Y-47565551D01*
G37*
X155256359Y-47565551D02*
X155290693Y-47580516D01*
X155306492Y-47596246D01*
X155323369Y-47616132D01*
X155335303Y-47621100D01*
X155354673Y-47630675D01*
X155383759Y-47655849D01*
X155417885Y-47691294D01*
X155452372Y-47731682D01*
X155482543Y-47771683D01*
X155503718Y-47805971D01*
X155509558Y-47819575D01*
X155521802Y-47853965D01*
X155532471Y-47878141D01*
X155534483Y-47881450D01*
X155550166Y-47910987D01*
X155551454Y-47932035D01*
X155540751Y-47938600D01*
X155524261Y-47928425D01*
X155522100Y-47919550D01*
X155516645Y-47902630D01*
X155512034Y-47900500D01*
X155503054Y-47889420D01*
X155491963Y-47861405D01*
X155487124Y-47845002D01*
X155464555Y-47794078D01*
X155421693Y-47737562D01*
X155403579Y-47718002D01*
X155369377Y-47684111D01*
X155340821Y-47658905D01*
X155323124Y-47646915D01*
X155321258Y-47646500D01*
X155304206Y-47637125D01*
X155289591Y-47620731D01*
X155263994Y-47600770D01*
X155223440Y-47586099D01*
X155215846Y-47584507D01*
X155183622Y-47576958D01*
X155174561Y-47570162D01*
X155182470Y-47564430D01*
X155216584Y-47559240D01*
X155256359Y-47565551D01*
D14*
%TO.C,K4*%
X28718450Y-112838675D02*
X28718450Y-111060675D01*
X28718450Y-123760675D02*
X28718450Y-121982675D01*
X30496450Y-123760675D02*
X28718450Y-123760675D01*
X41418450Y-123760675D02*
X39640450Y-123760675D01*
X41418450Y-121982675D02*
X41418450Y-123760675D01*
X41418450Y-111060675D02*
X41418450Y-112838675D01*
X39640450Y-111060675D02*
X41418450Y-111060675D01*
X28718450Y-111060675D02*
X30496450Y-111060675D01*
%TO.C,K31*%
X138242947Y-131891188D02*
X138242947Y-130113188D01*
X138242947Y-142813188D02*
X138242947Y-141035188D01*
X140020947Y-142813188D02*
X138242947Y-142813188D01*
X150942947Y-142813188D02*
X149164947Y-142813188D01*
X150942947Y-141035188D02*
X150942947Y-142813188D01*
X150942947Y-130113188D02*
X150942947Y-131891188D01*
X149164947Y-130113188D02*
X150942947Y-130113188D01*
X138242947Y-130113188D02*
X140020947Y-130113188D01*
%TO.C,K5*%
X19176819Y-131874434D02*
X19176819Y-130096434D01*
X19176819Y-142796434D02*
X19176819Y-141018434D01*
X20954819Y-142796434D02*
X19176819Y-142796434D01*
X31876819Y-142796434D02*
X30098819Y-142796434D01*
X31876819Y-141018434D02*
X31876819Y-142796434D01*
X31876819Y-130096434D02*
X31876819Y-131874434D01*
X30098819Y-130096434D02*
X31876819Y-130096434D01*
X19176819Y-130096434D02*
X20954819Y-130096434D01*
%TO.C,K61*%
X281107954Y-131874851D02*
X281107954Y-130096851D01*
X281107954Y-142796851D02*
X281107954Y-141018851D01*
X282885954Y-142796851D02*
X281107954Y-142796851D01*
X293807954Y-142796851D02*
X292029954Y-142796851D01*
X293807954Y-141018851D02*
X293807954Y-142796851D01*
X293807954Y-130096851D02*
X293807954Y-131874851D01*
X292029954Y-130096851D02*
X293807954Y-130096851D01*
X281107954Y-130096851D02*
X282885954Y-130096851D01*
%TO.C,K60*%
X266822884Y-112839225D02*
X266822884Y-111061225D01*
X266822884Y-123761225D02*
X266822884Y-121983225D01*
X268600884Y-123761225D02*
X266822884Y-123761225D01*
X279522884Y-123761225D02*
X277744884Y-123761225D01*
X279522884Y-121983225D02*
X279522884Y-123761225D01*
X279522884Y-111061225D02*
X279522884Y-112839225D01*
X277744884Y-111061225D02*
X279522884Y-111061225D01*
X266822884Y-111061225D02*
X268600884Y-111061225D01*
%TO.C,K59*%
X278740322Y-74754519D02*
X278740322Y-72976519D01*
X278740322Y-85676519D02*
X278740322Y-83898519D01*
X280518322Y-85676519D02*
X278740322Y-85676519D01*
X291440322Y-85676519D02*
X289662322Y-85676519D01*
X291440322Y-83898519D02*
X291440322Y-85676519D01*
X291440322Y-72976519D02*
X291440322Y-74754519D01*
X289662322Y-72976519D02*
X291440322Y-72976519D01*
X278740322Y-72976519D02*
X280518322Y-72976519D01*
%TO.C,K58*%
X273982962Y-55684913D02*
X273982962Y-53906913D01*
X273982962Y-66606913D02*
X273982962Y-64828913D01*
X275760962Y-66606913D02*
X273982962Y-66606913D01*
X286682962Y-66606913D02*
X284904962Y-66606913D01*
X286682962Y-64828913D02*
X286682962Y-66606913D01*
X286682962Y-53906913D02*
X286682962Y-55684913D01*
X284904962Y-53906913D02*
X286682962Y-53906913D01*
X273982962Y-53906913D02*
X275760962Y-53906913D01*
%TO.C,K57*%
X257307779Y-131889850D02*
X257307779Y-130111850D01*
X257307779Y-142811850D02*
X257307779Y-141033850D01*
X259085779Y-142811850D02*
X257307779Y-142811850D01*
X270007779Y-142811850D02*
X268229779Y-142811850D01*
X270007779Y-141033850D02*
X270007779Y-142811850D01*
X270007779Y-130111850D02*
X270007779Y-131889850D01*
X268229779Y-130111850D02*
X270007779Y-130111850D01*
X257307779Y-130111850D02*
X259085779Y-130111850D01*
%TO.C,K56*%
X271599234Y-93787456D02*
X271599234Y-92009456D01*
X271599234Y-104709456D02*
X271599234Y-102931456D01*
X273377234Y-104709456D02*
X271599234Y-104709456D01*
X284299234Y-104709456D02*
X282521234Y-104709456D01*
X284299234Y-102931456D02*
X284299234Y-104709456D01*
X284299234Y-92009456D02*
X284299234Y-93787456D01*
X282521234Y-92009456D02*
X284299234Y-92009456D01*
X271599234Y-92009456D02*
X273377234Y-92009456D01*
%TO.C,K55*%
X254916592Y-74736073D02*
X254916592Y-72958073D01*
X254916592Y-85658073D02*
X254916592Y-83880073D01*
X256694592Y-85658073D02*
X254916592Y-85658073D01*
X267616592Y-85658073D02*
X265838592Y-85658073D01*
X267616592Y-83880073D02*
X267616592Y-85658073D01*
X267616592Y-72958073D02*
X267616592Y-74736073D01*
X265838592Y-72958073D02*
X267616592Y-72958073D01*
X254916592Y-72958073D02*
X256694592Y-72958073D01*
%TO.C,K54*%
X245398920Y-55700697D02*
X245398920Y-53922697D01*
X245398920Y-66622697D02*
X245398920Y-64844697D01*
X247176920Y-66622697D02*
X245398920Y-66622697D01*
X258098920Y-66622697D02*
X256320920Y-66622697D01*
X258098920Y-64844697D02*
X258098920Y-66622697D01*
X258098920Y-53922697D02*
X258098920Y-55700697D01*
X256320920Y-53922697D02*
X258098920Y-53922697D01*
X245398920Y-53922697D02*
X247176920Y-53922697D01*
%TO.C,K53*%
X233492857Y-131888581D02*
X233492857Y-130110581D01*
X233492857Y-142810581D02*
X233492857Y-141032581D01*
X235270857Y-142810581D02*
X233492857Y-142810581D01*
X246192857Y-142810581D02*
X244414857Y-142810581D01*
X246192857Y-141032581D02*
X246192857Y-142810581D01*
X246192857Y-130110581D02*
X246192857Y-131888581D01*
X244414857Y-130110581D02*
X246192857Y-130110581D01*
X233492857Y-130110581D02*
X235270857Y-130110581D01*
%TO.C,K52*%
X231115431Y-112838163D02*
X231115431Y-111060163D01*
X231115431Y-123760163D02*
X231115431Y-121982163D01*
X232893431Y-123760163D02*
X231115431Y-123760163D01*
X243815431Y-123760163D02*
X242037431Y-123760163D01*
X243815431Y-121982163D02*
X243815431Y-123760163D01*
X243815431Y-111060163D02*
X243815431Y-112838163D01*
X242037431Y-111060163D02*
X243815431Y-111060163D01*
X231115431Y-111060163D02*
X232893431Y-111060163D01*
%TO.C,K51*%
X240640274Y-93798137D02*
X240640274Y-92020137D01*
X240640274Y-104720137D02*
X240640274Y-102942137D01*
X242418274Y-104720137D02*
X240640274Y-104720137D01*
X253340274Y-104720137D02*
X251562274Y-104720137D01*
X253340274Y-102942137D02*
X253340274Y-104720137D01*
X253340274Y-92020137D02*
X253340274Y-93798137D01*
X251562274Y-92020137D02*
X253340274Y-92020137D01*
X240640274Y-92020137D02*
X242418274Y-92020137D01*
%TO.C,K50*%
X235867723Y-74744026D02*
X235867723Y-72966026D01*
X235867723Y-85666026D02*
X235867723Y-83888026D01*
X237645723Y-85666026D02*
X235867723Y-85666026D01*
X248567723Y-85666026D02*
X246789723Y-85666026D01*
X248567723Y-83888026D02*
X248567723Y-85666026D01*
X248567723Y-72966026D02*
X248567723Y-74744026D01*
X246789723Y-72966026D02*
X248567723Y-72966026D01*
X235867723Y-72966026D02*
X237645723Y-72966026D01*
%TO.C,K49*%
X226325659Y-55683380D02*
X226325659Y-53905380D01*
X226325659Y-66605380D02*
X226325659Y-64827380D01*
X228103659Y-66605380D02*
X226325659Y-66605380D01*
X239025659Y-66605380D02*
X237247659Y-66605380D01*
X239025659Y-64827380D02*
X239025659Y-66605380D01*
X239025659Y-53905380D02*
X239025659Y-55683380D01*
X237247659Y-53905380D02*
X239025659Y-53905380D01*
X226325659Y-53905380D02*
X228103659Y-53905380D01*
%TO.C,K48*%
X209698651Y-131894201D02*
X209698651Y-130116201D01*
X209698651Y-142816201D02*
X209698651Y-141038201D01*
X211476651Y-142816201D02*
X209698651Y-142816201D01*
X222398651Y-142816201D02*
X220620651Y-142816201D01*
X222398651Y-141038201D02*
X222398651Y-142816201D01*
X222398651Y-130116201D02*
X222398651Y-131894201D01*
X220620651Y-130116201D02*
X222398651Y-130116201D01*
X209698651Y-130116201D02*
X211476651Y-130116201D01*
%TO.C,K47*%
X212057664Y-112843560D02*
X212057664Y-111065560D01*
X212057664Y-123765560D02*
X212057664Y-121987560D01*
X213835664Y-123765560D02*
X212057664Y-123765560D01*
X224757664Y-123765560D02*
X222979664Y-123765560D01*
X224757664Y-121987560D02*
X224757664Y-123765560D01*
X224757664Y-111065560D02*
X224757664Y-112843560D01*
X222979664Y-111065560D02*
X224757664Y-111065560D01*
X212057664Y-111065560D02*
X213835664Y-111065560D01*
%TO.C,K46*%
X221588897Y-93794768D02*
X221588897Y-92016768D01*
X221588897Y-104716768D02*
X221588897Y-102938768D01*
X223366897Y-104716768D02*
X221588897Y-104716768D01*
X234288897Y-104716768D02*
X232510897Y-104716768D01*
X234288897Y-102938768D02*
X234288897Y-104716768D01*
X234288897Y-92016768D02*
X234288897Y-93794768D01*
X232510897Y-92016768D02*
X234288897Y-92016768D01*
X221588897Y-92016768D02*
X223366897Y-92016768D01*
%TO.C,K45*%
X216831812Y-74740101D02*
X216831812Y-72962101D01*
X216831812Y-85662101D02*
X216831812Y-83884101D01*
X218609812Y-85662101D02*
X216831812Y-85662101D01*
X229531812Y-85662101D02*
X227753812Y-85662101D01*
X229531812Y-83884101D02*
X229531812Y-85662101D01*
X229531812Y-72962101D02*
X229531812Y-74740101D01*
X227753812Y-72962101D02*
X229531812Y-72962101D01*
X216831812Y-72962101D02*
X218609812Y-72962101D01*
%TO.C,K44*%
X207296195Y-55686534D02*
X207296195Y-53908534D01*
X207296195Y-66608534D02*
X207296195Y-64830534D01*
X209074195Y-66608534D02*
X207296195Y-66608534D01*
X219996195Y-66608534D02*
X218218195Y-66608534D01*
X219996195Y-64830534D02*
X219996195Y-66608534D01*
X219996195Y-53908534D02*
X219996195Y-55686534D01*
X218218195Y-53908534D02*
X219996195Y-53908534D01*
X207296195Y-53908534D02*
X209074195Y-53908534D01*
%TO.C,K43*%
X193030818Y-112844317D02*
X193030818Y-111066317D01*
X193030818Y-123766317D02*
X193030818Y-121988317D01*
X194808818Y-123766317D02*
X193030818Y-123766317D01*
X205730818Y-123766317D02*
X203952818Y-123766317D01*
X205730818Y-121988317D02*
X205730818Y-123766317D01*
X205730818Y-111066317D02*
X205730818Y-112844317D01*
X203952818Y-111066317D02*
X205730818Y-111066317D01*
X193030818Y-111066317D02*
X194808818Y-111066317D01*
%TO.C,K42*%
X202550811Y-93785204D02*
X202550811Y-92007204D01*
X202550811Y-104707204D02*
X202550811Y-102929204D01*
X204328811Y-104707204D02*
X202550811Y-104707204D01*
X215250811Y-104707204D02*
X213472811Y-104707204D01*
X215250811Y-102929204D02*
X215250811Y-104707204D01*
X215250811Y-92007204D02*
X215250811Y-93785204D01*
X213472811Y-92007204D02*
X215250811Y-92007204D01*
X202550811Y-92007204D02*
X204328811Y-92007204D01*
%TO.C,K41*%
X197788662Y-74741511D02*
X197788662Y-72963511D01*
X197788662Y-85663511D02*
X197788662Y-83885511D01*
X199566662Y-85663511D02*
X197788662Y-85663511D01*
X210488662Y-85663511D02*
X208710662Y-85663511D01*
X210488662Y-83885511D02*
X210488662Y-85663511D01*
X210488662Y-72963511D02*
X210488662Y-74741511D01*
X208710662Y-72963511D02*
X210488662Y-72963511D01*
X197788662Y-72963511D02*
X199566662Y-72963511D01*
%TO.C,K40*%
X188250902Y-55689928D02*
X188250902Y-53911928D01*
X188250902Y-66611928D02*
X188250902Y-64833928D01*
X190028902Y-66611928D02*
X188250902Y-66611928D01*
X200950902Y-66611928D02*
X199172902Y-66611928D01*
X200950902Y-64833928D02*
X200950902Y-66611928D01*
X200950902Y-53911928D02*
X200950902Y-55689928D01*
X199172902Y-53911928D02*
X200950902Y-53911928D01*
X188250902Y-53911928D02*
X190028902Y-53911928D01*
%TO.C,K39*%
X173968450Y-112840825D02*
X173968450Y-111062825D01*
X173968450Y-123762825D02*
X173968450Y-121984825D01*
X175746450Y-123762825D02*
X173968450Y-123762825D01*
X186668450Y-123762825D02*
X184890450Y-123762825D01*
X186668450Y-121984825D02*
X186668450Y-123762825D01*
X186668450Y-111062825D02*
X186668450Y-112840825D01*
X184890450Y-111062825D02*
X186668450Y-111062825D01*
X173968450Y-111062825D02*
X175746450Y-111062825D01*
%TO.C,K38*%
X183495099Y-93765174D02*
X183495099Y-91987174D01*
X183495099Y-104687174D02*
X183495099Y-102909174D01*
X185273099Y-104687174D02*
X183495099Y-104687174D01*
X196195099Y-104687174D02*
X194417099Y-104687174D01*
X196195099Y-102909174D02*
X196195099Y-104687174D01*
X196195099Y-91987174D02*
X196195099Y-93765174D01*
X194417099Y-91987174D02*
X196195099Y-91987174D01*
X183495099Y-91987174D02*
X185273099Y-91987174D01*
%TO.C,K37*%
X178740256Y-74747343D02*
X178740256Y-72969343D01*
X178740256Y-85669343D02*
X178740256Y-83891343D01*
X180518256Y-85669343D02*
X178740256Y-85669343D01*
X191440256Y-85669343D02*
X189662256Y-85669343D01*
X191440256Y-83891343D02*
X191440256Y-85669343D01*
X191440256Y-72969343D02*
X191440256Y-74747343D01*
X189662256Y-72969343D02*
X191440256Y-72969343D01*
X178740256Y-72969343D02*
X180518256Y-72969343D01*
%TO.C,K36*%
X169202833Y-55697812D02*
X169202833Y-53919812D01*
X169202833Y-66619812D02*
X169202833Y-64841812D01*
X170980833Y-66619812D02*
X169202833Y-66619812D01*
X181902833Y-66619812D02*
X180124833Y-66619812D01*
X181902833Y-64841812D02*
X181902833Y-66619812D01*
X181902833Y-53919812D02*
X181902833Y-55697812D01*
X180124833Y-53919812D02*
X181902833Y-53919812D01*
X169202833Y-53919812D02*
X170980833Y-53919812D01*
%TO.C,K35*%
X154929615Y-112827022D02*
X154929615Y-111049022D01*
X154929615Y-123749022D02*
X154929615Y-121971022D01*
X156707615Y-123749022D02*
X154929615Y-123749022D01*
X167629615Y-123749022D02*
X165851615Y-123749022D01*
X167629615Y-121971022D02*
X167629615Y-123749022D01*
X167629615Y-111049022D02*
X167629615Y-112827022D01*
X165851615Y-111049022D02*
X167629615Y-111049022D01*
X154929615Y-111049022D02*
X156707615Y-111049022D01*
%TO.C,K34*%
X164444588Y-93786654D02*
X164444588Y-92008654D01*
X164444588Y-104708654D02*
X164444588Y-102930654D01*
X166222588Y-104708654D02*
X164444588Y-104708654D01*
X177144588Y-104708654D02*
X175366588Y-104708654D01*
X177144588Y-102930654D02*
X177144588Y-104708654D01*
X177144588Y-92008654D02*
X177144588Y-93786654D01*
X175366588Y-92008654D02*
X177144588Y-92008654D01*
X164444588Y-92008654D02*
X166222588Y-92008654D01*
%TO.C,K33*%
X159687730Y-74730596D02*
X159687730Y-72952596D01*
X159687730Y-85652596D02*
X159687730Y-83874596D01*
X161465730Y-85652596D02*
X159687730Y-85652596D01*
X172387730Y-85652596D02*
X170609730Y-85652596D01*
X172387730Y-83874596D02*
X172387730Y-85652596D01*
X172387730Y-72952596D02*
X172387730Y-74730596D01*
X170609730Y-72952596D02*
X172387730Y-72952596D01*
X159687730Y-72952596D02*
X161465730Y-72952596D01*
%TO.C,K32*%
X150149721Y-55687514D02*
X150149721Y-53909514D01*
X150149721Y-66609514D02*
X150149721Y-64831514D01*
X151927721Y-66609514D02*
X150149721Y-66609514D01*
X162849721Y-66609514D02*
X161071721Y-66609514D01*
X162849721Y-64831514D02*
X162849721Y-66609514D01*
X162849721Y-53909514D02*
X162849721Y-55687514D01*
X161071721Y-53909514D02*
X162849721Y-53909514D01*
X150149721Y-53909514D02*
X151927721Y-53909514D01*
%TO.C,K30*%
X135875436Y-112840658D02*
X135875436Y-111062658D01*
X135875436Y-123762658D02*
X135875436Y-121984658D01*
X137653436Y-123762658D02*
X135875436Y-123762658D01*
X148575436Y-123762658D02*
X146797436Y-123762658D01*
X148575436Y-121984658D02*
X148575436Y-123762658D01*
X148575436Y-111062658D02*
X148575436Y-112840658D01*
X146797436Y-111062658D02*
X148575436Y-111062658D01*
X135875436Y-111062658D02*
X137653436Y-111062658D01*
%TO.C,K29*%
X145392860Y-93787481D02*
X145392860Y-92009481D01*
X145392860Y-104709481D02*
X145392860Y-102931481D01*
X147170860Y-104709481D02*
X145392860Y-104709481D01*
X158092860Y-104709481D02*
X156314860Y-104709481D01*
X158092860Y-102931481D02*
X158092860Y-104709481D01*
X158092860Y-92009481D02*
X158092860Y-93787481D01*
X156314860Y-92009481D02*
X158092860Y-92009481D01*
X145392860Y-92009481D02*
X147170860Y-92009481D01*
%TO.C,K28*%
X140624181Y-74740813D02*
X140624181Y-72962813D01*
X140624181Y-85662813D02*
X140624181Y-83884813D01*
X142402181Y-85662813D02*
X140624181Y-85662813D01*
X153324181Y-85662813D02*
X151546181Y-85662813D01*
X153324181Y-83884813D02*
X153324181Y-85662813D01*
X153324181Y-72962813D02*
X153324181Y-74740813D01*
X151546181Y-72962813D02*
X153324181Y-72962813D01*
X140624181Y-72962813D02*
X142402181Y-72962813D01*
%TO.C,K27*%
X131109433Y-55686258D02*
X131109433Y-53908258D01*
X131109433Y-66608258D02*
X131109433Y-64830258D01*
X132887433Y-66608258D02*
X131109433Y-66608258D01*
X143809433Y-66608258D02*
X142031433Y-66608258D01*
X143809433Y-64830258D02*
X143809433Y-66608258D01*
X143809433Y-53908258D02*
X143809433Y-55686258D01*
X142031433Y-53908258D02*
X143809433Y-53908258D01*
X131109433Y-53908258D02*
X132887433Y-53908258D01*
%TO.C,K26*%
X116816506Y-112826637D02*
X116816506Y-111048637D01*
X116816506Y-123748637D02*
X116816506Y-121970637D01*
X118594506Y-123748637D02*
X116816506Y-123748637D01*
X129516506Y-123748637D02*
X127738506Y-123748637D01*
X129516506Y-121970637D02*
X129516506Y-123748637D01*
X129516506Y-111048637D02*
X129516506Y-112826637D01*
X127738506Y-111048637D02*
X129516506Y-111048637D01*
X116816506Y-111048637D02*
X118594506Y-111048637D01*
%TO.C,K25*%
X126338034Y-93780833D02*
X126338034Y-92002833D01*
X126338034Y-104702833D02*
X126338034Y-102924833D01*
X128116034Y-104702833D02*
X126338034Y-104702833D01*
X139038034Y-104702833D02*
X137260034Y-104702833D01*
X139038034Y-102924833D02*
X139038034Y-104702833D01*
X139038034Y-92002833D02*
X139038034Y-93780833D01*
X137260034Y-92002833D02*
X139038034Y-92002833D01*
X126338034Y-92002833D02*
X128116034Y-92002833D01*
%TO.C,K24*%
X121594503Y-74735574D02*
X121594503Y-72957574D01*
X121594503Y-85657574D02*
X121594503Y-83879574D01*
X123372503Y-85657574D02*
X121594503Y-85657574D01*
X134294503Y-85657574D02*
X132516503Y-85657574D01*
X134294503Y-83879574D02*
X134294503Y-85657574D01*
X134294503Y-72957574D02*
X134294503Y-74735574D01*
X132516503Y-72957574D02*
X134294503Y-72957574D01*
X121594503Y-72957574D02*
X123372503Y-72957574D01*
%TO.C,K23*%
X112060888Y-55686152D02*
X112060888Y-53908152D01*
X112060888Y-66608152D02*
X112060888Y-64830152D01*
X113838888Y-66608152D02*
X112060888Y-66608152D01*
X124760888Y-66608152D02*
X122982888Y-66608152D01*
X124760888Y-64830152D02*
X124760888Y-66608152D01*
X124760888Y-53908152D02*
X124760888Y-55686152D01*
X122982888Y-53908152D02*
X124760888Y-53908152D01*
X112060888Y-53908152D02*
X113838888Y-53908152D01*
%TO.C,K22*%
X97772423Y-112833437D02*
X97772423Y-111055437D01*
X97772423Y-123755437D02*
X97772423Y-121977437D01*
X99550423Y-123755437D02*
X97772423Y-123755437D01*
X110472423Y-123755437D02*
X108694423Y-123755437D01*
X110472423Y-121977437D02*
X110472423Y-123755437D01*
X110472423Y-111055437D02*
X110472423Y-112833437D01*
X108694423Y-111055437D02*
X110472423Y-111055437D01*
X97772423Y-111055437D02*
X99550423Y-111055437D01*
%TO.C,K21*%
X107284694Y-93789736D02*
X107284694Y-92011736D01*
X107284694Y-104711736D02*
X107284694Y-102933736D01*
X109062694Y-104711736D02*
X107284694Y-104711736D01*
X119984694Y-104711736D02*
X118206694Y-104711736D01*
X119984694Y-102933736D02*
X119984694Y-104711736D01*
X119984694Y-92011736D02*
X119984694Y-93789736D01*
X118206694Y-92011736D02*
X119984694Y-92011736D01*
X107284694Y-92011736D02*
X109062694Y-92011736D01*
%TO.C,K20*%
X102546062Y-74739094D02*
X102546062Y-72961094D01*
X102546062Y-85661094D02*
X102546062Y-83883094D01*
X104324062Y-85661094D02*
X102546062Y-85661094D01*
X115246062Y-85661094D02*
X113468062Y-85661094D01*
X115246062Y-83883094D02*
X115246062Y-85661094D01*
X115246062Y-72961094D02*
X115246062Y-74739094D01*
X113468062Y-72961094D02*
X115246062Y-72961094D01*
X102546062Y-72961094D02*
X104324062Y-72961094D01*
%TO.C,K19*%
X92993848Y-55711461D02*
X92993848Y-53933461D01*
X92993848Y-66633461D02*
X92993848Y-64855461D01*
X94771848Y-66633461D02*
X92993848Y-66633461D01*
X105693848Y-66633461D02*
X103915848Y-66633461D01*
X105693848Y-64855461D02*
X105693848Y-66633461D01*
X105693848Y-53933461D02*
X105693848Y-55711461D01*
X103915848Y-53933461D02*
X105693848Y-53933461D01*
X92993848Y-53933461D02*
X94771848Y-53933461D01*
%TO.C,K18*%
X78727874Y-112830103D02*
X78727874Y-111052103D01*
X78727874Y-123752103D02*
X78727874Y-121974103D01*
X80505874Y-123752103D02*
X78727874Y-123752103D01*
X91427874Y-123752103D02*
X89649874Y-123752103D01*
X91427874Y-121974103D02*
X91427874Y-123752103D01*
X91427874Y-111052103D02*
X91427874Y-112830103D01*
X89649874Y-111052103D02*
X91427874Y-111052103D01*
X78727874Y-111052103D02*
X80505874Y-111052103D01*
%TO.C,K17*%
X88240365Y-93805360D02*
X88240365Y-92027360D01*
X88240365Y-104727360D02*
X88240365Y-102949360D01*
X90018365Y-104727360D02*
X88240365Y-104727360D01*
X100940365Y-104727360D02*
X99162365Y-104727360D01*
X100940365Y-102949360D02*
X100940365Y-104727360D01*
X100940365Y-92027360D02*
X100940365Y-93805360D01*
X99162365Y-92027360D02*
X100940365Y-92027360D01*
X88240365Y-92027360D02*
X90018365Y-92027360D01*
%TO.C,K16*%
X83481612Y-74746010D02*
X83481612Y-72968010D01*
X83481612Y-85668010D02*
X83481612Y-83890010D01*
X85259612Y-85668010D02*
X83481612Y-85668010D01*
X96181612Y-85668010D02*
X94403612Y-85668010D01*
X96181612Y-83890010D02*
X96181612Y-85668010D01*
X96181612Y-72968010D02*
X96181612Y-74746010D01*
X94403612Y-72968010D02*
X96181612Y-72968010D01*
X83481612Y-72968010D02*
X85259612Y-72968010D01*
%TO.C,K15*%
X73956664Y-55687223D02*
X73956664Y-53909223D01*
X73956664Y-66609223D02*
X73956664Y-64831223D01*
X75734664Y-66609223D02*
X73956664Y-66609223D01*
X86656664Y-66609223D02*
X84878664Y-66609223D01*
X86656664Y-64831223D02*
X86656664Y-66609223D01*
X86656664Y-53909223D02*
X86656664Y-55687223D01*
X84878664Y-53909223D02*
X86656664Y-53909223D01*
X73956664Y-53909223D02*
X75734664Y-53909223D01*
%TO.C,K14*%
X66813225Y-131889914D02*
X66813225Y-130111914D01*
X66813225Y-142811914D02*
X66813225Y-141033914D01*
X68591225Y-142811914D02*
X66813225Y-142811914D01*
X79513225Y-142811914D02*
X77735225Y-142811914D01*
X79513225Y-141033914D02*
X79513225Y-142811914D01*
X79513225Y-130111914D02*
X79513225Y-131889914D01*
X77735225Y-130111914D02*
X79513225Y-130111914D01*
X66813225Y-130111914D02*
X68591225Y-130111914D01*
%TO.C,K13*%
X59676343Y-112843122D02*
X59676343Y-111065122D01*
X59676343Y-123765122D02*
X59676343Y-121987122D01*
X61454343Y-123765122D02*
X59676343Y-123765122D01*
X72376343Y-123765122D02*
X70598343Y-123765122D01*
X72376343Y-121987122D02*
X72376343Y-123765122D01*
X72376343Y-111065122D02*
X72376343Y-112843122D01*
X70598343Y-111065122D02*
X72376343Y-111065122D01*
X59676343Y-111065122D02*
X61454343Y-111065122D01*
%TO.C,K12*%
X69194958Y-93793229D02*
X69194958Y-92015229D01*
X69194958Y-104715229D02*
X69194958Y-102937229D01*
X70972958Y-104715229D02*
X69194958Y-104715229D01*
X81894958Y-104715229D02*
X80116958Y-104715229D01*
X81894958Y-102937229D02*
X81894958Y-104715229D01*
X81894958Y-92015229D02*
X81894958Y-93793229D01*
X80116958Y-92015229D02*
X81894958Y-92015229D01*
X69194958Y-92015229D02*
X70972958Y-92015229D01*
%TO.C,K11*%
X64447549Y-74749324D02*
X64447549Y-72971324D01*
X64447549Y-85671324D02*
X64447549Y-83893324D01*
X66225549Y-85671324D02*
X64447549Y-85671324D01*
X77147549Y-85671324D02*
X75369549Y-85671324D01*
X77147549Y-83893324D02*
X77147549Y-85671324D01*
X77147549Y-72971324D02*
X77147549Y-74749324D01*
X75369549Y-72971324D02*
X77147549Y-72971324D01*
X64447549Y-72971324D02*
X66225549Y-72971324D01*
%TO.C,K10*%
X54895000Y-55698000D02*
X54895000Y-53920000D01*
X54895000Y-66620000D02*
X54895000Y-64842000D01*
X56673000Y-66620000D02*
X54895000Y-66620000D01*
X67595000Y-66620000D02*
X65817000Y-66620000D01*
X67595000Y-64842000D02*
X67595000Y-66620000D01*
X67595000Y-53920000D02*
X67595000Y-55698000D01*
X65817000Y-53920000D02*
X67595000Y-53920000D01*
X54895000Y-53920000D02*
X56673000Y-53920000D01*
%TO.C,K9*%
X43016000Y-131876124D02*
X43016000Y-130098124D01*
X43016000Y-142798124D02*
X43016000Y-141020124D01*
X44794000Y-142798124D02*
X43016000Y-142798124D01*
X55716000Y-142798124D02*
X53938000Y-142798124D01*
X55716000Y-141020124D02*
X55716000Y-142798124D01*
X55716000Y-130098124D02*
X55716000Y-131876124D01*
X53938000Y-130098124D02*
X55716000Y-130098124D01*
X43016000Y-130098124D02*
X44794000Y-130098124D01*
%TO.C,K8*%
X50136460Y-93804370D02*
X50136460Y-92026370D01*
X50136460Y-104726370D02*
X50136460Y-102948370D01*
X51914460Y-104726370D02*
X50136460Y-104726370D01*
X62836460Y-104726370D02*
X61058460Y-104726370D01*
X62836460Y-102948370D02*
X62836460Y-104726370D01*
X62836460Y-92026370D02*
X62836460Y-93804370D01*
X61058460Y-92026370D02*
X62836460Y-92026370D01*
X50136460Y-92026370D02*
X51914460Y-92026370D01*
%TO.C,K7*%
X45368300Y-74749324D02*
X45368300Y-72971324D01*
X45368300Y-85671324D02*
X45368300Y-83893324D01*
X47146300Y-85671324D02*
X45368300Y-85671324D01*
X58068300Y-85671324D02*
X56290300Y-85671324D01*
X58068300Y-83893324D02*
X58068300Y-85671324D01*
X58068300Y-72971324D02*
X58068300Y-74749324D01*
X56290300Y-72971324D02*
X58068300Y-72971324D01*
X45368300Y-72971324D02*
X47146300Y-72971324D01*
%TO.C,K6*%
X36143604Y-55697634D02*
X36143604Y-53919634D01*
X36143604Y-66619634D02*
X36143604Y-64841634D01*
X37921604Y-66619634D02*
X36143604Y-66619634D01*
X48843604Y-66619634D02*
X47065604Y-66619634D01*
X48843604Y-64841634D02*
X48843604Y-66619634D01*
X48843604Y-53919634D02*
X48843604Y-55697634D01*
X47065604Y-53919634D02*
X48843604Y-53919634D01*
X36143604Y-53919634D02*
X37921604Y-53919634D01*
%TO.C,K3*%
X23940403Y-93783873D02*
X23940403Y-92005873D01*
X23940403Y-104705873D02*
X23940403Y-102927873D01*
X25718403Y-104705873D02*
X23940403Y-104705873D01*
X36640403Y-104705873D02*
X34862403Y-104705873D01*
X36640403Y-102927873D02*
X36640403Y-104705873D01*
X36640403Y-92005873D02*
X36640403Y-93783873D01*
X34862403Y-92005873D02*
X36640403Y-92005873D01*
X23940403Y-92005873D02*
X25718403Y-92005873D01*
%TO.C,K2*%
X21561944Y-74735378D02*
X21561944Y-72957378D01*
X21561944Y-85657378D02*
X21561944Y-83879378D01*
X23339944Y-85657378D02*
X21561944Y-85657378D01*
X34261944Y-85657378D02*
X32483944Y-85657378D01*
X34261944Y-83879378D02*
X34261944Y-85657378D01*
X34261944Y-72957378D02*
X34261944Y-74735378D01*
X32483944Y-72957378D02*
X34261944Y-72957378D01*
X21561944Y-72957378D02*
X23339944Y-72957378D01*
%TO.C,K1*%
X16817447Y-55691758D02*
X16817447Y-53913758D01*
X16817447Y-66613758D02*
X16817447Y-64835758D01*
X18595447Y-66613758D02*
X16817447Y-66613758D01*
X29517447Y-66613758D02*
X27739447Y-66613758D01*
X29517447Y-64835758D02*
X29517447Y-66613758D01*
X29517447Y-53913758D02*
X29517447Y-55691758D01*
X27739447Y-53913758D02*
X29517447Y-53913758D01*
X16817447Y-53913758D02*
X18595447Y-53913758D01*
%TD*%
M02*
