%TF.GenerationSoftware,KiCad,Pcbnew,(5.1.10)-1*%
%TF.CreationDate,2022-03-05T23:42:07-05:00*%
%TF.ProjectId,Keebrov2,4b656562-726f-4763-922e-6b696361645f,rev?*%
%TF.SameCoordinates,Original*%
%TF.FileFunction,Soldermask,Top*%
%TF.FilePolarity,Negative*%
%FSLAX46Y46*%
G04 Gerber Fmt 4.6, Leading zero omitted, Abs format (unit mm)*
G04 Created by KiCad (PCBNEW (5.1.10)-1) date 2022-03-05 23:42:07*
%MOMM*%
%LPD*%
G01*
G04 APERTURE LIST*
%ADD10C,3.987800*%
%ADD11C,3.048000*%
%ADD12C,1.701800*%
%ADD13O,1.500000X4.000000*%
%ADD14C,1.600000*%
%ADD15R,1.600000X1.600000*%
G04 APERTURE END LIST*
%TO.C,K4*%
G36*
G01*
X36321621Y-112824984D02*
X36361069Y-112246328D01*
G75*
G02*
X37693193Y-111084242I1247105J-85019D01*
G01*
X37693193Y-111084242D01*
G75*
G02*
X38855279Y-112416366I-85019J-1247105D01*
G01*
X38815831Y-112995022D01*
G75*
G02*
X37483707Y-114157108I-1247105J85019D01*
G01*
X37483707Y-114157108D01*
G75*
G02*
X36321621Y-112824984I85019J1247105D01*
G01*
G37*
G36*
G01*
X30154749Y-114167865D02*
X31363673Y-112270235D01*
G75*
G02*
X33089537Y-111887621I1054239J-671625D01*
G01*
X33089537Y-111887621D01*
G75*
G02*
X33472151Y-113613485I-671625J-1054239D01*
G01*
X32263227Y-115511115D01*
G75*
G02*
X30537363Y-115893729I-1054239J671625D01*
G01*
X30537363Y-115893729D01*
G75*
G02*
X30154749Y-114167865I671625J1054239D01*
G01*
G37*
D10*
X47006450Y-125665675D03*
X23130450Y-125665675D03*
D11*
X47006450Y-110425675D03*
X23130450Y-110425675D03*
D12*
X40148450Y-117410675D03*
X29988450Y-117410675D03*
D10*
X35068450Y-117410675D03*
%TD*%
%TO.C,K31*%
G36*
G01*
X145846118Y-131877497D02*
X145885566Y-131298841D01*
G75*
G02*
X147217690Y-130136755I1247105J-85019D01*
G01*
X147217690Y-130136755D01*
G75*
G02*
X148379776Y-131468879I-85019J-1247105D01*
G01*
X148340328Y-132047535D01*
G75*
G02*
X147008204Y-133209621I-1247105J85019D01*
G01*
X147008204Y-133209621D01*
G75*
G02*
X145846118Y-131877497I85019J1247105D01*
G01*
G37*
G36*
G01*
X139679246Y-133220378D02*
X140888170Y-131322748D01*
G75*
G02*
X142614034Y-130940134I1054239J-671625D01*
G01*
X142614034Y-130940134D01*
G75*
G02*
X142996648Y-132665998I-671625J-1054239D01*
G01*
X141787724Y-134563628D01*
G75*
G02*
X140061860Y-134946242I-1054239J671625D01*
G01*
X140061860Y-134946242D01*
G75*
G02*
X139679246Y-133220378I671625J1054239D01*
G01*
G37*
X194630947Y-144718188D03*
X94554947Y-144718188D03*
D11*
X194630947Y-129478188D03*
X94554947Y-129478188D03*
D12*
X149672947Y-136463188D03*
X139512947Y-136463188D03*
D10*
X144592947Y-136463188D03*
%TD*%
%TO.C,K5*%
G36*
G01*
X26779990Y-131860743D02*
X26819438Y-131282087D01*
G75*
G02*
X28151562Y-130120001I1247105J-85019D01*
G01*
X28151562Y-130120001D01*
G75*
G02*
X29313648Y-131452125I-85019J-1247105D01*
G01*
X29274200Y-132030781D01*
G75*
G02*
X27942076Y-133192867I-1247105J85019D01*
G01*
X27942076Y-133192867D01*
G75*
G02*
X26779990Y-131860743I85019J1247105D01*
G01*
G37*
G36*
G01*
X20613118Y-133203624D02*
X21822042Y-131305994D01*
G75*
G02*
X23547906Y-130923380I1054239J-671625D01*
G01*
X23547906Y-130923380D01*
G75*
G02*
X23930520Y-132649244I-671625J-1054239D01*
G01*
X22721596Y-134546874D01*
G75*
G02*
X20995732Y-134929488I-1054239J671625D01*
G01*
X20995732Y-134929488D01*
G75*
G02*
X20613118Y-133203624I671625J1054239D01*
G01*
G37*
D12*
X30606819Y-136446434D03*
X20446819Y-136446434D03*
D10*
X25526819Y-136446434D03*
%TD*%
%TO.C,K61*%
G36*
G01*
X288711125Y-131861160D02*
X288750573Y-131282504D01*
G75*
G02*
X290082697Y-130120418I1247105J-85019D01*
G01*
X290082697Y-130120418D01*
G75*
G02*
X291244783Y-131452542I-85019J-1247105D01*
G01*
X291205335Y-132031198D01*
G75*
G02*
X289873211Y-133193284I-1247105J85019D01*
G01*
X289873211Y-133193284D01*
G75*
G02*
X288711125Y-131861160I85019J1247105D01*
G01*
G37*
G36*
G01*
X282544253Y-133204041D02*
X283753177Y-131306411D01*
G75*
G02*
X285479041Y-130923797I1054239J-671625D01*
G01*
X285479041Y-130923797D01*
G75*
G02*
X285861655Y-132649661I-671625J-1054239D01*
G01*
X284652731Y-134547291D01*
G75*
G02*
X282926867Y-134929905I-1054239J671625D01*
G01*
X282926867Y-134929905D01*
G75*
G02*
X282544253Y-133204041I671625J1054239D01*
G01*
G37*
D12*
X292537954Y-136446851D03*
X282377954Y-136446851D03*
D10*
X287457954Y-136446851D03*
%TD*%
%TO.C,K60*%
G36*
G01*
X274426055Y-112825534D02*
X274465503Y-112246878D01*
G75*
G02*
X275797627Y-111084792I1247105J-85019D01*
G01*
X275797627Y-111084792D01*
G75*
G02*
X276959713Y-112416916I-85019J-1247105D01*
G01*
X276920265Y-112995572D01*
G75*
G02*
X275588141Y-114157658I-1247105J85019D01*
G01*
X275588141Y-114157658D01*
G75*
G02*
X274426055Y-112825534I85019J1247105D01*
G01*
G37*
G36*
G01*
X268259183Y-114168415D02*
X269468107Y-112270785D01*
G75*
G02*
X271193971Y-111888171I1054239J-671625D01*
G01*
X271193971Y-111888171D01*
G75*
G02*
X271576585Y-113614035I-671625J-1054239D01*
G01*
X270367661Y-115511665D01*
G75*
G02*
X268641797Y-115894279I-1054239J671625D01*
G01*
X268641797Y-115894279D01*
G75*
G02*
X268259183Y-114168415I671625J1054239D01*
G01*
G37*
X285110884Y-125666225D03*
X261234884Y-125666225D03*
D11*
X285110884Y-110426225D03*
X261234884Y-110426225D03*
D12*
X278252884Y-117411225D03*
X268092884Y-117411225D03*
D10*
X273172884Y-117411225D03*
%TD*%
%TO.C,K59*%
G36*
G01*
X286343493Y-74740828D02*
X286382941Y-74162172D01*
G75*
G02*
X287715065Y-73000086I1247105J-85019D01*
G01*
X287715065Y-73000086D01*
G75*
G02*
X288877151Y-74332210I-85019J-1247105D01*
G01*
X288837703Y-74910866D01*
G75*
G02*
X287505579Y-76072952I-1247105J85019D01*
G01*
X287505579Y-76072952D01*
G75*
G02*
X286343493Y-74740828I85019J1247105D01*
G01*
G37*
G36*
G01*
X280176621Y-76083709D02*
X281385545Y-74186079D01*
G75*
G02*
X283111409Y-73803465I1054239J-671625D01*
G01*
X283111409Y-73803465D01*
G75*
G02*
X283494023Y-75529329I-671625J-1054239D01*
G01*
X282285099Y-77426959D01*
G75*
G02*
X280559235Y-77809573I-1054239J671625D01*
G01*
X280559235Y-77809573D01*
G75*
G02*
X280176621Y-76083709I671625J1054239D01*
G01*
G37*
D12*
X290170322Y-79326519D03*
X280010322Y-79326519D03*
D10*
X285090322Y-79326519D03*
%TD*%
%TO.C,K58*%
G36*
G01*
X281586133Y-55671222D02*
X281625581Y-55092566D01*
G75*
G02*
X282957705Y-53930480I1247105J-85019D01*
G01*
X282957705Y-53930480D01*
G75*
G02*
X284119791Y-55262604I-85019J-1247105D01*
G01*
X284080343Y-55841260D01*
G75*
G02*
X282748219Y-57003346I-1247105J85019D01*
G01*
X282748219Y-57003346D01*
G75*
G02*
X281586133Y-55671222I85019J1247105D01*
G01*
G37*
G36*
G01*
X275419261Y-57014103D02*
X276628185Y-55116473D01*
G75*
G02*
X278354049Y-54733859I1054239J-671625D01*
G01*
X278354049Y-54733859D01*
G75*
G02*
X278736663Y-56459723I-671625J-1054239D01*
G01*
X277527739Y-58357353D01*
G75*
G02*
X275801875Y-58739967I-1054239J671625D01*
G01*
X275801875Y-58739967D01*
G75*
G02*
X275419261Y-57014103I671625J1054239D01*
G01*
G37*
X292270962Y-68511913D03*
X268394962Y-68511913D03*
D11*
X292270962Y-53271913D03*
X268394962Y-53271913D03*
D12*
X285412962Y-60256913D03*
X275252962Y-60256913D03*
D10*
X280332962Y-60256913D03*
%TD*%
%TO.C,K57*%
G36*
G01*
X264910950Y-131876159D02*
X264950398Y-131297503D01*
G75*
G02*
X266282522Y-130135417I1247105J-85019D01*
G01*
X266282522Y-130135417D01*
G75*
G02*
X267444608Y-131467541I-85019J-1247105D01*
G01*
X267405160Y-132046197D01*
G75*
G02*
X266073036Y-133208283I-1247105J85019D01*
G01*
X266073036Y-133208283D01*
G75*
G02*
X264910950Y-131876159I85019J1247105D01*
G01*
G37*
G36*
G01*
X258744078Y-133219040D02*
X259953002Y-131321410D01*
G75*
G02*
X261678866Y-130938796I1054239J-671625D01*
G01*
X261678866Y-130938796D01*
G75*
G02*
X262061480Y-132664660I-671625J-1054239D01*
G01*
X260852556Y-134562290D01*
G75*
G02*
X259126692Y-134944904I-1054239J671625D01*
G01*
X259126692Y-134944904D01*
G75*
G02*
X258744078Y-133219040I671625J1054239D01*
G01*
G37*
D12*
X268737779Y-136461850D03*
X258577779Y-136461850D03*
D10*
X263657779Y-136461850D03*
%TD*%
%TO.C,K56*%
G36*
G01*
X279202405Y-93773765D02*
X279241853Y-93195109D01*
G75*
G02*
X280573977Y-92033023I1247105J-85019D01*
G01*
X280573977Y-92033023D01*
G75*
G02*
X281736063Y-93365147I-85019J-1247105D01*
G01*
X281696615Y-93943803D01*
G75*
G02*
X280364491Y-95105889I-1247105J85019D01*
G01*
X280364491Y-95105889D01*
G75*
G02*
X279202405Y-93773765I85019J1247105D01*
G01*
G37*
G36*
G01*
X273035533Y-95116646D02*
X274244457Y-93219016D01*
G75*
G02*
X275970321Y-92836402I1054239J-671625D01*
G01*
X275970321Y-92836402D01*
G75*
G02*
X276352935Y-94562266I-671625J-1054239D01*
G01*
X275144011Y-96459896D01*
G75*
G02*
X273418147Y-96842510I-1054239J671625D01*
G01*
X273418147Y-96842510D01*
G75*
G02*
X273035533Y-95116646I671625J1054239D01*
G01*
G37*
X289887234Y-106614456D03*
X266011234Y-106614456D03*
D11*
X289887234Y-91374456D03*
X266011234Y-91374456D03*
D12*
X283029234Y-98359456D03*
X272869234Y-98359456D03*
D10*
X277949234Y-98359456D03*
%TD*%
%TO.C,K55*%
G36*
G01*
X262519763Y-74722382D02*
X262559211Y-74143726D01*
G75*
G02*
X263891335Y-72981640I1247105J-85019D01*
G01*
X263891335Y-72981640D01*
G75*
G02*
X265053421Y-74313764I-85019J-1247105D01*
G01*
X265013973Y-74892420D01*
G75*
G02*
X263681849Y-76054506I-1247105J85019D01*
G01*
X263681849Y-76054506D01*
G75*
G02*
X262519763Y-74722382I85019J1247105D01*
G01*
G37*
G36*
G01*
X256352891Y-76065263D02*
X257561815Y-74167633D01*
G75*
G02*
X259287679Y-73785019I1054239J-671625D01*
G01*
X259287679Y-73785019D01*
G75*
G02*
X259670293Y-75510883I-671625J-1054239D01*
G01*
X258461369Y-77408513D01*
G75*
G02*
X256735505Y-77791127I-1054239J671625D01*
G01*
X256735505Y-77791127D01*
G75*
G02*
X256352891Y-76065263I671625J1054239D01*
G01*
G37*
D12*
X266346592Y-79308073D03*
X256186592Y-79308073D03*
D10*
X261266592Y-79308073D03*
%TD*%
%TO.C,K54*%
G36*
G01*
X253002091Y-55687006D02*
X253041539Y-55108350D01*
G75*
G02*
X254373663Y-53946264I1247105J-85019D01*
G01*
X254373663Y-53946264D01*
G75*
G02*
X255535749Y-55278388I-85019J-1247105D01*
G01*
X255496301Y-55857044D01*
G75*
G02*
X254164177Y-57019130I-1247105J85019D01*
G01*
X254164177Y-57019130D01*
G75*
G02*
X253002091Y-55687006I85019J1247105D01*
G01*
G37*
G36*
G01*
X246835219Y-57029887D02*
X248044143Y-55132257D01*
G75*
G02*
X249770007Y-54749643I1054239J-671625D01*
G01*
X249770007Y-54749643D01*
G75*
G02*
X250152621Y-56475507I-671625J-1054239D01*
G01*
X248943697Y-58373137D01*
G75*
G02*
X247217833Y-58755751I-1054239J671625D01*
G01*
X247217833Y-58755751D01*
G75*
G02*
X246835219Y-57029887I671625J1054239D01*
G01*
G37*
D12*
X256828920Y-60272697D03*
X246668920Y-60272697D03*
D10*
X251748920Y-60272697D03*
%TD*%
%TO.C,K53*%
G36*
G01*
X241096028Y-131874890D02*
X241135476Y-131296234D01*
G75*
G02*
X242467600Y-130134148I1247105J-85019D01*
G01*
X242467600Y-130134148D01*
G75*
G02*
X243629686Y-131466272I-85019J-1247105D01*
G01*
X243590238Y-132044928D01*
G75*
G02*
X242258114Y-133207014I-1247105J85019D01*
G01*
X242258114Y-133207014D01*
G75*
G02*
X241096028Y-131874890I85019J1247105D01*
G01*
G37*
G36*
G01*
X234929156Y-133217771D02*
X236138080Y-131320141D01*
G75*
G02*
X237863944Y-130937527I1054239J-671625D01*
G01*
X237863944Y-130937527D01*
G75*
G02*
X238246558Y-132663391I-671625J-1054239D01*
G01*
X237037634Y-134561021D01*
G75*
G02*
X235311770Y-134943635I-1054239J671625D01*
G01*
X235311770Y-134943635D01*
G75*
G02*
X234929156Y-133217771I671625J1054239D01*
G01*
G37*
D12*
X244922857Y-136460581D03*
X234762857Y-136460581D03*
D10*
X239842857Y-136460581D03*
%TD*%
%TO.C,K52*%
G36*
G01*
X238718602Y-112824472D02*
X238758050Y-112245816D01*
G75*
G02*
X240090174Y-111083730I1247105J-85019D01*
G01*
X240090174Y-111083730D01*
G75*
G02*
X241252260Y-112415854I-85019J-1247105D01*
G01*
X241212812Y-112994510D01*
G75*
G02*
X239880688Y-114156596I-1247105J85019D01*
G01*
X239880688Y-114156596D01*
G75*
G02*
X238718602Y-112824472I85019J1247105D01*
G01*
G37*
G36*
G01*
X232551730Y-114167353D02*
X233760654Y-112269723D01*
G75*
G02*
X235486518Y-111887109I1054239J-671625D01*
G01*
X235486518Y-111887109D01*
G75*
G02*
X235869132Y-113612973I-671625J-1054239D01*
G01*
X234660208Y-115510603D01*
G75*
G02*
X232934344Y-115893217I-1054239J671625D01*
G01*
X232934344Y-115893217D01*
G75*
G02*
X232551730Y-114167353I671625J1054239D01*
G01*
G37*
D12*
X242545431Y-117410163D03*
X232385431Y-117410163D03*
D10*
X237465431Y-117410163D03*
%TD*%
%TO.C,K51*%
G36*
G01*
X248243445Y-93784446D02*
X248282893Y-93205790D01*
G75*
G02*
X249615017Y-92043704I1247105J-85019D01*
G01*
X249615017Y-92043704D01*
G75*
G02*
X250777103Y-93375828I-85019J-1247105D01*
G01*
X250737655Y-93954484D01*
G75*
G02*
X249405531Y-95116570I-1247105J85019D01*
G01*
X249405531Y-95116570D01*
G75*
G02*
X248243445Y-93784446I85019J1247105D01*
G01*
G37*
G36*
G01*
X242076573Y-95127327D02*
X243285497Y-93229697D01*
G75*
G02*
X245011361Y-92847083I1054239J-671625D01*
G01*
X245011361Y-92847083D01*
G75*
G02*
X245393975Y-94572947I-671625J-1054239D01*
G01*
X244185051Y-96470577D01*
G75*
G02*
X242459187Y-96853191I-1054239J671625D01*
G01*
X242459187Y-96853191D01*
G75*
G02*
X242076573Y-95127327I671625J1054239D01*
G01*
G37*
D12*
X252070274Y-98370137D03*
X241910274Y-98370137D03*
D10*
X246990274Y-98370137D03*
%TD*%
%TO.C,K50*%
G36*
G01*
X243470894Y-74730335D02*
X243510342Y-74151679D01*
G75*
G02*
X244842466Y-72989593I1247105J-85019D01*
G01*
X244842466Y-72989593D01*
G75*
G02*
X246004552Y-74321717I-85019J-1247105D01*
G01*
X245965104Y-74900373D01*
G75*
G02*
X244632980Y-76062459I-1247105J85019D01*
G01*
X244632980Y-76062459D01*
G75*
G02*
X243470894Y-74730335I85019J1247105D01*
G01*
G37*
G36*
G01*
X237304022Y-76073216D02*
X238512946Y-74175586D01*
G75*
G02*
X240238810Y-73792972I1054239J-671625D01*
G01*
X240238810Y-73792972D01*
G75*
G02*
X240621424Y-75518836I-671625J-1054239D01*
G01*
X239412500Y-77416466D01*
G75*
G02*
X237686636Y-77799080I-1054239J671625D01*
G01*
X237686636Y-77799080D01*
G75*
G02*
X237304022Y-76073216I671625J1054239D01*
G01*
G37*
D12*
X247297723Y-79316026D03*
X237137723Y-79316026D03*
D10*
X242217723Y-79316026D03*
%TD*%
%TO.C,K49*%
G36*
G01*
X233928830Y-55669689D02*
X233968278Y-55091033D01*
G75*
G02*
X235300402Y-53928947I1247105J-85019D01*
G01*
X235300402Y-53928947D01*
G75*
G02*
X236462488Y-55261071I-85019J-1247105D01*
G01*
X236423040Y-55839727D01*
G75*
G02*
X235090916Y-57001813I-1247105J85019D01*
G01*
X235090916Y-57001813D01*
G75*
G02*
X233928830Y-55669689I85019J1247105D01*
G01*
G37*
G36*
G01*
X227761958Y-57012570D02*
X228970882Y-55114940D01*
G75*
G02*
X230696746Y-54732326I1054239J-671625D01*
G01*
X230696746Y-54732326D01*
G75*
G02*
X231079360Y-56458190I-671625J-1054239D01*
G01*
X229870436Y-58355820D01*
G75*
G02*
X228144572Y-58738434I-1054239J671625D01*
G01*
X228144572Y-58738434D01*
G75*
G02*
X227761958Y-57012570I671625J1054239D01*
G01*
G37*
D12*
X237755659Y-60255380D03*
X227595659Y-60255380D03*
D10*
X232675659Y-60255380D03*
%TD*%
%TO.C,K48*%
G36*
G01*
X217301822Y-131880510D02*
X217341270Y-131301854D01*
G75*
G02*
X218673394Y-130139768I1247105J-85019D01*
G01*
X218673394Y-130139768D01*
G75*
G02*
X219835480Y-131471892I-85019J-1247105D01*
G01*
X219796032Y-132050548D01*
G75*
G02*
X218463908Y-133212634I-1247105J85019D01*
G01*
X218463908Y-133212634D01*
G75*
G02*
X217301822Y-131880510I85019J1247105D01*
G01*
G37*
G36*
G01*
X211134950Y-133223391D02*
X212343874Y-131325761D01*
G75*
G02*
X214069738Y-130943147I1054239J-671625D01*
G01*
X214069738Y-130943147D01*
G75*
G02*
X214452352Y-132669011I-671625J-1054239D01*
G01*
X213243428Y-134566641D01*
G75*
G02*
X211517564Y-134949255I-1054239J671625D01*
G01*
X211517564Y-134949255D01*
G75*
G02*
X211134950Y-133223391I671625J1054239D01*
G01*
G37*
D12*
X221128651Y-136466201D03*
X210968651Y-136466201D03*
D10*
X216048651Y-136466201D03*
%TD*%
%TO.C,K47*%
G36*
G01*
X219660835Y-112829869D02*
X219700283Y-112251213D01*
G75*
G02*
X221032407Y-111089127I1247105J-85019D01*
G01*
X221032407Y-111089127D01*
G75*
G02*
X222194493Y-112421251I-85019J-1247105D01*
G01*
X222155045Y-112999907D01*
G75*
G02*
X220822921Y-114161993I-1247105J85019D01*
G01*
X220822921Y-114161993D01*
G75*
G02*
X219660835Y-112829869I85019J1247105D01*
G01*
G37*
G36*
G01*
X213493963Y-114172750D02*
X214702887Y-112275120D01*
G75*
G02*
X216428751Y-111892506I1054239J-671625D01*
G01*
X216428751Y-111892506D01*
G75*
G02*
X216811365Y-113618370I-671625J-1054239D01*
G01*
X215602441Y-115516000D01*
G75*
G02*
X213876577Y-115898614I-1054239J671625D01*
G01*
X213876577Y-115898614D01*
G75*
G02*
X213493963Y-114172750I671625J1054239D01*
G01*
G37*
D12*
X223487664Y-117415560D03*
X213327664Y-117415560D03*
D10*
X218407664Y-117415560D03*
%TD*%
%TO.C,K46*%
G36*
G01*
X229192068Y-93781077D02*
X229231516Y-93202421D01*
G75*
G02*
X230563640Y-92040335I1247105J-85019D01*
G01*
X230563640Y-92040335D01*
G75*
G02*
X231725726Y-93372459I-85019J-1247105D01*
G01*
X231686278Y-93951115D01*
G75*
G02*
X230354154Y-95113201I-1247105J85019D01*
G01*
X230354154Y-95113201D01*
G75*
G02*
X229192068Y-93781077I85019J1247105D01*
G01*
G37*
G36*
G01*
X223025196Y-95123958D02*
X224234120Y-93226328D01*
G75*
G02*
X225959984Y-92843714I1054239J-671625D01*
G01*
X225959984Y-92843714D01*
G75*
G02*
X226342598Y-94569578I-671625J-1054239D01*
G01*
X225133674Y-96467208D01*
G75*
G02*
X223407810Y-96849822I-1054239J671625D01*
G01*
X223407810Y-96849822D01*
G75*
G02*
X223025196Y-95123958I671625J1054239D01*
G01*
G37*
D12*
X233018897Y-98366768D03*
X222858897Y-98366768D03*
D10*
X227938897Y-98366768D03*
%TD*%
%TO.C,K45*%
G36*
G01*
X224434983Y-74726410D02*
X224474431Y-74147754D01*
G75*
G02*
X225806555Y-72985668I1247105J-85019D01*
G01*
X225806555Y-72985668D01*
G75*
G02*
X226968641Y-74317792I-85019J-1247105D01*
G01*
X226929193Y-74896448D01*
G75*
G02*
X225597069Y-76058534I-1247105J85019D01*
G01*
X225597069Y-76058534D01*
G75*
G02*
X224434983Y-74726410I85019J1247105D01*
G01*
G37*
G36*
G01*
X218268111Y-76069291D02*
X219477035Y-74171661D01*
G75*
G02*
X221202899Y-73789047I1054239J-671625D01*
G01*
X221202899Y-73789047D01*
G75*
G02*
X221585513Y-75514911I-671625J-1054239D01*
G01*
X220376589Y-77412541D01*
G75*
G02*
X218650725Y-77795155I-1054239J671625D01*
G01*
X218650725Y-77795155D01*
G75*
G02*
X218268111Y-76069291I671625J1054239D01*
G01*
G37*
D12*
X228261812Y-79312101D03*
X218101812Y-79312101D03*
D10*
X223181812Y-79312101D03*
%TD*%
%TO.C,K44*%
G36*
G01*
X214899366Y-55672843D02*
X214938814Y-55094187D01*
G75*
G02*
X216270938Y-53932101I1247105J-85019D01*
G01*
X216270938Y-53932101D01*
G75*
G02*
X217433024Y-55264225I-85019J-1247105D01*
G01*
X217393576Y-55842881D01*
G75*
G02*
X216061452Y-57004967I-1247105J85019D01*
G01*
X216061452Y-57004967D01*
G75*
G02*
X214899366Y-55672843I85019J1247105D01*
G01*
G37*
G36*
G01*
X208732494Y-57015724D02*
X209941418Y-55118094D01*
G75*
G02*
X211667282Y-54735480I1054239J-671625D01*
G01*
X211667282Y-54735480D01*
G75*
G02*
X212049896Y-56461344I-671625J-1054239D01*
G01*
X210840972Y-58358974D01*
G75*
G02*
X209115108Y-58741588I-1054239J671625D01*
G01*
X209115108Y-58741588D01*
G75*
G02*
X208732494Y-57015724I671625J1054239D01*
G01*
G37*
D12*
X218726195Y-60258534D03*
X208566195Y-60258534D03*
D10*
X213646195Y-60258534D03*
%TD*%
%TO.C,K43*%
G36*
G01*
X200633989Y-112830626D02*
X200673437Y-112251970D01*
G75*
G02*
X202005561Y-111089884I1247105J-85019D01*
G01*
X202005561Y-111089884D01*
G75*
G02*
X203167647Y-112422008I-85019J-1247105D01*
G01*
X203128199Y-113000664D01*
G75*
G02*
X201796075Y-114162750I-1247105J85019D01*
G01*
X201796075Y-114162750D01*
G75*
G02*
X200633989Y-112830626I85019J1247105D01*
G01*
G37*
G36*
G01*
X194467117Y-114173507D02*
X195676041Y-112275877D01*
G75*
G02*
X197401905Y-111893263I1054239J-671625D01*
G01*
X197401905Y-111893263D01*
G75*
G02*
X197784519Y-113619127I-671625J-1054239D01*
G01*
X196575595Y-115516757D01*
G75*
G02*
X194849731Y-115899371I-1054239J671625D01*
G01*
X194849731Y-115899371D01*
G75*
G02*
X194467117Y-114173507I671625J1054239D01*
G01*
G37*
D12*
X204460818Y-117416317D03*
X194300818Y-117416317D03*
D10*
X199380818Y-117416317D03*
%TD*%
%TO.C,K42*%
G36*
G01*
X210153982Y-93771513D02*
X210193430Y-93192857D01*
G75*
G02*
X211525554Y-92030771I1247105J-85019D01*
G01*
X211525554Y-92030771D01*
G75*
G02*
X212687640Y-93362895I-85019J-1247105D01*
G01*
X212648192Y-93941551D01*
G75*
G02*
X211316068Y-95103637I-1247105J85019D01*
G01*
X211316068Y-95103637D01*
G75*
G02*
X210153982Y-93771513I85019J1247105D01*
G01*
G37*
G36*
G01*
X203987110Y-95114394D02*
X205196034Y-93216764D01*
G75*
G02*
X206921898Y-92834150I1054239J-671625D01*
G01*
X206921898Y-92834150D01*
G75*
G02*
X207304512Y-94560014I-671625J-1054239D01*
G01*
X206095588Y-96457644D01*
G75*
G02*
X204369724Y-96840258I-1054239J671625D01*
G01*
X204369724Y-96840258D01*
G75*
G02*
X203987110Y-95114394I671625J1054239D01*
G01*
G37*
D12*
X213980811Y-98357204D03*
X203820811Y-98357204D03*
D10*
X208900811Y-98357204D03*
%TD*%
%TO.C,K41*%
G36*
G01*
X205391833Y-74727820D02*
X205431281Y-74149164D01*
G75*
G02*
X206763405Y-72987078I1247105J-85019D01*
G01*
X206763405Y-72987078D01*
G75*
G02*
X207925491Y-74319202I-85019J-1247105D01*
G01*
X207886043Y-74897858D01*
G75*
G02*
X206553919Y-76059944I-1247105J85019D01*
G01*
X206553919Y-76059944D01*
G75*
G02*
X205391833Y-74727820I85019J1247105D01*
G01*
G37*
G36*
G01*
X199224961Y-76070701D02*
X200433885Y-74173071D01*
G75*
G02*
X202159749Y-73790457I1054239J-671625D01*
G01*
X202159749Y-73790457D01*
G75*
G02*
X202542363Y-75516321I-671625J-1054239D01*
G01*
X201333439Y-77413951D01*
G75*
G02*
X199607575Y-77796565I-1054239J671625D01*
G01*
X199607575Y-77796565D01*
G75*
G02*
X199224961Y-76070701I671625J1054239D01*
G01*
G37*
D12*
X209218662Y-79313511D03*
X199058662Y-79313511D03*
D10*
X204138662Y-79313511D03*
%TD*%
%TO.C,K40*%
G36*
G01*
X195854073Y-55676237D02*
X195893521Y-55097581D01*
G75*
G02*
X197225645Y-53935495I1247105J-85019D01*
G01*
X197225645Y-53935495D01*
G75*
G02*
X198387731Y-55267619I-85019J-1247105D01*
G01*
X198348283Y-55846275D01*
G75*
G02*
X197016159Y-57008361I-1247105J85019D01*
G01*
X197016159Y-57008361D01*
G75*
G02*
X195854073Y-55676237I85019J1247105D01*
G01*
G37*
G36*
G01*
X189687201Y-57019118D02*
X190896125Y-55121488D01*
G75*
G02*
X192621989Y-54738874I1054239J-671625D01*
G01*
X192621989Y-54738874D01*
G75*
G02*
X193004603Y-56464738I-671625J-1054239D01*
G01*
X191795679Y-58362368D01*
G75*
G02*
X190069815Y-58744982I-1054239J671625D01*
G01*
X190069815Y-58744982D01*
G75*
G02*
X189687201Y-57019118I671625J1054239D01*
G01*
G37*
D12*
X199680902Y-60261928D03*
X189520902Y-60261928D03*
D10*
X194600902Y-60261928D03*
%TD*%
%TO.C,K39*%
G36*
G01*
X181571621Y-112827134D02*
X181611069Y-112248478D01*
G75*
G02*
X182943193Y-111086392I1247105J-85019D01*
G01*
X182943193Y-111086392D01*
G75*
G02*
X184105279Y-112418516I-85019J-1247105D01*
G01*
X184065831Y-112997172D01*
G75*
G02*
X182733707Y-114159258I-1247105J85019D01*
G01*
X182733707Y-114159258D01*
G75*
G02*
X181571621Y-112827134I85019J1247105D01*
G01*
G37*
G36*
G01*
X175404749Y-114170015D02*
X176613673Y-112272385D01*
G75*
G02*
X178339537Y-111889771I1054239J-671625D01*
G01*
X178339537Y-111889771D01*
G75*
G02*
X178722151Y-113615635I-671625J-1054239D01*
G01*
X177513227Y-115513265D01*
G75*
G02*
X175787363Y-115895879I-1054239J671625D01*
G01*
X175787363Y-115895879D01*
G75*
G02*
X175404749Y-114170015I671625J1054239D01*
G01*
G37*
D12*
X185398450Y-117412825D03*
X175238450Y-117412825D03*
D10*
X180318450Y-117412825D03*
%TD*%
%TO.C,K38*%
G36*
G01*
X191098270Y-93751483D02*
X191137718Y-93172827D01*
G75*
G02*
X192469842Y-92010741I1247105J-85019D01*
G01*
X192469842Y-92010741D01*
G75*
G02*
X193631928Y-93342865I-85019J-1247105D01*
G01*
X193592480Y-93921521D01*
G75*
G02*
X192260356Y-95083607I-1247105J85019D01*
G01*
X192260356Y-95083607D01*
G75*
G02*
X191098270Y-93751483I85019J1247105D01*
G01*
G37*
G36*
G01*
X184931398Y-95094364D02*
X186140322Y-93196734D01*
G75*
G02*
X187866186Y-92814120I1054239J-671625D01*
G01*
X187866186Y-92814120D01*
G75*
G02*
X188248800Y-94539984I-671625J-1054239D01*
G01*
X187039876Y-96437614D01*
G75*
G02*
X185314012Y-96820228I-1054239J671625D01*
G01*
X185314012Y-96820228D01*
G75*
G02*
X184931398Y-95094364I671625J1054239D01*
G01*
G37*
D12*
X194925099Y-98337174D03*
X184765099Y-98337174D03*
D10*
X189845099Y-98337174D03*
%TD*%
%TO.C,K37*%
G36*
G01*
X186343427Y-74733652D02*
X186382875Y-74154996D01*
G75*
G02*
X187714999Y-72992910I1247105J-85019D01*
G01*
X187714999Y-72992910D01*
G75*
G02*
X188877085Y-74325034I-85019J-1247105D01*
G01*
X188837637Y-74903690D01*
G75*
G02*
X187505513Y-76065776I-1247105J85019D01*
G01*
X187505513Y-76065776D01*
G75*
G02*
X186343427Y-74733652I85019J1247105D01*
G01*
G37*
G36*
G01*
X180176555Y-76076533D02*
X181385479Y-74178903D01*
G75*
G02*
X183111343Y-73796289I1054239J-671625D01*
G01*
X183111343Y-73796289D01*
G75*
G02*
X183493957Y-75522153I-671625J-1054239D01*
G01*
X182285033Y-77419783D01*
G75*
G02*
X180559169Y-77802397I-1054239J671625D01*
G01*
X180559169Y-77802397D01*
G75*
G02*
X180176555Y-76076533I671625J1054239D01*
G01*
G37*
D12*
X190170256Y-79319343D03*
X180010256Y-79319343D03*
D10*
X185090256Y-79319343D03*
%TD*%
%TO.C,K36*%
G36*
G01*
X176806004Y-55684121D02*
X176845452Y-55105465D01*
G75*
G02*
X178177576Y-53943379I1247105J-85019D01*
G01*
X178177576Y-53943379D01*
G75*
G02*
X179339662Y-55275503I-85019J-1247105D01*
G01*
X179300214Y-55854159D01*
G75*
G02*
X177968090Y-57016245I-1247105J85019D01*
G01*
X177968090Y-57016245D01*
G75*
G02*
X176806004Y-55684121I85019J1247105D01*
G01*
G37*
G36*
G01*
X170639132Y-57027002D02*
X171848056Y-55129372D01*
G75*
G02*
X173573920Y-54746758I1054239J-671625D01*
G01*
X173573920Y-54746758D01*
G75*
G02*
X173956534Y-56472622I-671625J-1054239D01*
G01*
X172747610Y-58370252D01*
G75*
G02*
X171021746Y-58752866I-1054239J671625D01*
G01*
X171021746Y-58752866D01*
G75*
G02*
X170639132Y-57027002I671625J1054239D01*
G01*
G37*
D12*
X180632833Y-60269812D03*
X170472833Y-60269812D03*
D10*
X175552833Y-60269812D03*
%TD*%
%TO.C,K35*%
G36*
G01*
X162532786Y-112813331D02*
X162572234Y-112234675D01*
G75*
G02*
X163904358Y-111072589I1247105J-85019D01*
G01*
X163904358Y-111072589D01*
G75*
G02*
X165066444Y-112404713I-85019J-1247105D01*
G01*
X165026996Y-112983369D01*
G75*
G02*
X163694872Y-114145455I-1247105J85019D01*
G01*
X163694872Y-114145455D01*
G75*
G02*
X162532786Y-112813331I85019J1247105D01*
G01*
G37*
G36*
G01*
X156365914Y-114156212D02*
X157574838Y-112258582D01*
G75*
G02*
X159300702Y-111875968I1054239J-671625D01*
G01*
X159300702Y-111875968D01*
G75*
G02*
X159683316Y-113601832I-671625J-1054239D01*
G01*
X158474392Y-115499462D01*
G75*
G02*
X156748528Y-115882076I-1054239J671625D01*
G01*
X156748528Y-115882076D01*
G75*
G02*
X156365914Y-114156212I671625J1054239D01*
G01*
G37*
D12*
X166359615Y-117399022D03*
X156199615Y-117399022D03*
D10*
X161279615Y-117399022D03*
%TD*%
%TO.C,K34*%
G36*
G01*
X172047759Y-93772963D02*
X172087207Y-93194307D01*
G75*
G02*
X173419331Y-92032221I1247105J-85019D01*
G01*
X173419331Y-92032221D01*
G75*
G02*
X174581417Y-93364345I-85019J-1247105D01*
G01*
X174541969Y-93943001D01*
G75*
G02*
X173209845Y-95105087I-1247105J85019D01*
G01*
X173209845Y-95105087D01*
G75*
G02*
X172047759Y-93772963I85019J1247105D01*
G01*
G37*
G36*
G01*
X165880887Y-95115844D02*
X167089811Y-93218214D01*
G75*
G02*
X168815675Y-92835600I1054239J-671625D01*
G01*
X168815675Y-92835600D01*
G75*
G02*
X169198289Y-94561464I-671625J-1054239D01*
G01*
X167989365Y-96459094D01*
G75*
G02*
X166263501Y-96841708I-1054239J671625D01*
G01*
X166263501Y-96841708D01*
G75*
G02*
X165880887Y-95115844I671625J1054239D01*
G01*
G37*
D12*
X175874588Y-98358654D03*
X165714588Y-98358654D03*
D10*
X170794588Y-98358654D03*
%TD*%
%TO.C,K33*%
G36*
G01*
X167290901Y-74716905D02*
X167330349Y-74138249D01*
G75*
G02*
X168662473Y-72976163I1247105J-85019D01*
G01*
X168662473Y-72976163D01*
G75*
G02*
X169824559Y-74308287I-85019J-1247105D01*
G01*
X169785111Y-74886943D01*
G75*
G02*
X168452987Y-76049029I-1247105J85019D01*
G01*
X168452987Y-76049029D01*
G75*
G02*
X167290901Y-74716905I85019J1247105D01*
G01*
G37*
G36*
G01*
X161124029Y-76059786D02*
X162332953Y-74162156D01*
G75*
G02*
X164058817Y-73779542I1054239J-671625D01*
G01*
X164058817Y-73779542D01*
G75*
G02*
X164441431Y-75505406I-671625J-1054239D01*
G01*
X163232507Y-77403036D01*
G75*
G02*
X161506643Y-77785650I-1054239J671625D01*
G01*
X161506643Y-77785650D01*
G75*
G02*
X161124029Y-76059786I671625J1054239D01*
G01*
G37*
D12*
X171117730Y-79302596D03*
X160957730Y-79302596D03*
D10*
X166037730Y-79302596D03*
%TD*%
%TO.C,K32*%
G36*
G01*
X157752892Y-55673823D02*
X157792340Y-55095167D01*
G75*
G02*
X159124464Y-53933081I1247105J-85019D01*
G01*
X159124464Y-53933081D01*
G75*
G02*
X160286550Y-55265205I-85019J-1247105D01*
G01*
X160247102Y-55843861D01*
G75*
G02*
X158914978Y-57005947I-1247105J85019D01*
G01*
X158914978Y-57005947D01*
G75*
G02*
X157752892Y-55673823I85019J1247105D01*
G01*
G37*
G36*
G01*
X151586020Y-57016704D02*
X152794944Y-55119074D01*
G75*
G02*
X154520808Y-54736460I1054239J-671625D01*
G01*
X154520808Y-54736460D01*
G75*
G02*
X154903422Y-56462324I-671625J-1054239D01*
G01*
X153694498Y-58359954D01*
G75*
G02*
X151968634Y-58742568I-1054239J671625D01*
G01*
X151968634Y-58742568D01*
G75*
G02*
X151586020Y-57016704I671625J1054239D01*
G01*
G37*
D12*
X161579721Y-60259514D03*
X151419721Y-60259514D03*
D10*
X156499721Y-60259514D03*
%TD*%
%TO.C,K30*%
G36*
G01*
X143478607Y-112826967D02*
X143518055Y-112248311D01*
G75*
G02*
X144850179Y-111086225I1247105J-85019D01*
G01*
X144850179Y-111086225D01*
G75*
G02*
X146012265Y-112418349I-85019J-1247105D01*
G01*
X145972817Y-112997005D01*
G75*
G02*
X144640693Y-114159091I-1247105J85019D01*
G01*
X144640693Y-114159091D01*
G75*
G02*
X143478607Y-112826967I85019J1247105D01*
G01*
G37*
G36*
G01*
X137311735Y-114169848D02*
X138520659Y-112272218D01*
G75*
G02*
X140246523Y-111889604I1054239J-671625D01*
G01*
X140246523Y-111889604D01*
G75*
G02*
X140629137Y-113615468I-671625J-1054239D01*
G01*
X139420213Y-115513098D01*
G75*
G02*
X137694349Y-115895712I-1054239J671625D01*
G01*
X137694349Y-115895712D01*
G75*
G02*
X137311735Y-114169848I671625J1054239D01*
G01*
G37*
D12*
X147305436Y-117412658D03*
X137145436Y-117412658D03*
D10*
X142225436Y-117412658D03*
%TD*%
%TO.C,K29*%
G36*
G01*
X152996031Y-93773790D02*
X153035479Y-93195134D01*
G75*
G02*
X154367603Y-92033048I1247105J-85019D01*
G01*
X154367603Y-92033048D01*
G75*
G02*
X155529689Y-93365172I-85019J-1247105D01*
G01*
X155490241Y-93943828D01*
G75*
G02*
X154158117Y-95105914I-1247105J85019D01*
G01*
X154158117Y-95105914D01*
G75*
G02*
X152996031Y-93773790I85019J1247105D01*
G01*
G37*
G36*
G01*
X146829159Y-95116671D02*
X148038083Y-93219041D01*
G75*
G02*
X149763947Y-92836427I1054239J-671625D01*
G01*
X149763947Y-92836427D01*
G75*
G02*
X150146561Y-94562291I-671625J-1054239D01*
G01*
X148937637Y-96459921D01*
G75*
G02*
X147211773Y-96842535I-1054239J671625D01*
G01*
X147211773Y-96842535D01*
G75*
G02*
X146829159Y-95116671I671625J1054239D01*
G01*
G37*
D12*
X156822860Y-98359481D03*
X146662860Y-98359481D03*
D10*
X151742860Y-98359481D03*
%TD*%
%TO.C,K28*%
G36*
G01*
X148227352Y-74727122D02*
X148266800Y-74148466D01*
G75*
G02*
X149598924Y-72986380I1247105J-85019D01*
G01*
X149598924Y-72986380D01*
G75*
G02*
X150761010Y-74318504I-85019J-1247105D01*
G01*
X150721562Y-74897160D01*
G75*
G02*
X149389438Y-76059246I-1247105J85019D01*
G01*
X149389438Y-76059246D01*
G75*
G02*
X148227352Y-74727122I85019J1247105D01*
G01*
G37*
G36*
G01*
X142060480Y-76070003D02*
X143269404Y-74172373D01*
G75*
G02*
X144995268Y-73789759I1054239J-671625D01*
G01*
X144995268Y-73789759D01*
G75*
G02*
X145377882Y-75515623I-671625J-1054239D01*
G01*
X144168958Y-77413253D01*
G75*
G02*
X142443094Y-77795867I-1054239J671625D01*
G01*
X142443094Y-77795867D01*
G75*
G02*
X142060480Y-76070003I671625J1054239D01*
G01*
G37*
D12*
X152054181Y-79312813D03*
X141894181Y-79312813D03*
D10*
X146974181Y-79312813D03*
%TD*%
%TO.C,K27*%
G36*
G01*
X138712604Y-55672567D02*
X138752052Y-55093911D01*
G75*
G02*
X140084176Y-53931825I1247105J-85019D01*
G01*
X140084176Y-53931825D01*
G75*
G02*
X141246262Y-55263949I-85019J-1247105D01*
G01*
X141206814Y-55842605D01*
G75*
G02*
X139874690Y-57004691I-1247105J85019D01*
G01*
X139874690Y-57004691D01*
G75*
G02*
X138712604Y-55672567I85019J1247105D01*
G01*
G37*
G36*
G01*
X132545732Y-57015448D02*
X133754656Y-55117818D01*
G75*
G02*
X135480520Y-54735204I1054239J-671625D01*
G01*
X135480520Y-54735204D01*
G75*
G02*
X135863134Y-56461068I-671625J-1054239D01*
G01*
X134654210Y-58358698D01*
G75*
G02*
X132928346Y-58741312I-1054239J671625D01*
G01*
X132928346Y-58741312D01*
G75*
G02*
X132545732Y-57015448I671625J1054239D01*
G01*
G37*
D12*
X142539433Y-60258258D03*
X132379433Y-60258258D03*
D10*
X137459433Y-60258258D03*
%TD*%
%TO.C,K26*%
G36*
G01*
X124419677Y-112812946D02*
X124459125Y-112234290D01*
G75*
G02*
X125791249Y-111072204I1247105J-85019D01*
G01*
X125791249Y-111072204D01*
G75*
G02*
X126953335Y-112404328I-85019J-1247105D01*
G01*
X126913887Y-112982984D01*
G75*
G02*
X125581763Y-114145070I-1247105J85019D01*
G01*
X125581763Y-114145070D01*
G75*
G02*
X124419677Y-112812946I85019J1247105D01*
G01*
G37*
G36*
G01*
X118252805Y-114155827D02*
X119461729Y-112258197D01*
G75*
G02*
X121187593Y-111875583I1054239J-671625D01*
G01*
X121187593Y-111875583D01*
G75*
G02*
X121570207Y-113601447I-671625J-1054239D01*
G01*
X120361283Y-115499077D01*
G75*
G02*
X118635419Y-115881691I-1054239J671625D01*
G01*
X118635419Y-115881691D01*
G75*
G02*
X118252805Y-114155827I671625J1054239D01*
G01*
G37*
D12*
X128246506Y-117398637D03*
X118086506Y-117398637D03*
D10*
X123166506Y-117398637D03*
%TD*%
%TO.C,K25*%
G36*
G01*
X133941205Y-93767142D02*
X133980653Y-93188486D01*
G75*
G02*
X135312777Y-92026400I1247105J-85019D01*
G01*
X135312777Y-92026400D01*
G75*
G02*
X136474863Y-93358524I-85019J-1247105D01*
G01*
X136435415Y-93937180D01*
G75*
G02*
X135103291Y-95099266I-1247105J85019D01*
G01*
X135103291Y-95099266D01*
G75*
G02*
X133941205Y-93767142I85019J1247105D01*
G01*
G37*
G36*
G01*
X127774333Y-95110023D02*
X128983257Y-93212393D01*
G75*
G02*
X130709121Y-92829779I1054239J-671625D01*
G01*
X130709121Y-92829779D01*
G75*
G02*
X131091735Y-94555643I-671625J-1054239D01*
G01*
X129882811Y-96453273D01*
G75*
G02*
X128156947Y-96835887I-1054239J671625D01*
G01*
X128156947Y-96835887D01*
G75*
G02*
X127774333Y-95110023I671625J1054239D01*
G01*
G37*
D12*
X137768034Y-98352833D03*
X127608034Y-98352833D03*
D10*
X132688034Y-98352833D03*
%TD*%
%TO.C,K24*%
G36*
G01*
X129197674Y-74721883D02*
X129237122Y-74143227D01*
G75*
G02*
X130569246Y-72981141I1247105J-85019D01*
G01*
X130569246Y-72981141D01*
G75*
G02*
X131731332Y-74313265I-85019J-1247105D01*
G01*
X131691884Y-74891921D01*
G75*
G02*
X130359760Y-76054007I-1247105J85019D01*
G01*
X130359760Y-76054007D01*
G75*
G02*
X129197674Y-74721883I85019J1247105D01*
G01*
G37*
G36*
G01*
X123030802Y-76064764D02*
X124239726Y-74167134D01*
G75*
G02*
X125965590Y-73784520I1054239J-671625D01*
G01*
X125965590Y-73784520D01*
G75*
G02*
X126348204Y-75510384I-671625J-1054239D01*
G01*
X125139280Y-77408014D01*
G75*
G02*
X123413416Y-77790628I-1054239J671625D01*
G01*
X123413416Y-77790628D01*
G75*
G02*
X123030802Y-76064764I671625J1054239D01*
G01*
G37*
D12*
X133024503Y-79307574D03*
X122864503Y-79307574D03*
D10*
X127944503Y-79307574D03*
%TD*%
%TO.C,K23*%
G36*
G01*
X119664059Y-55672461D02*
X119703507Y-55093805D01*
G75*
G02*
X121035631Y-53931719I1247105J-85019D01*
G01*
X121035631Y-53931719D01*
G75*
G02*
X122197717Y-55263843I-85019J-1247105D01*
G01*
X122158269Y-55842499D01*
G75*
G02*
X120826145Y-57004585I-1247105J85019D01*
G01*
X120826145Y-57004585D01*
G75*
G02*
X119664059Y-55672461I85019J1247105D01*
G01*
G37*
G36*
G01*
X113497187Y-57015342D02*
X114706111Y-55117712D01*
G75*
G02*
X116431975Y-54735098I1054239J-671625D01*
G01*
X116431975Y-54735098D01*
G75*
G02*
X116814589Y-56460962I-671625J-1054239D01*
G01*
X115605665Y-58358592D01*
G75*
G02*
X113879801Y-58741206I-1054239J671625D01*
G01*
X113879801Y-58741206D01*
G75*
G02*
X113497187Y-57015342I671625J1054239D01*
G01*
G37*
D12*
X123490888Y-60258152D03*
X113330888Y-60258152D03*
D10*
X118410888Y-60258152D03*
%TD*%
%TO.C,K22*%
G36*
G01*
X105375594Y-112819746D02*
X105415042Y-112241090D01*
G75*
G02*
X106747166Y-111079004I1247105J-85019D01*
G01*
X106747166Y-111079004D01*
G75*
G02*
X107909252Y-112411128I-85019J-1247105D01*
G01*
X107869804Y-112989784D01*
G75*
G02*
X106537680Y-114151870I-1247105J85019D01*
G01*
X106537680Y-114151870D01*
G75*
G02*
X105375594Y-112819746I85019J1247105D01*
G01*
G37*
G36*
G01*
X99208722Y-114162627D02*
X100417646Y-112264997D01*
G75*
G02*
X102143510Y-111882383I1054239J-671625D01*
G01*
X102143510Y-111882383D01*
G75*
G02*
X102526124Y-113608247I-671625J-1054239D01*
G01*
X101317200Y-115505877D01*
G75*
G02*
X99591336Y-115888491I-1054239J671625D01*
G01*
X99591336Y-115888491D01*
G75*
G02*
X99208722Y-114162627I671625J1054239D01*
G01*
G37*
D12*
X109202423Y-117405437D03*
X99042423Y-117405437D03*
D10*
X104122423Y-117405437D03*
%TD*%
%TO.C,K21*%
G36*
G01*
X114887865Y-93776045D02*
X114927313Y-93197389D01*
G75*
G02*
X116259437Y-92035303I1247105J-85019D01*
G01*
X116259437Y-92035303D01*
G75*
G02*
X117421523Y-93367427I-85019J-1247105D01*
G01*
X117382075Y-93946083D01*
G75*
G02*
X116049951Y-95108169I-1247105J85019D01*
G01*
X116049951Y-95108169D01*
G75*
G02*
X114887865Y-93776045I85019J1247105D01*
G01*
G37*
G36*
G01*
X108720993Y-95118926D02*
X109929917Y-93221296D01*
G75*
G02*
X111655781Y-92838682I1054239J-671625D01*
G01*
X111655781Y-92838682D01*
G75*
G02*
X112038395Y-94564546I-671625J-1054239D01*
G01*
X110829471Y-96462176D01*
G75*
G02*
X109103607Y-96844790I-1054239J671625D01*
G01*
X109103607Y-96844790D01*
G75*
G02*
X108720993Y-95118926I671625J1054239D01*
G01*
G37*
D12*
X118714694Y-98361736D03*
X108554694Y-98361736D03*
D10*
X113634694Y-98361736D03*
%TD*%
%TO.C,K20*%
G36*
G01*
X110149233Y-74725403D02*
X110188681Y-74146747D01*
G75*
G02*
X111520805Y-72984661I1247105J-85019D01*
G01*
X111520805Y-72984661D01*
G75*
G02*
X112682891Y-74316785I-85019J-1247105D01*
G01*
X112643443Y-74895441D01*
G75*
G02*
X111311319Y-76057527I-1247105J85019D01*
G01*
X111311319Y-76057527D01*
G75*
G02*
X110149233Y-74725403I85019J1247105D01*
G01*
G37*
G36*
G01*
X103982361Y-76068284D02*
X105191285Y-74170654D01*
G75*
G02*
X106917149Y-73788040I1054239J-671625D01*
G01*
X106917149Y-73788040D01*
G75*
G02*
X107299763Y-75513904I-671625J-1054239D01*
G01*
X106090839Y-77411534D01*
G75*
G02*
X104364975Y-77794148I-1054239J671625D01*
G01*
X104364975Y-77794148D01*
G75*
G02*
X103982361Y-76068284I671625J1054239D01*
G01*
G37*
D12*
X113976062Y-79311094D03*
X103816062Y-79311094D03*
D10*
X108896062Y-79311094D03*
%TD*%
%TO.C,K19*%
G36*
G01*
X100597019Y-55697770D02*
X100636467Y-55119114D01*
G75*
G02*
X101968591Y-53957028I1247105J-85019D01*
G01*
X101968591Y-53957028D01*
G75*
G02*
X103130677Y-55289152I-85019J-1247105D01*
G01*
X103091229Y-55867808D01*
G75*
G02*
X101759105Y-57029894I-1247105J85019D01*
G01*
X101759105Y-57029894D01*
G75*
G02*
X100597019Y-55697770I85019J1247105D01*
G01*
G37*
G36*
G01*
X94430147Y-57040651D02*
X95639071Y-55143021D01*
G75*
G02*
X97364935Y-54760407I1054239J-671625D01*
G01*
X97364935Y-54760407D01*
G75*
G02*
X97747549Y-56486271I-671625J-1054239D01*
G01*
X96538625Y-58383901D01*
G75*
G02*
X94812761Y-58766515I-1054239J671625D01*
G01*
X94812761Y-58766515D01*
G75*
G02*
X94430147Y-57040651I671625J1054239D01*
G01*
G37*
D12*
X104423848Y-60283461D03*
X94263848Y-60283461D03*
D10*
X99343848Y-60283461D03*
%TD*%
%TO.C,K18*%
G36*
G01*
X86331045Y-112816412D02*
X86370493Y-112237756D01*
G75*
G02*
X87702617Y-111075670I1247105J-85019D01*
G01*
X87702617Y-111075670D01*
G75*
G02*
X88864703Y-112407794I-85019J-1247105D01*
G01*
X88825255Y-112986450D01*
G75*
G02*
X87493131Y-114148536I-1247105J85019D01*
G01*
X87493131Y-114148536D01*
G75*
G02*
X86331045Y-112816412I85019J1247105D01*
G01*
G37*
G36*
G01*
X80164173Y-114159293D02*
X81373097Y-112261663D01*
G75*
G02*
X83098961Y-111879049I1054239J-671625D01*
G01*
X83098961Y-111879049D01*
G75*
G02*
X83481575Y-113604913I-671625J-1054239D01*
G01*
X82272651Y-115502543D01*
G75*
G02*
X80546787Y-115885157I-1054239J671625D01*
G01*
X80546787Y-115885157D01*
G75*
G02*
X80164173Y-114159293I671625J1054239D01*
G01*
G37*
D12*
X90157874Y-117402103D03*
X79997874Y-117402103D03*
D10*
X85077874Y-117402103D03*
%TD*%
%TO.C,K17*%
G36*
G01*
X95843536Y-93791669D02*
X95882984Y-93213013D01*
G75*
G02*
X97215108Y-92050927I1247105J-85019D01*
G01*
X97215108Y-92050927D01*
G75*
G02*
X98377194Y-93383051I-85019J-1247105D01*
G01*
X98337746Y-93961707D01*
G75*
G02*
X97005622Y-95123793I-1247105J85019D01*
G01*
X97005622Y-95123793D01*
G75*
G02*
X95843536Y-93791669I85019J1247105D01*
G01*
G37*
G36*
G01*
X89676664Y-95134550D02*
X90885588Y-93236920D01*
G75*
G02*
X92611452Y-92854306I1054239J-671625D01*
G01*
X92611452Y-92854306D01*
G75*
G02*
X92994066Y-94580170I-671625J-1054239D01*
G01*
X91785142Y-96477800D01*
G75*
G02*
X90059278Y-96860414I-1054239J671625D01*
G01*
X90059278Y-96860414D01*
G75*
G02*
X89676664Y-95134550I671625J1054239D01*
G01*
G37*
D12*
X99670365Y-98377360D03*
X89510365Y-98377360D03*
D10*
X94590365Y-98377360D03*
%TD*%
%TO.C,K16*%
G36*
G01*
X91084783Y-74732319D02*
X91124231Y-74153663D01*
G75*
G02*
X92456355Y-72991577I1247105J-85019D01*
G01*
X92456355Y-72991577D01*
G75*
G02*
X93618441Y-74323701I-85019J-1247105D01*
G01*
X93578993Y-74902357D01*
G75*
G02*
X92246869Y-76064443I-1247105J85019D01*
G01*
X92246869Y-76064443D01*
G75*
G02*
X91084783Y-74732319I85019J1247105D01*
G01*
G37*
G36*
G01*
X84917911Y-76075200D02*
X86126835Y-74177570D01*
G75*
G02*
X87852699Y-73794956I1054239J-671625D01*
G01*
X87852699Y-73794956D01*
G75*
G02*
X88235313Y-75520820I-671625J-1054239D01*
G01*
X87026389Y-77418450D01*
G75*
G02*
X85300525Y-77801064I-1054239J671625D01*
G01*
X85300525Y-77801064D01*
G75*
G02*
X84917911Y-76075200I671625J1054239D01*
G01*
G37*
D12*
X94911612Y-79318010D03*
X84751612Y-79318010D03*
D10*
X89831612Y-79318010D03*
%TD*%
%TO.C,K15*%
G36*
G01*
X81559835Y-55673532D02*
X81599283Y-55094876D01*
G75*
G02*
X82931407Y-53932790I1247105J-85019D01*
G01*
X82931407Y-53932790D01*
G75*
G02*
X84093493Y-55264914I-85019J-1247105D01*
G01*
X84054045Y-55843570D01*
G75*
G02*
X82721921Y-57005656I-1247105J85019D01*
G01*
X82721921Y-57005656D01*
G75*
G02*
X81559835Y-55673532I85019J1247105D01*
G01*
G37*
G36*
G01*
X75392963Y-57016413D02*
X76601887Y-55118783D01*
G75*
G02*
X78327751Y-54736169I1054239J-671625D01*
G01*
X78327751Y-54736169D01*
G75*
G02*
X78710365Y-56462033I-671625J-1054239D01*
G01*
X77501441Y-58359663D01*
G75*
G02*
X75775577Y-58742277I-1054239J671625D01*
G01*
X75775577Y-58742277D01*
G75*
G02*
X75392963Y-57016413I671625J1054239D01*
G01*
G37*
D12*
X85386664Y-60259223D03*
X75226664Y-60259223D03*
D10*
X80306664Y-60259223D03*
%TD*%
%TO.C,K14*%
G36*
G01*
X74416396Y-131876223D02*
X74455844Y-131297567D01*
G75*
G02*
X75787968Y-130135481I1247105J-85019D01*
G01*
X75787968Y-130135481D01*
G75*
G02*
X76950054Y-131467605I-85019J-1247105D01*
G01*
X76910606Y-132046261D01*
G75*
G02*
X75578482Y-133208347I-1247105J85019D01*
G01*
X75578482Y-133208347D01*
G75*
G02*
X74416396Y-131876223I85019J1247105D01*
G01*
G37*
G36*
G01*
X68249524Y-133219104D02*
X69458448Y-131321474D01*
G75*
G02*
X71184312Y-130938860I1054239J-671625D01*
G01*
X71184312Y-130938860D01*
G75*
G02*
X71566926Y-132664724I-671625J-1054239D01*
G01*
X70358002Y-134562354D01*
G75*
G02*
X68632138Y-134944968I-1054239J671625D01*
G01*
X68632138Y-134944968D01*
G75*
G02*
X68249524Y-133219104I671625J1054239D01*
G01*
G37*
D12*
X78243225Y-136461914D03*
X68083225Y-136461914D03*
D10*
X73163225Y-136461914D03*
%TD*%
%TO.C,K13*%
G36*
G01*
X67279514Y-112829431D02*
X67318962Y-112250775D01*
G75*
G02*
X68651086Y-111088689I1247105J-85019D01*
G01*
X68651086Y-111088689D01*
G75*
G02*
X69813172Y-112420813I-85019J-1247105D01*
G01*
X69773724Y-112999469D01*
G75*
G02*
X68441600Y-114161555I-1247105J85019D01*
G01*
X68441600Y-114161555D01*
G75*
G02*
X67279514Y-112829431I85019J1247105D01*
G01*
G37*
G36*
G01*
X61112642Y-114172312D02*
X62321566Y-112274682D01*
G75*
G02*
X64047430Y-111892068I1054239J-671625D01*
G01*
X64047430Y-111892068D01*
G75*
G02*
X64430044Y-113617932I-671625J-1054239D01*
G01*
X63221120Y-115515562D01*
G75*
G02*
X61495256Y-115898176I-1054239J671625D01*
G01*
X61495256Y-115898176D01*
G75*
G02*
X61112642Y-114172312I671625J1054239D01*
G01*
G37*
D12*
X71106343Y-117415122D03*
X60946343Y-117415122D03*
D10*
X66026343Y-117415122D03*
%TD*%
%TO.C,K12*%
G36*
G01*
X76798129Y-93779538D02*
X76837577Y-93200882D01*
G75*
G02*
X78169701Y-92038796I1247105J-85019D01*
G01*
X78169701Y-92038796D01*
G75*
G02*
X79331787Y-93370920I-85019J-1247105D01*
G01*
X79292339Y-93949576D01*
G75*
G02*
X77960215Y-95111662I-1247105J85019D01*
G01*
X77960215Y-95111662D01*
G75*
G02*
X76798129Y-93779538I85019J1247105D01*
G01*
G37*
G36*
G01*
X70631257Y-95122419D02*
X71840181Y-93224789D01*
G75*
G02*
X73566045Y-92842175I1054239J-671625D01*
G01*
X73566045Y-92842175D01*
G75*
G02*
X73948659Y-94568039I-671625J-1054239D01*
G01*
X72739735Y-96465669D01*
G75*
G02*
X71013871Y-96848283I-1054239J671625D01*
G01*
X71013871Y-96848283D01*
G75*
G02*
X70631257Y-95122419I671625J1054239D01*
G01*
G37*
D12*
X80624958Y-98365229D03*
X70464958Y-98365229D03*
D10*
X75544958Y-98365229D03*
%TD*%
%TO.C,K11*%
G36*
G01*
X72050720Y-74735633D02*
X72090168Y-74156977D01*
G75*
G02*
X73422292Y-72994891I1247105J-85019D01*
G01*
X73422292Y-72994891D01*
G75*
G02*
X74584378Y-74327015I-85019J-1247105D01*
G01*
X74544930Y-74905671D01*
G75*
G02*
X73212806Y-76067757I-1247105J85019D01*
G01*
X73212806Y-76067757D01*
G75*
G02*
X72050720Y-74735633I85019J1247105D01*
G01*
G37*
G36*
G01*
X65883848Y-76078514D02*
X67092772Y-74180884D01*
G75*
G02*
X68818636Y-73798270I1054239J-671625D01*
G01*
X68818636Y-73798270D01*
G75*
G02*
X69201250Y-75524134I-671625J-1054239D01*
G01*
X67992326Y-77421764D01*
G75*
G02*
X66266462Y-77804378I-1054239J671625D01*
G01*
X66266462Y-77804378D01*
G75*
G02*
X65883848Y-76078514I671625J1054239D01*
G01*
G37*
D12*
X75877549Y-79321324D03*
X65717549Y-79321324D03*
D10*
X70797549Y-79321324D03*
%TD*%
%TO.C,K10*%
G36*
G01*
X62498171Y-55684309D02*
X62537619Y-55105653D01*
G75*
G02*
X63869743Y-53943567I1247105J-85019D01*
G01*
X63869743Y-53943567D01*
G75*
G02*
X65031829Y-55275691I-85019J-1247105D01*
G01*
X64992381Y-55854347D01*
G75*
G02*
X63660257Y-57016433I-1247105J85019D01*
G01*
X63660257Y-57016433D01*
G75*
G02*
X62498171Y-55684309I85019J1247105D01*
G01*
G37*
G36*
G01*
X56331299Y-57027190D02*
X57540223Y-55129560D01*
G75*
G02*
X59266087Y-54746946I1054239J-671625D01*
G01*
X59266087Y-54746946D01*
G75*
G02*
X59648701Y-56472810I-671625J-1054239D01*
G01*
X58439777Y-58370440D01*
G75*
G02*
X56713913Y-58753054I-1054239J671625D01*
G01*
X56713913Y-58753054D01*
G75*
G02*
X56331299Y-57027190I671625J1054239D01*
G01*
G37*
D12*
X66325000Y-60270000D03*
X56165000Y-60270000D03*
D10*
X61245000Y-60270000D03*
%TD*%
%TO.C,K9*%
G36*
G01*
X50619171Y-131862433D02*
X50658619Y-131283777D01*
G75*
G02*
X51990743Y-130121691I1247105J-85019D01*
G01*
X51990743Y-130121691D01*
G75*
G02*
X53152829Y-131453815I-85019J-1247105D01*
G01*
X53113381Y-132032471D01*
G75*
G02*
X51781257Y-133194557I-1247105J85019D01*
G01*
X51781257Y-133194557D01*
G75*
G02*
X50619171Y-131862433I85019J1247105D01*
G01*
G37*
G36*
G01*
X44452299Y-133205314D02*
X45661223Y-131307684D01*
G75*
G02*
X47387087Y-130925070I1054239J-671625D01*
G01*
X47387087Y-130925070D01*
G75*
G02*
X47769701Y-132650934I-671625J-1054239D01*
G01*
X46560777Y-134548564D01*
G75*
G02*
X44834913Y-134931178I-1054239J671625D01*
G01*
X44834913Y-134931178D01*
G75*
G02*
X44452299Y-133205314I671625J1054239D01*
G01*
G37*
D12*
X54446000Y-136448124D03*
X44286000Y-136448124D03*
D10*
X49366000Y-136448124D03*
%TD*%
%TO.C,K8*%
G36*
G01*
X57739631Y-93790679D02*
X57779079Y-93212023D01*
G75*
G02*
X59111203Y-92049937I1247105J-85019D01*
G01*
X59111203Y-92049937D01*
G75*
G02*
X60273289Y-93382061I-85019J-1247105D01*
G01*
X60233841Y-93960717D01*
G75*
G02*
X58901717Y-95122803I-1247105J85019D01*
G01*
X58901717Y-95122803D01*
G75*
G02*
X57739631Y-93790679I85019J1247105D01*
G01*
G37*
G36*
G01*
X51572759Y-95133560D02*
X52781683Y-93235930D01*
G75*
G02*
X54507547Y-92853316I1054239J-671625D01*
G01*
X54507547Y-92853316D01*
G75*
G02*
X54890161Y-94579180I-671625J-1054239D01*
G01*
X53681237Y-96476810D01*
G75*
G02*
X51955373Y-96859424I-1054239J671625D01*
G01*
X51955373Y-96859424D01*
G75*
G02*
X51572759Y-95133560I671625J1054239D01*
G01*
G37*
D12*
X61566460Y-98376370D03*
X51406460Y-98376370D03*
D10*
X56486460Y-98376370D03*
%TD*%
%TO.C,K7*%
G36*
G01*
X52971471Y-74735633D02*
X53010919Y-74156977D01*
G75*
G02*
X54343043Y-72994891I1247105J-85019D01*
G01*
X54343043Y-72994891D01*
G75*
G02*
X55505129Y-74327015I-85019J-1247105D01*
G01*
X55465681Y-74905671D01*
G75*
G02*
X54133557Y-76067757I-1247105J85019D01*
G01*
X54133557Y-76067757D01*
G75*
G02*
X52971471Y-74735633I85019J1247105D01*
G01*
G37*
G36*
G01*
X46804599Y-76078514D02*
X48013523Y-74180884D01*
G75*
G02*
X49739387Y-73798270I1054239J-671625D01*
G01*
X49739387Y-73798270D01*
G75*
G02*
X50122001Y-75524134I-671625J-1054239D01*
G01*
X48913077Y-77421764D01*
G75*
G02*
X47187213Y-77804378I-1054239J671625D01*
G01*
X47187213Y-77804378D01*
G75*
G02*
X46804599Y-76078514I671625J1054239D01*
G01*
G37*
D12*
X56798300Y-79321324D03*
X46638300Y-79321324D03*
D10*
X51718300Y-79321324D03*
%TD*%
%TO.C,K6*%
G36*
G01*
X43746775Y-55683943D02*
X43786223Y-55105287D01*
G75*
G02*
X45118347Y-53943201I1247105J-85019D01*
G01*
X45118347Y-53943201D01*
G75*
G02*
X46280433Y-55275325I-85019J-1247105D01*
G01*
X46240985Y-55853981D01*
G75*
G02*
X44908861Y-57016067I-1247105J85019D01*
G01*
X44908861Y-57016067D01*
G75*
G02*
X43746775Y-55683943I85019J1247105D01*
G01*
G37*
G36*
G01*
X37579903Y-57026824D02*
X38788827Y-55129194D01*
G75*
G02*
X40514691Y-54746580I1054239J-671625D01*
G01*
X40514691Y-54746580D01*
G75*
G02*
X40897305Y-56472444I-671625J-1054239D01*
G01*
X39688381Y-58370074D01*
G75*
G02*
X37962517Y-58752688I-1054239J671625D01*
G01*
X37962517Y-58752688D01*
G75*
G02*
X37579903Y-57026824I671625J1054239D01*
G01*
G37*
D12*
X47573604Y-60269634D03*
X37413604Y-60269634D03*
D10*
X42493604Y-60269634D03*
%TD*%
%TO.C,K3*%
G36*
G01*
X31543574Y-93770182D02*
X31583022Y-93191526D01*
G75*
G02*
X32915146Y-92029440I1247105J-85019D01*
G01*
X32915146Y-92029440D01*
G75*
G02*
X34077232Y-93361564I-85019J-1247105D01*
G01*
X34037784Y-93940220D01*
G75*
G02*
X32705660Y-95102306I-1247105J85019D01*
G01*
X32705660Y-95102306D01*
G75*
G02*
X31543574Y-93770182I85019J1247105D01*
G01*
G37*
G36*
G01*
X25376702Y-95113063D02*
X26585626Y-93215433D01*
G75*
G02*
X28311490Y-92832819I1054239J-671625D01*
G01*
X28311490Y-92832819D01*
G75*
G02*
X28694104Y-94558683I-671625J-1054239D01*
G01*
X27485180Y-96456313D01*
G75*
G02*
X25759316Y-96838927I-1054239J671625D01*
G01*
X25759316Y-96838927D01*
G75*
G02*
X25376702Y-95113063I671625J1054239D01*
G01*
G37*
D12*
X35370403Y-98355873D03*
X25210403Y-98355873D03*
D10*
X30290403Y-98355873D03*
%TD*%
%TO.C,K2*%
G36*
G01*
X29165115Y-74721687D02*
X29204563Y-74143031D01*
G75*
G02*
X30536687Y-72980945I1247105J-85019D01*
G01*
X30536687Y-72980945D01*
G75*
G02*
X31698773Y-74313069I-85019J-1247105D01*
G01*
X31659325Y-74891725D01*
G75*
G02*
X30327201Y-76053811I-1247105J85019D01*
G01*
X30327201Y-76053811D01*
G75*
G02*
X29165115Y-74721687I85019J1247105D01*
G01*
G37*
G36*
G01*
X22998243Y-76064568D02*
X24207167Y-74166938D01*
G75*
G02*
X25933031Y-73784324I1054239J-671625D01*
G01*
X25933031Y-73784324D01*
G75*
G02*
X26315645Y-75510188I-671625J-1054239D01*
G01*
X25106721Y-77407818D01*
G75*
G02*
X23380857Y-77790432I-1054239J671625D01*
G01*
X23380857Y-77790432D01*
G75*
G02*
X22998243Y-76064568I671625J1054239D01*
G01*
G37*
D12*
X32991944Y-79307378D03*
X22831944Y-79307378D03*
D10*
X27911944Y-79307378D03*
%TD*%
%TO.C,K1*%
G36*
G01*
X24420618Y-55678067D02*
X24460066Y-55099411D01*
G75*
G02*
X25792190Y-53937325I1247105J-85019D01*
G01*
X25792190Y-53937325D01*
G75*
G02*
X26954276Y-55269449I-85019J-1247105D01*
G01*
X26914828Y-55848105D01*
G75*
G02*
X25582704Y-57010191I-1247105J85019D01*
G01*
X25582704Y-57010191D01*
G75*
G02*
X24420618Y-55678067I85019J1247105D01*
G01*
G37*
G36*
G01*
X18253746Y-57020948D02*
X19462670Y-55123318D01*
G75*
G02*
X21188534Y-54740704I1054239J-671625D01*
G01*
X21188534Y-54740704D01*
G75*
G02*
X21571148Y-56466568I-671625J-1054239D01*
G01*
X20362224Y-58364198D01*
G75*
G02*
X18636360Y-58746812I-1054239J671625D01*
G01*
X18636360Y-58746812D01*
G75*
G02*
X18253746Y-57020948I671625J1054239D01*
G01*
G37*
D12*
X28247447Y-60263758D03*
X18087447Y-60263758D03*
D10*
X23167447Y-60263758D03*
%TD*%
D13*
%TO.C,J1*%
X36650000Y-54600000D03*
X29350000Y-54600000D03*
%TD*%
D14*
%TO.C,D61*%
X283600000Y-140500000D03*
D15*
X291400000Y-140500000D03*
%TD*%
D14*
%TO.C,D60*%
X269350000Y-121500000D03*
D15*
X277150000Y-121500000D03*
%TD*%
D14*
%TO.C,D59*%
X281350000Y-83500000D03*
D15*
X289150000Y-83500000D03*
%TD*%
D14*
%TO.C,D58*%
X276600000Y-64500000D03*
D15*
X284400000Y-64500000D03*
%TD*%
D14*
%TO.C,D57*%
X259850000Y-140500000D03*
D15*
X267650000Y-140500000D03*
%TD*%
D14*
%TO.C,D56*%
X274100000Y-102500000D03*
D15*
X281900000Y-102500000D03*
%TD*%
D14*
%TO.C,D55*%
X257350000Y-83500000D03*
D15*
X265150000Y-83500000D03*
%TD*%
D14*
%TO.C,D54*%
X247850000Y-64500000D03*
D15*
X255650000Y-64500000D03*
%TD*%
D14*
%TO.C,D53*%
X236100000Y-140500000D03*
D15*
X243900000Y-140500000D03*
%TD*%
D14*
%TO.C,D52*%
X233600000Y-121500000D03*
D15*
X241400000Y-121500000D03*
%TD*%
D14*
%TO.C,D51*%
X243025000Y-102500000D03*
D15*
X250825000Y-102500000D03*
%TD*%
D14*
%TO.C,D50*%
X238275000Y-83500000D03*
D15*
X246075000Y-83500000D03*
%TD*%
D14*
%TO.C,D49*%
X228850000Y-64500000D03*
D15*
X236650000Y-64500000D03*
%TD*%
D14*
%TO.C,D48*%
X212100000Y-140500000D03*
D15*
X219900000Y-140500000D03*
%TD*%
D14*
%TO.C,D47*%
X214600000Y-121500000D03*
D15*
X222400000Y-121500000D03*
%TD*%
D14*
%TO.C,D46*%
X223775000Y-102500000D03*
D15*
X231575000Y-102500000D03*
%TD*%
D14*
%TO.C,D45*%
X219275000Y-83500000D03*
D15*
X227075000Y-83500000D03*
%TD*%
D14*
%TO.C,D44*%
X209850000Y-64500000D03*
D15*
X217650000Y-64500000D03*
%TD*%
D14*
%TO.C,D43*%
X195550000Y-121500000D03*
D15*
X203350000Y-121500000D03*
%TD*%
D14*
%TO.C,D42*%
X204850000Y-102500000D03*
D15*
X212650000Y-102500000D03*
%TD*%
D14*
%TO.C,D41*%
X200100000Y-83500000D03*
D15*
X207900000Y-83500000D03*
%TD*%
D14*
%TO.C,D40*%
X190850000Y-64500000D03*
D15*
X198650000Y-64500000D03*
%TD*%
D14*
%TO.C,D39*%
X176600000Y-121500000D03*
D15*
X184400000Y-121500000D03*
%TD*%
D14*
%TO.C,D38*%
X186100000Y-102500000D03*
D15*
X193900000Y-102500000D03*
%TD*%
D14*
%TO.C,D37*%
X181100000Y-83500000D03*
D15*
X188900000Y-83500000D03*
%TD*%
D14*
%TO.C,D36*%
X171600000Y-64500000D03*
D15*
X179400000Y-64500000D03*
%TD*%
D14*
%TO.C,D35*%
X157350000Y-121500000D03*
D15*
X165150000Y-121500000D03*
%TD*%
D14*
%TO.C,D34*%
X167100000Y-102500000D03*
D15*
X174900000Y-102500000D03*
%TD*%
D14*
%TO.C,D33*%
X162350000Y-83500000D03*
D15*
X170150000Y-83500000D03*
%TD*%
D14*
%TO.C,D32*%
X152850000Y-64500000D03*
D15*
X160650000Y-64500000D03*
%TD*%
D14*
%TO.C,D31*%
X140600000Y-140500000D03*
D15*
X148400000Y-140500000D03*
%TD*%
D14*
%TO.C,D30*%
X138350000Y-121500000D03*
D15*
X146150000Y-121500000D03*
%TD*%
D14*
%TO.C,D29*%
X147850000Y-102500000D03*
D15*
X155650000Y-102500000D03*
%TD*%
D14*
%TO.C,D28*%
X143100000Y-83500000D03*
D15*
X150900000Y-83500000D03*
%TD*%
D14*
%TO.C,D27*%
X133600000Y-64500000D03*
D15*
X141400000Y-64500000D03*
%TD*%
D14*
%TO.C,D26*%
X119350000Y-121500000D03*
D15*
X127150000Y-121500000D03*
%TD*%
D14*
%TO.C,D25*%
X128700000Y-102500000D03*
D15*
X136500000Y-102500000D03*
%TD*%
D14*
%TO.C,D24*%
X123850000Y-83500000D03*
D15*
X131650000Y-83500000D03*
%TD*%
D14*
%TO.C,D23*%
X114600000Y-64500000D03*
D15*
X122400000Y-64500000D03*
%TD*%
D14*
%TO.C,D22*%
X100100000Y-121500000D03*
D15*
X107900000Y-121500000D03*
%TD*%
D14*
%TO.C,D21*%
X109775000Y-102500000D03*
D15*
X117575000Y-102500000D03*
%TD*%
D14*
%TO.C,D20*%
X105025000Y-83500000D03*
D15*
X112825000Y-83500000D03*
%TD*%
D14*
%TO.C,D19*%
X95600000Y-64500000D03*
D15*
X103400000Y-64500000D03*
%TD*%
D14*
%TO.C,D18*%
X81100000Y-121500000D03*
D15*
X88900000Y-121500000D03*
%TD*%
D14*
%TO.C,D17*%
X90600000Y-102500000D03*
D15*
X98400000Y-102500000D03*
%TD*%
D14*
%TO.C,D16*%
X85850000Y-83500000D03*
D15*
X93650000Y-83500000D03*
%TD*%
D14*
%TO.C,D15*%
X76350000Y-64500000D03*
D15*
X84150000Y-64500000D03*
%TD*%
D14*
%TO.C,D14*%
X69350000Y-140500000D03*
D15*
X77150000Y-140500000D03*
%TD*%
D14*
%TO.C,D13*%
X62350000Y-121500000D03*
D15*
X70150000Y-121500000D03*
%TD*%
D14*
%TO.C,D12*%
X71600000Y-102500000D03*
D15*
X79400000Y-102500000D03*
%TD*%
D14*
%TO.C,D11*%
X67025000Y-83500000D03*
D15*
X74825000Y-83500000D03*
%TD*%
D14*
%TO.C,D10*%
X57350000Y-64500000D03*
D15*
X65150000Y-64500000D03*
%TD*%
D14*
%TO.C,D9*%
X45350000Y-140750000D03*
D15*
X53150000Y-140750000D03*
%TD*%
D14*
%TO.C,D8*%
X52650000Y-102500000D03*
D15*
X60450000Y-102500000D03*
%TD*%
D14*
%TO.C,D7*%
X47850000Y-83500000D03*
D15*
X55650000Y-83500000D03*
%TD*%
D14*
%TO.C,D6*%
X38600000Y-64500000D03*
D15*
X46400000Y-64500000D03*
%TD*%
D14*
%TO.C,D5*%
X21525000Y-140750000D03*
D15*
X29325000Y-140750000D03*
%TD*%
D14*
%TO.C,D4*%
X31150000Y-121750000D03*
D15*
X38950000Y-121750000D03*
%TD*%
D14*
%TO.C,D3*%
X26350000Y-102500000D03*
D15*
X34150000Y-102500000D03*
%TD*%
D14*
%TO.C,D2*%
X23850000Y-83500000D03*
D15*
X31650000Y-83500000D03*
%TD*%
D14*
%TO.C,D1*%
X19350000Y-64500000D03*
D15*
X27150000Y-64500000D03*
%TD*%
M02*
