%TF.GenerationSoftware,KiCad,Pcbnew,(5.1.10)-1*%
%TF.CreationDate,2022-03-05T23:42:07-05:00*%
%TF.ProjectId,Keebrov2,4b656562-726f-4763-922e-6b696361645f,rev?*%
%TF.SameCoordinates,Original*%
%TF.FileFunction,Paste,Bot*%
%TF.FilePolarity,Positive*%
%FSLAX46Y46*%
G04 Gerber Fmt 4.6, Leading zero omitted, Abs format (unit mm)*
G04 Created by KiCad (PCBNEW (5.1.10)-1) date 2022-03-05 23:42:07*
%MOMM*%
%LPD*%
G01*
G04 APERTURE LIST*
%ADD10C,0.100000*%
%ADD11R,1.500000X0.550000*%
%ADD12R,0.550000X1.500000*%
%ADD13R,1.700000X1.000000*%
%ADD14O,1.500000X4.000000*%
%ADD15R,0.500000X1.400000*%
%ADD16R,2.350000X0.800000*%
%ADD17R,1.200000X1.200000*%
G04 APERTURE END LIST*
D10*
%TO.C,X1*%
G36*
X176943943Y-134795792D02*
G01*
X178436210Y-133789245D01*
X179610515Y-135530224D01*
X178118248Y-136536771D01*
X176943943Y-134795792D01*
G37*
G36*
X180389485Y-135969776D02*
G01*
X181881752Y-134963229D01*
X183056057Y-136704208D01*
X181563790Y-137710755D01*
X180389485Y-135969776D01*
G37*
G36*
X178565602Y-137200001D02*
G01*
X180057869Y-136193454D01*
X181232174Y-137934433D01*
X179739907Y-138940980D01*
X178565602Y-137200001D01*
G37*
G36*
X178767826Y-133565567D02*
G01*
X180260093Y-132559020D01*
X181434398Y-134299999D01*
X179942131Y-135306546D01*
X178767826Y-133565567D01*
G37*
%TD*%
D11*
%TO.C,U1*%
X161050000Y-132500000D03*
X161050000Y-133300000D03*
X161050000Y-134100000D03*
X161050000Y-134900000D03*
X161050000Y-135700000D03*
X161050000Y-136500000D03*
X161050000Y-137300000D03*
X161050000Y-138100000D03*
X161050000Y-138900000D03*
X161050000Y-139700000D03*
X161050000Y-140500000D03*
D12*
X162750000Y-142200000D03*
X163550000Y-142200000D03*
X164350000Y-142200000D03*
X165150000Y-142200000D03*
X165950000Y-142200000D03*
X166750000Y-142200000D03*
X167550000Y-142200000D03*
X168350000Y-142200000D03*
X169150000Y-142200000D03*
X169950000Y-142200000D03*
X170750000Y-142200000D03*
D11*
X172450000Y-140500000D03*
X172450000Y-139700000D03*
X172450000Y-138900000D03*
X172450000Y-138100000D03*
X172450000Y-137300000D03*
X172450000Y-136500000D03*
X172450000Y-135700000D03*
X172450000Y-134900000D03*
X172450000Y-134100000D03*
X172450000Y-133300000D03*
X172450000Y-132500000D03*
D12*
X170750000Y-130800000D03*
X169950000Y-130800000D03*
X169150000Y-130800000D03*
X168350000Y-130800000D03*
X167550000Y-130800000D03*
X166750000Y-130800000D03*
X165950000Y-130800000D03*
X165150000Y-130800000D03*
X164350000Y-130800000D03*
X163550000Y-130800000D03*
X162750000Y-130800000D03*
%TD*%
D13*
%TO.C,SW1*%
X187100000Y-137150000D03*
X193400000Y-137150000D03*
X187100000Y-133350000D03*
X193400000Y-133350000D03*
%TD*%
%TO.C,R4*%
G36*
G01*
X39100000Y-75549999D02*
X39100000Y-76450001D01*
G75*
G02*
X38850001Y-76700000I-249999J0D01*
G01*
X38149999Y-76700000D01*
G75*
G02*
X37900000Y-76450001I0J249999D01*
G01*
X37900000Y-75549999D01*
G75*
G02*
X38149999Y-75300000I249999J0D01*
G01*
X38850001Y-75300000D01*
G75*
G02*
X39100000Y-75549999I0J-249999D01*
G01*
G37*
G36*
G01*
X41100000Y-75549999D02*
X41100000Y-76450001D01*
G75*
G02*
X40850001Y-76700000I-249999J0D01*
G01*
X40149999Y-76700000D01*
G75*
G02*
X39900000Y-76450001I0J249999D01*
G01*
X39900000Y-75549999D01*
G75*
G02*
X40149999Y-75300000I249999J0D01*
G01*
X40850001Y-75300000D01*
G75*
G02*
X41100000Y-75549999I0J-249999D01*
G01*
G37*
%TD*%
%TO.C,R3*%
G36*
G01*
X39100000Y-78549999D02*
X39100000Y-79450001D01*
G75*
G02*
X38850001Y-79700000I-249999J0D01*
G01*
X38149999Y-79700000D01*
G75*
G02*
X37900000Y-79450001I0J249999D01*
G01*
X37900000Y-78549999D01*
G75*
G02*
X38149999Y-78300000I249999J0D01*
G01*
X38850001Y-78300000D01*
G75*
G02*
X39100000Y-78549999I0J-249999D01*
G01*
G37*
G36*
G01*
X41100000Y-78549999D02*
X41100000Y-79450001D01*
G75*
G02*
X40850001Y-79700000I-249999J0D01*
G01*
X40149999Y-79700000D01*
G75*
G02*
X39900000Y-79450001I0J249999D01*
G01*
X39900000Y-78549999D01*
G75*
G02*
X40149999Y-78300000I249999J0D01*
G01*
X40850001Y-78300000D01*
G75*
G02*
X41100000Y-78549999I0J-249999D01*
G01*
G37*
%TD*%
%TO.C,R2*%
G36*
G01*
X156400000Y-142700001D02*
X156400000Y-141799999D01*
G75*
G02*
X156649999Y-141550000I249999J0D01*
G01*
X157350001Y-141550000D01*
G75*
G02*
X157600000Y-141799999I0J-249999D01*
G01*
X157600000Y-142700001D01*
G75*
G02*
X157350001Y-142950000I-249999J0D01*
G01*
X156649999Y-142950000D01*
G75*
G02*
X156400000Y-142700001I0J249999D01*
G01*
G37*
G36*
G01*
X154400000Y-142700001D02*
X154400000Y-141799999D01*
G75*
G02*
X154649999Y-141550000I249999J0D01*
G01*
X155350001Y-141550000D01*
G75*
G02*
X155600000Y-141799999I0J-249999D01*
G01*
X155600000Y-142700001D01*
G75*
G02*
X155350001Y-142950000I-249999J0D01*
G01*
X154649999Y-142950000D01*
G75*
G02*
X154400000Y-142700001I0J249999D01*
G01*
G37*
%TD*%
%TO.C,R1*%
G36*
G01*
X172850000Y-126049999D02*
X172850000Y-126950001D01*
G75*
G02*
X172600001Y-127200000I-249999J0D01*
G01*
X171899999Y-127200000D01*
G75*
G02*
X171650000Y-126950001I0J249999D01*
G01*
X171650000Y-126049999D01*
G75*
G02*
X171899999Y-125800000I249999J0D01*
G01*
X172600001Y-125800000D01*
G75*
G02*
X172850000Y-126049999I0J-249999D01*
G01*
G37*
G36*
G01*
X174850000Y-126049999D02*
X174850000Y-126950001D01*
G75*
G02*
X174600001Y-127200000I-249999J0D01*
G01*
X173899999Y-127200000D01*
G75*
G02*
X173650000Y-126950001I0J249999D01*
G01*
X173650000Y-126049999D01*
G75*
G02*
X173899999Y-125800000I249999J0D01*
G01*
X174600001Y-125800000D01*
G75*
G02*
X174850000Y-126049999I0J-249999D01*
G01*
G37*
%TD*%
D14*
%TO.C,J1*%
X36650000Y-54600000D03*
X29350000Y-54600000D03*
D15*
X34600000Y-57000000D03*
X33800000Y-57000000D03*
X33000000Y-57000000D03*
X32200000Y-57000000D03*
X31400000Y-57000000D03*
D16*
X30325000Y-51800000D03*
X35675000Y-51800000D03*
%TD*%
D17*
%TO.C,D61*%
X289075000Y-140500000D03*
X285925000Y-140500000D03*
%TD*%
%TO.C,D60*%
X274825000Y-121500000D03*
X271675000Y-121500000D03*
%TD*%
%TO.C,D59*%
X286825000Y-83500000D03*
X283675000Y-83500000D03*
%TD*%
%TO.C,D58*%
X282075000Y-64500000D03*
X278925000Y-64500000D03*
%TD*%
%TO.C,D57*%
X265325000Y-140500000D03*
X262175000Y-140500000D03*
%TD*%
%TO.C,D56*%
X279575000Y-102500000D03*
X276425000Y-102500000D03*
%TD*%
%TO.C,D55*%
X262825000Y-83500000D03*
X259675000Y-83500000D03*
%TD*%
%TO.C,D54*%
X253325000Y-64500000D03*
X250175000Y-64500000D03*
%TD*%
%TO.C,D53*%
X241575000Y-140500000D03*
X238425000Y-140500000D03*
%TD*%
%TO.C,D52*%
X239075000Y-121500000D03*
X235925000Y-121500000D03*
%TD*%
%TO.C,D51*%
X248500000Y-102500000D03*
X245350000Y-102500000D03*
%TD*%
%TO.C,D50*%
X243750000Y-83500000D03*
X240600000Y-83500000D03*
%TD*%
%TO.C,D49*%
X234325000Y-64500000D03*
X231175000Y-64500000D03*
%TD*%
%TO.C,D48*%
X217575000Y-140500000D03*
X214425000Y-140500000D03*
%TD*%
%TO.C,D47*%
X220075000Y-121500000D03*
X216925000Y-121500000D03*
%TD*%
%TO.C,D46*%
X229250000Y-102500000D03*
X226100000Y-102500000D03*
%TD*%
%TO.C,D45*%
X224750000Y-83500000D03*
X221600000Y-83500000D03*
%TD*%
%TO.C,D44*%
X215325000Y-64500000D03*
X212175000Y-64500000D03*
%TD*%
%TO.C,D43*%
X201025000Y-121500000D03*
X197875000Y-121500000D03*
%TD*%
%TO.C,D42*%
X210325000Y-102500000D03*
X207175000Y-102500000D03*
%TD*%
%TO.C,D41*%
X205575000Y-83500000D03*
X202425000Y-83500000D03*
%TD*%
%TO.C,D40*%
X196325000Y-64500000D03*
X193175000Y-64500000D03*
%TD*%
%TO.C,D39*%
X182075000Y-121500000D03*
X178925000Y-121500000D03*
%TD*%
%TO.C,D38*%
X191575000Y-102500000D03*
X188425000Y-102500000D03*
%TD*%
%TO.C,D37*%
X186575000Y-83500000D03*
X183425000Y-83500000D03*
%TD*%
%TO.C,D36*%
X177075000Y-64500000D03*
X173925000Y-64500000D03*
%TD*%
%TO.C,D35*%
X162825000Y-121500000D03*
X159675000Y-121500000D03*
%TD*%
%TO.C,D34*%
X172575000Y-102500000D03*
X169425000Y-102500000D03*
%TD*%
%TO.C,D33*%
X167825000Y-83500000D03*
X164675000Y-83500000D03*
%TD*%
%TO.C,D32*%
X158325000Y-64500000D03*
X155175000Y-64500000D03*
%TD*%
%TO.C,D31*%
X146075000Y-140500000D03*
X142925000Y-140500000D03*
%TD*%
%TO.C,D30*%
X143825000Y-121500000D03*
X140675000Y-121500000D03*
%TD*%
%TO.C,D29*%
X153325000Y-102500000D03*
X150175000Y-102500000D03*
%TD*%
%TO.C,D28*%
X148575000Y-83500000D03*
X145425000Y-83500000D03*
%TD*%
%TO.C,D27*%
X139075000Y-64500000D03*
X135925000Y-64500000D03*
%TD*%
%TO.C,D26*%
X124825000Y-121500000D03*
X121675000Y-121500000D03*
%TD*%
%TO.C,D25*%
X134175000Y-102500000D03*
X131025000Y-102500000D03*
%TD*%
%TO.C,D24*%
X129325000Y-83500000D03*
X126175000Y-83500000D03*
%TD*%
%TO.C,D23*%
X120075000Y-64500000D03*
X116925000Y-64500000D03*
%TD*%
%TO.C,D22*%
X105575000Y-121500000D03*
X102425000Y-121500000D03*
%TD*%
%TO.C,D21*%
X115250000Y-102500000D03*
X112100000Y-102500000D03*
%TD*%
%TO.C,D20*%
X110500000Y-83500000D03*
X107350000Y-83500000D03*
%TD*%
%TO.C,D19*%
X101075000Y-64500000D03*
X97925000Y-64500000D03*
%TD*%
%TO.C,D18*%
X86575000Y-121500000D03*
X83425000Y-121500000D03*
%TD*%
%TO.C,D17*%
X96075000Y-102500000D03*
X92925000Y-102500000D03*
%TD*%
%TO.C,D16*%
X91325000Y-83500000D03*
X88175000Y-83500000D03*
%TD*%
%TO.C,D15*%
X81825000Y-64500000D03*
X78675000Y-64500000D03*
%TD*%
%TO.C,D14*%
X74825000Y-140500000D03*
X71675000Y-140500000D03*
%TD*%
%TO.C,D13*%
X67825000Y-121500000D03*
X64675000Y-121500000D03*
%TD*%
%TO.C,D12*%
X77075000Y-102500000D03*
X73925000Y-102500000D03*
%TD*%
%TO.C,D11*%
X72500000Y-83500000D03*
X69350000Y-83500000D03*
%TD*%
%TO.C,D10*%
X62825000Y-64500000D03*
X59675000Y-64500000D03*
%TD*%
%TO.C,D9*%
X50825000Y-140750000D03*
X47675000Y-140750000D03*
%TD*%
%TO.C,D8*%
X58125000Y-102500000D03*
X54975000Y-102500000D03*
%TD*%
%TO.C,D7*%
X53325000Y-83500000D03*
X50175000Y-83500000D03*
%TD*%
%TO.C,D6*%
X44075000Y-64500000D03*
X40925000Y-64500000D03*
%TD*%
%TO.C,D5*%
X27000000Y-140750000D03*
X23850000Y-140750000D03*
%TD*%
%TO.C,D4*%
X36625000Y-121750000D03*
X33475000Y-121750000D03*
%TD*%
%TO.C,D3*%
X31825000Y-102500000D03*
X28675000Y-102500000D03*
%TD*%
%TO.C,D2*%
X29325000Y-83500000D03*
X26175000Y-83500000D03*
%TD*%
%TO.C,D1*%
X24825000Y-64500000D03*
X21675000Y-64500000D03*
%TD*%
%TO.C,C8*%
G36*
G01*
X165337500Y-126025000D02*
X165337500Y-126975000D01*
G75*
G02*
X165087500Y-127225000I-250000J0D01*
G01*
X164412500Y-127225000D01*
G75*
G02*
X164162500Y-126975000I0J250000D01*
G01*
X164162500Y-126025000D01*
G75*
G02*
X164412500Y-125775000I250000J0D01*
G01*
X165087500Y-125775000D01*
G75*
G02*
X165337500Y-126025000I0J-250000D01*
G01*
G37*
G36*
G01*
X167412500Y-126025000D02*
X167412500Y-126975000D01*
G75*
G02*
X167162500Y-127225000I-250000J0D01*
G01*
X166487500Y-127225000D01*
G75*
G02*
X166237500Y-126975000I0J250000D01*
G01*
X166237500Y-126025000D01*
G75*
G02*
X166487500Y-125775000I250000J0D01*
G01*
X167162500Y-125775000D01*
G75*
G02*
X167412500Y-126025000I0J-250000D01*
G01*
G37*
%TD*%
%TO.C,C7*%
G36*
G01*
X113775000Y-131912500D02*
X114725000Y-131912500D01*
G75*
G02*
X114975000Y-132162500I0J-250000D01*
G01*
X114975000Y-132837500D01*
G75*
G02*
X114725000Y-133087500I-250000J0D01*
G01*
X113775000Y-133087500D01*
G75*
G02*
X113525000Y-132837500I0J250000D01*
G01*
X113525000Y-132162500D01*
G75*
G02*
X113775000Y-131912500I250000J0D01*
G01*
G37*
G36*
G01*
X113775000Y-129837500D02*
X114725000Y-129837500D01*
G75*
G02*
X114975000Y-130087500I0J-250000D01*
G01*
X114975000Y-130762500D01*
G75*
G02*
X114725000Y-131012500I-250000J0D01*
G01*
X113775000Y-131012500D01*
G75*
G02*
X113525000Y-130762500I0J250000D01*
G01*
X113525000Y-130087500D01*
G75*
G02*
X113775000Y-129837500I250000J0D01*
G01*
G37*
%TD*%
%TO.C,C6*%
G36*
G01*
X117025000Y-131912500D02*
X117975000Y-131912500D01*
G75*
G02*
X118225000Y-132162500I0J-250000D01*
G01*
X118225000Y-132837500D01*
G75*
G02*
X117975000Y-133087500I-250000J0D01*
G01*
X117025000Y-133087500D01*
G75*
G02*
X116775000Y-132837500I0J250000D01*
G01*
X116775000Y-132162500D01*
G75*
G02*
X117025000Y-131912500I250000J0D01*
G01*
G37*
G36*
G01*
X117025000Y-129837500D02*
X117975000Y-129837500D01*
G75*
G02*
X118225000Y-130087500I0J-250000D01*
G01*
X118225000Y-130762500D01*
G75*
G02*
X117975000Y-131012500I-250000J0D01*
G01*
X117025000Y-131012500D01*
G75*
G02*
X116775000Y-130762500I0J250000D01*
G01*
X116775000Y-130087500D01*
G75*
G02*
X117025000Y-129837500I250000J0D01*
G01*
G37*
%TD*%
%TO.C,C5*%
G36*
G01*
X120275000Y-131912500D02*
X121225000Y-131912500D01*
G75*
G02*
X121475000Y-132162500I0J-250000D01*
G01*
X121475000Y-132837500D01*
G75*
G02*
X121225000Y-133087500I-250000J0D01*
G01*
X120275000Y-133087500D01*
G75*
G02*
X120025000Y-132837500I0J250000D01*
G01*
X120025000Y-132162500D01*
G75*
G02*
X120275000Y-131912500I250000J0D01*
G01*
G37*
G36*
G01*
X120275000Y-129837500D02*
X121225000Y-129837500D01*
G75*
G02*
X121475000Y-130087500I0J-250000D01*
G01*
X121475000Y-130762500D01*
G75*
G02*
X121225000Y-131012500I-250000J0D01*
G01*
X120275000Y-131012500D01*
G75*
G02*
X120025000Y-130762500I0J250000D01*
G01*
X120025000Y-130087500D01*
G75*
G02*
X120275000Y-129837500I250000J0D01*
G01*
G37*
%TD*%
%TO.C,C4*%
G36*
G01*
X123525000Y-131912500D02*
X124475000Y-131912500D01*
G75*
G02*
X124725000Y-132162500I0J-250000D01*
G01*
X124725000Y-132837500D01*
G75*
G02*
X124475000Y-133087500I-250000J0D01*
G01*
X123525000Y-133087500D01*
G75*
G02*
X123275000Y-132837500I0J250000D01*
G01*
X123275000Y-132162500D01*
G75*
G02*
X123525000Y-131912500I250000J0D01*
G01*
G37*
G36*
G01*
X123525000Y-129837500D02*
X124475000Y-129837500D01*
G75*
G02*
X124725000Y-130087500I0J-250000D01*
G01*
X124725000Y-130762500D01*
G75*
G02*
X124475000Y-131012500I-250000J0D01*
G01*
X123525000Y-131012500D01*
G75*
G02*
X123275000Y-130762500I0J250000D01*
G01*
X123275000Y-130087500D01*
G75*
G02*
X123525000Y-129837500I250000J0D01*
G01*
G37*
%TD*%
%TO.C,C3*%
G36*
G01*
X126775000Y-131912500D02*
X127725000Y-131912500D01*
G75*
G02*
X127975000Y-132162500I0J-250000D01*
G01*
X127975000Y-132837500D01*
G75*
G02*
X127725000Y-133087500I-250000J0D01*
G01*
X126775000Y-133087500D01*
G75*
G02*
X126525000Y-132837500I0J250000D01*
G01*
X126525000Y-132162500D01*
G75*
G02*
X126775000Y-131912500I250000J0D01*
G01*
G37*
G36*
G01*
X126775000Y-129837500D02*
X127725000Y-129837500D01*
G75*
G02*
X127975000Y-130087500I0J-250000D01*
G01*
X127975000Y-130762500D01*
G75*
G02*
X127725000Y-131012500I-250000J0D01*
G01*
X126775000Y-131012500D01*
G75*
G02*
X126525000Y-130762500I0J250000D01*
G01*
X126525000Y-130087500D01*
G75*
G02*
X126775000Y-129837500I250000J0D01*
G01*
G37*
%TD*%
%TO.C,C2*%
G36*
G01*
X180487500Y-141475000D02*
X180487500Y-140525000D01*
G75*
G02*
X180737500Y-140275000I250000J0D01*
G01*
X181412500Y-140275000D01*
G75*
G02*
X181662500Y-140525000I0J-250000D01*
G01*
X181662500Y-141475000D01*
G75*
G02*
X181412500Y-141725000I-250000J0D01*
G01*
X180737500Y-141725000D01*
G75*
G02*
X180487500Y-141475000I0J250000D01*
G01*
G37*
G36*
G01*
X178412500Y-141475000D02*
X178412500Y-140525000D01*
G75*
G02*
X178662500Y-140275000I250000J0D01*
G01*
X179337500Y-140275000D01*
G75*
G02*
X179587500Y-140525000I0J-250000D01*
G01*
X179587500Y-141475000D01*
G75*
G02*
X179337500Y-141725000I-250000J0D01*
G01*
X178662500Y-141725000D01*
G75*
G02*
X178412500Y-141475000I0J250000D01*
G01*
G37*
%TD*%
%TO.C,C1*%
G36*
G01*
X180450000Y-130725000D02*
X180450000Y-129775000D01*
G75*
G02*
X180700000Y-129525000I250000J0D01*
G01*
X181375000Y-129525000D01*
G75*
G02*
X181625000Y-129775000I0J-250000D01*
G01*
X181625000Y-130725000D01*
G75*
G02*
X181375000Y-130975000I-250000J0D01*
G01*
X180700000Y-130975000D01*
G75*
G02*
X180450000Y-130725000I0J250000D01*
G01*
G37*
G36*
G01*
X178375000Y-130725000D02*
X178375000Y-129775000D01*
G75*
G02*
X178625000Y-129525000I250000J0D01*
G01*
X179300000Y-129525000D01*
G75*
G02*
X179550000Y-129775000I0J-250000D01*
G01*
X179550000Y-130725000D01*
G75*
G02*
X179300000Y-130975000I-250000J0D01*
G01*
X178625000Y-130975000D01*
G75*
G02*
X178375000Y-130725000I0J250000D01*
G01*
G37*
%TD*%
M02*
